G04 Layer: BottomLayer*
G04 EasyEDA Pro v3.2.121, 2026-05-25 04:57:40*
G04 Gerber Generator version 0.3*
G04 Scale: 100 percent, Rotated: No, Reflected: No*
G04 Dimensions in millimeters*
G04 Leading zeros omitted, absolute positions, 4 integers and 5 decimals*
G04 Generated by one-click*
%FSLAX45Y45*%
%MOMM*%
%ADD10C,0.2032*%
%ADD11C,0.254*%
%ADD12R,1.7X1.7*%
%ADD13C,1.7*%
%ADD14R,0.80648X0.86401*%
%ADD15O,2.0X1.1*%
%ADD16O,1.8X1.2*%
%ADD17C,3.2*%
%ADD18C,0.61*%
%ADD19C,0.8041*%
%ADD20C,0.8*%
%ADD21C,0.5334*%
G75*


G04 Copper Start*
G36*
G01X328827Y-328969D02*
G01X347028Y-308160D01*
G01X362117Y-284994D01*
G01X373793Y-259935D01*
G01X381823Y-233480D01*
G01X386048Y-206159D01*
G01X386383Y-178515D01*
G01X382821Y-151099D01*
G01X375433Y-124458D01*
G01X364368Y-99123D01*
G01X349844Y-75599D01*
G01X332153Y-54355D01*
G01X311645Y-35814D01*
G01X4695947Y-35814D01*
G01X4675333Y-52836D01*
G01X4657229Y-72507D01*
G01X4641974Y-94460D01*
G01X4629851Y-118287D01*
G01X4621086Y-143543D01*
G01X4615843Y-169757D01*
G01X4614219Y-196442D01*
G01X4616246Y-223098D01*
G01X4621884Y-249231D01*
G01X4631029Y-274351D01*
G01X4643510Y-297992D01*
G01X4659095Y-319713D01*
G01X4677494Y-339109D01*
G01X4698362Y-355817D01*
G01X4721312Y-369528D01*
G01X4745916Y-379985D01*
G01X4771715Y-386993D01*
G01X4798227Y-390422D01*
G01X4778274Y-397013D01*
G01X4759765Y-406961D01*
G01X4743259Y-419966D01*
G01X4729257Y-435635D01*
G01X4718181Y-453493D01*
G01X4710367Y-473000D01*
G01X4706052Y-493565D01*
G01X4705365Y-514568D01*
G01X4708328Y-535371D01*
G01X4714850Y-555347D01*
G01X4724736Y-573890D01*
G01X4737685Y-590440D01*
G01X4753305Y-604496D01*
G01X4771125Y-615633D01*
G01X4790605Y-623513D01*
G01X4811156Y-627898D01*
G01X4832156Y-628657D01*
G01X4852970Y-625765D01*
G01X4872968Y-619310D01*
G01X4891545Y-609488D01*
G01X4908138Y-596596D01*
G01X4922247Y-581023D01*
G01X4933445Y-563241D01*
G01X4941391Y-543788D01*
G01X4945847Y-523253D01*
G01X4946677Y-502255D01*
G01X4943856Y-481432D01*
G01X4937470Y-461412D01*
G01X4927711Y-442802D01*
G01X4914876Y-426164D01*
G01X4899351Y-412002D01*
G01X4881608Y-400744D01*
G01X4862182Y-392731D01*
G01X4841661Y-388206D01*
G01X4865322Y-382808D01*
G01X4888134Y-374526D01*
G01X4909746Y-363485D01*
G01X4929826Y-349856D01*
G01X4948066Y-333847D01*
G01X4964186Y-315705D01*
G01X4964186Y-2689287D01*
G01X4945691Y-2668823D01*
G01X4924504Y-2651162D01*
G01X4901045Y-2636653D01*
G01X4875780Y-2625584D01*
G01X4849211Y-2618174D01*
G01X4821864Y-2614572D01*
G01X4794282Y-2614848D01*
G01X4767013Y-2618997D01*
G01X4740598Y-2626936D01*
G01X4715560Y-2638509D01*
G01X4692396Y-2653485D01*
G01X4671567Y-2671567D01*
G01X4653485Y-2692396D01*
G01X4638509Y-2715560D01*
G01X4626936Y-2740598D01*
G01X4618997Y-2767013D01*
G01X4614848Y-2794283D01*
G01X4614572Y-2821864D01*
G01X4618174Y-2849211D01*
G01X4625583Y-2875780D01*
G01X4636652Y-2901045D01*
G01X4651162Y-2924504D01*
G01X4668823Y-2945691D01*
G01X4689287Y-2964186D01*
G01X4621611Y-2964186D01*
G01X4629821Y-2948832D01*
G01X4634310Y-2932009D01*
G01X4634844Y-2914606D01*
G01X4631393Y-2897541D01*
G01X4624140Y-2881712D01*
G01X4613467Y-2867956D01*
G01X4599937Y-2856997D01*
G01X4584264Y-2849414D01*
G01X4567274Y-2845607D01*
G01X4549864Y-2845776D01*
G01X4532951Y-2849912D01*
G01X4517428Y-2857798D01*
G01X4511942Y-2858278D01*
G01X4504287Y-2858516D01*
G01X4356582Y-2858516D01*
G01X4304284Y-2806218D01*
G01X4304284Y-2157984D01*
G01X4737100Y-2157984D01*
G01X4749290Y-2156783D01*
G01X4761012Y-2153228D01*
G01X4771814Y-2147454D01*
G01X4781283Y-2139683D01*
G01X4870183Y-2050783D01*
G01X4877954Y-2041314D01*
G01X4883728Y-2030512D01*
G01X4887283Y-2018790D01*
G01X4888484Y-2006600D01*
G01X4888484Y-1435010D01*
G01X4889637Y-1422896D01*
G01X4893056Y-1411218D01*
G01X4898616Y-1400394D01*
G01X4906119Y-1390814D01*
G01X4911000Y-1390814D01*
G01X4922067Y-1389061D01*
G01X4932051Y-1383974D01*
G01X4939974Y-1376051D01*
G01X4945061Y-1366067D01*
G01X4946814Y-1355000D01*
G01X4946814Y-1185000D01*
G01X4945061Y-1173933D01*
G01X4939974Y-1163949D01*
G01X4932051Y-1156026D01*
G01X4922067Y-1150939D01*
G01X4911000Y-1149186D01*
G01X4741000Y-1149186D01*
G01X4729933Y-1150939D01*
G01X4719949Y-1156026D01*
G01X4712026Y-1163949D01*
G01X4706939Y-1173933D01*
G01X4705186Y-1185000D01*
G01X4705186Y-1355000D01*
G01X4706939Y-1366067D01*
G01X4712026Y-1376051D01*
G01X4719949Y-1383974D01*
G01X4729933Y-1389061D01*
G01X4741000Y-1390814D01*
G01X4745881Y-1390814D01*
G01X4753384Y-1400394D01*
G01X4758944Y-1411218D01*
G01X4762363Y-1422896D01*
G01X4763516Y-1435010D01*
G01X4763516Y-1980718D01*
G01X4711218Y-2033016D01*
G01X4296813Y-2033016D01*
G01X4289158Y-2032778D01*
G01X4283672Y-2032298D01*
G01X4275048Y-2027365D01*
G01X4284004Y-2020305D01*
G01X4355152Y-1949157D01*
G01X4362862Y-1939109D01*
G01X4367709Y-1927409D01*
G01X4369362Y-1914852D01*
G01X4369362Y-1118361D01*
G01X4423209Y-1064514D01*
G01X4697529Y-1064514D01*
G01X4706131Y-1071812D01*
G01X4746191Y-1106700D01*
G01X4763340Y-1119294D01*
G01X4782432Y-1128684D01*
G01X4802875Y-1134580D01*
G01X4824036Y-1136798D01*
G01X4845258Y-1135269D01*
G01X4865882Y-1130041D01*
G01X4885269Y-1121276D01*
G01X4902819Y-1109246D01*
G01X4917985Y-1094324D01*
G01X4930299Y-1076973D01*
G01X4939378Y-1057731D01*
G01X4944940Y-1037194D01*
G01X4946814Y-1016000D01*
G01X4944940Y-994806D01*
G01X4939378Y-974269D01*
G01X4930299Y-955027D01*
G01X4917985Y-937676D01*
G01X4902819Y-922754D01*
G01X4885269Y-910724D01*
G01X4865882Y-901959D01*
G01X4845258Y-896731D01*
G01X4824036Y-895202D01*
G01X4802875Y-897420D01*
G01X4782432Y-903316D01*
G01X4763340Y-912706D01*
G01X4746191Y-925300D01*
G01X4706131Y-960188D01*
G01X4697529Y-967486D01*
G01X4403114Y-967486D01*
G01X4390557Y-969139D01*
G01X4378857Y-973986D01*
G01X4368809Y-981695D01*
G01X4286543Y-1063961D01*
G01X4278833Y-1074009D01*
G01X4273987Y-1085710D01*
G01X4272334Y-1098266D01*
G01X4272334Y-1894757D01*
G01X4229604Y-1937487D01*
G01X2382956Y-1937487D01*
G01X2381383Y-1936621D01*
G01X2379227Y-1935035D01*
G01X2367196Y-1927063D01*
G01X2353725Y-1921883D01*
G01X2339452Y-1919740D01*
G01X2325053Y-1920735D01*
G01X2311211Y-1924822D01*
G01X2298581Y-1931808D01*
G01X2287762Y-1941360D01*
G01X2279265Y-1953027D01*
G01X2273494Y-1966256D01*
G01X2270721Y-1980420D01*
G01X2271079Y-1994848D01*
G01X2274550Y-2008858D01*
G01X2280969Y-2021784D01*
G01X2290033Y-2033016D01*
G01X1803882Y-2033016D01*
G01X1764284Y-1993418D01*
G01X1764284Y-1836014D01*
G01X2270486Y-1836014D01*
G01X2272180Y-1850906D01*
G01X2277175Y-1865037D01*
G01X2285215Y-1877686D01*
G01X2295891Y-1888206D01*
G01X2308657Y-1896060D01*
G01X2322861Y-1900846D01*
G01X2337776Y-1902320D01*
G01X2352642Y-1900408D01*
G01X2366698Y-1895205D01*
G01X2379227Y-1886979D01*
G01X2381383Y-1885393D01*
G01X2382956Y-1884528D01*
G01X4082186Y-1884528D01*
G01X4094743Y-1882875D01*
G01X4106443Y-1878028D01*
G01X4116491Y-1870318D01*
G01X4187205Y-1799605D01*
G01X4194914Y-1789557D01*
G01X4199761Y-1777856D01*
G01X4201414Y-1765300D01*
G01X4201414Y-870995D01*
G01X4261895Y-810514D01*
G01X4697529Y-810514D01*
G01X4706131Y-817812D01*
G01X4746191Y-852700D01*
G01X4763340Y-865294D01*
G01X4782432Y-874684D01*
G01X4802875Y-880580D01*
G01X4824036Y-882798D01*
G01X4845258Y-881269D01*
G01X4865882Y-876041D01*
G01X4885269Y-867276D01*
G01X4902819Y-855246D01*
G01X4917985Y-840324D01*
G01X4930299Y-822973D01*
G01X4939378Y-803731D01*
G01X4944940Y-783194D01*
G01X4946814Y-762000D01*
G01X4944940Y-740806D01*
G01X4939378Y-720269D01*
G01X4930299Y-701027D01*
G01X4917985Y-683676D01*
G01X4902819Y-668754D01*
G01X4885269Y-656724D01*
G01X4865882Y-647959D01*
G01X4845258Y-642731D01*
G01X4824036Y-641202D01*
G01X4802875Y-643420D01*
G01X4782432Y-649316D01*
G01X4763340Y-658706D01*
G01X4746191Y-671300D01*
G01X4706131Y-706188D01*
G01X4697529Y-713486D01*
G01X4241800Y-713486D01*
G01X4229244Y-715139D01*
G01X4217543Y-719986D01*
G01X4207495Y-727695D01*
G01X4118595Y-816595D01*
G01X4110886Y-826643D01*
G01X4106039Y-838344D01*
G01X4104386Y-850900D01*
G01X4104386Y-1745205D01*
G01X4062091Y-1787500D01*
G01X2382956Y-1787500D01*
G01X2382956Y-1787500D01*
G01X2381383Y-1786634D01*
G01X2379227Y-1785048D01*
G01X2366698Y-1776822D01*
G01X2352642Y-1771620D01*
G01X2337776Y-1769707D01*
G01X2322861Y-1771181D01*
G01X2308657Y-1775967D01*
G01X2295891Y-1783821D01*
G01X2285215Y-1794341D01*
G01X2277175Y-1806990D01*
G01X2272180Y-1821121D01*
G01X2270486Y-1836014D01*
G01X1764284Y-1836014D01*
G01X1764284Y-1688084D01*
G01X3759200Y-1688084D01*
G01X3771390Y-1686883D01*
G01X3783112Y-1683328D01*
G01X3793914Y-1677554D01*
G01X3803383Y-1669783D01*
G01X3917683Y-1555483D01*
G01X3925454Y-1546014D01*
G01X3931228Y-1535212D01*
G01X3934783Y-1523490D01*
G01X3935984Y-1511300D01*
G01X3935984Y-1426613D01*
G01X3936222Y-1418958D01*
G01X3936702Y-1413472D01*
G01X3943619Y-1400429D01*
G01X3947876Y-1386293D01*
G01X3949314Y-1371600D01*
G01X3947876Y-1356907D01*
G01X3943619Y-1342771D01*
G01X3936702Y-1329728D01*
G01X3936222Y-1324242D01*
G01X3935984Y-1316587D01*
G01X3935984Y-561340D01*
G01X3934783Y-549150D01*
G01X3931228Y-537428D01*
G01X3925454Y-526626D01*
G01X3917683Y-517157D01*
G01X3864343Y-463817D01*
G01X3854874Y-456046D01*
G01X3844072Y-450272D01*
G01X3832350Y-446717D01*
G01X3820160Y-445516D01*
G01X2785513Y-445516D01*
G01X2777858Y-445278D01*
G01X2772372Y-444798D01*
G01X2756973Y-436958D01*
G01X2740199Y-432809D01*
G01X2722921Y-432566D01*
G01X2706036Y-436242D01*
G01X2690423Y-443645D01*
G01X2676891Y-454391D01*
G01X2666145Y-467923D01*
G01X2658742Y-483536D01*
G01X2655066Y-500421D01*
G01X2655309Y-517699D01*
G01X2659458Y-534473D01*
G01X2667298Y-549872D01*
G01X2667778Y-555358D01*
G01X2668016Y-563013D01*
G01X2668016Y-634518D01*
G01X2632534Y-670000D01*
G01X1863266Y-670000D01*
G01X1827784Y-634518D01*
G01X1827784Y-545586D01*
G01X1828256Y-537029D01*
G01X1829358Y-528518D01*
G01X1830622Y-520061D01*
G01X1830876Y-517921D01*
G01X1831303Y-501668D01*
G01X1827767Y-485799D01*
G01X1820479Y-471266D01*
G01X1809876Y-458940D01*
G01X1796596Y-449562D01*
G01X1781434Y-443693D01*
G01X1765300Y-441686D01*
G01X1749166Y-443693D01*
G01X1734004Y-449562D01*
G01X1720724Y-458940D01*
G01X1710121Y-471266D01*
G01X1702833Y-485799D01*
G01X1699297Y-501668D01*
G01X1699724Y-517921D01*
G01X1699978Y-520062D01*
G01X1701243Y-528518D01*
G01X1702344Y-537029D01*
G01X1702816Y-545586D01*
G01X1702816Y-660400D01*
G01X1704017Y-672590D01*
G01X1707572Y-684312D01*
G01X1713346Y-695114D01*
G01X1721117Y-704583D01*
G01X1793202Y-776667D01*
G01X1802670Y-784438D01*
G01X1813473Y-790212D01*
G01X1825194Y-793768D01*
G01X1837384Y-794968D01*
G01X2658416Y-794968D01*
G01X2670606Y-793768D01*
G01X2682327Y-790212D01*
G01X2693130Y-784438D01*
G01X2702598Y-776667D01*
G01X2774683Y-704583D01*
G01X2782454Y-695114D01*
G01X2788228Y-684312D01*
G01X2791783Y-672590D01*
G01X2792984Y-660400D01*
G01X2792984Y-570484D01*
G01X3794278Y-570484D01*
G01X3811016Y-587222D01*
G01X3811016Y-1316587D01*
G01X3810778Y-1324242D01*
G01X3810298Y-1329728D01*
G01X3803381Y-1342771D01*
G01X3799124Y-1356907D01*
G01X3797686Y-1371600D01*
G01X3799124Y-1386293D01*
G01X3803381Y-1400429D01*
G01X3810298Y-1413472D01*
G01X3810778Y-1418958D01*
G01X3811016Y-1426613D01*
G01X3811016Y-1485418D01*
G01X3733318Y-1563116D01*
G01X1756813Y-1563116D01*
G01X1749158Y-1562878D01*
G01X1743672Y-1562398D01*
G01X1730629Y-1555481D01*
G01X1716493Y-1551223D01*
G01X1701800Y-1549786D01*
G01X1687107Y-1551223D01*
G01X1672971Y-1555481D01*
G01X1659928Y-1562398D01*
G01X1654442Y-1562878D01*
G01X1646787Y-1563116D01*
G01X698982Y-1563116D01*
G01X595884Y-1460018D01*
G01X595884Y-342810D01*
G01X597037Y-330696D01*
G01X600456Y-319018D01*
G01X606016Y-308194D01*
G01X613519Y-298614D01*
G01X618400Y-298614D01*
G01X629467Y-296861D01*
G01X639451Y-291774D01*
G01X647374Y-283851D01*
G01X652461Y-273867D01*
G01X654214Y-262800D01*
G01X654214Y-177800D01*
G01X666586Y-177800D01*
G01X668422Y-198779D01*
G01X673872Y-219121D01*
G01X682772Y-238207D01*
G01X694851Y-255458D01*
G01X709742Y-270349D01*
G01X726993Y-282428D01*
G01X746079Y-291328D01*
G01X766421Y-296778D01*
G01X787400Y-298614D01*
G01X808379Y-296778D01*
G01X828721Y-291328D01*
G01X847807Y-282428D01*
G01X865058Y-270349D01*
G01X879949Y-255458D01*
G01X892028Y-238207D01*
G01X900928Y-219121D01*
G01X906378Y-198779D01*
G01X908214Y-177800D01*
G01X920586Y-177800D01*
G01X922422Y-198779D01*
G01X927872Y-219121D01*
G01X936772Y-238207D01*
G01X948851Y-255458D01*
G01X963742Y-270349D01*
G01X980993Y-282428D01*
G01X1000079Y-291328D01*
G01X1020421Y-296778D01*
G01X1041400Y-298614D01*
G01X1062379Y-296778D01*
G01X1082721Y-291328D01*
G01X1101807Y-282428D01*
G01X1119058Y-270349D01*
G01X1133949Y-255458D01*
G01X1146028Y-238207D01*
G01X1154928Y-219121D01*
G01X1160378Y-198779D01*
G01X1162214Y-177800D01*
G01X1174586Y-177800D01*
G01X1176422Y-198779D01*
G01X1181872Y-219121D01*
G01X1190772Y-238207D01*
G01X1202851Y-255458D01*
G01X1217742Y-270349D01*
G01X1234993Y-282428D01*
G01X1254079Y-291328D01*
G01X1274421Y-296778D01*
G01X1295400Y-298614D01*
G01X1316379Y-296778D01*
G01X1336721Y-291328D01*
G01X1355807Y-282428D01*
G01X1373058Y-270349D01*
G01X1387949Y-255458D01*
G01X1400028Y-238207D01*
G01X1408928Y-219121D01*
G01X1414378Y-198779D01*
G01X1416214Y-177800D01*
G01X1414378Y-156821D01*
G01X1408928Y-136479D01*
G01X1400028Y-117393D01*
G01X1387949Y-100142D01*
G01X1373058Y-85251D01*
G01X1355807Y-73172D01*
G01X1336721Y-64272D01*
G01X1316379Y-58822D01*
G01X1295400Y-56986D01*
G01X1274421Y-58822D01*
G01X1254079Y-64272D01*
G01X1234993Y-73172D01*
G01X1217742Y-85251D01*
G01X1202851Y-100142D01*
G01X1190772Y-117393D01*
G01X1181872Y-136479D01*
G01X1176422Y-156821D01*
G01X1174586Y-177800D01*
G01X1174586Y-177800D01*
G01X1162214Y-177800D01*
G01X1160378Y-156821D01*
G01X1154928Y-136479D01*
G01X1146028Y-117393D01*
G01X1133949Y-100142D01*
G01X1119058Y-85251D01*
G01X1101807Y-73172D01*
G01X1082721Y-64272D01*
G01X1062379Y-58822D01*
G01X1041400Y-56986D01*
G01X1020421Y-58822D01*
G01X1000079Y-64272D01*
G01X980993Y-73172D01*
G01X963742Y-85251D01*
G01X948851Y-100142D01*
G01X936772Y-117393D01*
G01X927872Y-136479D01*
G01X922422Y-156821D01*
G01X920586Y-177800D01*
G01X920586Y-177800D01*
G01X908214Y-177800D01*
G01X906378Y-156821D01*
G01X900928Y-136479D01*
G01X892028Y-117393D01*
G01X879949Y-100142D01*
G01X865058Y-85251D01*
G01X847807Y-73172D01*
G01X828721Y-64272D01*
G01X808379Y-58822D01*
G01X787400Y-56986D01*
G01X766421Y-58822D01*
G01X746079Y-64272D01*
G01X726993Y-73172D01*
G01X709742Y-85251D01*
G01X694851Y-100142D01*
G01X682772Y-117393D01*
G01X673872Y-136479D01*
G01X668422Y-156821D01*
G01X666586Y-177800D01*
G01X666586Y-177800D01*
G01X654214Y-177800D01*
G01X654214Y-92800D01*
G01X652461Y-81733D01*
G01X647374Y-71749D01*
G01X639451Y-63826D01*
G01X629467Y-58739D01*
G01X618400Y-56986D01*
G01X448400Y-56986D01*
G01X437333Y-58739D01*
G01X427349Y-63826D01*
G01X419426Y-71749D01*
G01X414339Y-81733D01*
G01X412586Y-92800D01*
G01X412586Y-262800D01*
G01X414339Y-273867D01*
G01X419426Y-283851D01*
G01X427349Y-291774D01*
G01X437333Y-296861D01*
G01X448400Y-298614D01*
G01X453281Y-298614D01*
G01X460784Y-308194D01*
G01X466344Y-319018D01*
G01X469763Y-330696D01*
G01X470916Y-342810D01*
G01X470916Y-1485900D01*
G01X472117Y-1498090D01*
G01X475672Y-1509812D01*
G01X481446Y-1520614D01*
G01X489217Y-1530083D01*
G01X595594Y-1636460D01*
G01X578293Y-1640483D01*
G01X562106Y-1647796D01*
G01X547652Y-1658121D01*
G01X535485Y-1671061D01*
G01X526069Y-1686123D01*
G01X519765Y-1702729D01*
G01X516814Y-1720245D01*
G01X517329Y-1738000D01*
G01X521290Y-1755315D01*
G01X528546Y-1771528D01*
G01X538819Y-1786018D01*
G01X551717Y-1798232D01*
G01X566745Y-1807701D01*
G01X553434Y-1817005D01*
G01X542593Y-1829097D01*
G01X534791Y-1843341D01*
G01X530441Y-1858988D01*
G01X529769Y-1875215D01*
G01X532811Y-1891168D01*
G01X539408Y-1906008D01*
G01X549213Y-1918955D01*
G01X561709Y-1929327D01*
G01X576240Y-1936581D01*
G01X592041Y-1940333D01*
G01X608281Y-1940386D01*
G01X624107Y-1936738D01*
G01X638685Y-1929581D01*
G01X651249Y-1919290D01*
G01X661138Y-1906408D01*
G01X667833Y-1891612D01*
G01X670981Y-1875679D01*
G01X670416Y-1859449D01*
G01X666168Y-1843774D01*
G01X658460Y-1829479D01*
G01X647699Y-1817315D01*
G01X697412Y-1817315D01*
G01X715521Y-1815491D01*
G01X732903Y-1810093D01*
G01X748860Y-1801336D01*
G01X762749Y-1789574D01*
G01X774014Y-1775278D01*
G01X782203Y-1759023D01*
G01X786985Y-1741461D01*
G01X788169Y-1723299D01*
G01X785708Y-1705265D01*
G01X779699Y-1688084D01*
G01X1082369Y-1688084D01*
G01X1095194Y-1710947D01*
G01X1105344Y-1735117D01*
G01X1112690Y-1760282D01*
G01X1117135Y-1786117D01*
G01X1118624Y-1812290D01*
G01X1118624Y-2448936D01*
G01X1118386Y-2456592D01*
G01X1117906Y-2462078D01*
G01X1110989Y-2475120D01*
G01X1106731Y-2489256D01*
G01X1105294Y-2503950D01*
G01X1106731Y-2518643D01*
G01X1110989Y-2532779D01*
G01X1117906Y-2545822D01*
G01X1118386Y-2551307D01*
G01X1118624Y-2558963D01*
G01X1118624Y-2832108D01*
G01X1119824Y-2844298D01*
G01X1123380Y-2856019D01*
G01X1129154Y-2866822D01*
G01X1136925Y-2876290D01*
G01X1203719Y-2943085D01*
G01X1213188Y-2950856D01*
G01X1223990Y-2956630D01*
G01X1235712Y-2960185D01*
G01X1247902Y-2961386D01*
G01X1735056Y-2961386D01*
G01X1742712Y-2961624D01*
G01X1748198Y-2962104D01*
G01X1751524Y-2964186D01*
G01X100000Y-2964186D01*
G01X85717Y-2962577D01*
G01X72151Y-2957830D01*
G01X59981Y-2950183D01*
G01X49817Y-2940019D01*
G01X42170Y-2927849D01*
G01X37423Y-2914283D01*
G01X35814Y-2900000D01*
G01X35814Y-2591498D01*
G01X106583Y-2591498D01*
G01X108425Y-2610191D01*
G01X113877Y-2628165D01*
G01X122731Y-2644730D01*
G01X134647Y-2659249D01*
G01X149166Y-2671165D01*
G01X165731Y-2680019D01*
G01X183705Y-2685471D01*
G01X202397Y-2687312D01*
G01X262397Y-2687312D01*
G01X281090Y-2685471D01*
G01X299064Y-2680019D01*
G01X315629Y-2671165D01*
G01X330148Y-2659249D01*
G01X342064Y-2644730D01*
G01X350918Y-2628165D01*
G01X356370Y-2610191D01*
G01X358211Y-2591498D01*
G01X356370Y-2572806D01*
G01X350918Y-2554832D01*
G01X342064Y-2538267D01*
G01X330148Y-2523748D01*
G01X315629Y-2511832D01*
G01X299064Y-2502978D01*
G01X281090Y-2497526D01*
G01X262397Y-2495685D01*
G01X262397Y-2495685D01*
G01X202397Y-2495685D01*
G01X183705Y-2497526D01*
G01X165731Y-2502978D01*
G01X149166Y-2511832D01*
G01X134647Y-2523748D01*
G01X122731Y-2538267D01*
G01X113877Y-2554832D01*
G01X108425Y-2572806D01*
G01X106583Y-2591498D01*
G01X35814Y-2591498D01*
G01X35814Y-2293600D01*
G01X318426Y-2293600D01*
G01X318426Y-2380000D01*
G01X320179Y-2391067D01*
G01X325266Y-2401051D01*
G01X333189Y-2408974D01*
G01X343173Y-2414061D01*
G01X354240Y-2415814D01*
G01X434887Y-2415814D01*
G01X444501Y-2414500D01*
G01X453409Y-2410653D01*
G01X460958Y-2404556D01*
G01X466593Y-2396656D01*
G01X469900Y-2387534D01*
G01X473207Y-2396656D01*
G01X478842Y-2404556D01*
G01X486391Y-2410653D01*
G01X495299Y-2414500D01*
G01X504913Y-2415814D01*
G01X537321Y-2415814D01*
G01X531796Y-2430426D01*
G01X529609Y-2445893D01*
G01X530866Y-2461464D01*
G01X535507Y-2476380D01*
G01X543305Y-2489916D01*
G01X553881Y-2501413D01*
G01X566720Y-2510311D01*
G01X550980Y-2520347D01*
G01X537624Y-2533389D01*
G01X527216Y-2548886D01*
G01X520198Y-2566184D01*
G01X516864Y-2584551D01*
G01X517357Y-2603212D01*
G01X521654Y-2621378D01*
G01X529575Y-2638282D01*
G01X540786Y-2653208D01*
G01X554811Y-2665528D01*
G01X571059Y-2674719D01*
G01X588843Y-2680394D01*
G01X607412Y-2682312D01*
G01X697412Y-2682312D01*
G01X716293Y-2680328D01*
G01X734349Y-2674461D01*
G01X750791Y-2664968D01*
G01X764899Y-2652265D01*
G01X776059Y-2636905D01*
G01X783781Y-2619562D01*
G01X787728Y-2600991D01*
G01X787728Y-2582006D01*
G01X783781Y-2563435D01*
G01X776059Y-2546092D01*
G01X764899Y-2530732D01*
G01X750791Y-2518029D01*
G01X734349Y-2508536D01*
G01X716293Y-2502669D01*
G01X697412Y-2500685D01*
G01X647727Y-2500685D01*
G01X658662Y-2488256D01*
G01X666413Y-2473628D01*
G01X670556Y-2457601D01*
G01X670864Y-2441049D01*
G01X667322Y-2424878D01*
G01X660122Y-2409972D01*
G01X649658Y-2397144D01*
G01X636502Y-2387097D01*
G01X621372Y-2380378D01*
G01X621374Y-2380000D01*
G01X621374Y-2293600D01*
G01X620480Y-2285647D01*
G01X617842Y-2278092D01*
G01X623222Y-2263627D01*
G01X625113Y-2248311D01*
G01X623412Y-2232973D01*
G01X618212Y-2218443D01*
G01X609795Y-2205508D01*
G01X598615Y-2194869D01*
G01X585280Y-2187102D01*
G01X596510Y-2176686D01*
G01X605050Y-2163972D01*
G01X610446Y-2149637D01*
G01X612409Y-2134446D01*
G01X610834Y-2119211D01*
G01X605806Y-2104743D01*
G01X614143Y-2096779D01*
G01X619518Y-2086579D01*
G01X621374Y-2075200D01*
G01X621374Y-1988800D01*
G01X619621Y-1977733D01*
G01X614534Y-1967749D01*
G01X606611Y-1959826D01*
G01X596627Y-1954739D01*
G01X585560Y-1952986D01*
G01X504913Y-1952986D01*
G01X495299Y-1954300D01*
G01X486391Y-1958147D01*
G01X478842Y-1964244D01*
G01X473207Y-1972144D01*
G01X469900Y-1981266D01*
G01X466593Y-1972144D01*
G01X460958Y-1964244D01*
G01X453409Y-1958147D01*
G01X444501Y-1954300D01*
G01X434887Y-1952986D01*
G01X354240Y-1952986D01*
G01X343173Y-1954739D01*
G01X333189Y-1959826D01*
G01X325266Y-1967749D01*
G01X320179Y-1977733D01*
G01X318426Y-1988800D01*
G01X318426Y-2075200D01*
G01X320179Y-2086267D01*
G01X325266Y-2096251D01*
G01X333189Y-2104174D01*
G01X343173Y-2109261D01*
G01X354240Y-2111014D01*
G01X434887Y-2111014D01*
G01X444501Y-2109700D01*
G01X453409Y-2105853D01*
G01X460958Y-2099756D01*
G01X466593Y-2091856D01*
G01X469900Y-2082734D01*
G01X473134Y-2091716D01*
G01X478626Y-2099524D01*
G01X485985Y-2105604D01*
G01X481213Y-2119915D01*
G01X479799Y-2134934D01*
G01X481817Y-2149885D01*
G01X487160Y-2163992D01*
G01X495554Y-2176527D01*
G01X506564Y-2186840D01*
G01X519620Y-2194398D01*
G01X508743Y-2204405D01*
G01X500352Y-2216572D01*
G01X494865Y-2230296D01*
G01X492554Y-2244894D01*
G01X493534Y-2259641D01*
G01X485220Y-2263686D01*
G01X478218Y-2269724D01*
G01X472995Y-2277354D01*
G01X469900Y-2286066D01*
G01X469900Y-2286066D01*
G01X466593Y-2276944D01*
G01X460958Y-2269044D01*
G01X453409Y-2262947D01*
G01X444501Y-2259100D01*
G01X434887Y-2257786D01*
G01X354240Y-2257786D01*
G01X343173Y-2259539D01*
G01X333189Y-2264626D01*
G01X325266Y-2272549D01*
G01X320179Y-2282533D01*
G01X318426Y-2293600D01*
G01X35814Y-2293600D01*
G01X35814Y-1726501D01*
G01X106583Y-1726501D01*
G01X108425Y-1745194D01*
G01X113877Y-1763168D01*
G01X122731Y-1779733D01*
G01X134647Y-1794252D01*
G01X149166Y-1806168D01*
G01X165731Y-1815022D01*
G01X183705Y-1820474D01*
G01X202397Y-1822315D01*
G01X262397Y-1822315D01*
G01X281090Y-1820474D01*
G01X299064Y-1815022D01*
G01X315629Y-1806168D01*
G01X330148Y-1794252D01*
G01X342064Y-1779733D01*
G01X350918Y-1763168D01*
G01X356370Y-1745194D01*
G01X358211Y-1726501D01*
G01X356370Y-1707809D01*
G01X350918Y-1689835D01*
G01X342064Y-1673270D01*
G01X330148Y-1658751D01*
G01X315629Y-1646835D01*
G01X299064Y-1637981D01*
G01X281090Y-1632529D01*
G01X262397Y-1630688D01*
G01X262397Y-1630688D01*
G01X202397Y-1630688D01*
G01X183705Y-1632529D01*
G01X165731Y-1637981D01*
G01X149166Y-1646835D01*
G01X134647Y-1658751D01*
G01X122731Y-1673270D01*
G01X113877Y-1689835D01*
G01X108425Y-1707809D01*
G01X106583Y-1726501D01*
G01X35814Y-1726501D01*
G01X35814Y-309513D01*
G01X54195Y-330164D01*
G01X75302Y-348020D01*
G01X98712Y-362725D01*
G01X123961Y-373987D01*
G01X150543Y-381581D01*
G01X177931Y-385356D01*
G01X205577Y-385235D01*
G01X232930Y-381223D01*
G01X259446Y-373398D01*
G01X284595Y-361917D01*
G01X307877Y-347008D01*
G01X328827Y-328969D01*
G37*
G36*
G01X4285520Y-2964186D02*
G01X1828615Y-2964186D01*
G01X1842379Y-2953779D01*
G01X1853433Y-2940529D01*
G01X1861205Y-2925123D01*
G01X1865292Y-2908358D01*
G01X1865482Y-2891104D01*
G01X1861765Y-2874253D01*
G01X1854334Y-2858680D01*
G01X1843574Y-2845190D01*
G01X1830043Y-2834482D01*
G01X1814441Y-2827112D01*
G01X1797576Y-2823460D01*
G01X1780322Y-2823717D01*
G01X1763574Y-2827869D01*
G01X1748198Y-2835700D01*
G01X1742712Y-2836180D01*
G01X1735056Y-2836418D01*
G01X1273784Y-2836418D01*
G01X1243592Y-2806226D01*
G01X1243592Y-2558963D01*
G01X1243829Y-2551307D01*
G01X1244310Y-2545822D01*
G01X1251226Y-2532779D01*
G01X1255484Y-2518643D01*
G01X1256922Y-2503950D01*
G01X1255484Y-2489256D01*
G01X1251226Y-2475120D01*
G01X1244310Y-2462078D01*
G01X1243829Y-2456592D01*
G01X1243592Y-2448936D01*
G01X1243592Y-1812290D01*
G01X1245080Y-1786117D01*
G01X1249525Y-1760282D01*
G01X1256871Y-1735117D01*
G01X1267022Y-1710947D01*
G01X1279847Y-1688084D01*
G01X1639316Y-1688084D01*
G01X1639316Y-2019300D01*
G01X1640517Y-2031490D01*
G01X1644072Y-2043212D01*
G01X1649846Y-2054014D01*
G01X1657617Y-2063483D01*
G01X1733817Y-2139683D01*
G01X1743286Y-2147454D01*
G01X1754088Y-2153228D01*
G01X1765810Y-2156783D01*
G01X1778000Y-2157984D01*
G01X4179316Y-2157984D01*
G01X4179316Y-2832100D01*
G01X4180517Y-2844290D01*
G01X4184072Y-2856012D01*
G01X4189846Y-2866814D01*
G01X4197617Y-2876283D01*
G01X4285520Y-2964186D01*
G37*
G54D10*
G01X328827Y-328969D02*
G03X311645Y-35814I-137923J138997D01*
G01X4695947Y-35814D01*
G03X4798227Y-390422I114081J-159150D01*
G03X4832156Y-628657I27773J-117578D01*
G03X4841661Y-388206I-6156J120657D01*
G03X4964186Y-315705I-31633J193242D01*
G01X4964186Y-2689287D01*
G03X4671567Y-2671567I-154158J-120741D01*
G03X4689287Y-2964186I138461J-138461D01*
G01X4621611Y-2964186D01*
G03X4613467Y-2867956I-62311J43186D01*
G03X4517428Y-2857798I-54167J-53044D01*
G01X4511942Y-2858278D01*
G01X4504287Y-2858516D01*
G01X4356582Y-2858516D01*
G01X4304284Y-2806218D01*
G01X4304284Y-2157984D01*
G01X4737100Y-2157984D01*
G03X4781283Y-2139683I0J62484D01*
G01X4870183Y-2050783D01*
G03X4888484Y-2006600I-44183J44183D01*
G01X4888484Y-1435010D01*
G02X4906119Y-1390814I64199J0D01*
G01X4911000Y-1390814D01*
G03X4946814Y-1355000I0J35814D01*
G01X4946814Y-1185000D01*
G03X4911000Y-1149186I-35814J0D01*
G01X4741000Y-1149186D01*
G03X4705186Y-1185000I0J-35814D01*
G01X4705186Y-1355000D01*
G03X4741000Y-1390814I35814J0D01*
G01X4745881Y-1390814D01*
G02X4763516Y-1435010I-46564J-44196D01*
G01X4763516Y-1980718D01*
G01X4711218Y-2033016D01*
G01X4296813Y-2033016D01*
G01X4289158Y-2032778D01*
G01X4283672Y-2032298D01*
G03X4275048Y-2027365I-41872J-63202D01*
G03X4284004Y-2020305I-25349J41365D01*
G01X4355152Y-1949157D01*
G03X4369362Y-1914852I-34305J34305D01*
G01X4369362Y-1118361D01*
G01X4423209Y-1064514D01*
G01X4697529Y-1064514D01*
G01X4706131Y-1071812D01*
G01X4746191Y-1106700D01*
G03X4946814Y-1016000I79809J90700D01*
G03X4746191Y-925300I-120814J0D01*
G01X4706131Y-960188D01*
G01X4697529Y-967486D01*
G01X4403114Y-967486D01*
G03X4368809Y-981695I0J-48514D01*
G01X4286543Y-1063961D01*
G03X4272334Y-1098266I34305J-34305D01*
G01X4272334Y-1894757D01*
G01X4229604Y-1937487D01*
G01X2382956Y-1937487D01*
G01X2381383Y-1936621D01*
G01X2379227Y-1935035D01*
G03X2287762Y-1941360I-42427J-50966D01*
G03X2290033Y-2033016I49038J-44641D01*
G01X1803882Y-2033016D01*
G01X1764284Y-1993418D01*
G01X1764284Y-1688084D01*
G01X3759200Y-1688084D01*
G03X3803383Y-1669783I0J62484D01*
G01X3917683Y-1555483D01*
G03X3935984Y-1511300I-44183J44183D01*
G01X3935984Y-1426613D01*
G01X3936222Y-1418958D01*
G01X3936702Y-1413472D01*
G03X3936702Y-1329728I-63202J41872D01*
G01X3936222Y-1324242D01*
G01X3935984Y-1316587D01*
G01X3935984Y-561340D01*
G03X3917683Y-517157I-62484J0D01*
G01X3864343Y-463817D01*
G03X3820160Y-445516I-44183J-44183D01*
G01X2785513Y-445516D01*
G01X2777858Y-445278D01*
G01X2772372Y-444798D01*
G03X2676891Y-454391I-41872J-63202D01*
G03X2667298Y-549872I53609J-53609D01*
G01X2667778Y-555358D01*
G01X2668016Y-563013D01*
G01X2668016Y-634518D01*
G01X2632534Y-670000D01*
G01X1863266Y-670000D01*
G01X1827784Y-634518D01*
G01X1827784Y-545586D01*
G01X1828256Y-537029D01*
G01X1829358Y-528518D01*
G01X1830622Y-520061D01*
G01X1830876Y-517921D01*
G03X1765300Y-441686I-65642J9857D01*
G03X1699724Y-517921I66J-66378D01*
G01X1699978Y-520062D01*
G01X1701243Y-528518D01*
G01X1702344Y-537029D01*
G01X1702816Y-545586D01*
G01X1702816Y-660400D01*
G03X1721117Y-704583I62484J0D01*
G01X1793202Y-776667D01*
G03X1837384Y-794968I44183J44183D01*
G01X2658416Y-794968D01*
G03X2702598Y-776667I0J62484D01*
G01X2774683Y-704583D01*
G03X2792984Y-660400I-44183J44183D01*
G01X2792984Y-570484D01*
G01X3794278Y-570484D01*
G01X3811016Y-587222D01*
G01X3811016Y-1316587D01*
G01X3810778Y-1324242D01*
G01X3810298Y-1329728D01*
G03X3810298Y-1413472I63202J-41872D01*
G01X3810778Y-1418958D01*
G01X3811016Y-1426613D01*
G01X3811016Y-1485418D01*
G01X3733318Y-1563116D01*
G01X1756813Y-1563116D01*
G01X1749158Y-1562878D01*
G01X1743672Y-1562398D01*
G03X1701800Y-1549786I-41872J-63202D01*
G03X1659928Y-1562398I0J-75814D01*
G01X1654442Y-1562878D01*
G01X1646787Y-1563116D01*
G01X698982Y-1563116D01*
G01X595884Y-1460018D01*
G01X595884Y-342810D01*
G02X613519Y-298614I64199J0D01*
G01X618400Y-298614D01*
G03X654214Y-262800I0J35814D01*
G01X654214Y-92800D01*
G03X618400Y-56986I-35814J0D01*
G01X448400Y-56986D01*
G03X412586Y-92800I0J-35814D01*
G01X412586Y-262800D01*
G03X448400Y-298614I35814J0D01*
G01X453281Y-298614D01*
G02X470916Y-342810I-46564J-44196D01*
G01X470916Y-1485900D01*
G03X489217Y-1530083I62484J0D01*
G01X595594Y-1636460D01*
G03X566745Y-1807701I11818J-90042D01*
G03X592041Y-1940333I33648J-62311D01*
G03X647699Y-1817315I8352J70321D01*
G01X697412Y-1817315D01*
G03X779699Y-1688084I0J90814D01*
G01X1082369Y-1688084D01*
G02X1118624Y-1812290I-194631J-124206D01*
G01X1118624Y-2448936D01*
G01X1118386Y-2456592D01*
G01X1117906Y-2462078D01*
G03X1117906Y-2545822I63202J-41872D01*
G01X1118386Y-2551307D01*
G01X1118624Y-2558963D01*
G01X1118624Y-2832108D01*
G03X1136925Y-2876290I62484J0D01*
G01X1203719Y-2943085D01*
G03X1247902Y-2961386I44183J44183D01*
G01X1735056Y-2961386D01*
G01X1742712Y-2961624D01*
G01X1748198Y-2962104D01*
G03X1751524Y-2964186I41872J63202D01*
G01X100000Y-2964186D01*
G02X35814Y-2900000I0J64186D01*
G01X35814Y-309513D01*
G03X328827Y-328969I155090J119541D01*
G01X262397Y-1630688D02*
G01X202397Y-1630688D01*
G03X202397Y-1822315I0J-95814D01*
G01X262397Y-1822315D01*
G03X262397Y-1630688I0J95814D01*
G01X262397Y-2495685D02*
G01X202397Y-2495685D01*
G03X202397Y-2687312I0J-95814D01*
G01X262397Y-2687312D01*
G03X262397Y-2495685I0J95814D01*
G01X469900Y-2286066D02*
G03X434887Y-2257786I-35013J-7534D01*
G01X354240Y-2257786D01*
G03X318426Y-2293600I0J-35814D01*
G01X318426Y-2380000D01*
G03X354240Y-2415814I35814J0D01*
G01X434887Y-2415814D01*
G03X469900Y-2387534I0J35814D01*
G03X504913Y-2415814I35013J7534D01*
G01X537321Y-2415814D01*
G03X566720Y-2510311I63071J-32200D01*
G03X607412Y-2682312I40692J-81187D01*
G01X697412Y-2682312D01*
G03X697412Y-2500685I0J90814D01*
G01X647727Y-2500685D01*
G03X621372Y-2380378I-47335J52671D01*
G01X621374Y-2380000D01*
G01X621374Y-2293600D01*
G03X617842Y-2278092I-35814J0D01*
G03X585280Y-2187102I-59042J30192D01*
G03X605806Y-2104743I-39180J53502D01*
G03X621374Y-2075200I-20246J29542D01*
G01X621374Y-1988800D01*
G03X585560Y-1952986I-35814J0D01*
G01X504913Y-1952986D01*
G03X469900Y-1981266I0J-35814D01*
G03X434887Y-1952986I-35013J-7534D01*
G01X354240Y-1952986D01*
G03X318426Y-1988800I0J-35814D01*
G01X318426Y-2075200D01*
G03X354240Y-2111014I35814J0D01*
G01X434887Y-2111014D01*
G03X469900Y-2082734I0J35814D01*
G03X485985Y-2105604I35013J7534D01*
G03X519620Y-2194398I60115J-27996D01*
G03X493534Y-2259641I39180J-53502D01*
G03X469900Y-2286066I11379J-33958D01*
G01X666586Y-177800D02*
G03X908214Y-177800I120814J0D01*
G03X666586Y-177800I-120814J0D01*
G01X920586Y-177800D02*
G03X1162214Y-177800I120814J0D01*
G03X920586Y-177800I-120814J0D01*
G01X1174586Y-177800D02*
G03X1416214Y-177800I120814J0D01*
G03X1174586Y-177800I-120814J0D01*
G01X2382956Y-1787500D02*
G01X2381383Y-1786634D01*
G01X2379227Y-1785048D01*
G03X2270486Y-1836014I-42427J-50966D01*
G03X2379227Y-1886979I66314J0D01*
G01X2381383Y-1885393D01*
G01X2382956Y-1884528D01*
G01X4082186Y-1884528D01*
G03X4116491Y-1870318I0J48514D01*
G01X4187205Y-1799605D01*
G03X4201414Y-1765300I-34305J34305D01*
G01X4201414Y-870995D01*
G01X4261895Y-810514D01*
G01X4697529Y-810514D01*
G01X4706131Y-817812D01*
G01X4746191Y-852700D01*
G03X4946814Y-762000I79809J90700D01*
G03X4746191Y-671300I-120814J0D01*
G01X4706131Y-706188D01*
G01X4697529Y-713486D01*
G01X4241800Y-713486D01*
G03X4207495Y-727695I0J-48514D01*
G01X4118595Y-816595D01*
G03X4104386Y-850900I34305J-34305D01*
G01X4104386Y-1745205D01*
G01X4062091Y-1787500D01*
G01X2382956Y-1787500D01*
G01X4285520Y-2964186D02*
G01X1828615Y-2964186D01*
G03X1854334Y-2858680I-38546J65284D01*
G03X1748198Y-2835700I-64265J-40222D01*
G01X1742712Y-2836180D01*
G01X1735056Y-2836418D01*
G01X1273784Y-2836418D01*
G01X1243592Y-2806226D01*
G01X1243592Y-2558963D01*
G01X1243829Y-2551307D01*
G01X1244310Y-2545822D01*
G03X1244310Y-2462078I-63202J41872D01*
G01X1243829Y-2456592D01*
G01X1243592Y-2448936D01*
G01X1243592Y-1812290D01*
G02X1279847Y-1688084I230886J0D01*
G01X1639316Y-1688084D01*
G01X1639316Y-2019300D01*
G03X1657617Y-2063483I62484J0D01*
G01X1733817Y-2139683D01*
G03X1778000Y-2157984I44183J44183D01*
G01X4179316Y-2157984D01*
G01X4179316Y-2832100D01*
G03X4197617Y-2876283I62484J0D01*
G01X4285520Y-2964186D01*
G54D11*
G01X232397Y-2591498D02*
G01X232397Y-2505845D01*
G01X232397Y-2591498D02*
G01X232397Y-2677152D01*
G01X232397Y-2591498D02*
G01X348051Y-2591498D01*
G01X232397Y-2591498D02*
G01X116743Y-2591498D01*
G01X232397Y-1726501D02*
G01X232397Y-1640848D01*
G01X232397Y-1726501D02*
G01X232397Y-1812155D01*
G01X232397Y-1726501D02*
G01X348051Y-1726501D01*
G01X232397Y-1726501D02*
G01X116743Y-1726501D01*
G01X652412Y-2591498D02*
G01X652412Y-2510845D01*
G01X652412Y-2591498D02*
G01X652412Y-2672152D01*
G01X652412Y-2591498D02*
G01X778066Y-2591498D01*
G01X652412Y-2591498D02*
G01X526758Y-2591498D01*
G01X652412Y-1726501D02*
G01X652412Y-1807155D01*
G01X652412Y-1726501D02*
G01X778066Y-1726501D01*
G01X652412Y-1726501D02*
G01X526758Y-1726501D01*
G01X1295400Y-177800D02*
G01X1184746Y-177800D01*
G01X1295400Y-177800D02*
G01X1406054Y-177800D01*
G01X1295400Y-177800D02*
G01X1295400Y-67146D01*
G01X1295400Y-177800D02*
G01X1295400Y-288454D01*
G01X4826000Y-508000D02*
G01X4826000Y-618654D01*
G01X4826000Y-508000D02*
G01X4715346Y-508000D01*
G01X4826000Y-508000D02*
G01X4936654Y-508000D01*
G01X394564Y-2032000D02*
G01X328586Y-2032000D01*
G01X394564Y-2032000D02*
G01X394564Y-2100854D01*
G01X394564Y-2032000D02*
G01X394564Y-1963146D01*
G01X394564Y-2336800D02*
G01X328586Y-2336800D01*
G01X394564Y-2336800D02*
G01X394564Y-2405654D01*
G01X394564Y-2336800D02*
G01X394564Y-2267946D01*
G04 Copper End*

G04 TearDrop Start*
G36*
G01X4710278Y-1028700D02*
G01X4710278Y-1003300D01*
G01X4715846Y-998913D01*
G01X4729477Y-987347D01*
G01X4769778Y-952250D01*
G01X4769778Y-1079750D01*
G01X4729477Y-1044653D01*
G01X4715846Y-1033087D01*
G01X4710278Y-1028700D01*
G37*
G36*
G01X4710278Y-774700D02*
G01X4710278Y-749300D01*
G01X4715846Y-744913D01*
G01X4729477Y-733347D01*
G01X4769778Y-698250D01*
G01X4769778Y-825750D01*
G01X4729477Y-790653D01*
G01X4715846Y-779087D01*
G01X4710278Y-774700D01*
G37*
G36*
G01X2378324Y-1823314D02*
G01X2378324Y-1848714D01*
G01X2373729Y-1849588D01*
G01X2367972Y-1851893D01*
G01X2362053Y-1855152D01*
G01X2356974Y-1858889D01*
G01X2356974Y-1813139D01*
G01X2362053Y-1816875D01*
G01X2367972Y-1820134D01*
G01X2373729Y-1822439D01*
G01X2378324Y-1823314D01*
G37*
G36*
G01X2378324Y-1973301D02*
G01X2378324Y-1998701D01*
G01X2373729Y-1999575D01*
G01X2367972Y-2001880D01*
G01X2362053Y-2005139D01*
G01X2356974Y-2008876D01*
G01X2356974Y-1963126D01*
G01X2362053Y-1966862D01*
G01X2367972Y-1970121D01*
G01X2373729Y-1972426D01*
G01X2378324Y-1973301D01*
G37*
G36*
G01X1728470Y-1680058D02*
G01X1675130Y-1680058D01*
G01X1674844Y-1670838D01*
G01X1674089Y-1662223D01*
G01X1673023Y-1655526D01*
G01X1671800Y-1652057D01*
G01X1731800Y-1652057D01*
G01X1730577Y-1655526D01*
G01X1729511Y-1662223D01*
G01X1728756Y-1670838D01*
G01X1728470Y-1680058D01*
G37*
G36*
G01X4187343Y-2122170D02*
G01X4187343Y-2068830D01*
G01X4196562Y-2068544D01*
G01X4205177Y-2067789D01*
G01X4211874Y-2066723D01*
G01X4215343Y-2065500D01*
G01X4215343Y-2125500D01*
G01X4211874Y-2124277D01*
G01X4205177Y-2123211D01*
G01X4196562Y-2122456D01*
G01X4187343Y-2122170D01*
G37*
G36*
G01X4268470Y-2149957D02*
G01X4215130Y-2149957D01*
G01X4214844Y-2140738D01*
G01X4214089Y-2132123D01*
G01X4213023Y-2125426D01*
G01X4211800Y-2121957D01*
G01X4271800Y-2121957D01*
G01X4270577Y-2125426D01*
G01X4269511Y-2132123D01*
G01X4268756Y-2140738D01*
G01X4268470Y-2149957D01*
G37*
G36*
G01X4296257Y-2068830D02*
G01X4296257Y-2122170D01*
G01X4287038Y-2122456D01*
G01X4278423Y-2123211D01*
G01X4271726Y-2124277D01*
G01X4268257Y-2125500D01*
G01X4268257Y-2065500D01*
G01X4271726Y-2066723D01*
G01X4278423Y-2067789D01*
G01X4287038Y-2068544D01*
G01X4296257Y-2068830D01*
G37*
G36*
G01X4852670Y-1435010D02*
G01X4799330Y-1435010D01*
G03X4759325Y-1355000I-100013J0D01*
G01X4892675Y-1355000D01*
G03X4852670Y-1435010I60008J-80010D01*
G37*
G36*
G01X560070Y-342810D02*
G01X506730Y-342810D01*
G03X466725Y-262800I-100013J0D01*
G01X600075Y-262800D01*
G03X560070Y-342810I60008J-80010D01*
G37*
G36*
G01X1756258Y-1598930D02*
G01X1756258Y-1652270D01*
G01X1747038Y-1652556D01*
G01X1738423Y-1653311D01*
G01X1731726Y-1654377D01*
G01X1728257Y-1655600D01*
G01X1728257Y-1595600D01*
G01X1731726Y-1596823D01*
G01X1738423Y-1597889D01*
G01X1747038Y-1598644D01*
G01X1756258Y-1598930D01*
G37*
G36*
G01X3900170Y-1426057D02*
G01X3846830Y-1426057D01*
G01X3846544Y-1416838D01*
G01X3845789Y-1408223D01*
G01X3844723Y-1401526D01*
G01X3843500Y-1398057D01*
G01X3903500Y-1398057D01*
G01X3902277Y-1401526D01*
G01X3901211Y-1408223D01*
G01X3900456Y-1416838D01*
G01X3900170Y-1426057D01*
G37*
G36*
G01X1154438Y-2449492D02*
G01X1207778Y-2449492D01*
G01X1208064Y-2458711D01*
G01X1208818Y-2467326D01*
G01X1209885Y-2474024D01*
G01X1211108Y-2477492D01*
G01X1151108Y-2477492D01*
G01X1152330Y-2474024D01*
G01X1153397Y-2467326D01*
G01X1154151Y-2458711D01*
G01X1154438Y-2449492D01*
G37*
G36*
G01X1154438Y-1812290D02*
G03X1101098Y-1652270I-266700J0D01*
G01X1179876Y-1625600D01*
G01X1261118Y-1652270D01*
G03X1207778Y-1812290I213360J-160020D01*
G01X1154438Y-1812290D01*
G37*
G36*
G01X1647342Y-1652270D02*
G01X1647342Y-1598930D01*
G01X1656562Y-1598644D01*
G01X1665177Y-1597889D01*
G01X1671874Y-1596823D01*
G01X1675343Y-1595600D01*
G01X1675343Y-1655600D01*
G01X1671874Y-1654377D01*
G01X1665177Y-1653311D01*
G01X1656562Y-1652556D01*
G01X1647342Y-1652270D01*
G37*
G36*
G01X3846830Y-1317143D02*
G01X3900170Y-1317143D01*
G01X3900456Y-1326362D01*
G01X3901211Y-1334977D01*
G01X3902277Y-1341674D01*
G01X3903500Y-1345143D01*
G01X3843500Y-1345143D01*
G01X3844723Y-1341674D01*
G01X3845789Y-1334977D01*
G01X3846544Y-1326362D01*
G01X3846830Y-1317143D01*
G37*
G36*
G01X2784957Y-481330D02*
G01X2784957Y-534670D01*
G01X2775738Y-534956D01*
G01X2767123Y-535711D01*
G01X2760426Y-536777D01*
G01X2756957Y-538000D01*
G01X2756957Y-478000D01*
G01X2760426Y-479223D01*
G01X2767123Y-480289D01*
G01X2775738Y-481044D01*
G01X2784957Y-481330D01*
G37*
G36*
G01X1791970Y-544600D02*
G01X1738630Y-544600D01*
G01X1738032Y-533740D01*
G01X1736715Y-523570D01*
G01X1735398Y-514765D01*
G01X1734800Y-508000D01*
G01X1795800Y-508000D01*
G01X1795202Y-514765D01*
G01X1793885Y-523570D01*
G01X1792568Y-533740D01*
G01X1791970Y-544600D01*
G37*
G36*
G01X2757170Y-562457D02*
G01X2703830Y-562457D01*
G01X2703544Y-553238D01*
G01X2702789Y-544623D01*
G01X2701723Y-537926D01*
G01X2700500Y-534457D01*
G01X2760500Y-534457D01*
G01X2759277Y-537926D01*
G01X2758211Y-544623D01*
G01X2757456Y-553238D01*
G01X2757170Y-562457D01*
G37*
G36*
G01X1207778Y-2558407D02*
G01X1154438Y-2558407D01*
G01X1154151Y-2549188D01*
G01X1153397Y-2540573D01*
G01X1152330Y-2533875D01*
G01X1151108Y-2530407D01*
G01X1211108Y-2530407D01*
G01X1209885Y-2533875D01*
G01X1208818Y-2540573D01*
G01X1208064Y-2549188D01*
G01X1207778Y-2558407D01*
G37*
G36*
G01X1735612Y-2925572D02*
G01X1735612Y-2872232D01*
G01X1744831Y-2871946D01*
G01X1753446Y-2871191D01*
G01X1760144Y-2870125D01*
G01X1763612Y-2868902D01*
G01X1763612Y-2928902D01*
G01X1760144Y-2927679D01*
G01X1753446Y-2926613D01*
G01X1744831Y-2925858D01*
G01X1735612Y-2925572D01*
G37*
G36*
G01X571500Y-2289424D02*
G01X546100Y-2289424D01*
G01X545225Y-2284829D01*
G01X542920Y-2279072D01*
G01X539661Y-2273153D01*
G01X535925Y-2268074D01*
G01X581675Y-2268074D01*
G01X577939Y-2273153D01*
G01X574680Y-2279072D01*
G01X572375Y-2284829D01*
G01X571500Y-2289424D01*
G37*
G36*
G01X546100Y-2255500D02*
G01X571500Y-2255500D01*
G03X585560Y-2293600I58651J0D01*
G01X527050Y-2293600D01*
G03X546100Y-2255500I-28575J38100D01*
G37*
G36*
G01X532536Y-2092732D02*
G01X557936Y-2091437D01*
G01X558835Y-2096125D01*
G01X561205Y-2101914D01*
G01X564555Y-2107801D01*
G01X568395Y-2112786D01*
G01X522663Y-2114082D01*
G01X526288Y-2108913D01*
G01X529451Y-2102964D01*
G01X531688Y-2097237D01*
G01X532536Y-2092732D01*
G37*
G36*
G01X557936Y-2113300D02*
G01X532536Y-2113300D01*
G03X513486Y-2075200I-47625J0D01*
G01X576986Y-2075200D01*
G03X557936Y-2113300I28575J-38100D01*
G37*
G36*
G01X4504843Y-2947670D02*
G01X4504843Y-2894330D01*
G01X4514062Y-2894044D01*
G01X4522677Y-2893289D01*
G01X4529374Y-2892223D01*
G01X4532843Y-2891000D01*
G01X4532843Y-2951000D01*
G01X4529374Y-2949777D01*
G01X4522677Y-2948711D01*
G01X4514062Y-2947956D01*
G01X4504843Y-2947670D01*
G37*
G04 TearDrop End*

G04 Pad Start*
G54D12*
G01X4826000Y-1270000D03*
G54D13*
G01X4826000Y-1016000D03*
G01X4826000Y-762000D03*
G01X4826000Y-508000D03*
G54D12*
G01X533400Y-177800D03*
G54D13*
G01X787400Y-177800D03*
G01X1041400Y-177800D03*
G01X1295400Y-177800D03*
G54D14*
G01X394564Y-2032000D03*
G01X545236Y-2032000D03*
G01X394564Y-2336800D03*
G01X545236Y-2336800D03*
G54D15*
G01X652412Y-1726501D03*
G01X652412Y-2591498D03*
G54D16*
G01X232397Y-1726501D03*
G01X232397Y-2591498D03*
G04 Pad End*

G04 Via Start*
G54D17*
G01X190904Y-189972D03*
G01X189972Y-2806700D03*
G01X4810028Y-194964D03*
G01X4810028Y-2810028D03*
G54D18*
G01X2336800Y-1836014D03*
G01X2336800Y-1986001D03*
G54D20*
G01X1701800Y-1625600D03*
G01X4241800Y-2095500D03*
G01X4559300Y-2921000D03*
G01X3873500Y-1371600D03*
G01X1790070Y-2898902D03*
G01X1181108Y-2503950D03*
G01X2730500Y-508000D03*
G54D18*
G01X1765300Y-508000D03*
G01X4607814Y-932186D03*
G01X4607814Y-424186D03*
G01X4607814Y-1948186D03*
G01X3247588Y-2456186D03*
G01X3247588Y-1440186D03*
G01X3238500Y-177800D03*
G01X1955800Y-482600D03*
G01X1892300Y-482600D03*
G01X2019300Y-482600D03*
G01X2019300Y-546100D03*
G01X1955800Y-546100D03*
G01X1892300Y-546100D03*
G01X2489200Y-457200D03*
G01X2489200Y-520700D03*
G01X2552700Y-457200D03*
G01X2552700Y-520700D03*
G01X2425700Y-520700D03*
G01X2425700Y-457200D03*
G01X2921000Y-177800D03*
G01X2921000Y-241300D03*
G01X2984500Y-177800D03*
G01X2984500Y-241300D03*
G01X2857500Y-304800D03*
G01X2921000Y-304800D03*
G01X2984500Y-304800D03*
G01X2857500Y-241300D03*
G01X2857500Y-177800D03*
G01X3111500Y-177800D03*
G01X3111500Y-241300D03*
G01X3175000Y-177800D03*
G01X3175000Y-241300D03*
G01X3048000Y-304800D03*
G01X3111500Y-304800D03*
G01X3175000Y-304800D03*
G01X3048000Y-241300D03*
G01X3048000Y-177800D03*
G01X3302000Y-177800D03*
G01X3302000Y-241300D03*
G01X3365500Y-177800D03*
G01X3365500Y-241300D03*
G01X3238500Y-304800D03*
G01X3302000Y-304800D03*
G01X3365500Y-304800D03*
G01X3238500Y-241300D03*
G01X177800Y-1968500D03*
G01X177800Y-2032000D03*
G01X241300Y-1968500D03*
G01X241300Y-2032000D03*
G01X114300Y-2095500D03*
G01X177800Y-2095500D03*
G01X241300Y-2095500D03*
G01X114300Y-2032000D03*
G01X114300Y-1968500D03*
G01X177800Y-2159000D03*
G01X177800Y-2222500D03*
G01X241300Y-2159000D03*
G01X241300Y-2222500D03*
G01X114300Y-2286000D03*
G01X177800Y-2286000D03*
G01X241300Y-2286000D03*
G01X114300Y-2222500D03*
G01X114300Y-2159000D03*
G01X647700Y-2692400D03*
G01X647700Y-2755900D03*
G01X711200Y-2692400D03*
G01X711200Y-2755900D03*
G01X584200Y-2819400D03*
G01X647700Y-2819400D03*
G01X711200Y-2819400D03*
G01X584200Y-2755900D03*
G01X584200Y-2692400D03*
G01X457200Y-2692400D03*
G01X457200Y-2755900D03*
G01X520700Y-2692400D03*
G01X520700Y-2755900D03*
G01X393700Y-2819400D03*
G01X457200Y-2819400D03*
G01X520700Y-2819400D03*
G01X393700Y-2755900D03*
G01X393700Y-2692400D03*
G01X850900Y-2540000D03*
G01X914400Y-2540000D03*
G01X850900Y-2476500D03*
G01X914400Y-2476500D03*
G01X1041400Y-2540000D03*
G01X977900Y-2476500D03*
G01X1041400Y-2476500D03*
G01X977900Y-2540000D03*
G01X1384300Y-2590800D03*
G01X1447800Y-2590800D03*
G01X1511300Y-2590800D03*
G01X4013200Y-1485900D03*
G01X4013200Y-1549400D03*
G01X4076700Y-1485900D03*
G01X4076700Y-1549400D03*
G01X3949700Y-1612900D03*
G01X4013200Y-1612900D03*
G01X4076700Y-1612900D03*
G01X3949700Y-1549400D03*
G01X3949700Y-1485900D03*
G01X4864100Y-2273300D03*
G01X4864100Y-2336800D03*
G01X4927600Y-2273300D03*
G01X4927600Y-2336800D03*
G01X4864100Y-2400300D03*
G01X4927600Y-2400300D03*
G01X4927600Y-1892300D03*
G01X4927600Y-1955800D03*
G01X4902200Y-1549400D03*
G01X4495800Y-1358900D03*
G01X4432300Y-1358900D03*
G01X4495800Y-1231900D03*
G01X4495800Y-1295400D03*
G01X4432300Y-1295400D03*
G01X4432300Y-1231900D03*
G01X1689100Y-1117600D03*
G01X1625600Y-1117600D03*
G01X1562100Y-1117600D03*
G01X1498600Y-1117600D03*
G01X1498600Y-1054100D03*
G01X1689100Y-1054100D03*
G01X1625600Y-1054100D03*
G01X1562100Y-1054100D03*
G01X1498600Y-990600D03*
G01X1689100Y-990600D03*
G01X1625600Y-990600D03*
G01X1562100Y-990600D03*
G01X1498600Y-927100D03*
G01X1689100Y-927100D03*
G01X1625600Y-927100D03*
G01X1562100Y-927100D03*
G01X1498600Y-863600D03*
G01X1689100Y-863600D03*
G01X1625600Y-863600D03*
G01X1562100Y-863600D03*
G01X1498600Y-800100D03*
G01X1689100Y-800100D03*
G01X1625600Y-800100D03*
G01X1562100Y-800100D03*
G01X1498600Y-736600D03*
G01X1689100Y-736600D03*
G01X1625600Y-736600D03*
G01X1562100Y-736600D03*
G01X1003300Y-749300D03*
G01X1003300Y-812800D03*
G01X1003300Y-685800D03*
G01X88900Y-812800D03*
G01X152400Y-812800D03*
G01X88900Y-876300D03*
G01X152400Y-876300D03*
G01X95250Y-1073150D03*
G01X158750Y-1073150D03*
G01X95250Y-1136650D03*
G01X158750Y-1136650D03*
G01X876300Y-2197100D03*
G01X1738159Y-2516274D03*
G01X1905000Y-2514600D03*
G01X1969361Y-2514144D03*
G01X558800Y-2247900D03*
G01X546100Y-2133600D03*
G01X4076700Y-177800D03*
G01X4076700Y-304800D03*
G01X4076700Y-241300D03*
G01X4140200Y-177800D03*
G01X4140200Y-241300D03*
G01X4140200Y-304800D03*
G01X4203700Y-304800D03*
G01X4203700Y-241300D03*
G01X4203700Y-177800D03*
G01X4267200Y-177800D03*
G01X4267200Y-241300D03*
G01X4267200Y-304800D03*
G01X4076700Y-368300D03*
G01X4076700Y-495300D03*
G01X4076700Y-431800D03*
G01X4140200Y-368300D03*
G01X4140200Y-431800D03*
G01X4140200Y-495300D03*
G01X4203700Y-495300D03*
G01X4203700Y-431800D03*
G01X4203700Y-368300D03*
G01X4267200Y-368300D03*
G01X4267200Y-431800D03*
G01X4267200Y-495300D03*
G01X2984500Y-1181100D03*
G01X2984500Y-1308100D03*
G01X2984500Y-1244600D03*
G01X3048000Y-1181100D03*
G01X3048000Y-1244600D03*
G01X3048000Y-1308100D03*
G01X3111500Y-1308100D03*
G01X3111500Y-1244600D03*
G01X3111500Y-1181100D03*
G01X3175000Y-1181100D03*
G01X3175000Y-1308100D03*
G01X3175000Y-1244600D03*
G01X3238500Y-1181100D03*
G01X3238500Y-1244600D03*
G01X3238500Y-1308100D03*
G01X3302000Y-1308100D03*
G01X3302000Y-1244600D03*
G01X3302000Y-1181100D03*
G01X3073400Y-711200D03*
G01X3073400Y-838200D03*
G01X3073400Y-774700D03*
G01X3136900Y-711200D03*
G01X3136900Y-774700D03*
G01X3136900Y-838200D03*
G01X3200400Y-838200D03*
G01X3200400Y-774700D03*
G01X3200400Y-711200D03*
G01X3263900Y-711200D03*
G01X3263900Y-838200D03*
G01X3263900Y-774700D03*
G01X3327400Y-711200D03*
G01X3327400Y-774700D03*
G01X3327400Y-838200D03*
G01X3390900Y-838200D03*
G01X3390900Y-774700D03*
G01X3390900Y-711200D03*
G01X1562100Y-1879600D03*
G01X1498600Y-1879600D03*
G01X1435100Y-1879600D03*
G01X1562100Y-1943100D03*
G01X1498600Y-1943100D03*
G01X1435100Y-1943100D03*
G01X1562100Y-1816100D03*
G01X1498600Y-1816100D03*
G01X1435100Y-1816100D03*
G04 Via End*

G04 Track Start*
G54D11*
G01X4320848Y-1098266D02*
G01X4403114Y-1016000D01*
G01X4826000Y-1016000D01*
G01X4241800Y-762000D02*
G01X4826000Y-762000D01*
G01X2336800Y-1836014D02*
G01X4082186Y-1836014D01*
G01X2336800Y-1986001D02*
G01X4249699Y-1986001D01*
G01X4320848Y-1914852D01*
G01X4320848Y-1098266D01*
G54D21*
G01X1701800Y-1625600D02*
G01X1701800Y-2019300D01*
G01X1778000Y-2095500D01*
G01X4241800Y-2095500D01*
G01X4241800Y-2832100D01*
G01X4241800Y-2095500D02*
G01X4737100Y-2095500D01*
G01X4826000Y-2006600D01*
G01X4826000Y-1270000D01*
G01X673100Y-1625600D02*
G01X533400Y-1485900D01*
G01X533400Y-177800D01*
G01X1701800Y-1625600D02*
G01X3759200Y-1625600D01*
G01X3873500Y-1511300D01*
G01X3873500Y-1371600D01*
G54D11*
G01X4082186Y-1836014D02*
G01X4152900Y-1765300D01*
G01X4152900Y-850900D01*
G01X4241800Y-762000D01*
G54D21*
G01X1181108Y-2503950D02*
G01X1181108Y-1626831D01*
G01X1179876Y-1625600D01*
G01X1701800Y-1625600D02*
G01X1179876Y-1625600D01*
G01X673100Y-1625600D01*
G01X3873500Y-1371600D02*
G01X3873500Y-561340D01*
G01X3820160Y-508000D01*
G01X2730500Y-508000D02*
G01X3820160Y-508000D01*
G01X1837384Y-732484D02*
G01X1765300Y-660400D01*
G01X1765300Y-508000D01*
G01X2730500Y-508000D02*
G01X2730500Y-660400D01*
G01X2658416Y-732484D01*
G01X1837384Y-732484D01*
G01X1181108Y-2503950D02*
G01X1181108Y-2832108D01*
G01X1247902Y-2898902D01*
G01X1790070Y-2898902D01*
G54D11*
G01X558800Y-2247900D02*
G01X558800Y-2323236D01*
G01X545236Y-2336800D01*
G01X546100Y-2133600D02*
G01X545236Y-2132736D01*
G01X545236Y-2032000D01*
G54D21*
G01X4241800Y-2832100D02*
G01X4330700Y-2921000D01*
G01X4559300Y-2921000D01*
G04 Track End*

M02*

