G04 Layer: BottomPasteMaskLayer*
G04 EasyEDA Pro v3.2.121, 2026-05-25 04:57:40*
G04 Gerber Generator version 0.3*
G04 Scale: 100 percent, Rotated: No, Reflected: No*
G04 Dimensions in millimeters*
G04 Leading zeros omitted, absolute positions, 4 integers and 5 decimals*
G04 Generated by one-click*
%FSLAX45Y45*%
%MOMM*%
%ADD10C,0.254*%
%ADD11C,0.4543*%
G75*


G04 PolygonModel Start*
G36*
G01X350398Y-1987001D02*
G01X430398Y-1987001D01*
G01X435399Y-1992003D01*
G01X435399Y-2014799D01*
G01X398399Y-2014799D01*
G01X398399Y-2047799D01*
G01X435399Y-2047799D01*
G01X435399Y-2072002D01*
G01X430398Y-2077001D01*
G01X350398Y-2077001D01*
G01X345399Y-2072002D01*
G01X345399Y-1992003D01*
G01X350398Y-1987001D01*
G37*
G36*
G01X589402Y-2076999D02*
G01X509402Y-2076999D01*
G01X504401Y-2071997D01*
G01X504401Y-2049201D01*
G01X541401Y-2049201D01*
G01X541401Y-2016201D01*
G01X504401Y-2016201D01*
G01X504401Y-1991998D01*
G01X509402Y-1986999D01*
G01X589402Y-1986999D01*
G01X594401Y-1991998D01*
G01X594401Y-2071997D01*
G01X589402Y-2076999D01*
G37*
G36*
G01X350398Y-2291801D02*
G01X430398Y-2291801D01*
G01X435399Y-2296803D01*
G01X435399Y-2319599D01*
G01X398399Y-2319599D01*
G01X398399Y-2352599D01*
G01X435399Y-2352599D01*
G01X435399Y-2376802D01*
G01X430398Y-2381801D01*
G01X350398Y-2381801D01*
G01X345399Y-2376802D01*
G01X345399Y-2296803D01*
G01X350398Y-2291801D01*
G37*
G36*
G01X589402Y-2381799D02*
G01X509402Y-2381799D01*
G01X504401Y-2376797D01*
G01X504401Y-2354001D01*
G01X541401Y-2354001D01*
G01X541401Y-2321001D01*
G01X504401Y-2321001D01*
G01X504401Y-2296798D01*
G01X509402Y-2291799D01*
G01X589402Y-2291799D01*
G01X594401Y-2296798D01*
G01X594401Y-2376797D01*
G01X589402Y-2381799D01*
G37*

G04 Pad Start*
G04 Pad End*
G54D10*

M02*

