G04 Layer: BottomSilkscreenLayer*
G04 EasyEDA Pro v3.2.121, 2026-05-25 04:57:40*
G04 Gerber Generator version 0.3*
G04 Scale: 100 percent, Rotated: No, Reflected: No*
G04 Dimensions in millimeters*
G04 Leading zeros omitted, absolute positions, 4 integers and 5 decimals*
G04 Generated by one-click*
%FSLAX45Y45*%
%MOMM*%
%ADD10C,0.1524*%
%ADD11C,0.6168*%
G75*


G04 Text Start*
G54D10*
G01X309880Y-2026666D02*
G01X309880Y-2091690D01*
G01X309880Y-2026666D02*
G01X281940Y-2026666D01*
G01X272796Y-2029714D01*
G01X269748Y-2032762D01*
G01X266446Y-2039112D01*
G01X266446Y-2045208D01*
G01X269748Y-2051304D01*
G01X272796Y-2054352D01*
G01X281940Y-2057654D01*
G01X309880Y-2057654D01*
G01X288290Y-2057654D02*
G01X266446Y-2091690D01*
G01X236220Y-2039112D02*
G01X230124Y-2035810D01*
G01X220980Y-2026666D01*
G01X220980Y-2091690D01*
G01X309880Y-2331466D02*
G01X309880Y-2396490D01*
G01X309880Y-2331466D02*
G01X281940Y-2331466D01*
G01X272796Y-2334514D01*
G01X269748Y-2337562D01*
G01X266446Y-2343912D01*
G01X266446Y-2350008D01*
G01X269748Y-2356104D01*
G01X272796Y-2359152D01*
G01X281940Y-2362454D01*
G01X309880Y-2362454D01*
G01X288290Y-2362454D02*
G01X266446Y-2396490D01*
G01X233172Y-2346960D02*
G01X233172Y-2343912D01*
G01X230124Y-2337562D01*
G01X227076Y-2334514D01*
G01X220980Y-2331466D01*
G01X208534Y-2331466D01*
G01X202184Y-2334514D01*
G01X199136Y-2337562D01*
G01X196088Y-2343912D01*
G01X196088Y-2350008D01*
G01X199136Y-2356104D01*
G01X205486Y-2365502D01*
G01X236220Y-2396490D01*
G01X193040Y-2396490D01*
G04 Text End*

G04 PolygonModel Start*
G01X427279Y-2098060D02*
G01X331391Y-2098060D01*
G01X331391Y-2098060D02*
G01X331391Y-1965940D01*
G01X331391Y-1965940D02*
G01X427279Y-1965940D01*
G01X512521Y-2098060D02*
G01X608409Y-2098060D01*
G01X608409Y-2098060D02*
G01X608409Y-1965940D01*
G01X608409Y-1965940D02*
G01X512521Y-1965940D01*
G01X427279Y-2402860D02*
G01X331391Y-2402860D01*
G01X331391Y-2402860D02*
G01X331391Y-2270740D01*
G01X331391Y-2270740D02*
G01X427279Y-2270740D01*
G01X512521Y-2402860D02*
G01X608409Y-2402860D01*
G01X608409Y-2402860D02*
G01X608409Y-2270740D01*
G01X608409Y-2270740D02*
G01X512521Y-2270740D01*

M02*

