G04 Layer: DrillDrawingLayer*
G04 EasyEDA Pro v3.2.121, 2026-05-25 04:57:40*
G04 Gerber Generator version 0.3*
G04 Scale: 100 percent, Rotated: No, Reflected: No*
G04 Dimensions in millimeters*
G04 Leading zeros omitted, absolute positions, 4 integers and 5 decimals*
G04 Generated by one-click*
%FSLAX45Y45*%
%MOMM*%
%AMIconRect*4,1,4,0.28,-0.28,-0.28,-0.28,-0.28,0.28,0.28,0.28,0.28,-0.28,0*4,0,4,0.233333,-0.233333,0.233333,0.233333,-0.233333,0.233333,-0.233333,-0.233333,0.233333,-0.233333,0*%
%AMIconTriangle*4,1,3,-0.339593,0.240473,0.339593,0.240473,0,-0.37884,-0.339593,0.240473,0*4,0,3,-0.265673,0.19404,0,-0.27342,0.266233,0.19404,-0.265673,0.19404,0*%
%AMIconStar6*4,1,12,0.12068,0.20888,0.298527,0.172713,0.241313,0,0.298527,-0.17206,0.12068,-0.208227,0,-0.344073,-0.120073,-0.208227,-0.298573,-0.17206,-0.240707,0,-0.298573,0.17206,-0.120073,0.20888,0,0.344073,0.12068,0.20888,0*4,0,12,-0.000467,0.273467,-0.090067,0.171733,-0.237533,0.136733,-0.193667,-0.007467,-0.237533,-0.1372,-0.090067,-0.171733,-0.000467,-0.273933,0.090067,-0.171733,0.237533,-0.1372,0.194133,0.007,0.237533,0.1372,0.090067,0.171267,-0.000467,0.273467,0*%
%AMIconStar4*4,1,8,-0.311733,0.311733,0,0.202533,0.311733,0.311733,0.202533,0,0.311733,-0.311733,0,-0.202533,-0.304407,-0.311733,-0.202533,0,-0.311733,0.311733,0*4,0,8,0.233333,-0.233333,0.1512,0,0.233333,0.233333,0,0.1512,-0.233333,0.233333,-0.1512,0,-0.233333,-0.233333,0,-0.1512,0.233333,-0.233333,0*%
%AMIconPlus*4,1,12,0.1736,-0.28,-0.1736,-0.28,-0.1736,-0.1736,-0.28,-0.1736,-0.28,0.1736,-0.1736,0.1736,-0.1736,0.28,0.1736,0.28,0.1736,0.1736,0.28,0.1736,0.28,-0.1736,0.1736,-0.1736,0.1736,-0.28,0*4,0,12,0.126933,-0.233333,0.126933,-0.126933,0.233333,-0.126933,0.233333,0.126933,0.126933,0.126933,0.126933,0.233333,-0.126933,0.233333,-0.126933,0.126933,-0.233333,0.126933,-0.233333,-0.126933,-0.126933,-0.126933,-0.126933,-0.233333,0.126933,-0.233333,0*%
%AMIconX*4,1,16,0.28,-0.28,0.076347,-0.28,0,-0.203653,-0.076347,-0.28,-0.28,-0.28,-0.28,-0.076347,-0.203653,0,-0.28,0.076347,-0.28,0.28,-0.076347,0.28,0,0.203653,0.076347,0.28,0.28,0.28,0.28,0.076347,0.203653,0,0.28,-0.076347,0.28,-0.28,0*4,0,16,0.23352,-0.23296,0.23352,-0.095853,0.137107,0.000093,0.23352,0.095853,0.23352,0.2331,0.095853,0.2331,0,0.137107,-0.095853,0.2331,-0.23352,0.2331,-0.23352,0.095853,-0.137107,0.000093,-0.23352,-0.095853,-0.23352,-0.23296,-0.095853,-0.23296,0,-0.137107,0.095853,-0.23296,0.23352,-0.23296,0*%
%ADD10IconRect*%
%ADD11C,0.616X0.522667*%
%ADD12IconTriangle*%
%ADD13IconStar6*%
%ADD14IconStar4*%
%ADD15IconPlus*%
%ADD16IconX*%
%ADD17C,0.2032*%
%ADD18C,0.254*%
G75*


G04 Drill Drawing Start*
G54D10*
G01X652402Y-2591509D03*
G01X652404Y-1726507D03*
G54D11*
G01X232397Y-1726501D03*
G01X232397Y-2591498D03*
G54D12*
G01X600393Y-1870011D03*
G01X600393Y-2448014D03*
G54D13*
G01X189972Y-2806700D03*
G01X190904Y-189972D03*
G01X4810028Y-2810028D03*
G01X4810028Y-194964D03*
G54D14*
G01X1181108Y-2503950D03*
G01X1701800Y-1625600D03*
G01X1790070Y-2898902D03*
G01X2730500Y-508000D03*
G01X3873500Y-1371600D03*
G01X4241800Y-2095500D03*
G01X4559300Y-2921000D03*
G54D15*
G01X533400Y-177800D03*
G01X787400Y-177800D03*
G01X1041400Y-177800D03*
G01X1295400Y-177800D03*
G01X4826000Y-1270000D03*
G01X4826000Y-1016000D03*
G01X4826000Y-762000D03*
G01X4826000Y-508000D03*
G54D16*
G01X88900Y-876300D03*
G01X88900Y-812800D03*
G01X95250Y-1136650D03*
G01X95250Y-1073150D03*
G01X114300Y-2286000D03*
G01X114300Y-2222500D03*
G01X114300Y-2159000D03*
G01X114300Y-2095500D03*
G01X114300Y-2032000D03*
G01X114300Y-1968500D03*
G01X152400Y-876300D03*
G01X152400Y-812800D03*
G01X158750Y-1136650D03*
G01X158750Y-1073150D03*
G01X177800Y-2286000D03*
G01X177800Y-2222500D03*
G01X177800Y-2159000D03*
G01X177800Y-2095500D03*
G01X177800Y-2032000D03*
G01X177800Y-1968500D03*
G01X241300Y-2286000D03*
G01X241300Y-2222500D03*
G01X241300Y-2159000D03*
G01X241300Y-2095500D03*
G01X241300Y-2032000D03*
G01X241300Y-1968500D03*
G01X393700Y-2819400D03*
G01X393700Y-2755900D03*
G01X393700Y-2692400D03*
G01X457200Y-2819400D03*
G01X457200Y-2755900D03*
G01X457200Y-2692400D03*
G01X520700Y-2819400D03*
G01X520700Y-2755900D03*
G01X520700Y-2692400D03*
G01X546100Y-2133600D03*
G01X558800Y-2247900D03*
G01X584200Y-2819400D03*
G01X584200Y-2755900D03*
G01X584200Y-2692400D03*
G01X647700Y-2819400D03*
G01X647700Y-2755900D03*
G01X647700Y-2692400D03*
G01X711200Y-2819400D03*
G01X711200Y-2755900D03*
G01X711200Y-2692400D03*
G01X850900Y-2540000D03*
G01X850900Y-2476500D03*
G01X876300Y-2197100D03*
G01X914400Y-2540000D03*
G01X914400Y-2476500D03*
G01X977900Y-2540000D03*
G01X977900Y-2476500D03*
G01X1003300Y-812800D03*
G01X1003300Y-749300D03*
G01X1003300Y-685800D03*
G01X1041400Y-2540000D03*
G01X1041400Y-2476500D03*
G01X1384300Y-2590800D03*
G01X1435100Y-1943100D03*
G01X1435100Y-1879600D03*
G01X1435100Y-1816100D03*
G01X1447800Y-2590800D03*
G01X1498600Y-1943100D03*
G01X1498600Y-1879600D03*
G01X1498600Y-1816100D03*
G01X1498600Y-1117600D03*
G01X1498600Y-1054100D03*
G01X1498600Y-990600D03*
G01X1498600Y-927100D03*
G01X1498600Y-863600D03*
G01X1498600Y-800100D03*
G01X1498600Y-736600D03*
G01X1511300Y-2590800D03*
G01X1562100Y-1943100D03*
G01X1562100Y-1879600D03*
G01X1562100Y-1816100D03*
G01X1562100Y-1117600D03*
G01X1562100Y-1054100D03*
G01X1562100Y-990600D03*
G01X1562100Y-927100D03*
G01X1562100Y-863600D03*
G01X1562100Y-800100D03*
G01X1562100Y-736600D03*
G01X1625600Y-1117600D03*
G01X1625600Y-1054100D03*
G01X1625600Y-990600D03*
G01X1625600Y-927100D03*
G01X1625600Y-863600D03*
G01X1625600Y-800100D03*
G01X1625600Y-736600D03*
G01X1689100Y-1117600D03*
G01X1689100Y-1054100D03*
G01X1689100Y-990600D03*
G01X1689100Y-927100D03*
G01X1689100Y-863600D03*
G01X1689100Y-800100D03*
G01X1689100Y-736600D03*
G01X1738159Y-2516274D03*
G01X1765300Y-508000D03*
G01X1892300Y-546100D03*
G01X1892300Y-482600D03*
G01X1905000Y-2514600D03*
G01X1955800Y-546100D03*
G01X1955800Y-482600D03*
G01X1969361Y-2514144D03*
G01X2019300Y-546100D03*
G01X2019300Y-482600D03*
G01X2336800Y-1986001D03*
G01X2336800Y-1836014D03*
G01X2425700Y-520700D03*
G01X2425700Y-457200D03*
G01X2489200Y-520700D03*
G01X2489200Y-457200D03*
G01X2552700Y-520700D03*
G01X2552700Y-457200D03*
G01X2857500Y-304800D03*
G01X2857500Y-241300D03*
G01X2857500Y-177800D03*
G01X2921000Y-304800D03*
G01X2921000Y-241300D03*
G01X2921000Y-177800D03*
G01X2984500Y-1308100D03*
G01X2984500Y-1244600D03*
G01X2984500Y-1181100D03*
G01X2984500Y-304800D03*
G01X2984500Y-241300D03*
G01X2984500Y-177800D03*
G01X3048000Y-1308100D03*
G01X3048000Y-1244600D03*
G01X3048000Y-1181100D03*
G01X3048000Y-304800D03*
G01X3048000Y-241300D03*
G01X3048000Y-177800D03*
G01X3073400Y-838200D03*
G01X3073400Y-774700D03*
G01X3073400Y-711200D03*
G01X3111500Y-1308100D03*
G01X3111500Y-1244600D03*
G01X3111500Y-1181100D03*
G01X3111500Y-304800D03*
G01X3111500Y-241300D03*
G01X3111500Y-177800D03*
G01X3136900Y-838200D03*
G01X3136900Y-774700D03*
G01X3136900Y-711200D03*
G01X3175000Y-1308100D03*
G01X3175000Y-1244600D03*
G01X3175000Y-1181100D03*
G01X3175000Y-304800D03*
G01X3175000Y-241300D03*
G01X3175000Y-177800D03*
G01X3200400Y-838200D03*
G01X3200400Y-774700D03*
G01X3200400Y-711200D03*
G01X3238500Y-1308100D03*
G01X3238500Y-1244600D03*
G01X3238500Y-1181100D03*
G01X3238500Y-304800D03*
G01X3238500Y-241300D03*
G01X3238500Y-177800D03*
G01X3247588Y-2456186D03*
G01X3247588Y-1440186D03*
G01X3263900Y-838200D03*
G01X3263900Y-774700D03*
G01X3263900Y-711200D03*
G01X3302000Y-1308100D03*
G01X3302000Y-1244600D03*
G01X3302000Y-1181100D03*
G01X3302000Y-304800D03*
G01X3302000Y-241300D03*
G01X3302000Y-177800D03*
G01X3327400Y-838200D03*
G01X3327400Y-774700D03*
G01X3327400Y-711200D03*
G01X3365500Y-304800D03*
G01X3365500Y-241300D03*
G01X3365500Y-177800D03*
G01X3390900Y-838200D03*
G01X3390900Y-774700D03*
G01X3390900Y-711200D03*
G01X3949700Y-1612900D03*
G01X3949700Y-1549400D03*
G01X3949700Y-1485900D03*
G01X4013200Y-1612900D03*
G01X4013200Y-1549400D03*
G01X4013200Y-1485900D03*
G01X4076700Y-1612900D03*
G01X4076700Y-1549400D03*
G01X4076700Y-1485900D03*
G01X4076700Y-495300D03*
G01X4076700Y-431800D03*
G01X4076700Y-368300D03*
G01X4076700Y-304800D03*
G01X4076700Y-241300D03*
G01X4076700Y-177800D03*
G01X4140200Y-495300D03*
G01X4140200Y-431800D03*
G01X4140200Y-368300D03*
G01X4140200Y-304800D03*
G01X4140200Y-241300D03*
G01X4140200Y-177800D03*
G01X4203700Y-495300D03*
G01X4203700Y-431800D03*
G01X4203700Y-368300D03*
G01X4203700Y-304800D03*
G01X4203700Y-241300D03*
G01X4203700Y-177800D03*
G01X4267200Y-495300D03*
G01X4267200Y-431800D03*
G01X4267200Y-368300D03*
G01X4267200Y-304800D03*
G01X4267200Y-241300D03*
G01X4267200Y-177800D03*
G01X4432300Y-1358900D03*
G01X4432300Y-1295400D03*
G01X4432300Y-1231900D03*
G01X4495800Y-1358900D03*
G01X4495800Y-1295400D03*
G01X4495800Y-1231900D03*
G01X4607814Y-1948186D03*
G01X4607814Y-932186D03*
G01X4607814Y-424186D03*
G01X4864100Y-2400300D03*
G01X4864100Y-2336800D03*
G01X4864100Y-2273300D03*
G01X4902200Y-1549400D03*
G01X4927600Y-2400300D03*
G01X4927600Y-2336800D03*
G01X4927600Y-2273300D03*
G01X4927600Y-1955800D03*
G01X4927600Y-1892300D03*
G04 Drill Drawing End*

G04 Text Start*
G54D17*
G01X7300446Y-221706D02*
G01X7300446Y-341848D01*
G01X7300446Y-221706D02*
G01X7346166Y-341848D01*
G01X7391886Y-221706D02*
G01X7346166Y-341848D01*
G01X7391886Y-221706D02*
G01X7391886Y-341848D01*
G01X7508218Y-261838D02*
G01X7508218Y-341848D01*
G01X7508218Y-278856D02*
G01X7496788Y-267426D01*
G01X7485358Y-261838D01*
G01X7468340Y-261838D01*
G01X7456910Y-267426D01*
G01X7445480Y-278856D01*
G01X7439638Y-296128D01*
G01X7439638Y-307558D01*
G01X7445480Y-324576D01*
G01X7456910Y-336006D01*
G01X7468340Y-341848D01*
G01X7485358Y-341848D01*
G01X7496788Y-336006D01*
G01X7508218Y-324576D01*
G01X7555970Y-261838D02*
G01X7555970Y-341848D01*
G01X7555970Y-296128D02*
G01X7561812Y-278856D01*
G01X7573242Y-267426D01*
G01X7584672Y-261838D01*
G01X7601690Y-261838D01*
G01X7649442Y-221706D02*
G01X7649442Y-341848D01*
G01X7706592Y-261838D02*
G01X7649442Y-318988D01*
G01X7672302Y-296128D02*
G01X7712434Y-341848D01*
G01X8837726Y-250408D02*
G01X8831884Y-238978D01*
G01X8820454Y-227548D01*
G01X8809024Y-221706D01*
G01X8786164Y-221706D01*
G01X8774734Y-227548D01*
G01X8763304Y-238978D01*
G01X8757716Y-250408D01*
G01X8751874Y-267426D01*
G01X8751874Y-296128D01*
G01X8757716Y-313146D01*
G01X8763304Y-324576D01*
G01X8774734Y-336006D01*
G01X8786164Y-341848D01*
G01X8809024Y-341848D01*
G01X8820454Y-336006D01*
G01X8831884Y-324576D01*
G01X8837726Y-313146D01*
G01X8914180Y-261838D02*
G01X8902750Y-267426D01*
G01X8891320Y-278856D01*
G01X8885478Y-296128D01*
G01X8885478Y-307558D01*
G01X8891320Y-324576D01*
G01X8902750Y-336006D01*
G01X8914180Y-341848D01*
G01X8931198Y-341848D01*
G01X8942628Y-336006D01*
G01X8954058Y-324576D01*
G01X8959900Y-307558D01*
G01X8959900Y-296128D01*
G01X8954058Y-278856D01*
G01X8942628Y-267426D01*
G01X8931198Y-261838D01*
G01X8914180Y-261838D01*
G01X9007652Y-261838D02*
G01X9007652Y-318988D01*
G01X9013494Y-336006D01*
G01X9024924Y-341848D01*
G01X9041942Y-341848D01*
G01X9053372Y-336006D01*
G01X9070644Y-318988D01*
G01X9070644Y-261838D02*
G01X9070644Y-341848D01*
G01X9118396Y-261838D02*
G01X9118396Y-341848D01*
G01X9118396Y-284698D02*
G01X9135668Y-267426D01*
G01X9147098Y-261838D01*
G01X9164116Y-261838D01*
G01X9175546Y-267426D01*
G01X9181388Y-284698D01*
G01X9181388Y-341848D01*
G01X9246412Y-221706D02*
G01X9246412Y-318988D01*
G01X9252000Y-336006D01*
G01X9263430Y-341848D01*
G01X9274860Y-341848D01*
G01X9229140Y-261838D02*
G01X9269272Y-261838D01*
G01X10246047Y-238978D02*
G01X10234617Y-227548D01*
G01X10217599Y-221706D01*
G01X10194739Y-221706D01*
G01X10177467Y-227548D01*
G01X10166037Y-238978D01*
G01X10166037Y-250408D01*
G01X10171879Y-261838D01*
G01X10177467Y-267426D01*
G01X10188897Y-273268D01*
G01X10223187Y-284698D01*
G01X10234617Y-290286D01*
G01X10240459Y-296128D01*
G01X10246047Y-307558D01*
G01X10246047Y-324576D01*
G01X10234617Y-336006D01*
G01X10217599Y-341848D01*
G01X10194739Y-341848D01*
G01X10177467Y-336006D01*
G01X10166037Y-324576D01*
G01X10293799Y-221706D02*
G01X10299641Y-227548D01*
G01X10305229Y-221706D01*
G01X10299641Y-216118D01*
G01X10293799Y-221706D01*
G01X10299641Y-261838D02*
G01X10299641Y-341848D01*
G01X10415973Y-261838D02*
G01X10352981Y-341848D01*
G01X10352981Y-261838D02*
G01X10415973Y-261838D01*
G01X10352981Y-341848D02*
G01X10415973Y-341848D01*
G01X10463725Y-296128D02*
G01X10532305Y-296128D01*
G01X10532305Y-284698D01*
G01X10526717Y-273268D01*
G01X10520875Y-267426D01*
G01X10509445Y-261838D01*
G01X10492427Y-261838D01*
G01X10480997Y-267426D01*
G01X10469567Y-278856D01*
G01X10463725Y-296128D01*
G01X10463725Y-307558D01*
G01X10469567Y-324576D01*
G01X10480997Y-336006D01*
G01X10492427Y-341848D01*
G01X10509445Y-341848D01*
G01X10520875Y-336006D01*
G01X10532305Y-324576D01*
G01X14002852Y-221706D02*
G01X14002852Y-341848D01*
G01X14002852Y-221706D02*
G01X14054414Y-221706D01*
G01X14071432Y-227548D01*
G01X14077274Y-233136D01*
G01X14082862Y-244566D01*
G01X14082862Y-261838D01*
G01X14077274Y-273268D01*
G01X14071432Y-278856D01*
G01X14054414Y-284698D01*
G01X14002852Y-284698D01*
G01X14130614Y-221706D02*
G01X14130614Y-341848D01*
G01X14246946Y-261838D02*
G01X14246946Y-341848D01*
G01X14246946Y-278856D02*
G01X14235516Y-267426D01*
G01X14224086Y-261838D01*
G01X14207068Y-261838D01*
G01X14195638Y-267426D01*
G01X14184208Y-278856D01*
G01X14178366Y-296128D01*
G01X14178366Y-307558D01*
G01X14184208Y-324576D01*
G01X14195638Y-336006D01*
G01X14207068Y-341848D01*
G01X14224086Y-341848D01*
G01X14235516Y-336006D01*
G01X14246946Y-324576D01*
G01X14311970Y-221706D02*
G01X14311970Y-318988D01*
G01X14317558Y-336006D01*
G01X14328988Y-341848D01*
G01X14340418Y-341848D01*
G01X14294698Y-261838D02*
G01X14334830Y-261838D01*
G01X14388170Y-296128D02*
G01X14456750Y-296128D01*
G01X14456750Y-284698D01*
G01X14451162Y-273268D01*
G01X14445320Y-267426D01*
G01X14433890Y-261838D01*
G01X14416872Y-261838D01*
G01X14405442Y-267426D01*
G01X14394012Y-278856D01*
G01X14388170Y-296128D01*
G01X14388170Y-307558D01*
G01X14394012Y-324576D01*
G01X14405442Y-336006D01*
G01X14416872Y-341848D01*
G01X14433890Y-341848D01*
G01X14445320Y-336006D01*
G01X14456750Y-324576D01*
G01X14573082Y-221706D02*
G01X14573082Y-341848D01*
G01X14573082Y-278856D02*
G01X14561652Y-267426D01*
G01X14550222Y-261838D01*
G01X14533204Y-261838D01*
G01X14521774Y-267426D01*
G01X14510344Y-278856D01*
G01X14504502Y-296128D01*
G01X14504502Y-307558D01*
G01X14510344Y-324576D01*
G01X14521774Y-336006D01*
G01X14533204Y-341848D01*
G01X14550222Y-341848D01*
G01X14561652Y-336006D01*
G01X14573082Y-324576D01*
G01X15544270Y-238978D02*
G01X15532840Y-227548D01*
G01X15515822Y-221706D01*
G01X15492962Y-221706D01*
G01X15475690Y-227548D01*
G01X15464260Y-238978D01*
G01X15464260Y-250408D01*
G01X15470102Y-261838D01*
G01X15475690Y-267426D01*
G01X15487120Y-273268D01*
G01X15521410Y-284698D01*
G01X15532840Y-290286D01*
G01X15538682Y-296128D01*
G01X15544270Y-307558D01*
G01X15544270Y-324576D01*
G01X15532840Y-336006D01*
G01X15515822Y-341848D01*
G01X15492962Y-341848D01*
G01X15475690Y-336006D01*
G01X15464260Y-324576D01*
G01X15592022Y-221706D02*
G01X15592022Y-341848D01*
G01X15592022Y-284698D02*
G01X15609294Y-267426D01*
G01X15620724Y-261838D01*
G01X15637742Y-261838D01*
G01X15649172Y-267426D01*
G01X15655014Y-284698D01*
G01X15655014Y-341848D01*
G01X15771346Y-261838D02*
G01X15771346Y-341848D01*
G01X15771346Y-278856D02*
G01X15759916Y-267426D01*
G01X15748486Y-261838D01*
G01X15731468Y-261838D01*
G01X15720038Y-267426D01*
G01X15708608Y-278856D01*
G01X15702766Y-296128D01*
G01X15702766Y-307558D01*
G01X15708608Y-324576D01*
G01X15720038Y-336006D01*
G01X15731468Y-341848D01*
G01X15748486Y-341848D01*
G01X15759916Y-336006D01*
G01X15771346Y-324576D01*
G01X15819098Y-261838D02*
G01X15819098Y-381726D01*
G01X15819098Y-278856D02*
G01X15830528Y-267426D01*
G01X15841958Y-261838D01*
G01X15859230Y-261838D01*
G01X15870660Y-267426D01*
G01X15882090Y-278856D01*
G01X15887678Y-296128D01*
G01X15887678Y-307558D01*
G01X15882090Y-324576D01*
G01X15870660Y-336006D01*
G01X15859230Y-341848D01*
G01X15841958Y-341848D01*
G01X15830528Y-336006D01*
G01X15819098Y-324576D01*
G01X15935430Y-296128D02*
G01X16004010Y-296128D01*
G01X16004010Y-284698D01*
G01X15998422Y-273268D01*
G01X15992580Y-267426D01*
G01X15981150Y-261838D01*
G01X15964132Y-261838D01*
G01X15952702Y-267426D01*
G01X15941272Y-278856D01*
G01X15935430Y-296128D01*
G01X15935430Y-307558D01*
G01X15941272Y-324576D01*
G01X15952702Y-336006D01*
G01X15964132Y-341848D01*
G01X15981150Y-341848D01*
G01X15992580Y-336006D01*
G01X16004010Y-324576D01*
G01X16895441Y-221706D02*
G01X16941161Y-341848D01*
G01X16986881Y-221706D02*
G01X16941161Y-341848D01*
G01X17034633Y-221706D02*
G01X17040475Y-227548D01*
G01X17046063Y-221706D01*
G01X17040475Y-216118D01*
G01X17034633Y-221706D01*
G01X17040475Y-261838D02*
G01X17040475Y-341848D01*
G01X17162395Y-261838D02*
G01X17162395Y-341848D01*
G01X17162395Y-278856D02*
G01X17150965Y-267426D01*
G01X17139535Y-261838D01*
G01X17122517Y-261838D01*
G01X17111087Y-267426D01*
G01X17099657Y-278856D01*
G01X17093815Y-296128D01*
G01X17093815Y-307558D01*
G01X17099657Y-324576D01*
G01X17111087Y-336006D01*
G01X17122517Y-341848D01*
G01X17139535Y-341848D01*
G01X17150965Y-336006D01*
G01X17162395Y-324576D01*
G01X17313017Y-198846D02*
G01X17210147Y-381726D01*
G01X17360769Y-221706D02*
G01X17360769Y-341848D01*
G01X17360769Y-221706D02*
G01X17412331Y-221706D01*
G01X17429349Y-227548D01*
G01X17435191Y-233136D01*
G01X17440779Y-244566D01*
G01X17440779Y-261838D01*
G01X17435191Y-273268D01*
G01X17429349Y-278856D01*
G01X17412331Y-284698D01*
G01X17360769Y-284698D01*
G01X17557111Y-261838D02*
G01X17557111Y-341848D01*
G01X17557111Y-278856D02*
G01X17545681Y-267426D01*
G01X17534251Y-261838D01*
G01X17517233Y-261838D01*
G01X17505803Y-267426D01*
G01X17494373Y-278856D01*
G01X17488531Y-296128D01*
G01X17488531Y-307558D01*
G01X17494373Y-324576D01*
G01X17505803Y-336006D01*
G01X17517233Y-341848D01*
G01X17534251Y-341848D01*
G01X17545681Y-336006D01*
G01X17557111Y-324576D01*
G01X17673443Y-221706D02*
G01X17673443Y-341848D01*
G01X17673443Y-278856D02*
G01X17662013Y-267426D01*
G01X17650583Y-261838D01*
G01X17633565Y-261838D01*
G01X17622135Y-267426D01*
G01X17610705Y-278856D01*
G01X17604863Y-296128D01*
G01X17604863Y-307558D01*
G01X17610705Y-324576D01*
G01X17622135Y-336006D01*
G01X17633565Y-341848D01*
G01X17650583Y-341848D01*
G01X17662013Y-336006D01*
G01X17673443Y-324576D01*
G01X18564620Y-221706D02*
G01X18564620Y-341848D01*
G01X18564620Y-221706D02*
G01X18616182Y-221706D01*
G01X18633200Y-227548D01*
G01X18639042Y-233136D01*
G01X18644630Y-244566D01*
G01X18644630Y-261838D01*
G01X18639042Y-273268D01*
G01X18633200Y-278856D01*
G01X18616182Y-284698D01*
G01X18564620Y-284698D01*
G01X18760962Y-261838D02*
G01X18760962Y-341848D01*
G01X18760962Y-278856D02*
G01X18749532Y-267426D01*
G01X18738102Y-261838D01*
G01X18721084Y-261838D01*
G01X18709654Y-267426D01*
G01X18698224Y-278856D01*
G01X18692382Y-296128D01*
G01X18692382Y-307558D01*
G01X18698224Y-324576D01*
G01X18709654Y-336006D01*
G01X18721084Y-341848D01*
G01X18738102Y-341848D01*
G01X18749532Y-336006D01*
G01X18760962Y-324576D01*
G01X18877294Y-221706D02*
G01X18877294Y-341848D01*
G01X18877294Y-278856D02*
G01X18865864Y-267426D01*
G01X18854434Y-261838D01*
G01X18837416Y-261838D01*
G01X18825986Y-267426D01*
G01X18814556Y-278856D01*
G01X18808714Y-296128D01*
G01X18808714Y-307558D01*
G01X18814556Y-324576D01*
G01X18825986Y-336006D01*
G01X18837416Y-341848D01*
G01X18854434Y-341848D01*
G01X18865864Y-336006D01*
G01X18877294Y-324576D01*
G01X19133072Y-238978D02*
G01X19121642Y-227548D01*
G01X19104624Y-221706D01*
G01X19081764Y-221706D01*
G01X19064492Y-227548D01*
G01X19053062Y-238978D01*
G01X19053062Y-250408D01*
G01X19058904Y-261838D01*
G01X19064492Y-267426D01*
G01X19075922Y-273268D01*
G01X19110212Y-284698D01*
G01X19121642Y-290286D01*
G01X19127484Y-296128D01*
G01X19133072Y-307558D01*
G01X19133072Y-324576D01*
G01X19121642Y-336006D01*
G01X19104624Y-341848D01*
G01X19081764Y-341848D01*
G01X19064492Y-336006D01*
G01X19053062Y-324576D01*
G01X19180824Y-221706D02*
G01X19180824Y-341848D01*
G01X19180824Y-284698D02*
G01X19198096Y-267426D01*
G01X19209526Y-261838D01*
G01X19226544Y-261838D01*
G01X19237974Y-267426D01*
G01X19243816Y-284698D01*
G01X19243816Y-341848D01*
G01X19360148Y-261838D02*
G01X19360148Y-341848D01*
G01X19360148Y-278856D02*
G01X19348718Y-267426D01*
G01X19337288Y-261838D01*
G01X19320270Y-261838D01*
G01X19308840Y-267426D01*
G01X19297410Y-278856D01*
G01X19291568Y-296128D01*
G01X19291568Y-307558D01*
G01X19297410Y-324576D01*
G01X19308840Y-336006D01*
G01X19320270Y-341848D01*
G01X19337288Y-341848D01*
G01X19348718Y-336006D01*
G01X19360148Y-324576D01*
G01X19407900Y-261838D02*
G01X19407900Y-381726D01*
G01X19407900Y-278856D02*
G01X19419330Y-267426D01*
G01X19430760Y-261838D01*
G01X19448032Y-261838D01*
G01X19459462Y-267426D01*
G01X19470892Y-278856D01*
G01X19476480Y-296128D01*
G01X19476480Y-307558D01*
G01X19470892Y-324576D01*
G01X19459462Y-336006D01*
G01X19448032Y-341848D01*
G01X19430760Y-341848D01*
G01X19419330Y-336006D01*
G01X19407900Y-324576D01*
G01X19524232Y-296128D02*
G01X19592812Y-296128D01*
G01X19592812Y-284698D01*
G01X19587224Y-273268D01*
G01X19581382Y-267426D01*
G01X19569952Y-261838D01*
G01X19552934Y-261838D01*
G01X19541504Y-267426D01*
G01X19530074Y-278856D01*
G01X19524232Y-296128D01*
G01X19524232Y-307558D01*
G01X19530074Y-324576D01*
G01X19541504Y-336006D01*
G01X19552934Y-341848D01*
G01X19569952Y-341848D01*
G01X19581382Y-336006D01*
G01X19592812Y-324576D01*
G01X20483989Y-221706D02*
G01X20483989Y-341848D01*
G01X20483989Y-341848D02*
G01X20552569Y-341848D01*
G01X20668901Y-261838D02*
G01X20668901Y-341848D01*
G01X20668901Y-278856D02*
G01X20657471Y-267426D01*
G01X20646041Y-261838D01*
G01X20629023Y-261838D01*
G01X20617593Y-267426D01*
G01X20606163Y-278856D01*
G01X20600321Y-296128D01*
G01X20600321Y-307558D01*
G01X20606163Y-324576D01*
G01X20617593Y-336006D01*
G01X20629023Y-341848D01*
G01X20646041Y-341848D01*
G01X20657471Y-336006D01*
G01X20668901Y-324576D01*
G01X20722495Y-261838D02*
G01X20756785Y-341848D01*
G01X20791075Y-261838D02*
G01X20756785Y-341848D01*
G01X20745355Y-364708D01*
G01X20733925Y-376138D01*
G01X20722495Y-381726D01*
G01X20716653Y-381726D01*
G01X20838827Y-296128D02*
G01X20907407Y-296128D01*
G01X20907407Y-284698D01*
G01X20901819Y-273268D01*
G01X20895977Y-267426D01*
G01X20884547Y-261838D01*
G01X20867529Y-261838D01*
G01X20856099Y-267426D01*
G01X20844669Y-278856D01*
G01X20838827Y-296128D01*
G01X20838827Y-307558D01*
G01X20844669Y-324576D01*
G01X20856099Y-336006D01*
G01X20867529Y-341848D01*
G01X20884547Y-341848D01*
G01X20895977Y-336006D01*
G01X20907407Y-324576D01*
G01X20955159Y-261838D02*
G01X20955159Y-341848D01*
G01X20955159Y-296128D02*
G01X20961001Y-278856D01*
G01X20972431Y-267426D01*
G01X20983861Y-261838D01*
G01X21000879Y-261838D01*
G01X21176647Y-221706D02*
G01X21176647Y-341848D01*
G01X21176647Y-221706D02*
G01X21228209Y-221706D01*
G01X21245227Y-227548D01*
G01X21251069Y-233136D01*
G01X21256657Y-244566D01*
G01X21256657Y-261838D01*
G01X21251069Y-273268D01*
G01X21245227Y-278856D01*
G01X21228209Y-284698D01*
G01X21176647Y-284698D01*
G01X21372989Y-261838D02*
G01X21372989Y-341848D01*
G01X21372989Y-278856D02*
G01X21361559Y-267426D01*
G01X21350129Y-261838D01*
G01X21333111Y-261838D01*
G01X21321681Y-267426D01*
G01X21310251Y-278856D01*
G01X21304409Y-296128D01*
G01X21304409Y-307558D01*
G01X21310251Y-324576D01*
G01X21321681Y-336006D01*
G01X21333111Y-341848D01*
G01X21350129Y-341848D01*
G01X21361559Y-336006D01*
G01X21372989Y-324576D01*
G01X21420741Y-221706D02*
G01X21426583Y-227548D01*
G01X21432171Y-221706D01*
G01X21426583Y-216118D01*
G01X21420741Y-221706D01*
G01X21426583Y-261838D02*
G01X21426583Y-341848D01*
G01X21479923Y-261838D02*
G01X21479923Y-341848D01*
G01X21479923Y-296128D02*
G01X21485765Y-278856D01*
G01X21497195Y-267426D01*
G01X21508625Y-261838D01*
G01X21525643Y-261838D01*
G01X8757716Y-830979D02*
G01X8757716Y-825137D01*
G01X8763304Y-813707D01*
G01X8769146Y-808119D01*
G01X8780576Y-802277D01*
G01X8803436Y-802277D01*
G01X8814866Y-808119D01*
G01X8820454Y-813707D01*
G01X8826296Y-825137D01*
G01X8826296Y-836567D01*
G01X8820454Y-847997D01*
G01X8809024Y-865269D01*
G01X8751874Y-922419D01*
G01X8831884Y-922419D01*
G01X10171879Y-830979D02*
G01X10171879Y-825137D01*
G01X10177467Y-813707D01*
G01X10183309Y-808119D01*
G01X10194739Y-802277D01*
G01X10217599Y-802277D01*
G01X10229029Y-808119D01*
G01X10234617Y-813707D01*
G01X10240459Y-825137D01*
G01X10240459Y-836567D01*
G01X10234617Y-847997D01*
G01X10223187Y-865269D01*
G01X10166037Y-922419D01*
G01X10246047Y-922419D01*
G01X10305229Y-802277D02*
G01X10368221Y-802277D01*
G01X10333931Y-847997D01*
G01X10350949Y-847997D01*
G01X10362379Y-853839D01*
G01X10368221Y-859427D01*
G01X10373809Y-876699D01*
G01X10373809Y-888129D01*
G01X10368221Y-905147D01*
G01X10356791Y-916577D01*
G01X10339519Y-922419D01*
G01X10322501Y-922419D01*
G01X10305229Y-916577D01*
G01X10299641Y-910989D01*
G01X10293799Y-899559D01*
G01X10427403Y-893717D02*
G01X10421561Y-899559D01*
G01X10427403Y-905147D01*
G01X10432991Y-899559D01*
G01X10427403Y-893717D01*
G01X10549323Y-819549D02*
G01X10543735Y-808119D01*
G01X10526463Y-802277D01*
G01X10515033Y-802277D01*
G01X10498015Y-808119D01*
G01X10486585Y-825137D01*
G01X10480743Y-853839D01*
G01X10480743Y-882287D01*
G01X10486585Y-905147D01*
G01X10498015Y-916577D01*
G01X10515033Y-922419D01*
G01X10520875Y-922419D01*
G01X10537893Y-916577D01*
G01X10549323Y-905147D01*
G01X10555165Y-888129D01*
G01X10555165Y-882287D01*
G01X10549323Y-865269D01*
G01X10537893Y-853839D01*
G01X10520875Y-847997D01*
G01X10515033Y-847997D01*
G01X10498015Y-853839D01*
G01X10486585Y-865269D01*
G01X10480743Y-882287D01*
G01X10602917Y-842409D02*
G01X10665909Y-922419D01*
G01X10665909Y-842409D02*
G01X10602917Y-922419D01*
G01X10782241Y-802277D02*
G01X10725091Y-802277D01*
G01X10719503Y-853839D01*
G01X10725091Y-847997D01*
G01X10742363Y-842409D01*
G01X10759381Y-842409D01*
G01X10776653Y-847997D01*
G01X10788083Y-859427D01*
G01X10793671Y-876699D01*
G01X10793671Y-888129D01*
G01X10788083Y-905147D01*
G01X10776653Y-916577D01*
G01X10759381Y-922419D01*
G01X10742363Y-922419D01*
G01X10725091Y-916577D01*
G01X10719503Y-910989D01*
G01X10713661Y-899559D01*
G01X10915845Y-842409D02*
G01X10910003Y-859427D01*
G01X10898573Y-870857D01*
G01X10881555Y-876699D01*
G01X10875713Y-876699D01*
G01X10858695Y-870857D01*
G01X10847265Y-859427D01*
G01X10841423Y-842409D01*
G01X10841423Y-836567D01*
G01X10847265Y-819549D01*
G01X10858695Y-808119D01*
G01X10875713Y-802277D01*
G01X10881555Y-802277D01*
G01X10898573Y-808119D01*
G01X10910003Y-819549D01*
G01X10915845Y-842409D01*
G01X10915845Y-870857D01*
G01X10910003Y-899559D01*
G01X10898573Y-916577D01*
G01X10881555Y-922419D01*
G01X10870125Y-922419D01*
G01X10852853Y-916577D01*
G01X10847265Y-905147D01*
G01X10969439Y-893717D02*
G01X10963597Y-899559D01*
G01X10969439Y-905147D01*
G01X10975027Y-899559D01*
G01X10969439Y-893717D01*
G01X11022779Y-825137D02*
G01X11034209Y-819549D01*
G01X11051481Y-802277D01*
G01X11051481Y-922419D01*
G01X11099233Y-842409D02*
G01X11099233Y-922419D01*
G01X11099233Y-865269D02*
G01X11116505Y-847997D01*
G01X11127935Y-842409D01*
G01X11144953Y-842409D01*
G01X11156383Y-847997D01*
G01X11162225Y-865269D01*
G01X11162225Y-922419D01*
G01X11162225Y-865269D02*
G01X11179243Y-847997D01*
G01X11190673Y-842409D01*
G01X11207945Y-842409D01*
G01X11219375Y-847997D01*
G01X11224963Y-865269D01*
G01X11224963Y-922419D01*
G01X11272715Y-802277D02*
G01X11278557Y-808119D01*
G01X11284145Y-802277D01*
G01X11278557Y-796689D01*
G01X11272715Y-802277D01*
G01X11278557Y-842409D02*
G01X11278557Y-922419D01*
G01X11331897Y-802277D02*
G01X11331897Y-922419D01*
G01X11419781Y-779417D02*
G01X11408351Y-790847D01*
G01X11396921Y-808119D01*
G01X11385491Y-830979D01*
G01X11379649Y-859427D01*
G01X11379649Y-882287D01*
G01X11385491Y-910989D01*
G01X11396921Y-933849D01*
G01X11408351Y-950867D01*
G01X11419781Y-962297D01*
G01X11501823Y-802277D02*
G01X11484805Y-808119D01*
G01X11473375Y-825137D01*
G01X11467533Y-853839D01*
G01X11467533Y-870857D01*
G01X11473375Y-899559D01*
G01X11484805Y-916577D01*
G01X11501823Y-922419D01*
G01X11513253Y-922419D01*
G01X11530525Y-916577D01*
G01X11541955Y-899559D01*
G01X11547543Y-870857D01*
G01X11547543Y-853839D01*
G01X11541955Y-825137D01*
G01X11530525Y-808119D01*
G01X11513253Y-802277D01*
G01X11501823Y-802277D01*
G01X11601137Y-893717D02*
G01X11595295Y-899559D01*
G01X11601137Y-905147D01*
G01X11606725Y-899559D01*
G01X11601137Y-893717D01*
G01X11723057Y-819549D02*
G01X11717469Y-808119D01*
G01X11700197Y-802277D01*
G01X11688767Y-802277D01*
G01X11671749Y-808119D01*
G01X11660319Y-825137D01*
G01X11654477Y-853839D01*
G01X11654477Y-882287D01*
G01X11660319Y-905147D01*
G01X11671749Y-916577D01*
G01X11688767Y-922419D01*
G01X11694609Y-922419D01*
G01X11711627Y-916577D01*
G01X11723057Y-905147D01*
G01X11728899Y-888129D01*
G01X11728899Y-882287D01*
G01X11723057Y-865269D01*
G01X11711627Y-853839D01*
G01X11694609Y-847997D01*
G01X11688767Y-847997D01*
G01X11671749Y-853839D01*
G01X11660319Y-865269D01*
G01X11654477Y-882287D01*
G01X11810941Y-802277D02*
G01X11793923Y-808119D01*
G01X11782493Y-825137D01*
G01X11776651Y-853839D01*
G01X11776651Y-870857D01*
G01X11782493Y-899559D01*
G01X11793923Y-916577D01*
G01X11810941Y-922419D01*
G01X11822371Y-922419D01*
G01X11839643Y-916577D01*
G01X11851073Y-899559D01*
G01X11856661Y-870857D01*
G01X11856661Y-853839D01*
G01X11851073Y-825137D01*
G01X11839643Y-808119D01*
G01X11822371Y-802277D01*
G01X11810941Y-802277D01*
G01X11938703Y-802277D02*
G01X11921685Y-808119D01*
G01X11910255Y-825137D01*
G01X11904413Y-853839D01*
G01X11904413Y-870857D01*
G01X11910255Y-899559D01*
G01X11921685Y-916577D01*
G01X11938703Y-922419D01*
G01X11950133Y-922419D01*
G01X11967405Y-916577D01*
G01X11978835Y-899559D01*
G01X11984423Y-870857D01*
G01X11984423Y-853839D01*
G01X11978835Y-825137D01*
G01X11967405Y-808119D01*
G01X11950133Y-802277D01*
G01X11938703Y-802277D01*
G01X12032175Y-842409D02*
G01X12095167Y-922419D01*
G01X12095167Y-842409D02*
G01X12032175Y-922419D01*
G01X12142919Y-825137D02*
G01X12154349Y-819549D01*
G01X12171621Y-802277D01*
G01X12171621Y-922419D01*
G01X12225215Y-893717D02*
G01X12219373Y-899559D01*
G01X12225215Y-905147D01*
G01X12230803Y-899559D01*
G01X12225215Y-893717D01*
G01X12347135Y-802277D02*
G01X12289985Y-802277D01*
G01X12284397Y-853839D01*
G01X12289985Y-847997D01*
G01X12307257Y-842409D01*
G01X12324275Y-842409D01*
G01X12341547Y-847997D01*
G01X12352977Y-859427D01*
G01X12358565Y-876699D01*
G01X12358565Y-888129D01*
G01X12352977Y-905147D01*
G01X12341547Y-916577D01*
G01X12324275Y-922419D01*
G01X12307257Y-922419D01*
G01X12289985Y-916577D01*
G01X12284397Y-910989D01*
G01X12278555Y-899559D01*
G01X12440607Y-802277D02*
G01X12423589Y-808119D01*
G01X12412159Y-825137D01*
G01X12406317Y-853839D01*
G01X12406317Y-870857D01*
G01X12412159Y-899559D01*
G01X12423589Y-916577D01*
G01X12440607Y-922419D01*
G01X12452037Y-922419D01*
G01X12469309Y-916577D01*
G01X12480739Y-899559D01*
G01X12486327Y-870857D01*
G01X12486327Y-853839D01*
G01X12480739Y-825137D01*
G01X12469309Y-808119D01*
G01X12452037Y-802277D01*
G01X12440607Y-802277D01*
G01X12568369Y-802277D02*
G01X12551351Y-808119D01*
G01X12539921Y-825137D01*
G01X12534079Y-853839D01*
G01X12534079Y-870857D01*
G01X12539921Y-899559D01*
G01X12551351Y-916577D01*
G01X12568369Y-922419D01*
G01X12579799Y-922419D01*
G01X12597071Y-916577D01*
G01X12608501Y-899559D01*
G01X12614089Y-870857D01*
G01X12614089Y-853839D01*
G01X12608501Y-825137D01*
G01X12597071Y-808119D01*
G01X12579799Y-802277D01*
G01X12568369Y-802277D01*
G01X12661841Y-842409D02*
G01X12661841Y-922419D01*
G01X12661841Y-865269D02*
G01X12679113Y-847997D01*
G01X12690543Y-842409D01*
G01X12707561Y-842409D01*
G01X12718991Y-847997D01*
G01X12724833Y-865269D01*
G01X12724833Y-922419D01*
G01X12724833Y-865269D02*
G01X12741851Y-847997D01*
G01X12753281Y-842409D01*
G01X12770553Y-842409D01*
G01X12781983Y-847997D01*
G01X12787571Y-865269D01*
G01X12787571Y-922419D01*
G01X12835323Y-842409D02*
G01X12835323Y-922419D01*
G01X12835323Y-865269D02*
G01X12852595Y-847997D01*
G01X12864025Y-842409D01*
G01X12881043Y-842409D01*
G01X12892473Y-847997D01*
G01X12898315Y-865269D01*
G01X12898315Y-922419D01*
G01X12898315Y-865269D02*
G01X12915333Y-847997D01*
G01X12926763Y-842409D01*
G01X12944035Y-842409D01*
G01X12955465Y-847997D01*
G01X12961053Y-865269D01*
G01X12961053Y-922419D01*
G01X13008805Y-779417D02*
G01X13020235Y-790847D01*
G01X13031665Y-808119D01*
G01X13043095Y-830979D01*
G01X13048937Y-859427D01*
G01X13048937Y-882287D01*
G01X13043095Y-910989D01*
G01X13031665Y-933849D01*
G01X13020235Y-950867D01*
G01X13008805Y-962297D01*
G01X14002852Y-802277D02*
G01X14002852Y-922419D01*
G01X14002852Y-802277D02*
G01X14054414Y-802277D01*
G01X14071432Y-808119D01*
G01X14077274Y-813707D01*
G01X14082862Y-825137D01*
G01X14082862Y-842409D01*
G01X14077274Y-853839D01*
G01X14071432Y-859427D01*
G01X14054414Y-865269D01*
G01X14002852Y-865269D01*
G01X14170746Y-802277D02*
G01X14170746Y-922419D01*
G01X14130614Y-802277D02*
G01X14210624Y-802277D01*
G01X14258376Y-802277D02*
G01X14258376Y-922419D01*
G01X14338386Y-802277D02*
G01X14338386Y-922419D01*
G01X14258376Y-859427D02*
G01X14338386Y-859427D01*
G01X15544270Y-819549D02*
G01X15532840Y-808119D01*
G01X15515822Y-802277D01*
G01X15492962Y-802277D01*
G01X15475690Y-808119D01*
G01X15464260Y-819549D01*
G01X15464260Y-830979D01*
G01X15470102Y-842409D01*
G01X15475690Y-847997D01*
G01X15487120Y-853839D01*
G01X15521410Y-865269D01*
G01X15532840Y-870857D01*
G01X15538682Y-876699D01*
G01X15544270Y-888129D01*
G01X15544270Y-905147D01*
G01X15532840Y-916577D01*
G01X15515822Y-922419D01*
G01X15492962Y-922419D01*
G01X15475690Y-916577D01*
G01X15464260Y-905147D01*
G01X15592022Y-802277D02*
G01X15592022Y-922419D01*
G01X15668476Y-842409D02*
G01X15657046Y-847997D01*
G01X15645616Y-859427D01*
G01X15639774Y-876699D01*
G01X15639774Y-888129D01*
G01X15645616Y-905147D01*
G01X15657046Y-916577D01*
G01X15668476Y-922419D01*
G01X15685494Y-922419D01*
G01X15696924Y-916577D01*
G01X15708354Y-905147D01*
G01X15714196Y-888129D01*
G01X15714196Y-876699D01*
G01X15708354Y-859427D01*
G01X15696924Y-847997D01*
G01X15685494Y-842409D01*
G01X15668476Y-842409D01*
G01X15779220Y-802277D02*
G01X15779220Y-899559D01*
G01X15784808Y-916577D01*
G01X15796238Y-922419D01*
G01X15807668Y-922419D01*
G01X15761948Y-842409D02*
G01X15802080Y-842409D01*
G01X16895441Y-802277D02*
G01X16895441Y-922419D01*
G01X16895441Y-802277D02*
G01X16947003Y-802277D01*
G01X16964021Y-808119D01*
G01X16969863Y-813707D01*
G01X16975451Y-825137D01*
G01X16975451Y-842409D01*
G01X16969863Y-853839D01*
G01X16964021Y-859427D01*
G01X16947003Y-865269D01*
G01X16895441Y-865269D01*
G01X17091783Y-842409D02*
G01X17091783Y-922419D01*
G01X17091783Y-859427D02*
G01X17080353Y-847997D01*
G01X17068923Y-842409D01*
G01X17051905Y-842409D01*
G01X17040475Y-847997D01*
G01X17029045Y-859427D01*
G01X17023203Y-876699D01*
G01X17023203Y-888129D01*
G01X17029045Y-905147D01*
G01X17040475Y-916577D01*
G01X17051905Y-922419D01*
G01X17068923Y-922419D01*
G01X17080353Y-916577D01*
G01X17091783Y-905147D01*
G01X17208115Y-802277D02*
G01X17208115Y-922419D01*
G01X17208115Y-859427D02*
G01X17196685Y-847997D01*
G01X17185255Y-842409D01*
G01X17168237Y-842409D01*
G01X17156807Y-847997D01*
G01X17145377Y-859427D01*
G01X17139535Y-876699D01*
G01X17139535Y-888129D01*
G01X17145377Y-905147D01*
G01X17156807Y-916577D01*
G01X17168237Y-922419D01*
G01X17185255Y-922419D01*
G01X17196685Y-916577D01*
G01X17208115Y-905147D01*
G01X18598910Y-802277D02*
G01X18587480Y-808119D01*
G01X18576050Y-819549D01*
G01X18570462Y-830979D01*
G01X18564620Y-847997D01*
G01X18564620Y-876699D01*
G01X18570462Y-893717D01*
G01X18576050Y-905147D01*
G01X18587480Y-916577D01*
G01X18598910Y-922419D01*
G01X18621770Y-922419D01*
G01X18633200Y-916577D01*
G01X18644630Y-905147D01*
G01X18650472Y-893717D01*
G01X18656060Y-876699D01*
G01X18656060Y-847997D01*
G01X18650472Y-830979D01*
G01X18644630Y-819549D01*
G01X18633200Y-808119D01*
G01X18621770Y-802277D01*
G01X18598910Y-802277D01*
G01X18703812Y-842409D02*
G01X18738102Y-922419D01*
G01X18772392Y-842409D02*
G01X18738102Y-922419D01*
G01X18888724Y-842409D02*
G01X18888724Y-922419D01*
G01X18888724Y-859427D02*
G01X18877294Y-847997D01*
G01X18865864Y-842409D01*
G01X18848846Y-842409D01*
G01X18837416Y-847997D01*
G01X18825986Y-859427D01*
G01X18820144Y-876699D01*
G01X18820144Y-888129D01*
G01X18825986Y-905147D01*
G01X18837416Y-916577D01*
G01X18848846Y-922419D01*
G01X18865864Y-922419D01*
G01X18877294Y-916577D01*
G01X18888724Y-905147D01*
G01X18936476Y-802277D02*
G01X18936476Y-922419D01*
G01X20524121Y-802277D02*
G01X20524121Y-922419D01*
G01X20483989Y-802277D02*
G01X20563999Y-802277D01*
G01X20640453Y-842409D02*
G01X20629023Y-847997D01*
G01X20617593Y-859427D01*
G01X20611751Y-876699D01*
G01X20611751Y-888129D01*
G01X20617593Y-905147D01*
G01X20629023Y-916577D01*
G01X20640453Y-922419D01*
G01X20657471Y-922419D01*
G01X20668901Y-916577D01*
G01X20680331Y-905147D01*
G01X20686173Y-888129D01*
G01X20686173Y-876699D01*
G01X20680331Y-859427D01*
G01X20668901Y-847997D01*
G01X20657471Y-842409D01*
G01X20640453Y-842409D01*
G01X20733925Y-842409D02*
G01X20733925Y-962297D01*
G01X20733925Y-859427D02*
G01X20745355Y-847997D01*
G01X20756785Y-842409D01*
G01X20774057Y-842409D01*
G01X20785487Y-847997D01*
G01X20796917Y-859427D01*
G01X20802505Y-876699D01*
G01X20802505Y-888129D01*
G01X20796917Y-905147D01*
G01X20785487Y-916577D01*
G01X20774057Y-922419D01*
G01X20756785Y-922419D01*
G01X20745355Y-916577D01*
G01X20733925Y-905147D01*
G01X20978273Y-802277D02*
G01X20978273Y-922419D01*
G01X20978273Y-922419D02*
G01X21046853Y-922419D01*
G01X21163185Y-842409D02*
G01X21163185Y-922419D01*
G01X21163185Y-859427D02*
G01X21151755Y-847997D01*
G01X21140325Y-842409D01*
G01X21123307Y-842409D01*
G01X21111877Y-847997D01*
G01X21100447Y-859427D01*
G01X21094605Y-876699D01*
G01X21094605Y-888129D01*
G01X21100447Y-905147D01*
G01X21111877Y-916577D01*
G01X21123307Y-922419D01*
G01X21140325Y-922419D01*
G01X21151755Y-916577D01*
G01X21163185Y-905147D01*
G01X21216779Y-842409D02*
G01X21251069Y-922419D01*
G01X21285359Y-842409D02*
G01X21251069Y-922419D01*
G01X21239639Y-945279D01*
G01X21228209Y-956709D01*
G01X21216779Y-962297D01*
G01X21210937Y-962297D01*
G01X21333111Y-876699D02*
G01X21401691Y-876699D01*
G01X21401691Y-865269D01*
G01X21396103Y-853839D01*
G01X21390261Y-847997D01*
G01X21378831Y-842409D01*
G01X21361813Y-842409D01*
G01X21350383Y-847997D01*
G01X21338953Y-859427D01*
G01X21333111Y-876699D01*
G01X21333111Y-888129D01*
G01X21338953Y-905147D01*
G01X21350383Y-916577D01*
G01X21361813Y-922419D01*
G01X21378831Y-922419D01*
G01X21390261Y-916577D01*
G01X21401691Y-905147D01*
G01X21449443Y-842409D02*
G01X21449443Y-922419D01*
G01X21449443Y-876699D02*
G01X21455285Y-859427D01*
G01X21466715Y-847997D01*
G01X21478145Y-842409D01*
G01X21495163Y-842409D01*
G01X21542915Y-870857D02*
G01X21645785Y-870857D01*
G01X21693537Y-802277D02*
G01X21693537Y-922419D01*
G01X21693537Y-802277D02*
G01X21745099Y-802277D01*
G01X21762117Y-808119D01*
G01X21767959Y-813707D01*
G01X21773547Y-825137D01*
G01X21773547Y-836567D01*
G01X21767959Y-847997D01*
G01X21762117Y-853839D01*
G01X21745099Y-859427D01*
G01X21693537Y-859427D02*
G01X21745099Y-859427D01*
G01X21762117Y-865269D01*
G01X21767959Y-870857D01*
G01X21773547Y-882287D01*
G01X21773547Y-899559D01*
G01X21767959Y-910989D01*
G01X21762117Y-916577D01*
G01X21745099Y-922419D01*
G01X21693537Y-922419D01*
G01X21850001Y-842409D02*
G01X21838571Y-847997D01*
G01X21827141Y-859427D01*
G01X21821299Y-876699D01*
G01X21821299Y-888129D01*
G01X21827141Y-905147D01*
G01X21838571Y-916577D01*
G01X21850001Y-922419D01*
G01X21867019Y-922419D01*
G01X21878449Y-916577D01*
G01X21889879Y-905147D01*
G01X21895721Y-888129D01*
G01X21895721Y-876699D01*
G01X21889879Y-859427D01*
G01X21878449Y-847997D01*
G01X21867019Y-842409D01*
G01X21850001Y-842409D01*
G01X21960745Y-802277D02*
G01X21960745Y-899559D01*
G01X21966333Y-916577D01*
G01X21977763Y-922419D01*
G01X21989193Y-922419D01*
G01X21943473Y-842409D02*
G01X21983605Y-842409D01*
G01X22054217Y-802277D02*
G01X22054217Y-899559D01*
G01X22059805Y-916577D01*
G01X22071235Y-922419D01*
G01X22082665Y-922419D01*
G01X22036945Y-842409D02*
G01X22077077Y-842409D01*
G01X22159119Y-842409D02*
G01X22147689Y-847997D01*
G01X22136259Y-859427D01*
G01X22130417Y-876699D01*
G01X22130417Y-888129D01*
G01X22136259Y-905147D01*
G01X22147689Y-916577D01*
G01X22159119Y-922419D01*
G01X22176137Y-922419D01*
G01X22187567Y-916577D01*
G01X22198997Y-905147D01*
G01X22204839Y-888129D01*
G01X22204839Y-876699D01*
G01X22198997Y-859427D01*
G01X22187567Y-847997D01*
G01X22176137Y-842409D01*
G01X22159119Y-842409D01*
G01X22252591Y-842409D02*
G01X22252591Y-922419D01*
G01X22252591Y-865269D02*
G01X22269863Y-847997D01*
G01X22281293Y-842409D01*
G01X22298311Y-842409D01*
G01X22309741Y-847997D01*
G01X22315583Y-865269D01*
G01X22315583Y-922419D01*
G01X22315583Y-865269D02*
G01X22332601Y-847997D01*
G01X22344031Y-842409D01*
G01X22361303Y-842409D01*
G01X22372733Y-847997D01*
G01X22378321Y-865269D01*
G01X22378321Y-922419D01*
G01X22554089Y-802277D02*
G01X22554089Y-922419D01*
G01X22554089Y-922419D02*
G01X22622669Y-922419D01*
G01X22739001Y-842409D02*
G01X22739001Y-922419D01*
G01X22739001Y-859427D02*
G01X22727571Y-847997D01*
G01X22716141Y-842409D01*
G01X22699123Y-842409D01*
G01X22687693Y-847997D01*
G01X22676263Y-859427D01*
G01X22670421Y-876699D01*
G01X22670421Y-888129D01*
G01X22676263Y-905147D01*
G01X22687693Y-916577D01*
G01X22699123Y-922419D01*
G01X22716141Y-922419D01*
G01X22727571Y-916577D01*
G01X22739001Y-905147D01*
G01X22792595Y-842409D02*
G01X22826885Y-922419D01*
G01X22861175Y-842409D02*
G01X22826885Y-922419D01*
G01X22815455Y-945279D01*
G01X22804025Y-956709D01*
G01X22792595Y-962297D01*
G01X22786753Y-962297D01*
G01X22908927Y-876699D02*
G01X22977507Y-876699D01*
G01X22977507Y-865269D01*
G01X22971919Y-853839D01*
G01X22966077Y-847997D01*
G01X22954647Y-842409D01*
G01X22937629Y-842409D01*
G01X22926199Y-847997D01*
G01X22914769Y-859427D01*
G01X22908927Y-876699D01*
G01X22908927Y-888129D01*
G01X22914769Y-905147D01*
G01X22926199Y-916577D01*
G01X22937629Y-922419D01*
G01X22954647Y-922419D01*
G01X22966077Y-916577D01*
G01X22977507Y-905147D01*
G01X23025259Y-842409D02*
G01X23025259Y-922419D01*
G01X23025259Y-876699D02*
G01X23031101Y-859427D01*
G01X23042531Y-847997D01*
G01X23053961Y-842409D01*
G01X23070979Y-842409D01*
G01X8757716Y-1411551D02*
G01X8757716Y-1405709D01*
G01X8763304Y-1394279D01*
G01X8769146Y-1388691D01*
G01X8780576Y-1382849D01*
G01X8803436Y-1382849D01*
G01X8814866Y-1388691D01*
G01X8820454Y-1394279D01*
G01X8826296Y-1405709D01*
G01X8826296Y-1417139D01*
G01X8820454Y-1428569D01*
G01X8809024Y-1445841D01*
G01X8751874Y-1502991D01*
G01X8831884Y-1502991D01*
G01X10171879Y-1411551D02*
G01X10171879Y-1405709D01*
G01X10177467Y-1394279D01*
G01X10183309Y-1388691D01*
G01X10194739Y-1382849D01*
G01X10217599Y-1382849D01*
G01X10229029Y-1388691D01*
G01X10234617Y-1394279D01*
G01X10240459Y-1405709D01*
G01X10240459Y-1417139D01*
G01X10234617Y-1428569D01*
G01X10223187Y-1445841D01*
G01X10166037Y-1502991D01*
G01X10246047Y-1502991D01*
G01X10305229Y-1382849D02*
G01X10368221Y-1382849D01*
G01X10333931Y-1428569D01*
G01X10350949Y-1428569D01*
G01X10362379Y-1434411D01*
G01X10368221Y-1439999D01*
G01X10373809Y-1457271D01*
G01X10373809Y-1468701D01*
G01X10368221Y-1485719D01*
G01X10356791Y-1497149D01*
G01X10339519Y-1502991D01*
G01X10322501Y-1502991D01*
G01X10305229Y-1497149D01*
G01X10299641Y-1491561D01*
G01X10293799Y-1480131D01*
G01X10427403Y-1474289D02*
G01X10421561Y-1480131D01*
G01X10427403Y-1485719D01*
G01X10432991Y-1480131D01*
G01X10427403Y-1474289D01*
G01X10549323Y-1400121D02*
G01X10543735Y-1388691D01*
G01X10526463Y-1382849D01*
G01X10515033Y-1382849D01*
G01X10498015Y-1388691D01*
G01X10486585Y-1405709D01*
G01X10480743Y-1434411D01*
G01X10480743Y-1462859D01*
G01X10486585Y-1485719D01*
G01X10498015Y-1497149D01*
G01X10515033Y-1502991D01*
G01X10520875Y-1502991D01*
G01X10537893Y-1497149D01*
G01X10549323Y-1485719D01*
G01X10555165Y-1468701D01*
G01X10555165Y-1462859D01*
G01X10549323Y-1445841D01*
G01X10537893Y-1434411D01*
G01X10520875Y-1428569D01*
G01X10515033Y-1428569D01*
G01X10498015Y-1434411D01*
G01X10486585Y-1445841D01*
G01X10480743Y-1462859D01*
G01X10602917Y-1422981D02*
G01X10665909Y-1502991D01*
G01X10665909Y-1422981D02*
G01X10602917Y-1502991D01*
G01X10770811Y-1382849D02*
G01X10713661Y-1462859D01*
G01X10799513Y-1462859D01*
G01X10770811Y-1382849D02*
G01X10770811Y-1502991D01*
G01X10927275Y-1382849D02*
G01X10870125Y-1502991D01*
G01X10847265Y-1382849D02*
G01X10927275Y-1382849D01*
G01X10980869Y-1474289D02*
G01X10975027Y-1480131D01*
G01X10980869Y-1485719D01*
G01X10986457Y-1480131D01*
G01X10980869Y-1474289D01*
G01X11040051Y-1411551D02*
G01X11040051Y-1405709D01*
G01X11045639Y-1394279D01*
G01X11051481Y-1388691D01*
G01X11062911Y-1382849D01*
G01X11085771Y-1382849D01*
G01X11097201Y-1388691D01*
G01X11102789Y-1394279D01*
G01X11108631Y-1405709D01*
G01X11108631Y-1417139D01*
G01X11102789Y-1428569D01*
G01X11091359Y-1445841D01*
G01X11034209Y-1502991D01*
G01X11114219Y-1502991D01*
G01X11161971Y-1422981D02*
G01X11161971Y-1502991D01*
G01X11161971Y-1445841D02*
G01X11179243Y-1428569D01*
G01X11190673Y-1422981D01*
G01X11207691Y-1422981D01*
G01X11219121Y-1428569D01*
G01X11224963Y-1445841D01*
G01X11224963Y-1502991D01*
G01X11224963Y-1445841D02*
G01X11241981Y-1428569D01*
G01X11253411Y-1422981D01*
G01X11270683Y-1422981D01*
G01X11282113Y-1428569D01*
G01X11287701Y-1445841D01*
G01X11287701Y-1502991D01*
G01X11335453Y-1382849D02*
G01X11341295Y-1388691D01*
G01X11346883Y-1382849D01*
G01X11341295Y-1377261D01*
G01X11335453Y-1382849D01*
G01X11341295Y-1422981D02*
G01X11341295Y-1502991D01*
G01X11394635Y-1382849D02*
G01X11394635Y-1502991D01*
G01X11482519Y-1359989D02*
G01X11471089Y-1371419D01*
G01X11459659Y-1388691D01*
G01X11448229Y-1411551D01*
G01X11442387Y-1439999D01*
G01X11442387Y-1462859D01*
G01X11448229Y-1491561D01*
G01X11459659Y-1514421D01*
G01X11471089Y-1531439D01*
G01X11482519Y-1542869D01*
G01X11564561Y-1382849D02*
G01X11547543Y-1388691D01*
G01X11536113Y-1405709D01*
G01X11530271Y-1434411D01*
G01X11530271Y-1451429D01*
G01X11536113Y-1480131D01*
G01X11547543Y-1497149D01*
G01X11564561Y-1502991D01*
G01X11575991Y-1502991D01*
G01X11593263Y-1497149D01*
G01X11604693Y-1480131D01*
G01X11610281Y-1451429D01*
G01X11610281Y-1434411D01*
G01X11604693Y-1405709D01*
G01X11593263Y-1388691D01*
G01X11575991Y-1382849D01*
G01X11564561Y-1382849D01*
G01X11663875Y-1474289D02*
G01X11658033Y-1480131D01*
G01X11663875Y-1485719D01*
G01X11669463Y-1480131D01*
G01X11663875Y-1474289D01*
G01X11785795Y-1400121D02*
G01X11780207Y-1388691D01*
G01X11762935Y-1382849D01*
G01X11751505Y-1382849D01*
G01X11734487Y-1388691D01*
G01X11723057Y-1405709D01*
G01X11717215Y-1434411D01*
G01X11717215Y-1462859D01*
G01X11723057Y-1485719D01*
G01X11734487Y-1497149D01*
G01X11751505Y-1502991D01*
G01X11757347Y-1502991D01*
G01X11774365Y-1497149D01*
G01X11785795Y-1485719D01*
G01X11791637Y-1468701D01*
G01X11791637Y-1462859D01*
G01X11785795Y-1445841D01*
G01X11774365Y-1434411D01*
G01X11757347Y-1428569D01*
G01X11751505Y-1428569D01*
G01X11734487Y-1434411D01*
G01X11723057Y-1445841D01*
G01X11717215Y-1462859D01*
G01X11873679Y-1382849D02*
G01X11856661Y-1388691D01*
G01X11845231Y-1405709D01*
G01X11839389Y-1434411D01*
G01X11839389Y-1451429D01*
G01X11845231Y-1480131D01*
G01X11856661Y-1497149D01*
G01X11873679Y-1502991D01*
G01X11885109Y-1502991D01*
G01X11902381Y-1497149D01*
G01X11913811Y-1480131D01*
G01X11919399Y-1451429D01*
G01X11919399Y-1434411D01*
G01X11913811Y-1405709D01*
G01X11902381Y-1388691D01*
G01X11885109Y-1382849D01*
G01X11873679Y-1382849D01*
G01X12001441Y-1382849D02*
G01X11984423Y-1388691D01*
G01X11972993Y-1405709D01*
G01X11967151Y-1434411D01*
G01X11967151Y-1451429D01*
G01X11972993Y-1480131D01*
G01X11984423Y-1497149D01*
G01X12001441Y-1502991D01*
G01X12012871Y-1502991D01*
G01X12030143Y-1497149D01*
G01X12041573Y-1480131D01*
G01X12047161Y-1451429D01*
G01X12047161Y-1434411D01*
G01X12041573Y-1405709D01*
G01X12030143Y-1388691D01*
G01X12012871Y-1382849D01*
G01X12001441Y-1382849D01*
G01X12094913Y-1422981D02*
G01X12157905Y-1502991D01*
G01X12157905Y-1422981D02*
G01X12094913Y-1502991D01*
G01X12205657Y-1405709D02*
G01X12217087Y-1400121D01*
G01X12234359Y-1382849D01*
G01X12234359Y-1502991D01*
G01X12287953Y-1474289D02*
G01X12282111Y-1480131D01*
G01X12287953Y-1485719D01*
G01X12293541Y-1480131D01*
G01X12287953Y-1474289D01*
G01X12347135Y-1411551D02*
G01X12347135Y-1405709D01*
G01X12352723Y-1394279D01*
G01X12358565Y-1388691D01*
G01X12369995Y-1382849D01*
G01X12392855Y-1382849D01*
G01X12404285Y-1388691D01*
G01X12409873Y-1394279D01*
G01X12415715Y-1405709D01*
G01X12415715Y-1417139D01*
G01X12409873Y-1428569D01*
G01X12398443Y-1445841D01*
G01X12341293Y-1502991D01*
G01X12421303Y-1502991D01*
G01X12503345Y-1382849D02*
G01X12486327Y-1388691D01*
G01X12474897Y-1405709D01*
G01X12469055Y-1434411D01*
G01X12469055Y-1451429D01*
G01X12474897Y-1480131D01*
G01X12486327Y-1497149D01*
G01X12503345Y-1502991D01*
G01X12514775Y-1502991D01*
G01X12532047Y-1497149D01*
G01X12543477Y-1480131D01*
G01X12549065Y-1451429D01*
G01X12549065Y-1434411D01*
G01X12543477Y-1405709D01*
G01X12532047Y-1388691D01*
G01X12514775Y-1382849D01*
G01X12503345Y-1382849D01*
G01X12631107Y-1382849D02*
G01X12614089Y-1388691D01*
G01X12602659Y-1405709D01*
G01X12596817Y-1434411D01*
G01X12596817Y-1451429D01*
G01X12602659Y-1480131D01*
G01X12614089Y-1497149D01*
G01X12631107Y-1502991D01*
G01X12642537Y-1502991D01*
G01X12659809Y-1497149D01*
G01X12671239Y-1480131D01*
G01X12676827Y-1451429D01*
G01X12676827Y-1434411D01*
G01X12671239Y-1405709D01*
G01X12659809Y-1388691D01*
G01X12642537Y-1382849D01*
G01X12631107Y-1382849D01*
G01X12724579Y-1422981D02*
G01X12724579Y-1502991D01*
G01X12724579Y-1445841D02*
G01X12741851Y-1428569D01*
G01X12753281Y-1422981D01*
G01X12770299Y-1422981D01*
G01X12781729Y-1428569D01*
G01X12787571Y-1445841D01*
G01X12787571Y-1502991D01*
G01X12787571Y-1445841D02*
G01X12804589Y-1428569D01*
G01X12816019Y-1422981D01*
G01X12833291Y-1422981D01*
G01X12844721Y-1428569D01*
G01X12850309Y-1445841D01*
G01X12850309Y-1502991D01*
G01X12898061Y-1422981D02*
G01X12898061Y-1502991D01*
G01X12898061Y-1445841D02*
G01X12915333Y-1428569D01*
G01X12926763Y-1422981D01*
G01X12943781Y-1422981D01*
G01X12955211Y-1428569D01*
G01X12961053Y-1445841D01*
G01X12961053Y-1502991D01*
G01X12961053Y-1445841D02*
G01X12978071Y-1428569D01*
G01X12989501Y-1422981D01*
G01X13006773Y-1422981D01*
G01X13018203Y-1428569D01*
G01X13023791Y-1445841D01*
G01X13023791Y-1502991D01*
G01X13071543Y-1359989D02*
G01X13082973Y-1371419D01*
G01X13094403Y-1388691D01*
G01X13105833Y-1411551D01*
G01X13111675Y-1439999D01*
G01X13111675Y-1462859D01*
G01X13105833Y-1491561D01*
G01X13094403Y-1514421D01*
G01X13082973Y-1531439D01*
G01X13071543Y-1542869D01*
G01X14002852Y-1382849D02*
G01X14002852Y-1502991D01*
G01X14002852Y-1382849D02*
G01X14054414Y-1382849D01*
G01X14071432Y-1388691D01*
G01X14077274Y-1394279D01*
G01X14082862Y-1405709D01*
G01X14082862Y-1422981D01*
G01X14077274Y-1434411D01*
G01X14071432Y-1439999D01*
G01X14054414Y-1445841D01*
G01X14002852Y-1445841D01*
G01X14170746Y-1382849D02*
G01X14170746Y-1502991D01*
G01X14130614Y-1382849D02*
G01X14210624Y-1382849D01*
G01X14258376Y-1382849D02*
G01X14258376Y-1502991D01*
G01X14338386Y-1382849D02*
G01X14338386Y-1502991D01*
G01X14258376Y-1439999D02*
G01X14338386Y-1439999D01*
G01X15544270Y-1400121D02*
G01X15532840Y-1388691D01*
G01X15515822Y-1382849D01*
G01X15492962Y-1382849D01*
G01X15475690Y-1388691D01*
G01X15464260Y-1400121D01*
G01X15464260Y-1411551D01*
G01X15470102Y-1422981D01*
G01X15475690Y-1428569D01*
G01X15487120Y-1434411D01*
G01X15521410Y-1445841D01*
G01X15532840Y-1451429D01*
G01X15538682Y-1457271D01*
G01X15544270Y-1468701D01*
G01X15544270Y-1485719D01*
G01X15532840Y-1497149D01*
G01X15515822Y-1502991D01*
G01X15492962Y-1502991D01*
G01X15475690Y-1497149D01*
G01X15464260Y-1485719D01*
G01X15592022Y-1382849D02*
G01X15592022Y-1502991D01*
G01X15668476Y-1422981D02*
G01X15657046Y-1428569D01*
G01X15645616Y-1439999D01*
G01X15639774Y-1457271D01*
G01X15639774Y-1468701D01*
G01X15645616Y-1485719D01*
G01X15657046Y-1497149D01*
G01X15668476Y-1502991D01*
G01X15685494Y-1502991D01*
G01X15696924Y-1497149D01*
G01X15708354Y-1485719D01*
G01X15714196Y-1468701D01*
G01X15714196Y-1457271D01*
G01X15708354Y-1439999D01*
G01X15696924Y-1428569D01*
G01X15685494Y-1422981D01*
G01X15668476Y-1422981D01*
G01X15779220Y-1382849D02*
G01X15779220Y-1480131D01*
G01X15784808Y-1497149D01*
G01X15796238Y-1502991D01*
G01X15807668Y-1502991D01*
G01X15761948Y-1422981D02*
G01X15802080Y-1422981D01*
G01X16895441Y-1382849D02*
G01X16895441Y-1502991D01*
G01X16895441Y-1382849D02*
G01X16947003Y-1382849D01*
G01X16964021Y-1388691D01*
G01X16969863Y-1394279D01*
G01X16975451Y-1405709D01*
G01X16975451Y-1422981D01*
G01X16969863Y-1434411D01*
G01X16964021Y-1439999D01*
G01X16947003Y-1445841D01*
G01X16895441Y-1445841D01*
G01X17091783Y-1422981D02*
G01X17091783Y-1502991D01*
G01X17091783Y-1439999D02*
G01X17080353Y-1428569D01*
G01X17068923Y-1422981D01*
G01X17051905Y-1422981D01*
G01X17040475Y-1428569D01*
G01X17029045Y-1439999D01*
G01X17023203Y-1457271D01*
G01X17023203Y-1468701D01*
G01X17029045Y-1485719D01*
G01X17040475Y-1497149D01*
G01X17051905Y-1502991D01*
G01X17068923Y-1502991D01*
G01X17080353Y-1497149D01*
G01X17091783Y-1485719D01*
G01X17208115Y-1382849D02*
G01X17208115Y-1502991D01*
G01X17208115Y-1439999D02*
G01X17196685Y-1428569D01*
G01X17185255Y-1422981D01*
G01X17168237Y-1422981D01*
G01X17156807Y-1428569D01*
G01X17145377Y-1439999D01*
G01X17139535Y-1457271D01*
G01X17139535Y-1468701D01*
G01X17145377Y-1485719D01*
G01X17156807Y-1497149D01*
G01X17168237Y-1502991D01*
G01X17185255Y-1502991D01*
G01X17196685Y-1497149D01*
G01X17208115Y-1485719D01*
G01X18598910Y-1382849D02*
G01X18587480Y-1388691D01*
G01X18576050Y-1400121D01*
G01X18570462Y-1411551D01*
G01X18564620Y-1428569D01*
G01X18564620Y-1457271D01*
G01X18570462Y-1474289D01*
G01X18576050Y-1485719D01*
G01X18587480Y-1497149D01*
G01X18598910Y-1502991D01*
G01X18621770Y-1502991D01*
G01X18633200Y-1497149D01*
G01X18644630Y-1485719D01*
G01X18650472Y-1474289D01*
G01X18656060Y-1457271D01*
G01X18656060Y-1428569D01*
G01X18650472Y-1411551D01*
G01X18644630Y-1400121D01*
G01X18633200Y-1388691D01*
G01X18621770Y-1382849D01*
G01X18598910Y-1382849D01*
G01X18703812Y-1422981D02*
G01X18738102Y-1502991D01*
G01X18772392Y-1422981D02*
G01X18738102Y-1502991D01*
G01X18888724Y-1422981D02*
G01X18888724Y-1502991D01*
G01X18888724Y-1439999D02*
G01X18877294Y-1428569D01*
G01X18865864Y-1422981D01*
G01X18848846Y-1422981D01*
G01X18837416Y-1428569D01*
G01X18825986Y-1439999D01*
G01X18820144Y-1457271D01*
G01X18820144Y-1468701D01*
G01X18825986Y-1485719D01*
G01X18837416Y-1497149D01*
G01X18848846Y-1502991D01*
G01X18865864Y-1502991D01*
G01X18877294Y-1497149D01*
G01X18888724Y-1485719D01*
G01X18936476Y-1382849D02*
G01X18936476Y-1502991D01*
G01X20524121Y-1382849D02*
G01X20524121Y-1502991D01*
G01X20483989Y-1382849D02*
G01X20563999Y-1382849D01*
G01X20640453Y-1422981D02*
G01X20629023Y-1428569D01*
G01X20617593Y-1439999D01*
G01X20611751Y-1457271D01*
G01X20611751Y-1468701D01*
G01X20617593Y-1485719D01*
G01X20629023Y-1497149D01*
G01X20640453Y-1502991D01*
G01X20657471Y-1502991D01*
G01X20668901Y-1497149D01*
G01X20680331Y-1485719D01*
G01X20686173Y-1468701D01*
G01X20686173Y-1457271D01*
G01X20680331Y-1439999D01*
G01X20668901Y-1428569D01*
G01X20657471Y-1422981D01*
G01X20640453Y-1422981D01*
G01X20733925Y-1422981D02*
G01X20733925Y-1542869D01*
G01X20733925Y-1439999D02*
G01X20745355Y-1428569D01*
G01X20756785Y-1422981D01*
G01X20774057Y-1422981D01*
G01X20785487Y-1428569D01*
G01X20796917Y-1439999D01*
G01X20802505Y-1457271D01*
G01X20802505Y-1468701D01*
G01X20796917Y-1485719D01*
G01X20785487Y-1497149D01*
G01X20774057Y-1502991D01*
G01X20756785Y-1502991D01*
G01X20745355Y-1497149D01*
G01X20733925Y-1485719D01*
G01X20978273Y-1382849D02*
G01X20978273Y-1502991D01*
G01X20978273Y-1502991D02*
G01X21046853Y-1502991D01*
G01X21163185Y-1422981D02*
G01X21163185Y-1502991D01*
G01X21163185Y-1439999D02*
G01X21151755Y-1428569D01*
G01X21140325Y-1422981D01*
G01X21123307Y-1422981D01*
G01X21111877Y-1428569D01*
G01X21100447Y-1439999D01*
G01X21094605Y-1457271D01*
G01X21094605Y-1468701D01*
G01X21100447Y-1485719D01*
G01X21111877Y-1497149D01*
G01X21123307Y-1502991D01*
G01X21140325Y-1502991D01*
G01X21151755Y-1497149D01*
G01X21163185Y-1485719D01*
G01X21216779Y-1422981D02*
G01X21251069Y-1502991D01*
G01X21285359Y-1422981D02*
G01X21251069Y-1502991D01*
G01X21239639Y-1525851D01*
G01X21228209Y-1537281D01*
G01X21216779Y-1542869D01*
G01X21210937Y-1542869D01*
G01X21333111Y-1457271D02*
G01X21401691Y-1457271D01*
G01X21401691Y-1445841D01*
G01X21396103Y-1434411D01*
G01X21390261Y-1428569D01*
G01X21378831Y-1422981D01*
G01X21361813Y-1422981D01*
G01X21350383Y-1428569D01*
G01X21338953Y-1439999D01*
G01X21333111Y-1457271D01*
G01X21333111Y-1468701D01*
G01X21338953Y-1485719D01*
G01X21350383Y-1497149D01*
G01X21361813Y-1502991D01*
G01X21378831Y-1502991D01*
G01X21390261Y-1497149D01*
G01X21401691Y-1485719D01*
G01X21449443Y-1422981D02*
G01X21449443Y-1502991D01*
G01X21449443Y-1457271D02*
G01X21455285Y-1439999D01*
G01X21466715Y-1428569D01*
G01X21478145Y-1422981D01*
G01X21495163Y-1422981D01*
G01X21542915Y-1451429D02*
G01X21645785Y-1451429D01*
G01X21693537Y-1382849D02*
G01X21693537Y-1502991D01*
G01X21693537Y-1382849D02*
G01X21745099Y-1382849D01*
G01X21762117Y-1388691D01*
G01X21767959Y-1394279D01*
G01X21773547Y-1405709D01*
G01X21773547Y-1417139D01*
G01X21767959Y-1428569D01*
G01X21762117Y-1434411D01*
G01X21745099Y-1439999D01*
G01X21693537Y-1439999D02*
G01X21745099Y-1439999D01*
G01X21762117Y-1445841D01*
G01X21767959Y-1451429D01*
G01X21773547Y-1462859D01*
G01X21773547Y-1480131D01*
G01X21767959Y-1491561D01*
G01X21762117Y-1497149D01*
G01X21745099Y-1502991D01*
G01X21693537Y-1502991D01*
G01X21850001Y-1422981D02*
G01X21838571Y-1428569D01*
G01X21827141Y-1439999D01*
G01X21821299Y-1457271D01*
G01X21821299Y-1468701D01*
G01X21827141Y-1485719D01*
G01X21838571Y-1497149D01*
G01X21850001Y-1502991D01*
G01X21867019Y-1502991D01*
G01X21878449Y-1497149D01*
G01X21889879Y-1485719D01*
G01X21895721Y-1468701D01*
G01X21895721Y-1457271D01*
G01X21889879Y-1439999D01*
G01X21878449Y-1428569D01*
G01X21867019Y-1422981D01*
G01X21850001Y-1422981D01*
G01X21960745Y-1382849D02*
G01X21960745Y-1480131D01*
G01X21966333Y-1497149D01*
G01X21977763Y-1502991D01*
G01X21989193Y-1502991D01*
G01X21943473Y-1422981D02*
G01X21983605Y-1422981D01*
G01X22054217Y-1382849D02*
G01X22054217Y-1480131D01*
G01X22059805Y-1497149D01*
G01X22071235Y-1502991D01*
G01X22082665Y-1502991D01*
G01X22036945Y-1422981D02*
G01X22077077Y-1422981D01*
G01X22159119Y-1422981D02*
G01X22147689Y-1428569D01*
G01X22136259Y-1439999D01*
G01X22130417Y-1457271D01*
G01X22130417Y-1468701D01*
G01X22136259Y-1485719D01*
G01X22147689Y-1497149D01*
G01X22159119Y-1502991D01*
G01X22176137Y-1502991D01*
G01X22187567Y-1497149D01*
G01X22198997Y-1485719D01*
G01X22204839Y-1468701D01*
G01X22204839Y-1457271D01*
G01X22198997Y-1439999D01*
G01X22187567Y-1428569D01*
G01X22176137Y-1422981D01*
G01X22159119Y-1422981D01*
G01X22252591Y-1422981D02*
G01X22252591Y-1502991D01*
G01X22252591Y-1445841D02*
G01X22269863Y-1428569D01*
G01X22281293Y-1422981D01*
G01X22298311Y-1422981D01*
G01X22309741Y-1428569D01*
G01X22315583Y-1445841D01*
G01X22315583Y-1502991D01*
G01X22315583Y-1445841D02*
G01X22332601Y-1428569D01*
G01X22344031Y-1422981D01*
G01X22361303Y-1422981D01*
G01X22372733Y-1428569D01*
G01X22378321Y-1445841D01*
G01X22378321Y-1502991D01*
G01X22554089Y-1382849D02*
G01X22554089Y-1502991D01*
G01X22554089Y-1502991D02*
G01X22622669Y-1502991D01*
G01X22739001Y-1422981D02*
G01X22739001Y-1502991D01*
G01X22739001Y-1439999D02*
G01X22727571Y-1428569D01*
G01X22716141Y-1422981D01*
G01X22699123Y-1422981D01*
G01X22687693Y-1428569D01*
G01X22676263Y-1439999D01*
G01X22670421Y-1457271D01*
G01X22670421Y-1468701D01*
G01X22676263Y-1485719D01*
G01X22687693Y-1497149D01*
G01X22699123Y-1502991D01*
G01X22716141Y-1502991D01*
G01X22727571Y-1497149D01*
G01X22739001Y-1485719D01*
G01X22792595Y-1422981D02*
G01X22826885Y-1502991D01*
G01X22861175Y-1422981D02*
G01X22826885Y-1502991D01*
G01X22815455Y-1525851D01*
G01X22804025Y-1537281D01*
G01X22792595Y-1542869D01*
G01X22786753Y-1542869D01*
G01X22908927Y-1457271D02*
G01X22977507Y-1457271D01*
G01X22977507Y-1445841D01*
G01X22971919Y-1434411D01*
G01X22966077Y-1428569D01*
G01X22954647Y-1422981D01*
G01X22937629Y-1422981D01*
G01X22926199Y-1428569D01*
G01X22914769Y-1439999D01*
G01X22908927Y-1457271D01*
G01X22908927Y-1468701D01*
G01X22914769Y-1485719D01*
G01X22926199Y-1497149D01*
G01X22937629Y-1502991D01*
G01X22954647Y-1502991D01*
G01X22966077Y-1497149D01*
G01X22977507Y-1485719D01*
G01X23025259Y-1422981D02*
G01X23025259Y-1502991D01*
G01X23025259Y-1457271D02*
G01X23031101Y-1439999D01*
G01X23042531Y-1428569D01*
G01X23053961Y-1422981D01*
G01X23070979Y-1422981D01*
G01X8757716Y-1992122D02*
G01X8757716Y-1986280D01*
G01X8763304Y-1974850D01*
G01X8769146Y-1969262D01*
G01X8780576Y-1963420D01*
G01X8803436Y-1963420D01*
G01X8814866Y-1969262D01*
G01X8820454Y-1974850D01*
G01X8826296Y-1986280D01*
G01X8826296Y-1997710D01*
G01X8820454Y-2009140D01*
G01X8809024Y-2026412D01*
G01X8751874Y-2083562D01*
G01X8831884Y-2083562D01*
G01X10171879Y-1992122D02*
G01X10171879Y-1986280D01*
G01X10177467Y-1974850D01*
G01X10183309Y-1969262D01*
G01X10194739Y-1963420D01*
G01X10217599Y-1963420D01*
G01X10229029Y-1969262D01*
G01X10234617Y-1974850D01*
G01X10240459Y-1986280D01*
G01X10240459Y-1997710D01*
G01X10234617Y-2009140D01*
G01X10223187Y-2026412D01*
G01X10166037Y-2083562D01*
G01X10246047Y-2083562D01*
G01X10373809Y-1963420D02*
G01X10316659Y-2083562D01*
G01X10293799Y-1963420D02*
G01X10373809Y-1963420D01*
G01X10427403Y-2054860D02*
G01X10421561Y-2060702D01*
G01X10427403Y-2066290D01*
G01X10432991Y-2060702D01*
G01X10427403Y-2054860D01*
G01X10549323Y-1980692D02*
G01X10543735Y-1969262D01*
G01X10526463Y-1963420D01*
G01X10515033Y-1963420D01*
G01X10498015Y-1969262D01*
G01X10486585Y-1986280D01*
G01X10480743Y-2014982D01*
G01X10480743Y-2043430D01*
G01X10486585Y-2066290D01*
G01X10498015Y-2077720D01*
G01X10515033Y-2083562D01*
G01X10520875Y-2083562D01*
G01X10537893Y-2077720D01*
G01X10549323Y-2066290D01*
G01X10555165Y-2049272D01*
G01X10555165Y-2043430D01*
G01X10549323Y-2026412D01*
G01X10537893Y-2014982D01*
G01X10520875Y-2009140D01*
G01X10515033Y-2009140D01*
G01X10498015Y-2014982D01*
G01X10486585Y-2026412D01*
G01X10480743Y-2043430D01*
G01X10602917Y-2003552D02*
G01X10602917Y-2083562D01*
G01X10602917Y-2026412D02*
G01X10620189Y-2009140D01*
G01X10631619Y-2003552D01*
G01X10648637Y-2003552D01*
G01X10660067Y-2009140D01*
G01X10665909Y-2026412D01*
G01X10665909Y-2083562D01*
G01X10665909Y-2026412D02*
G01X10682927Y-2009140D01*
G01X10694357Y-2003552D01*
G01X10711629Y-2003552D01*
G01X10723059Y-2009140D01*
G01X10728647Y-2026412D01*
G01X10728647Y-2083562D01*
G01X10776399Y-1963420D02*
G01X10782241Y-1969262D01*
G01X10787829Y-1963420D01*
G01X10782241Y-1957832D01*
G01X10776399Y-1963420D01*
G01X10782241Y-2003552D02*
G01X10782241Y-2083562D01*
G01X10835581Y-1963420D02*
G01X10835581Y-2083562D01*
G01X10923465Y-1940560D02*
G01X10912035Y-1951990D01*
G01X10900605Y-1969262D01*
G01X10889175Y-1992122D01*
G01X10883333Y-2020570D01*
G01X10883333Y-2043430D01*
G01X10889175Y-2072132D01*
G01X10900605Y-2094992D01*
G01X10912035Y-2112010D01*
G01X10923465Y-2123440D01*
G01X11005507Y-1963420D02*
G01X10988489Y-1969262D01*
G01X10977059Y-1986280D01*
G01X10971217Y-2014982D01*
G01X10971217Y-2032000D01*
G01X10977059Y-2060702D01*
G01X10988489Y-2077720D01*
G01X11005507Y-2083562D01*
G01X11016937Y-2083562D01*
G01X11034209Y-2077720D01*
G01X11045639Y-2060702D01*
G01X11051227Y-2032000D01*
G01X11051227Y-2014982D01*
G01X11045639Y-1986280D01*
G01X11034209Y-1969262D01*
G01X11016937Y-1963420D01*
G01X11005507Y-1963420D01*
G01X11104821Y-2054860D02*
G01X11098979Y-2060702D01*
G01X11104821Y-2066290D01*
G01X11110409Y-2060702D01*
G01X11104821Y-2054860D01*
G01X11238171Y-1963420D02*
G01X11181021Y-2083562D01*
G01X11158161Y-1963420D02*
G01X11238171Y-1963420D01*
G01X11320213Y-1963420D02*
G01X11303195Y-1969262D01*
G01X11291765Y-1986280D01*
G01X11285923Y-2014982D01*
G01X11285923Y-2032000D01*
G01X11291765Y-2060702D01*
G01X11303195Y-2077720D01*
G01X11320213Y-2083562D01*
G01X11331643Y-2083562D01*
G01X11348915Y-2077720D01*
G01X11360345Y-2060702D01*
G01X11365933Y-2032000D01*
G01X11365933Y-2014982D01*
G01X11360345Y-1986280D01*
G01X11348915Y-1969262D01*
G01X11331643Y-1963420D01*
G01X11320213Y-1963420D01*
G01X11447975Y-1963420D02*
G01X11430957Y-1969262D01*
G01X11419527Y-1986280D01*
G01X11413685Y-2014982D01*
G01X11413685Y-2032000D01*
G01X11419527Y-2060702D01*
G01X11430957Y-2077720D01*
G01X11447975Y-2083562D01*
G01X11459405Y-2083562D01*
G01X11476677Y-2077720D01*
G01X11488107Y-2060702D01*
G01X11493695Y-2032000D01*
G01X11493695Y-2014982D01*
G01X11488107Y-1986280D01*
G01X11476677Y-1969262D01*
G01X11459405Y-1963420D01*
G01X11447975Y-1963420D01*
G01X11541447Y-2003552D02*
G01X11541447Y-2083562D01*
G01X11541447Y-2026412D02*
G01X11558719Y-2009140D01*
G01X11570149Y-2003552D01*
G01X11587167Y-2003552D01*
G01X11598597Y-2009140D01*
G01X11604439Y-2026412D01*
G01X11604439Y-2083562D01*
G01X11604439Y-2026412D02*
G01X11621457Y-2009140D01*
G01X11632887Y-2003552D01*
G01X11650159Y-2003552D01*
G01X11661589Y-2009140D01*
G01X11667177Y-2026412D01*
G01X11667177Y-2083562D01*
G01X11714929Y-2003552D02*
G01X11714929Y-2083562D01*
G01X11714929Y-2026412D02*
G01X11732201Y-2009140D01*
G01X11743631Y-2003552D01*
G01X11760649Y-2003552D01*
G01X11772079Y-2009140D01*
G01X11777921Y-2026412D01*
G01X11777921Y-2083562D01*
G01X11777921Y-2026412D02*
G01X11794939Y-2009140D01*
G01X11806369Y-2003552D01*
G01X11823641Y-2003552D01*
G01X11835071Y-2009140D01*
G01X11840659Y-2026412D01*
G01X11840659Y-2083562D01*
G01X11888411Y-1940560D02*
G01X11899841Y-1951990D01*
G01X11911271Y-1969262D01*
G01X11922701Y-1992122D01*
G01X11928543Y-2020570D01*
G01X11928543Y-2043430D01*
G01X11922701Y-2072132D01*
G01X11911271Y-2094992D01*
G01X11899841Y-2112010D01*
G01X11888411Y-2123440D01*
G01X14002852Y-1963420D02*
G01X14002852Y-2083562D01*
G01X14002852Y-1963420D02*
G01X14082862Y-2083562D01*
G01X14082862Y-1963420D02*
G01X14082862Y-2083562D01*
G01X14130614Y-1963420D02*
G01X14130614Y-2083562D01*
G01X14130614Y-1963420D02*
G01X14182176Y-1963420D01*
G01X14199194Y-1969262D01*
G01X14205036Y-1974850D01*
G01X14210624Y-1986280D01*
G01X14210624Y-2003552D01*
G01X14205036Y-2014982D01*
G01X14199194Y-2020570D01*
G01X14182176Y-2026412D01*
G01X14130614Y-2026412D01*
G01X14298508Y-1963420D02*
G01X14298508Y-2083562D01*
G01X14258376Y-1963420D02*
G01X14338386Y-1963420D01*
G01X14386138Y-1963420D02*
G01X14386138Y-2083562D01*
G01X14466148Y-1963420D02*
G01X14466148Y-2083562D01*
G01X14386138Y-2020570D02*
G01X14466148Y-2020570D01*
G01X15464260Y-1963420D02*
G01X15464260Y-2083562D01*
G01X15464260Y-1963420D02*
G01X15515822Y-1963420D01*
G01X15532840Y-1969262D01*
G01X15538682Y-1974850D01*
G01X15544270Y-1986280D01*
G01X15544270Y-1997710D01*
G01X15538682Y-2009140D01*
G01X15532840Y-2014982D01*
G01X15515822Y-2020570D01*
G01X15464260Y-2020570D01*
G01X15504392Y-2020570D02*
G01X15544270Y-2083562D01*
G01X15620724Y-2003552D02*
G01X15609294Y-2009140D01*
G01X15597864Y-2020570D01*
G01X15592022Y-2037842D01*
G01X15592022Y-2049272D01*
G01X15597864Y-2066290D01*
G01X15609294Y-2077720D01*
G01X15620724Y-2083562D01*
G01X15637742Y-2083562D01*
G01X15649172Y-2077720D01*
G01X15660602Y-2066290D01*
G01X15666444Y-2049272D01*
G01X15666444Y-2037842D01*
G01X15660602Y-2020570D01*
G01X15649172Y-2009140D01*
G01X15637742Y-2003552D01*
G01X15620724Y-2003552D01*
G01X15714196Y-2003552D02*
G01X15714196Y-2060702D01*
G01X15720038Y-2077720D01*
G01X15731468Y-2083562D01*
G01X15748486Y-2083562D01*
G01X15759916Y-2077720D01*
G01X15777188Y-2060702D01*
G01X15777188Y-2003552D02*
G01X15777188Y-2083562D01*
G01X15824940Y-2003552D02*
G01X15824940Y-2083562D01*
G01X15824940Y-2026412D02*
G01X15842212Y-2009140D01*
G01X15853642Y-2003552D01*
G01X15870660Y-2003552D01*
G01X15882090Y-2009140D01*
G01X15887932Y-2026412D01*
G01X15887932Y-2083562D01*
G01X16004264Y-1963420D02*
G01X16004264Y-2083562D01*
G01X16004264Y-2020570D02*
G01X15992834Y-2009140D01*
G01X15981404Y-2003552D01*
G01X15964386Y-2003552D01*
G01X15952956Y-2009140D01*
G01X15941526Y-2020570D01*
G01X15935684Y-2037842D01*
G01X15935684Y-2049272D01*
G01X15941526Y-2066290D01*
G01X15952956Y-2077720D01*
G01X15964386Y-2083562D01*
G01X15981404Y-2083562D01*
G01X15992834Y-2077720D01*
G01X16004264Y-2066290D01*
G01X16895441Y-1963420D02*
G01X16941161Y-2083562D01*
G01X16986881Y-1963420D02*
G01X16941161Y-2083562D01*
G01X17034633Y-1963420D02*
G01X17040475Y-1969262D01*
G01X17046063Y-1963420D01*
G01X17040475Y-1957832D01*
G01X17034633Y-1963420D01*
G01X17040475Y-2003552D02*
G01X17040475Y-2083562D01*
G01X17162395Y-2003552D02*
G01X17162395Y-2083562D01*
G01X17162395Y-2020570D02*
G01X17150965Y-2009140D01*
G01X17139535Y-2003552D01*
G01X17122517Y-2003552D01*
G01X17111087Y-2009140D01*
G01X17099657Y-2020570D01*
G01X17093815Y-2037842D01*
G01X17093815Y-2049272D01*
G01X17099657Y-2066290D01*
G01X17111087Y-2077720D01*
G01X17122517Y-2083562D01*
G01X17139535Y-2083562D01*
G01X17150965Y-2077720D01*
G01X17162395Y-2066290D01*
G01X20524121Y-1963420D02*
G01X20524121Y-2083562D01*
G01X20483989Y-1963420D02*
G01X20563999Y-1963420D01*
G01X20640453Y-2003552D02*
G01X20629023Y-2009140D01*
G01X20617593Y-2020570D01*
G01X20611751Y-2037842D01*
G01X20611751Y-2049272D01*
G01X20617593Y-2066290D01*
G01X20629023Y-2077720D01*
G01X20640453Y-2083562D01*
G01X20657471Y-2083562D01*
G01X20668901Y-2077720D01*
G01X20680331Y-2066290D01*
G01X20686173Y-2049272D01*
G01X20686173Y-2037842D01*
G01X20680331Y-2020570D01*
G01X20668901Y-2009140D01*
G01X20657471Y-2003552D01*
G01X20640453Y-2003552D01*
G01X20733925Y-2003552D02*
G01X20733925Y-2123440D01*
G01X20733925Y-2020570D02*
G01X20745355Y-2009140D01*
G01X20756785Y-2003552D01*
G01X20774057Y-2003552D01*
G01X20785487Y-2009140D01*
G01X20796917Y-2020570D01*
G01X20802505Y-2037842D01*
G01X20802505Y-2049272D01*
G01X20796917Y-2066290D01*
G01X20785487Y-2077720D01*
G01X20774057Y-2083562D01*
G01X20756785Y-2083562D01*
G01X20745355Y-2077720D01*
G01X20733925Y-2066290D01*
G01X20978273Y-1963420D02*
G01X20978273Y-2083562D01*
G01X20978273Y-2083562D02*
G01X21046853Y-2083562D01*
G01X21163185Y-2003552D02*
G01X21163185Y-2083562D01*
G01X21163185Y-2020570D02*
G01X21151755Y-2009140D01*
G01X21140325Y-2003552D01*
G01X21123307Y-2003552D01*
G01X21111877Y-2009140D01*
G01X21100447Y-2020570D01*
G01X21094605Y-2037842D01*
G01X21094605Y-2049272D01*
G01X21100447Y-2066290D01*
G01X21111877Y-2077720D01*
G01X21123307Y-2083562D01*
G01X21140325Y-2083562D01*
G01X21151755Y-2077720D01*
G01X21163185Y-2066290D01*
G01X21216779Y-2003552D02*
G01X21251069Y-2083562D01*
G01X21285359Y-2003552D02*
G01X21251069Y-2083562D01*
G01X21239639Y-2106422D01*
G01X21228209Y-2117852D01*
G01X21216779Y-2123440D01*
G01X21210937Y-2123440D01*
G01X21333111Y-2037842D02*
G01X21401691Y-2037842D01*
G01X21401691Y-2026412D01*
G01X21396103Y-2014982D01*
G01X21390261Y-2009140D01*
G01X21378831Y-2003552D01*
G01X21361813Y-2003552D01*
G01X21350383Y-2009140D01*
G01X21338953Y-2020570D01*
G01X21333111Y-2037842D01*
G01X21333111Y-2049272D01*
G01X21338953Y-2066290D01*
G01X21350383Y-2077720D01*
G01X21361813Y-2083562D01*
G01X21378831Y-2083562D01*
G01X21390261Y-2077720D01*
G01X21401691Y-2066290D01*
G01X21449443Y-2003552D02*
G01X21449443Y-2083562D01*
G01X21449443Y-2037842D02*
G01X21455285Y-2020570D01*
G01X21466715Y-2009140D01*
G01X21478145Y-2003552D01*
G01X21495163Y-2003552D01*
G01X21542915Y-2032000D02*
G01X21645785Y-2032000D01*
G01X21693537Y-1963420D02*
G01X21693537Y-2083562D01*
G01X21693537Y-1963420D02*
G01X21745099Y-1963420D01*
G01X21762117Y-1969262D01*
G01X21767959Y-1974850D01*
G01X21773547Y-1986280D01*
G01X21773547Y-1997710D01*
G01X21767959Y-2009140D01*
G01X21762117Y-2014982D01*
G01X21745099Y-2020570D01*
G01X21693537Y-2020570D02*
G01X21745099Y-2020570D01*
G01X21762117Y-2026412D01*
G01X21767959Y-2032000D01*
G01X21773547Y-2043430D01*
G01X21773547Y-2060702D01*
G01X21767959Y-2072132D01*
G01X21762117Y-2077720D01*
G01X21745099Y-2083562D01*
G01X21693537Y-2083562D01*
G01X21850001Y-2003552D02*
G01X21838571Y-2009140D01*
G01X21827141Y-2020570D01*
G01X21821299Y-2037842D01*
G01X21821299Y-2049272D01*
G01X21827141Y-2066290D01*
G01X21838571Y-2077720D01*
G01X21850001Y-2083562D01*
G01X21867019Y-2083562D01*
G01X21878449Y-2077720D01*
G01X21889879Y-2066290D01*
G01X21895721Y-2049272D01*
G01X21895721Y-2037842D01*
G01X21889879Y-2020570D01*
G01X21878449Y-2009140D01*
G01X21867019Y-2003552D01*
G01X21850001Y-2003552D01*
G01X21960745Y-1963420D02*
G01X21960745Y-2060702D01*
G01X21966333Y-2077720D01*
G01X21977763Y-2083562D01*
G01X21989193Y-2083562D01*
G01X21943473Y-2003552D02*
G01X21983605Y-2003552D01*
G01X22054217Y-1963420D02*
G01X22054217Y-2060702D01*
G01X22059805Y-2077720D01*
G01X22071235Y-2083562D01*
G01X22082665Y-2083562D01*
G01X22036945Y-2003552D02*
G01X22077077Y-2003552D01*
G01X22159119Y-2003552D02*
G01X22147689Y-2009140D01*
G01X22136259Y-2020570D01*
G01X22130417Y-2037842D01*
G01X22130417Y-2049272D01*
G01X22136259Y-2066290D01*
G01X22147689Y-2077720D01*
G01X22159119Y-2083562D01*
G01X22176137Y-2083562D01*
G01X22187567Y-2077720D01*
G01X22198997Y-2066290D01*
G01X22204839Y-2049272D01*
G01X22204839Y-2037842D01*
G01X22198997Y-2020570D01*
G01X22187567Y-2009140D01*
G01X22176137Y-2003552D01*
G01X22159119Y-2003552D01*
G01X22252591Y-2003552D02*
G01X22252591Y-2083562D01*
G01X22252591Y-2026412D02*
G01X22269863Y-2009140D01*
G01X22281293Y-2003552D01*
G01X22298311Y-2003552D01*
G01X22309741Y-2009140D01*
G01X22315583Y-2026412D01*
G01X22315583Y-2083562D01*
G01X22315583Y-2026412D02*
G01X22332601Y-2009140D01*
G01X22344031Y-2003552D01*
G01X22361303Y-2003552D01*
G01X22372733Y-2009140D01*
G01X22378321Y-2026412D01*
G01X22378321Y-2083562D01*
G01X22554089Y-1963420D02*
G01X22554089Y-2083562D01*
G01X22554089Y-2083562D02*
G01X22622669Y-2083562D01*
G01X22739001Y-2003552D02*
G01X22739001Y-2083562D01*
G01X22739001Y-2020570D02*
G01X22727571Y-2009140D01*
G01X22716141Y-2003552D01*
G01X22699123Y-2003552D01*
G01X22687693Y-2009140D01*
G01X22676263Y-2020570D01*
G01X22670421Y-2037842D01*
G01X22670421Y-2049272D01*
G01X22676263Y-2066290D01*
G01X22687693Y-2077720D01*
G01X22699123Y-2083562D01*
G01X22716141Y-2083562D01*
G01X22727571Y-2077720D01*
G01X22739001Y-2066290D01*
G01X22792595Y-2003552D02*
G01X22826885Y-2083562D01*
G01X22861175Y-2003552D02*
G01X22826885Y-2083562D01*
G01X22815455Y-2106422D01*
G01X22804025Y-2117852D01*
G01X22792595Y-2123440D01*
G01X22786753Y-2123440D01*
G01X22908927Y-2037842D02*
G01X22977507Y-2037842D01*
G01X22977507Y-2026412D01*
G01X22971919Y-2014982D01*
G01X22966077Y-2009140D01*
G01X22954647Y-2003552D01*
G01X22937629Y-2003552D01*
G01X22926199Y-2009140D01*
G01X22914769Y-2020570D01*
G01X22908927Y-2037842D01*
G01X22908927Y-2049272D01*
G01X22914769Y-2066290D01*
G01X22926199Y-2077720D01*
G01X22937629Y-2083562D01*
G01X22954647Y-2083562D01*
G01X22966077Y-2077720D01*
G01X22977507Y-2066290D01*
G01X23025259Y-2003552D02*
G01X23025259Y-2083562D01*
G01X23025259Y-2037842D02*
G01X23031101Y-2020570D01*
G01X23042531Y-2009140D01*
G01X23053961Y-2003552D01*
G01X23070979Y-2003552D01*
G01X8809024Y-2543991D02*
G01X8751874Y-2624001D01*
G01X8837726Y-2624001D01*
G01X8809024Y-2543991D02*
G01X8809024Y-2664133D01*
G01X10194739Y-2543991D02*
G01X10177467Y-2549833D01*
G01X10171879Y-2561263D01*
G01X10171879Y-2572693D01*
G01X10177467Y-2584123D01*
G01X10188897Y-2589711D01*
G01X10211757Y-2595553D01*
G01X10229029Y-2601141D01*
G01X10240459Y-2612571D01*
G01X10246047Y-2624001D01*
G01X10246047Y-2641273D01*
G01X10240459Y-2652703D01*
G01X10234617Y-2658291D01*
G01X10217599Y-2664133D01*
G01X10194739Y-2664133D01*
G01X10177467Y-2658291D01*
G01X10171879Y-2652703D01*
G01X10166037Y-2641273D01*
G01X10166037Y-2624001D01*
G01X10171879Y-2612571D01*
G01X10183309Y-2601141D01*
G01X10200327Y-2595553D01*
G01X10223187Y-2589711D01*
G01X10234617Y-2584123D01*
G01X10240459Y-2572693D01*
G01X10240459Y-2561263D01*
G01X10234617Y-2549833D01*
G01X10217599Y-2543991D01*
G01X10194739Y-2543991D01*
G01X10362379Y-2561263D02*
G01X10356791Y-2549833D01*
G01X10339519Y-2543991D01*
G01X10328089Y-2543991D01*
G01X10311071Y-2549833D01*
G01X10299641Y-2566851D01*
G01X10293799Y-2595553D01*
G01X10293799Y-2624001D01*
G01X10299641Y-2646861D01*
G01X10311071Y-2658291D01*
G01X10328089Y-2664133D01*
G01X10333931Y-2664133D01*
G01X10350949Y-2658291D01*
G01X10362379Y-2646861D01*
G01X10368221Y-2629843D01*
G01X10368221Y-2624001D01*
G01X10362379Y-2606983D01*
G01X10350949Y-2595553D01*
G01X10333931Y-2589711D01*
G01X10328089Y-2589711D01*
G01X10311071Y-2595553D01*
G01X10299641Y-2606983D01*
G01X10293799Y-2624001D01*
G01X10421815Y-2635431D02*
G01X10415973Y-2641273D01*
G01X10421815Y-2646861D01*
G01X10427403Y-2641273D01*
G01X10421815Y-2635431D01*
G01X10543735Y-2561263D02*
G01X10538147Y-2549833D01*
G01X10520875Y-2543991D01*
G01X10509445Y-2543991D01*
G01X10492427Y-2549833D01*
G01X10480997Y-2566851D01*
G01X10475155Y-2595553D01*
G01X10475155Y-2624001D01*
G01X10480997Y-2646861D01*
G01X10492427Y-2658291D01*
G01X10509445Y-2664133D01*
G01X10515287Y-2664133D01*
G01X10532305Y-2658291D01*
G01X10543735Y-2646861D01*
G01X10549577Y-2629843D01*
G01X10549577Y-2624001D01*
G01X10543735Y-2606983D01*
G01X10532305Y-2595553D01*
G01X10515287Y-2589711D01*
G01X10509445Y-2589711D01*
G01X10492427Y-2595553D01*
G01X10480997Y-2606983D01*
G01X10475155Y-2624001D01*
G01X10597329Y-2584123D02*
G01X10597329Y-2664133D01*
G01X10597329Y-2606983D02*
G01X10614601Y-2589711D01*
G01X10626031Y-2584123D01*
G01X10643049Y-2584123D01*
G01X10654479Y-2589711D01*
G01X10660321Y-2606983D01*
G01X10660321Y-2664133D01*
G01X10660321Y-2606983D02*
G01X10677339Y-2589711D01*
G01X10688769Y-2584123D01*
G01X10706041Y-2584123D01*
G01X10717471Y-2589711D01*
G01X10723059Y-2606983D01*
G01X10723059Y-2664133D01*
G01X10770811Y-2543991D02*
G01X10776653Y-2549833D01*
G01X10782241Y-2543991D01*
G01X10776653Y-2538403D01*
G01X10770811Y-2543991D01*
G01X10776653Y-2584123D02*
G01X10776653Y-2664133D01*
G01X10829993Y-2543991D02*
G01X10829993Y-2664133D01*
G01X10917877Y-2521131D02*
G01X10906447Y-2532561D01*
G01X10895017Y-2549833D01*
G01X10883587Y-2572693D01*
G01X10877745Y-2601141D01*
G01X10877745Y-2624001D01*
G01X10883587Y-2652703D01*
G01X10895017Y-2675563D01*
G01X10906447Y-2692581D01*
G01X10917877Y-2704011D01*
G01X10971471Y-2572693D02*
G01X10971471Y-2566851D01*
G01X10977059Y-2555421D01*
G01X10982901Y-2549833D01*
G01X10994331Y-2543991D01*
G01X11017191Y-2543991D01*
G01X11028621Y-2549833D01*
G01X11034209Y-2555421D01*
G01X11040051Y-2566851D01*
G01X11040051Y-2578281D01*
G01X11034209Y-2589711D01*
G01X11022779Y-2606983D01*
G01X10965629Y-2664133D01*
G01X11045639Y-2664133D01*
G01X11099233Y-2635431D02*
G01X11093391Y-2641273D01*
G01X11099233Y-2646861D01*
G01X11104821Y-2641273D01*
G01X11099233Y-2635431D01*
G01X11158415Y-2572693D02*
G01X11158415Y-2566851D01*
G01X11164003Y-2555421D01*
G01X11169845Y-2549833D01*
G01X11181275Y-2543991D01*
G01X11204135Y-2543991D01*
G01X11215565Y-2549833D01*
G01X11221153Y-2555421D01*
G01X11226995Y-2566851D01*
G01X11226995Y-2578281D01*
G01X11221153Y-2589711D01*
G01X11209723Y-2606983D01*
G01X11152573Y-2664133D01*
G01X11232583Y-2664133D01*
G01X11314625Y-2543991D02*
G01X11297607Y-2549833D01*
G01X11286177Y-2566851D01*
G01X11280335Y-2595553D01*
G01X11280335Y-2612571D01*
G01X11286177Y-2641273D01*
G01X11297607Y-2658291D01*
G01X11314625Y-2664133D01*
G01X11326055Y-2664133D01*
G01X11343327Y-2658291D01*
G01X11354757Y-2641273D01*
G01X11360345Y-2612571D01*
G01X11360345Y-2595553D01*
G01X11354757Y-2566851D01*
G01X11343327Y-2549833D01*
G01X11326055Y-2543991D01*
G01X11314625Y-2543991D01*
G01X11442387Y-2543991D02*
G01X11425369Y-2549833D01*
G01X11413939Y-2566851D01*
G01X11408097Y-2595553D01*
G01X11408097Y-2612571D01*
G01X11413939Y-2641273D01*
G01X11425369Y-2658291D01*
G01X11442387Y-2664133D01*
G01X11453817Y-2664133D01*
G01X11471089Y-2658291D01*
G01X11482519Y-2641273D01*
G01X11488107Y-2612571D01*
G01X11488107Y-2595553D01*
G01X11482519Y-2566851D01*
G01X11471089Y-2549833D01*
G01X11453817Y-2543991D01*
G01X11442387Y-2543991D01*
G01X11535859Y-2584123D02*
G01X11535859Y-2664133D01*
G01X11535859Y-2606983D02*
G01X11553131Y-2589711D01*
G01X11564561Y-2584123D01*
G01X11581579Y-2584123D01*
G01X11593009Y-2589711D01*
G01X11598851Y-2606983D01*
G01X11598851Y-2664133D01*
G01X11598851Y-2606983D02*
G01X11615869Y-2589711D01*
G01X11627299Y-2584123D01*
G01X11644571Y-2584123D01*
G01X11656001Y-2589711D01*
G01X11661589Y-2606983D01*
G01X11661589Y-2664133D01*
G01X11709341Y-2584123D02*
G01X11709341Y-2664133D01*
G01X11709341Y-2606983D02*
G01X11726613Y-2589711D01*
G01X11738043Y-2584123D01*
G01X11755061Y-2584123D01*
G01X11766491Y-2589711D01*
G01X11772333Y-2606983D01*
G01X11772333Y-2664133D01*
G01X11772333Y-2606983D02*
G01X11789351Y-2589711D01*
G01X11800781Y-2584123D01*
G01X11818053Y-2584123D01*
G01X11829483Y-2589711D01*
G01X11835071Y-2606983D01*
G01X11835071Y-2664133D01*
G01X11882823Y-2521131D02*
G01X11894253Y-2532561D01*
G01X11905683Y-2549833D01*
G01X11917113Y-2572693D01*
G01X11922955Y-2601141D01*
G01X11922955Y-2624001D01*
G01X11917113Y-2652703D01*
G01X11905683Y-2675563D01*
G01X11894253Y-2692581D01*
G01X11882823Y-2704011D01*
G01X14002852Y-2543991D02*
G01X14002852Y-2664133D01*
G01X14002852Y-2543991D02*
G01X14054414Y-2543991D01*
G01X14071432Y-2549833D01*
G01X14077274Y-2555421D01*
G01X14082862Y-2566851D01*
G01X14082862Y-2584123D01*
G01X14077274Y-2595553D01*
G01X14071432Y-2601141D01*
G01X14054414Y-2606983D01*
G01X14002852Y-2606983D01*
G01X14170746Y-2543991D02*
G01X14170746Y-2664133D01*
G01X14130614Y-2543991D02*
G01X14210624Y-2543991D01*
G01X14258376Y-2543991D02*
G01X14258376Y-2664133D01*
G01X14338386Y-2543991D02*
G01X14338386Y-2664133D01*
G01X14258376Y-2601141D02*
G01X14338386Y-2601141D01*
G01X15464260Y-2543991D02*
G01X15464260Y-2664133D01*
G01X15464260Y-2543991D02*
G01X15515822Y-2543991D01*
G01X15532840Y-2549833D01*
G01X15538682Y-2555421D01*
G01X15544270Y-2566851D01*
G01X15544270Y-2578281D01*
G01X15538682Y-2589711D01*
G01X15532840Y-2595553D01*
G01X15515822Y-2601141D01*
G01X15464260Y-2601141D01*
G01X15504392Y-2601141D02*
G01X15544270Y-2664133D01*
G01X15620724Y-2584123D02*
G01X15609294Y-2589711D01*
G01X15597864Y-2601141D01*
G01X15592022Y-2618413D01*
G01X15592022Y-2629843D01*
G01X15597864Y-2646861D01*
G01X15609294Y-2658291D01*
G01X15620724Y-2664133D01*
G01X15637742Y-2664133D01*
G01X15649172Y-2658291D01*
G01X15660602Y-2646861D01*
G01X15666444Y-2629843D01*
G01X15666444Y-2618413D01*
G01X15660602Y-2601141D01*
G01X15649172Y-2589711D01*
G01X15637742Y-2584123D01*
G01X15620724Y-2584123D01*
G01X15714196Y-2584123D02*
G01X15714196Y-2641273D01*
G01X15720038Y-2658291D01*
G01X15731468Y-2664133D01*
G01X15748486Y-2664133D01*
G01X15759916Y-2658291D01*
G01X15777188Y-2641273D01*
G01X15777188Y-2584123D02*
G01X15777188Y-2664133D01*
G01X15824940Y-2584123D02*
G01X15824940Y-2664133D01*
G01X15824940Y-2606983D02*
G01X15842212Y-2589711D01*
G01X15853642Y-2584123D01*
G01X15870660Y-2584123D01*
G01X15882090Y-2589711D01*
G01X15887932Y-2606983D01*
G01X15887932Y-2664133D01*
G01X16004264Y-2543991D02*
G01X16004264Y-2664133D01*
G01X16004264Y-2601141D02*
G01X15992834Y-2589711D01*
G01X15981404Y-2584123D01*
G01X15964386Y-2584123D01*
G01X15952956Y-2589711D01*
G01X15941526Y-2601141D01*
G01X15935684Y-2618413D01*
G01X15935684Y-2629843D01*
G01X15941526Y-2646861D01*
G01X15952956Y-2658291D01*
G01X15964386Y-2664133D01*
G01X15981404Y-2664133D01*
G01X15992834Y-2658291D01*
G01X16004264Y-2646861D01*
G01X16895441Y-2543991D02*
G01X16941161Y-2664133D01*
G01X16986881Y-2543991D02*
G01X16941161Y-2664133D01*
G01X17034633Y-2543991D02*
G01X17040475Y-2549833D01*
G01X17046063Y-2543991D01*
G01X17040475Y-2538403D01*
G01X17034633Y-2543991D01*
G01X17040475Y-2584123D02*
G01X17040475Y-2664133D01*
G01X17162395Y-2584123D02*
G01X17162395Y-2664133D01*
G01X17162395Y-2601141D02*
G01X17150965Y-2589711D01*
G01X17139535Y-2584123D01*
G01X17122517Y-2584123D01*
G01X17111087Y-2589711D01*
G01X17099657Y-2601141D01*
G01X17093815Y-2618413D01*
G01X17093815Y-2629843D01*
G01X17099657Y-2646861D01*
G01X17111087Y-2658291D01*
G01X17122517Y-2664133D01*
G01X17139535Y-2664133D01*
G01X17150965Y-2658291D01*
G01X17162395Y-2646861D01*
G01X20524121Y-2543991D02*
G01X20524121Y-2664133D01*
G01X20483989Y-2543991D02*
G01X20563999Y-2543991D01*
G01X20640453Y-2584123D02*
G01X20629023Y-2589711D01*
G01X20617593Y-2601141D01*
G01X20611751Y-2618413D01*
G01X20611751Y-2629843D01*
G01X20617593Y-2646861D01*
G01X20629023Y-2658291D01*
G01X20640453Y-2664133D01*
G01X20657471Y-2664133D01*
G01X20668901Y-2658291D01*
G01X20680331Y-2646861D01*
G01X20686173Y-2629843D01*
G01X20686173Y-2618413D01*
G01X20680331Y-2601141D01*
G01X20668901Y-2589711D01*
G01X20657471Y-2584123D01*
G01X20640453Y-2584123D01*
G01X20733925Y-2584123D02*
G01X20733925Y-2704011D01*
G01X20733925Y-2601141D02*
G01X20745355Y-2589711D01*
G01X20756785Y-2584123D01*
G01X20774057Y-2584123D01*
G01X20785487Y-2589711D01*
G01X20796917Y-2601141D01*
G01X20802505Y-2618413D01*
G01X20802505Y-2629843D01*
G01X20796917Y-2646861D01*
G01X20785487Y-2658291D01*
G01X20774057Y-2664133D01*
G01X20756785Y-2664133D01*
G01X20745355Y-2658291D01*
G01X20733925Y-2646861D01*
G01X20978273Y-2543991D02*
G01X20978273Y-2664133D01*
G01X20978273Y-2664133D02*
G01X21046853Y-2664133D01*
G01X21163185Y-2584123D02*
G01X21163185Y-2664133D01*
G01X21163185Y-2601141D02*
G01X21151755Y-2589711D01*
G01X21140325Y-2584123D01*
G01X21123307Y-2584123D01*
G01X21111877Y-2589711D01*
G01X21100447Y-2601141D01*
G01X21094605Y-2618413D01*
G01X21094605Y-2629843D01*
G01X21100447Y-2646861D01*
G01X21111877Y-2658291D01*
G01X21123307Y-2664133D01*
G01X21140325Y-2664133D01*
G01X21151755Y-2658291D01*
G01X21163185Y-2646861D01*
G01X21216779Y-2584123D02*
G01X21251069Y-2664133D01*
G01X21285359Y-2584123D02*
G01X21251069Y-2664133D01*
G01X21239639Y-2686993D01*
G01X21228209Y-2698423D01*
G01X21216779Y-2704011D01*
G01X21210937Y-2704011D01*
G01X21333111Y-2618413D02*
G01X21401691Y-2618413D01*
G01X21401691Y-2606983D01*
G01X21396103Y-2595553D01*
G01X21390261Y-2589711D01*
G01X21378831Y-2584123D01*
G01X21361813Y-2584123D01*
G01X21350383Y-2589711D01*
G01X21338953Y-2601141D01*
G01X21333111Y-2618413D01*
G01X21333111Y-2629843D01*
G01X21338953Y-2646861D01*
G01X21350383Y-2658291D01*
G01X21361813Y-2664133D01*
G01X21378831Y-2664133D01*
G01X21390261Y-2658291D01*
G01X21401691Y-2646861D01*
G01X21449443Y-2584123D02*
G01X21449443Y-2664133D01*
G01X21449443Y-2618413D02*
G01X21455285Y-2601141D01*
G01X21466715Y-2589711D01*
G01X21478145Y-2584123D01*
G01X21495163Y-2584123D01*
G01X21542915Y-2612571D02*
G01X21645785Y-2612571D01*
G01X21693537Y-2543991D02*
G01X21693537Y-2664133D01*
G01X21693537Y-2543991D02*
G01X21745099Y-2543991D01*
G01X21762117Y-2549833D01*
G01X21767959Y-2555421D01*
G01X21773547Y-2566851D01*
G01X21773547Y-2578281D01*
G01X21767959Y-2589711D01*
G01X21762117Y-2595553D01*
G01X21745099Y-2601141D01*
G01X21693537Y-2601141D02*
G01X21745099Y-2601141D01*
G01X21762117Y-2606983D01*
G01X21767959Y-2612571D01*
G01X21773547Y-2624001D01*
G01X21773547Y-2641273D01*
G01X21767959Y-2652703D01*
G01X21762117Y-2658291D01*
G01X21745099Y-2664133D01*
G01X21693537Y-2664133D01*
G01X21850001Y-2584123D02*
G01X21838571Y-2589711D01*
G01X21827141Y-2601141D01*
G01X21821299Y-2618413D01*
G01X21821299Y-2629843D01*
G01X21827141Y-2646861D01*
G01X21838571Y-2658291D01*
G01X21850001Y-2664133D01*
G01X21867019Y-2664133D01*
G01X21878449Y-2658291D01*
G01X21889879Y-2646861D01*
G01X21895721Y-2629843D01*
G01X21895721Y-2618413D01*
G01X21889879Y-2601141D01*
G01X21878449Y-2589711D01*
G01X21867019Y-2584123D01*
G01X21850001Y-2584123D01*
G01X21960745Y-2543991D02*
G01X21960745Y-2641273D01*
G01X21966333Y-2658291D01*
G01X21977763Y-2664133D01*
G01X21989193Y-2664133D01*
G01X21943473Y-2584123D02*
G01X21983605Y-2584123D01*
G01X22054217Y-2543991D02*
G01X22054217Y-2641273D01*
G01X22059805Y-2658291D01*
G01X22071235Y-2664133D01*
G01X22082665Y-2664133D01*
G01X22036945Y-2584123D02*
G01X22077077Y-2584123D01*
G01X22159119Y-2584123D02*
G01X22147689Y-2589711D01*
G01X22136259Y-2601141D01*
G01X22130417Y-2618413D01*
G01X22130417Y-2629843D01*
G01X22136259Y-2646861D01*
G01X22147689Y-2658291D01*
G01X22159119Y-2664133D01*
G01X22176137Y-2664133D01*
G01X22187567Y-2658291D01*
G01X22198997Y-2646861D01*
G01X22204839Y-2629843D01*
G01X22204839Y-2618413D01*
G01X22198997Y-2601141D01*
G01X22187567Y-2589711D01*
G01X22176137Y-2584123D01*
G01X22159119Y-2584123D01*
G01X22252591Y-2584123D02*
G01X22252591Y-2664133D01*
G01X22252591Y-2606983D02*
G01X22269863Y-2589711D01*
G01X22281293Y-2584123D01*
G01X22298311Y-2584123D01*
G01X22309741Y-2589711D01*
G01X22315583Y-2606983D01*
G01X22315583Y-2664133D01*
G01X22315583Y-2606983D02*
G01X22332601Y-2589711D01*
G01X22344031Y-2584123D01*
G01X22361303Y-2584123D01*
G01X22372733Y-2589711D01*
G01X22378321Y-2606983D01*
G01X22378321Y-2664133D01*
G01X22554089Y-2543991D02*
G01X22554089Y-2664133D01*
G01X22554089Y-2664133D02*
G01X22622669Y-2664133D01*
G01X22739001Y-2584123D02*
G01X22739001Y-2664133D01*
G01X22739001Y-2601141D02*
G01X22727571Y-2589711D01*
G01X22716141Y-2584123D01*
G01X22699123Y-2584123D01*
G01X22687693Y-2589711D01*
G01X22676263Y-2601141D01*
G01X22670421Y-2618413D01*
G01X22670421Y-2629843D01*
G01X22676263Y-2646861D01*
G01X22687693Y-2658291D01*
G01X22699123Y-2664133D01*
G01X22716141Y-2664133D01*
G01X22727571Y-2658291D01*
G01X22739001Y-2646861D01*
G01X22792595Y-2584123D02*
G01X22826885Y-2664133D01*
G01X22861175Y-2584123D02*
G01X22826885Y-2664133D01*
G01X22815455Y-2686993D01*
G01X22804025Y-2698423D01*
G01X22792595Y-2704011D01*
G01X22786753Y-2704011D01*
G01X22908927Y-2618413D02*
G01X22977507Y-2618413D01*
G01X22977507Y-2606983D01*
G01X22971919Y-2595553D01*
G01X22966077Y-2589711D01*
G01X22954647Y-2584123D01*
G01X22937629Y-2584123D01*
G01X22926199Y-2589711D01*
G01X22914769Y-2601141D01*
G01X22908927Y-2618413D01*
G01X22908927Y-2629843D01*
G01X22914769Y-2646861D01*
G01X22926199Y-2658291D01*
G01X22937629Y-2664133D01*
G01X22954647Y-2664133D01*
G01X22966077Y-2658291D01*
G01X22977507Y-2646861D01*
G01X23025259Y-2584123D02*
G01X23025259Y-2664133D01*
G01X23025259Y-2618413D02*
G01X23031101Y-2601141D01*
G01X23042531Y-2589711D01*
G01X23053961Y-2584123D01*
G01X23070979Y-2584123D01*
G01X8831884Y-3124563D02*
G01X8774734Y-3244705D01*
G01X8751874Y-3124563D02*
G01X8831884Y-3124563D01*
G01X10166037Y-3147423D02*
G01X10177467Y-3141835D01*
G01X10194739Y-3124563D01*
G01X10194739Y-3244705D01*
G01X10311071Y-3124563D02*
G01X10253921Y-3124563D01*
G01X10248333Y-3176125D01*
G01X10253921Y-3170283D01*
G01X10271193Y-3164695D01*
G01X10288211Y-3164695D01*
G01X10305483Y-3170283D01*
G01X10316913Y-3181713D01*
G01X10322501Y-3198985D01*
G01X10322501Y-3210415D01*
G01X10316913Y-3227433D01*
G01X10305483Y-3238863D01*
G01X10288211Y-3244705D01*
G01X10271193Y-3244705D01*
G01X10253921Y-3238863D01*
G01X10248333Y-3233275D01*
G01X10242491Y-3221845D01*
G01X10376095Y-3216003D02*
G01X10370253Y-3221845D01*
G01X10376095Y-3227433D01*
G01X10381683Y-3221845D01*
G01X10376095Y-3216003D01*
G01X10509445Y-3124563D02*
G01X10452295Y-3244705D01*
G01X10429435Y-3124563D02*
G01X10509445Y-3124563D01*
G01X10557197Y-3164695D02*
G01X10557197Y-3244705D01*
G01X10557197Y-3187555D02*
G01X10574469Y-3170283D01*
G01X10585899Y-3164695D01*
G01X10602917Y-3164695D01*
G01X10614347Y-3170283D01*
G01X10620189Y-3187555D01*
G01X10620189Y-3244705D01*
G01X10620189Y-3187555D02*
G01X10637207Y-3170283D01*
G01X10648637Y-3164695D01*
G01X10665909Y-3164695D01*
G01X10677339Y-3170283D01*
G01X10682927Y-3187555D01*
G01X10682927Y-3244705D01*
G01X10730679Y-3124563D02*
G01X10736521Y-3130405D01*
G01X10742109Y-3124563D01*
G01X10736521Y-3118975D01*
G01X10730679Y-3124563D01*
G01X10736521Y-3164695D02*
G01X10736521Y-3244705D01*
G01X10789861Y-3124563D02*
G01X10789861Y-3244705D01*
G01X10877745Y-3101703D02*
G01X10866315Y-3113133D01*
G01X10854885Y-3130405D01*
G01X10843455Y-3153265D01*
G01X10837613Y-3181713D01*
G01X10837613Y-3204573D01*
G01X10843455Y-3233275D01*
G01X10854885Y-3256135D01*
G01X10866315Y-3273153D01*
G01X10877745Y-3284583D01*
G01X10959787Y-3124563D02*
G01X10942769Y-3130405D01*
G01X10931339Y-3147423D01*
G01X10925497Y-3176125D01*
G01X10925497Y-3193143D01*
G01X10931339Y-3221845D01*
G01X10942769Y-3238863D01*
G01X10959787Y-3244705D01*
G01X10971217Y-3244705D01*
G01X10988489Y-3238863D01*
G01X10999919Y-3221845D01*
G01X11005507Y-3193143D01*
G01X11005507Y-3176125D01*
G01X10999919Y-3147423D01*
G01X10988489Y-3130405D01*
G01X10971217Y-3124563D01*
G01X10959787Y-3124563D01*
G01X11059101Y-3216003D02*
G01X11053259Y-3221845D01*
G01X11059101Y-3227433D01*
G01X11064689Y-3221845D01*
G01X11059101Y-3216003D01*
G01X11169591Y-3124563D02*
G01X11112441Y-3204573D01*
G01X11198293Y-3204573D01*
G01X11169591Y-3124563D02*
G01X11169591Y-3244705D01*
G01X11280335Y-3124563D02*
G01X11263317Y-3130405D01*
G01X11251887Y-3147423D01*
G01X11246045Y-3176125D01*
G01X11246045Y-3193143D01*
G01X11251887Y-3221845D01*
G01X11263317Y-3238863D01*
G01X11280335Y-3244705D01*
G01X11291765Y-3244705D01*
G01X11309037Y-3238863D01*
G01X11320467Y-3221845D01*
G01X11326055Y-3193143D01*
G01X11326055Y-3176125D01*
G01X11320467Y-3147423D01*
G01X11309037Y-3130405D01*
G01X11291765Y-3124563D01*
G01X11280335Y-3124563D01*
G01X11408097Y-3124563D02*
G01X11391079Y-3130405D01*
G01X11379649Y-3147423D01*
G01X11373807Y-3176125D01*
G01X11373807Y-3193143D01*
G01X11379649Y-3221845D01*
G01X11391079Y-3238863D01*
G01X11408097Y-3244705D01*
G01X11419527Y-3244705D01*
G01X11436799Y-3238863D01*
G01X11448229Y-3221845D01*
G01X11453817Y-3193143D01*
G01X11453817Y-3176125D01*
G01X11448229Y-3147423D01*
G01X11436799Y-3130405D01*
G01X11419527Y-3124563D01*
G01X11408097Y-3124563D01*
G01X11501569Y-3164695D02*
G01X11501569Y-3244705D01*
G01X11501569Y-3187555D02*
G01X11518841Y-3170283D01*
G01X11530271Y-3164695D01*
G01X11547289Y-3164695D01*
G01X11558719Y-3170283D01*
G01X11564561Y-3187555D01*
G01X11564561Y-3244705D01*
G01X11564561Y-3187555D02*
G01X11581579Y-3170283D01*
G01X11593009Y-3164695D01*
G01X11610281Y-3164695D01*
G01X11621711Y-3170283D01*
G01X11627299Y-3187555D01*
G01X11627299Y-3244705D01*
G01X11675051Y-3164695D02*
G01X11675051Y-3244705D01*
G01X11675051Y-3187555D02*
G01X11692323Y-3170283D01*
G01X11703753Y-3164695D01*
G01X11720771Y-3164695D01*
G01X11732201Y-3170283D01*
G01X11738043Y-3187555D01*
G01X11738043Y-3244705D01*
G01X11738043Y-3187555D02*
G01X11755061Y-3170283D01*
G01X11766491Y-3164695D01*
G01X11783763Y-3164695D01*
G01X11795193Y-3170283D01*
G01X11800781Y-3187555D01*
G01X11800781Y-3244705D01*
G01X11848533Y-3101703D02*
G01X11859963Y-3113133D01*
G01X11871393Y-3130405D01*
G01X11882823Y-3153265D01*
G01X11888665Y-3181713D01*
G01X11888665Y-3204573D01*
G01X11882823Y-3233275D01*
G01X11871393Y-3256135D01*
G01X11859963Y-3273153D01*
G01X11848533Y-3284583D01*
G01X14002852Y-3124563D02*
G01X14002852Y-3244705D01*
G01X14002852Y-3124563D02*
G01X14054414Y-3124563D01*
G01X14071432Y-3130405D01*
G01X14077274Y-3135993D01*
G01X14082862Y-3147423D01*
G01X14082862Y-3164695D01*
G01X14077274Y-3176125D01*
G01X14071432Y-3181713D01*
G01X14054414Y-3187555D01*
G01X14002852Y-3187555D01*
G01X14170746Y-3124563D02*
G01X14170746Y-3244705D01*
G01X14130614Y-3124563D02*
G01X14210624Y-3124563D01*
G01X14258376Y-3124563D02*
G01X14258376Y-3244705D01*
G01X14338386Y-3124563D02*
G01X14338386Y-3244705D01*
G01X14258376Y-3181713D02*
G01X14338386Y-3181713D01*
G01X15464260Y-3124563D02*
G01X15464260Y-3244705D01*
G01X15464260Y-3124563D02*
G01X15515822Y-3124563D01*
G01X15532840Y-3130405D01*
G01X15538682Y-3135993D01*
G01X15544270Y-3147423D01*
G01X15544270Y-3158853D01*
G01X15538682Y-3170283D01*
G01X15532840Y-3176125D01*
G01X15515822Y-3181713D01*
G01X15464260Y-3181713D01*
G01X15504392Y-3181713D02*
G01X15544270Y-3244705D01*
G01X15620724Y-3164695D02*
G01X15609294Y-3170283D01*
G01X15597864Y-3181713D01*
G01X15592022Y-3198985D01*
G01X15592022Y-3210415D01*
G01X15597864Y-3227433D01*
G01X15609294Y-3238863D01*
G01X15620724Y-3244705D01*
G01X15637742Y-3244705D01*
G01X15649172Y-3238863D01*
G01X15660602Y-3227433D01*
G01X15666444Y-3210415D01*
G01X15666444Y-3198985D01*
G01X15660602Y-3181713D01*
G01X15649172Y-3170283D01*
G01X15637742Y-3164695D01*
G01X15620724Y-3164695D01*
G01X15714196Y-3164695D02*
G01X15714196Y-3221845D01*
G01X15720038Y-3238863D01*
G01X15731468Y-3244705D01*
G01X15748486Y-3244705D01*
G01X15759916Y-3238863D01*
G01X15777188Y-3221845D01*
G01X15777188Y-3164695D02*
G01X15777188Y-3244705D01*
G01X15824940Y-3164695D02*
G01X15824940Y-3244705D01*
G01X15824940Y-3187555D02*
G01X15842212Y-3170283D01*
G01X15853642Y-3164695D01*
G01X15870660Y-3164695D01*
G01X15882090Y-3170283D01*
G01X15887932Y-3187555D01*
G01X15887932Y-3244705D01*
G01X16004264Y-3124563D02*
G01X16004264Y-3244705D01*
G01X16004264Y-3181713D02*
G01X15992834Y-3170283D01*
G01X15981404Y-3164695D01*
G01X15964386Y-3164695D01*
G01X15952956Y-3170283D01*
G01X15941526Y-3181713D01*
G01X15935684Y-3198985D01*
G01X15935684Y-3210415D01*
G01X15941526Y-3227433D01*
G01X15952956Y-3238863D01*
G01X15964386Y-3244705D01*
G01X15981404Y-3244705D01*
G01X15992834Y-3238863D01*
G01X16004264Y-3227433D01*
G01X16895441Y-3124563D02*
G01X16941161Y-3244705D01*
G01X16986881Y-3124563D02*
G01X16941161Y-3244705D01*
G01X17034633Y-3124563D02*
G01X17040475Y-3130405D01*
G01X17046063Y-3124563D01*
G01X17040475Y-3118975D01*
G01X17034633Y-3124563D01*
G01X17040475Y-3164695D02*
G01X17040475Y-3244705D01*
G01X17162395Y-3164695D02*
G01X17162395Y-3244705D01*
G01X17162395Y-3181713D02*
G01X17150965Y-3170283D01*
G01X17139535Y-3164695D01*
G01X17122517Y-3164695D01*
G01X17111087Y-3170283D01*
G01X17099657Y-3181713D01*
G01X17093815Y-3198985D01*
G01X17093815Y-3210415D01*
G01X17099657Y-3227433D01*
G01X17111087Y-3238863D01*
G01X17122517Y-3244705D01*
G01X17139535Y-3244705D01*
G01X17150965Y-3238863D01*
G01X17162395Y-3227433D01*
G01X20524121Y-3124563D02*
G01X20524121Y-3244705D01*
G01X20483989Y-3124563D02*
G01X20563999Y-3124563D01*
G01X20640453Y-3164695D02*
G01X20629023Y-3170283D01*
G01X20617593Y-3181713D01*
G01X20611751Y-3198985D01*
G01X20611751Y-3210415D01*
G01X20617593Y-3227433D01*
G01X20629023Y-3238863D01*
G01X20640453Y-3244705D01*
G01X20657471Y-3244705D01*
G01X20668901Y-3238863D01*
G01X20680331Y-3227433D01*
G01X20686173Y-3210415D01*
G01X20686173Y-3198985D01*
G01X20680331Y-3181713D01*
G01X20668901Y-3170283D01*
G01X20657471Y-3164695D01*
G01X20640453Y-3164695D01*
G01X20733925Y-3164695D02*
G01X20733925Y-3284583D01*
G01X20733925Y-3181713D02*
G01X20745355Y-3170283D01*
G01X20756785Y-3164695D01*
G01X20774057Y-3164695D01*
G01X20785487Y-3170283D01*
G01X20796917Y-3181713D01*
G01X20802505Y-3198985D01*
G01X20802505Y-3210415D01*
G01X20796917Y-3227433D01*
G01X20785487Y-3238863D01*
G01X20774057Y-3244705D01*
G01X20756785Y-3244705D01*
G01X20745355Y-3238863D01*
G01X20733925Y-3227433D01*
G01X20978273Y-3124563D02*
G01X20978273Y-3244705D01*
G01X20978273Y-3244705D02*
G01X21046853Y-3244705D01*
G01X21163185Y-3164695D02*
G01X21163185Y-3244705D01*
G01X21163185Y-3181713D02*
G01X21151755Y-3170283D01*
G01X21140325Y-3164695D01*
G01X21123307Y-3164695D01*
G01X21111877Y-3170283D01*
G01X21100447Y-3181713D01*
G01X21094605Y-3198985D01*
G01X21094605Y-3210415D01*
G01X21100447Y-3227433D01*
G01X21111877Y-3238863D01*
G01X21123307Y-3244705D01*
G01X21140325Y-3244705D01*
G01X21151755Y-3238863D01*
G01X21163185Y-3227433D01*
G01X21216779Y-3164695D02*
G01X21251069Y-3244705D01*
G01X21285359Y-3164695D02*
G01X21251069Y-3244705D01*
G01X21239639Y-3267565D01*
G01X21228209Y-3278995D01*
G01X21216779Y-3284583D01*
G01X21210937Y-3284583D01*
G01X21333111Y-3198985D02*
G01X21401691Y-3198985D01*
G01X21401691Y-3187555D01*
G01X21396103Y-3176125D01*
G01X21390261Y-3170283D01*
G01X21378831Y-3164695D01*
G01X21361813Y-3164695D01*
G01X21350383Y-3170283D01*
G01X21338953Y-3181713D01*
G01X21333111Y-3198985D01*
G01X21333111Y-3210415D01*
G01X21338953Y-3227433D01*
G01X21350383Y-3238863D01*
G01X21361813Y-3244705D01*
G01X21378831Y-3244705D01*
G01X21390261Y-3238863D01*
G01X21401691Y-3227433D01*
G01X21449443Y-3164695D02*
G01X21449443Y-3244705D01*
G01X21449443Y-3198985D02*
G01X21455285Y-3181713D01*
G01X21466715Y-3170283D01*
G01X21478145Y-3164695D01*
G01X21495163Y-3164695D01*
G01X21542915Y-3193143D02*
G01X21645785Y-3193143D01*
G01X21693537Y-3124563D02*
G01X21693537Y-3244705D01*
G01X21693537Y-3124563D02*
G01X21745099Y-3124563D01*
G01X21762117Y-3130405D01*
G01X21767959Y-3135993D01*
G01X21773547Y-3147423D01*
G01X21773547Y-3158853D01*
G01X21767959Y-3170283D01*
G01X21762117Y-3176125D01*
G01X21745099Y-3181713D01*
G01X21693537Y-3181713D02*
G01X21745099Y-3181713D01*
G01X21762117Y-3187555D01*
G01X21767959Y-3193143D01*
G01X21773547Y-3204573D01*
G01X21773547Y-3221845D01*
G01X21767959Y-3233275D01*
G01X21762117Y-3238863D01*
G01X21745099Y-3244705D01*
G01X21693537Y-3244705D01*
G01X21850001Y-3164695D02*
G01X21838571Y-3170283D01*
G01X21827141Y-3181713D01*
G01X21821299Y-3198985D01*
G01X21821299Y-3210415D01*
G01X21827141Y-3227433D01*
G01X21838571Y-3238863D01*
G01X21850001Y-3244705D01*
G01X21867019Y-3244705D01*
G01X21878449Y-3238863D01*
G01X21889879Y-3227433D01*
G01X21895721Y-3210415D01*
G01X21895721Y-3198985D01*
G01X21889879Y-3181713D01*
G01X21878449Y-3170283D01*
G01X21867019Y-3164695D01*
G01X21850001Y-3164695D01*
G01X21960745Y-3124563D02*
G01X21960745Y-3221845D01*
G01X21966333Y-3238863D01*
G01X21977763Y-3244705D01*
G01X21989193Y-3244705D01*
G01X21943473Y-3164695D02*
G01X21983605Y-3164695D01*
G01X22054217Y-3124563D02*
G01X22054217Y-3221845D01*
G01X22059805Y-3238863D01*
G01X22071235Y-3244705D01*
G01X22082665Y-3244705D01*
G01X22036945Y-3164695D02*
G01X22077077Y-3164695D01*
G01X22159119Y-3164695D02*
G01X22147689Y-3170283D01*
G01X22136259Y-3181713D01*
G01X22130417Y-3198985D01*
G01X22130417Y-3210415D01*
G01X22136259Y-3227433D01*
G01X22147689Y-3238863D01*
G01X22159119Y-3244705D01*
G01X22176137Y-3244705D01*
G01X22187567Y-3238863D01*
G01X22198997Y-3227433D01*
G01X22204839Y-3210415D01*
G01X22204839Y-3198985D01*
G01X22198997Y-3181713D01*
G01X22187567Y-3170283D01*
G01X22176137Y-3164695D01*
G01X22159119Y-3164695D01*
G01X22252591Y-3164695D02*
G01X22252591Y-3244705D01*
G01X22252591Y-3187555D02*
G01X22269863Y-3170283D01*
G01X22281293Y-3164695D01*
G01X22298311Y-3164695D01*
G01X22309741Y-3170283D01*
G01X22315583Y-3187555D01*
G01X22315583Y-3244705D01*
G01X22315583Y-3187555D02*
G01X22332601Y-3170283D01*
G01X22344031Y-3164695D01*
G01X22361303Y-3164695D01*
G01X22372733Y-3170283D01*
G01X22378321Y-3187555D01*
G01X22378321Y-3244705D01*
G01X22554089Y-3124563D02*
G01X22554089Y-3244705D01*
G01X22554089Y-3244705D02*
G01X22622669Y-3244705D01*
G01X22739001Y-3164695D02*
G01X22739001Y-3244705D01*
G01X22739001Y-3181713D02*
G01X22727571Y-3170283D01*
G01X22716141Y-3164695D01*
G01X22699123Y-3164695D01*
G01X22687693Y-3170283D01*
G01X22676263Y-3181713D01*
G01X22670421Y-3198985D01*
G01X22670421Y-3210415D01*
G01X22676263Y-3227433D01*
G01X22687693Y-3238863D01*
G01X22699123Y-3244705D01*
G01X22716141Y-3244705D01*
G01X22727571Y-3238863D01*
G01X22739001Y-3227433D01*
G01X22792595Y-3164695D02*
G01X22826885Y-3244705D01*
G01X22861175Y-3164695D02*
G01X22826885Y-3244705D01*
G01X22815455Y-3267565D01*
G01X22804025Y-3278995D01*
G01X22792595Y-3284583D01*
G01X22786753Y-3284583D01*
G01X22908927Y-3198985D02*
G01X22977507Y-3198985D01*
G01X22977507Y-3187555D01*
G01X22971919Y-3176125D01*
G01X22966077Y-3170283D01*
G01X22954647Y-3164695D01*
G01X22937629Y-3164695D01*
G01X22926199Y-3170283D01*
G01X22914769Y-3181713D01*
G01X22908927Y-3198985D01*
G01X22908927Y-3210415D01*
G01X22914769Y-3227433D01*
G01X22926199Y-3238863D01*
G01X22937629Y-3244705D01*
G01X22954647Y-3244705D01*
G01X22966077Y-3238863D01*
G01X22977507Y-3227433D01*
G01X23025259Y-3164695D02*
G01X23025259Y-3244705D01*
G01X23025259Y-3198985D02*
G01X23031101Y-3181713D01*
G01X23042531Y-3170283D01*
G01X23053961Y-3164695D01*
G01X23070979Y-3164695D01*
G01X8780576Y-3705134D02*
G01X8763304Y-3710976D01*
G01X8757716Y-3722406D01*
G01X8757716Y-3733836D01*
G01X8763304Y-3745266D01*
G01X8774734Y-3750854D01*
G01X8797594Y-3756696D01*
G01X8814866Y-3762284D01*
G01X8826296Y-3773714D01*
G01X8831884Y-3785144D01*
G01X8831884Y-3802416D01*
G01X8826296Y-3813846D01*
G01X8820454Y-3819434D01*
G01X8803436Y-3825276D01*
G01X8780576Y-3825276D01*
G01X8763304Y-3819434D01*
G01X8757716Y-3813846D01*
G01X8751874Y-3802416D01*
G01X8751874Y-3785144D01*
G01X8757716Y-3773714D01*
G01X8769146Y-3762284D01*
G01X8786164Y-3756696D01*
G01X8809024Y-3750854D01*
G01X8820454Y-3745266D01*
G01X8826296Y-3733836D01*
G01X8826296Y-3722406D01*
G01X8820454Y-3710976D01*
G01X8803436Y-3705134D01*
G01X8780576Y-3705134D01*
G01X10223187Y-3705134D02*
G01X10166037Y-3785144D01*
G01X10251889Y-3785144D01*
G01X10223187Y-3705134D02*
G01X10223187Y-3825276D01*
G01X10311071Y-3705134D02*
G01X10374063Y-3705134D01*
G01X10339773Y-3750854D01*
G01X10356791Y-3750854D01*
G01X10368221Y-3756696D01*
G01X10374063Y-3762284D01*
G01X10379651Y-3779556D01*
G01X10379651Y-3790986D01*
G01X10374063Y-3808004D01*
G01X10362633Y-3819434D01*
G01X10345361Y-3825276D01*
G01X10328343Y-3825276D01*
G01X10311071Y-3819434D01*
G01X10305483Y-3813846D01*
G01X10299641Y-3802416D01*
G01X10433245Y-3796574D02*
G01X10427403Y-3802416D01*
G01X10433245Y-3808004D01*
G01X10438833Y-3802416D01*
G01X10433245Y-3796574D01*
G01X10498015Y-3705134D02*
G01X10561007Y-3705134D01*
G01X10526717Y-3750854D01*
G01X10543735Y-3750854D01*
G01X10555165Y-3756696D01*
G01X10561007Y-3762284D01*
G01X10566595Y-3779556D01*
G01X10566595Y-3790986D01*
G01X10561007Y-3808004D01*
G01X10549577Y-3819434D01*
G01X10532305Y-3825276D01*
G01X10515287Y-3825276D01*
G01X10498015Y-3819434D01*
G01X10492427Y-3813846D01*
G01X10486585Y-3802416D01*
G01X10614347Y-3745266D02*
G01X10677339Y-3825276D01*
G01X10677339Y-3745266D02*
G01X10614347Y-3825276D01*
G01X10782241Y-3705134D02*
G01X10725091Y-3785144D01*
G01X10810943Y-3785144D01*
G01X10782241Y-3705134D02*
G01X10782241Y-3825276D01*
G01X10870125Y-3705134D02*
G01X10933117Y-3705134D01*
G01X10898827Y-3750854D01*
G01X10915845Y-3750854D01*
G01X10927275Y-3756696D01*
G01X10933117Y-3762284D01*
G01X10938705Y-3779556D01*
G01X10938705Y-3790986D01*
G01X10933117Y-3808004D01*
G01X10921687Y-3819434D01*
G01X10904415Y-3825276D01*
G01X10887397Y-3825276D01*
G01X10870125Y-3819434D01*
G01X10864537Y-3813846D01*
G01X10858695Y-3802416D01*
G01X10992299Y-3796574D02*
G01X10986457Y-3802416D01*
G01X10992299Y-3808004D01*
G01X10997887Y-3802416D01*
G01X10992299Y-3796574D01*
G01X11057069Y-3705134D02*
G01X11120061Y-3705134D01*
G01X11085771Y-3750854D01*
G01X11102789Y-3750854D01*
G01X11114219Y-3756696D01*
G01X11120061Y-3762284D01*
G01X11125649Y-3779556D01*
G01X11125649Y-3790986D01*
G01X11120061Y-3808004D01*
G01X11108631Y-3819434D01*
G01X11091359Y-3825276D01*
G01X11074341Y-3825276D01*
G01X11057069Y-3819434D01*
G01X11051481Y-3813846D01*
G01X11045639Y-3802416D01*
G01X11173401Y-3745266D02*
G01X11173401Y-3825276D01*
G01X11173401Y-3768126D02*
G01X11190673Y-3750854D01*
G01X11202103Y-3745266D01*
G01X11219121Y-3745266D01*
G01X11230551Y-3750854D01*
G01X11236393Y-3768126D01*
G01X11236393Y-3825276D01*
G01X11236393Y-3768126D02*
G01X11253411Y-3750854D01*
G01X11264841Y-3745266D01*
G01X11282113Y-3745266D01*
G01X11293543Y-3750854D01*
G01X11299131Y-3768126D01*
G01X11299131Y-3825276D01*
G01X11346883Y-3705134D02*
G01X11352725Y-3710976D01*
G01X11358313Y-3705134D01*
G01X11352725Y-3699546D01*
G01X11346883Y-3705134D01*
G01X11352725Y-3745266D02*
G01X11352725Y-3825276D01*
G01X11406065Y-3705134D02*
G01X11406065Y-3825276D01*
G01X11493949Y-3682274D02*
G01X11482519Y-3693704D01*
G01X11471089Y-3710976D01*
G01X11459659Y-3733836D01*
G01X11453817Y-3762284D01*
G01X11453817Y-3785144D01*
G01X11459659Y-3813846D01*
G01X11471089Y-3836706D01*
G01X11482519Y-3853724D01*
G01X11493949Y-3865154D01*
G01X11541701Y-3727994D02*
G01X11553131Y-3722406D01*
G01X11570403Y-3705134D01*
G01X11570403Y-3825276D01*
G01X11623997Y-3796574D02*
G01X11618155Y-3802416D01*
G01X11623997Y-3808004D01*
G01X11629585Y-3802416D01*
G01X11623997Y-3796574D01*
G01X11677337Y-3727994D02*
G01X11688767Y-3722406D01*
G01X11706039Y-3705134D01*
G01X11706039Y-3825276D01*
G01X11788081Y-3705134D02*
G01X11771063Y-3710976D01*
G01X11759633Y-3727994D01*
G01X11753791Y-3756696D01*
G01X11753791Y-3773714D01*
G01X11759633Y-3802416D01*
G01X11771063Y-3819434D01*
G01X11788081Y-3825276D01*
G01X11799511Y-3825276D01*
G01X11816783Y-3819434D01*
G01X11828213Y-3802416D01*
G01X11833801Y-3773714D01*
G01X11833801Y-3756696D01*
G01X11828213Y-3727994D01*
G01X11816783Y-3710976D01*
G01X11799511Y-3705134D01*
G01X11788081Y-3705134D01*
G01X11915843Y-3705134D02*
G01X11898825Y-3710976D01*
G01X11887395Y-3727994D01*
G01X11881553Y-3756696D01*
G01X11881553Y-3773714D01*
G01X11887395Y-3802416D01*
G01X11898825Y-3819434D01*
G01X11915843Y-3825276D01*
G01X11927273Y-3825276D01*
G01X11944545Y-3819434D01*
G01X11955975Y-3802416D01*
G01X11961563Y-3773714D01*
G01X11961563Y-3756696D01*
G01X11955975Y-3727994D01*
G01X11944545Y-3710976D01*
G01X11927273Y-3705134D01*
G01X11915843Y-3705134D01*
G01X12009315Y-3745266D02*
G01X12072307Y-3825276D01*
G01X12072307Y-3745266D02*
G01X12009315Y-3825276D01*
G01X12120059Y-3727994D02*
G01X12131489Y-3722406D01*
G01X12148761Y-3705134D01*
G01X12148761Y-3825276D01*
G01X12202355Y-3796574D02*
G01X12196513Y-3802416D01*
G01X12202355Y-3808004D01*
G01X12207943Y-3802416D01*
G01X12202355Y-3796574D01*
G01X12255695Y-3727994D02*
G01X12267125Y-3722406D01*
G01X12284397Y-3705134D01*
G01X12284397Y-3825276D01*
G01X12366439Y-3705134D02*
G01X12349421Y-3710976D01*
G01X12337991Y-3727994D01*
G01X12332149Y-3756696D01*
G01X12332149Y-3773714D01*
G01X12337991Y-3802416D01*
G01X12349421Y-3819434D01*
G01X12366439Y-3825276D01*
G01X12377869Y-3825276D01*
G01X12395141Y-3819434D01*
G01X12406571Y-3802416D01*
G01X12412159Y-3773714D01*
G01X12412159Y-3756696D01*
G01X12406571Y-3727994D01*
G01X12395141Y-3710976D01*
G01X12377869Y-3705134D01*
G01X12366439Y-3705134D01*
G01X12494201Y-3705134D02*
G01X12477183Y-3710976D01*
G01X12465753Y-3727994D01*
G01X12459911Y-3756696D01*
G01X12459911Y-3773714D01*
G01X12465753Y-3802416D01*
G01X12477183Y-3819434D01*
G01X12494201Y-3825276D01*
G01X12505631Y-3825276D01*
G01X12522903Y-3819434D01*
G01X12534333Y-3802416D01*
G01X12539921Y-3773714D01*
G01X12539921Y-3756696D01*
G01X12534333Y-3727994D01*
G01X12522903Y-3710976D01*
G01X12505631Y-3705134D01*
G01X12494201Y-3705134D01*
G01X12587673Y-3745266D02*
G01X12587673Y-3825276D01*
G01X12587673Y-3768126D02*
G01X12604945Y-3750854D01*
G01X12616375Y-3745266D01*
G01X12633393Y-3745266D01*
G01X12644823Y-3750854D01*
G01X12650665Y-3768126D01*
G01X12650665Y-3825276D01*
G01X12650665Y-3768126D02*
G01X12667683Y-3750854D01*
G01X12679113Y-3745266D01*
G01X12696385Y-3745266D01*
G01X12707815Y-3750854D01*
G01X12713403Y-3768126D01*
G01X12713403Y-3825276D01*
G01X12761155Y-3745266D02*
G01X12761155Y-3825276D01*
G01X12761155Y-3768126D02*
G01X12778427Y-3750854D01*
G01X12789857Y-3745266D01*
G01X12806875Y-3745266D01*
G01X12818305Y-3750854D01*
G01X12824147Y-3768126D01*
G01X12824147Y-3825276D01*
G01X12824147Y-3768126D02*
G01X12841165Y-3750854D01*
G01X12852595Y-3745266D01*
G01X12869867Y-3745266D01*
G01X12881297Y-3750854D01*
G01X12886885Y-3768126D01*
G01X12886885Y-3825276D01*
G01X12934637Y-3682274D02*
G01X12946067Y-3693704D01*
G01X12957497Y-3710976D01*
G01X12968927Y-3733836D01*
G01X12974769Y-3762284D01*
G01X12974769Y-3785144D01*
G01X12968927Y-3813846D01*
G01X12957497Y-3836706D01*
G01X12946067Y-3853724D01*
G01X12934637Y-3865154D01*
G01X14002852Y-3705134D02*
G01X14002852Y-3825276D01*
G01X14002852Y-3705134D02*
G01X14054414Y-3705134D01*
G01X14071432Y-3710976D01*
G01X14077274Y-3716564D01*
G01X14082862Y-3727994D01*
G01X14082862Y-3745266D01*
G01X14077274Y-3756696D01*
G01X14071432Y-3762284D01*
G01X14054414Y-3768126D01*
G01X14002852Y-3768126D01*
G01X14170746Y-3705134D02*
G01X14170746Y-3825276D01*
G01X14130614Y-3705134D02*
G01X14210624Y-3705134D01*
G01X14258376Y-3705134D02*
G01X14258376Y-3825276D01*
G01X14338386Y-3705134D02*
G01X14338386Y-3825276D01*
G01X14258376Y-3762284D02*
G01X14338386Y-3762284D01*
G01X15464260Y-3705134D02*
G01X15464260Y-3825276D01*
G01X15464260Y-3705134D02*
G01X15515822Y-3705134D01*
G01X15532840Y-3710976D01*
G01X15538682Y-3716564D01*
G01X15544270Y-3727994D01*
G01X15544270Y-3739424D01*
G01X15538682Y-3750854D01*
G01X15532840Y-3756696D01*
G01X15515822Y-3762284D01*
G01X15464260Y-3762284D01*
G01X15504392Y-3762284D02*
G01X15544270Y-3825276D01*
G01X15620724Y-3745266D02*
G01X15609294Y-3750854D01*
G01X15597864Y-3762284D01*
G01X15592022Y-3779556D01*
G01X15592022Y-3790986D01*
G01X15597864Y-3808004D01*
G01X15609294Y-3819434D01*
G01X15620724Y-3825276D01*
G01X15637742Y-3825276D01*
G01X15649172Y-3819434D01*
G01X15660602Y-3808004D01*
G01X15666444Y-3790986D01*
G01X15666444Y-3779556D01*
G01X15660602Y-3762284D01*
G01X15649172Y-3750854D01*
G01X15637742Y-3745266D01*
G01X15620724Y-3745266D01*
G01X15714196Y-3745266D02*
G01X15714196Y-3802416D01*
G01X15720038Y-3819434D01*
G01X15731468Y-3825276D01*
G01X15748486Y-3825276D01*
G01X15759916Y-3819434D01*
G01X15777188Y-3802416D01*
G01X15777188Y-3745266D02*
G01X15777188Y-3825276D01*
G01X15824940Y-3745266D02*
G01X15824940Y-3825276D01*
G01X15824940Y-3768126D02*
G01X15842212Y-3750854D01*
G01X15853642Y-3745266D01*
G01X15870660Y-3745266D01*
G01X15882090Y-3750854D01*
G01X15887932Y-3768126D01*
G01X15887932Y-3825276D01*
G01X16004264Y-3705134D02*
G01X16004264Y-3825276D01*
G01X16004264Y-3762284D02*
G01X15992834Y-3750854D01*
G01X15981404Y-3745266D01*
G01X15964386Y-3745266D01*
G01X15952956Y-3750854D01*
G01X15941526Y-3762284D01*
G01X15935684Y-3779556D01*
G01X15935684Y-3790986D01*
G01X15941526Y-3808004D01*
G01X15952956Y-3819434D01*
G01X15964386Y-3825276D01*
G01X15981404Y-3825276D01*
G01X15992834Y-3819434D01*
G01X16004264Y-3808004D01*
G01X16895441Y-3705134D02*
G01X16895441Y-3825276D01*
G01X16895441Y-3705134D02*
G01X16947003Y-3705134D01*
G01X16964021Y-3710976D01*
G01X16969863Y-3716564D01*
G01X16975451Y-3727994D01*
G01X16975451Y-3745266D01*
G01X16969863Y-3756696D01*
G01X16964021Y-3762284D01*
G01X16947003Y-3768126D01*
G01X16895441Y-3768126D01*
G01X17091783Y-3745266D02*
G01X17091783Y-3825276D01*
G01X17091783Y-3762284D02*
G01X17080353Y-3750854D01*
G01X17068923Y-3745266D01*
G01X17051905Y-3745266D01*
G01X17040475Y-3750854D01*
G01X17029045Y-3762284D01*
G01X17023203Y-3779556D01*
G01X17023203Y-3790986D01*
G01X17029045Y-3808004D01*
G01X17040475Y-3819434D01*
G01X17051905Y-3825276D01*
G01X17068923Y-3825276D01*
G01X17080353Y-3819434D01*
G01X17091783Y-3808004D01*
G01X17208115Y-3705134D02*
G01X17208115Y-3825276D01*
G01X17208115Y-3762284D02*
G01X17196685Y-3750854D01*
G01X17185255Y-3745266D01*
G01X17168237Y-3745266D01*
G01X17156807Y-3750854D01*
G01X17145377Y-3762284D01*
G01X17139535Y-3779556D01*
G01X17139535Y-3790986D01*
G01X17145377Y-3808004D01*
G01X17156807Y-3819434D01*
G01X17168237Y-3825276D01*
G01X17185255Y-3825276D01*
G01X17196685Y-3819434D01*
G01X17208115Y-3808004D01*
G01X18604752Y-3682274D02*
G01X18593322Y-3693704D01*
G01X18581892Y-3710976D01*
G01X18570462Y-3733836D01*
G01X18564620Y-3762284D01*
G01X18564620Y-3785144D01*
G01X18570462Y-3813846D01*
G01X18581892Y-3836706D01*
G01X18593322Y-3853724D01*
G01X18604752Y-3865154D01*
G01X18652504Y-3705134D02*
G01X18652504Y-3825276D01*
G01X18652504Y-3705134D02*
G01X18698224Y-3825276D01*
G01X18743944Y-3705134D02*
G01X18698224Y-3825276D01*
G01X18743944Y-3705134D02*
G01X18743944Y-3825276D01*
G01X18791696Y-3705134D02*
G01X18797538Y-3710976D01*
G01X18803126Y-3705134D01*
G01X18797538Y-3699546D01*
G01X18791696Y-3705134D01*
G01X18797538Y-3745266D02*
G01X18797538Y-3825276D01*
G01X18850878Y-3745266D02*
G01X18913870Y-3825276D01*
G01X18913870Y-3745266D02*
G01X18850878Y-3825276D01*
G01X18961622Y-3779556D02*
G01X19030202Y-3779556D01*
G01X19030202Y-3768126D01*
G01X19024614Y-3756696D01*
G01X19018772Y-3750854D01*
G01X19007342Y-3745266D01*
G01X18990324Y-3745266D01*
G01X18978894Y-3750854D01*
G01X18967464Y-3762284D01*
G01X18961622Y-3779556D01*
G01X18961622Y-3790986D01*
G01X18967464Y-3808004D01*
G01X18978894Y-3819434D01*
G01X18990324Y-3825276D01*
G01X19007342Y-3825276D01*
G01X19018772Y-3819434D01*
G01X19030202Y-3808004D01*
G01X19146534Y-3705134D02*
G01X19146534Y-3825276D01*
G01X19146534Y-3762284D02*
G01X19135104Y-3750854D01*
G01X19123674Y-3745266D01*
G01X19106656Y-3745266D01*
G01X19095226Y-3750854D01*
G01X19083796Y-3762284D01*
G01X19077954Y-3779556D01*
G01X19077954Y-3790986D01*
G01X19083796Y-3808004D01*
G01X19095226Y-3819434D01*
G01X19106656Y-3825276D01*
G01X19123674Y-3825276D01*
G01X19135104Y-3819434D01*
G01X19146534Y-3808004D01*
G01X19194286Y-3682274D02*
G01X19205716Y-3693704D01*
G01X19217146Y-3710976D01*
G01X19228576Y-3733836D01*
G01X19234418Y-3762284D01*
G01X19234418Y-3785144D01*
G01X19228576Y-3813846D01*
G01X19217146Y-3836706D01*
G01X19205716Y-3853724D01*
G01X19194286Y-3865154D01*
G01X20524121Y-3705134D02*
G01X20524121Y-3825276D01*
G01X20483989Y-3705134D02*
G01X20563999Y-3705134D01*
G01X20640453Y-3745266D02*
G01X20629023Y-3750854D01*
G01X20617593Y-3762284D01*
G01X20611751Y-3779556D01*
G01X20611751Y-3790986D01*
G01X20617593Y-3808004D01*
G01X20629023Y-3819434D01*
G01X20640453Y-3825276D01*
G01X20657471Y-3825276D01*
G01X20668901Y-3819434D01*
G01X20680331Y-3808004D01*
G01X20686173Y-3790986D01*
G01X20686173Y-3779556D01*
G01X20680331Y-3762284D01*
G01X20668901Y-3750854D01*
G01X20657471Y-3745266D01*
G01X20640453Y-3745266D01*
G01X20733925Y-3745266D02*
G01X20733925Y-3865154D01*
G01X20733925Y-3762284D02*
G01X20745355Y-3750854D01*
G01X20756785Y-3745266D01*
G01X20774057Y-3745266D01*
G01X20785487Y-3750854D01*
G01X20796917Y-3762284D01*
G01X20802505Y-3779556D01*
G01X20802505Y-3790986D01*
G01X20796917Y-3808004D01*
G01X20785487Y-3819434D01*
G01X20774057Y-3825276D01*
G01X20756785Y-3825276D01*
G01X20745355Y-3819434D01*
G01X20733925Y-3808004D01*
G01X20978273Y-3705134D02*
G01X20978273Y-3825276D01*
G01X20978273Y-3825276D02*
G01X21046853Y-3825276D01*
G01X21163185Y-3745266D02*
G01X21163185Y-3825276D01*
G01X21163185Y-3762284D02*
G01X21151755Y-3750854D01*
G01X21140325Y-3745266D01*
G01X21123307Y-3745266D01*
G01X21111877Y-3750854D01*
G01X21100447Y-3762284D01*
G01X21094605Y-3779556D01*
G01X21094605Y-3790986D01*
G01X21100447Y-3808004D01*
G01X21111877Y-3819434D01*
G01X21123307Y-3825276D01*
G01X21140325Y-3825276D01*
G01X21151755Y-3819434D01*
G01X21163185Y-3808004D01*
G01X21216779Y-3745266D02*
G01X21251069Y-3825276D01*
G01X21285359Y-3745266D02*
G01X21251069Y-3825276D01*
G01X21239639Y-3848136D01*
G01X21228209Y-3859566D01*
G01X21216779Y-3865154D01*
G01X21210937Y-3865154D01*
G01X21333111Y-3779556D02*
G01X21401691Y-3779556D01*
G01X21401691Y-3768126D01*
G01X21396103Y-3756696D01*
G01X21390261Y-3750854D01*
G01X21378831Y-3745266D01*
G01X21361813Y-3745266D01*
G01X21350383Y-3750854D01*
G01X21338953Y-3762284D01*
G01X21333111Y-3779556D01*
G01X21333111Y-3790986D01*
G01X21338953Y-3808004D01*
G01X21350383Y-3819434D01*
G01X21361813Y-3825276D01*
G01X21378831Y-3825276D01*
G01X21390261Y-3819434D01*
G01X21401691Y-3808004D01*
G01X21449443Y-3745266D02*
G01X21449443Y-3825276D01*
G01X21449443Y-3779556D02*
G01X21455285Y-3762284D01*
G01X21466715Y-3750854D01*
G01X21478145Y-3745266D01*
G01X21495163Y-3745266D01*
G01X21542915Y-3773714D02*
G01X21645785Y-3773714D01*
G01X21693537Y-3705134D02*
G01X21693537Y-3825276D01*
G01X21693537Y-3705134D02*
G01X21745099Y-3705134D01*
G01X21762117Y-3710976D01*
G01X21767959Y-3716564D01*
G01X21773547Y-3727994D01*
G01X21773547Y-3739424D01*
G01X21767959Y-3750854D01*
G01X21762117Y-3756696D01*
G01X21745099Y-3762284D01*
G01X21693537Y-3762284D02*
G01X21745099Y-3762284D01*
G01X21762117Y-3768126D01*
G01X21767959Y-3773714D01*
G01X21773547Y-3785144D01*
G01X21773547Y-3802416D01*
G01X21767959Y-3813846D01*
G01X21762117Y-3819434D01*
G01X21745099Y-3825276D01*
G01X21693537Y-3825276D01*
G01X21850001Y-3745266D02*
G01X21838571Y-3750854D01*
G01X21827141Y-3762284D01*
G01X21821299Y-3779556D01*
G01X21821299Y-3790986D01*
G01X21827141Y-3808004D01*
G01X21838571Y-3819434D01*
G01X21850001Y-3825276D01*
G01X21867019Y-3825276D01*
G01X21878449Y-3819434D01*
G01X21889879Y-3808004D01*
G01X21895721Y-3790986D01*
G01X21895721Y-3779556D01*
G01X21889879Y-3762284D01*
G01X21878449Y-3750854D01*
G01X21867019Y-3745266D01*
G01X21850001Y-3745266D01*
G01X21960745Y-3705134D02*
G01X21960745Y-3802416D01*
G01X21966333Y-3819434D01*
G01X21977763Y-3825276D01*
G01X21989193Y-3825276D01*
G01X21943473Y-3745266D02*
G01X21983605Y-3745266D01*
G01X22054217Y-3705134D02*
G01X22054217Y-3802416D01*
G01X22059805Y-3819434D01*
G01X22071235Y-3825276D01*
G01X22082665Y-3825276D01*
G01X22036945Y-3745266D02*
G01X22077077Y-3745266D01*
G01X22159119Y-3745266D02*
G01X22147689Y-3750854D01*
G01X22136259Y-3762284D01*
G01X22130417Y-3779556D01*
G01X22130417Y-3790986D01*
G01X22136259Y-3808004D01*
G01X22147689Y-3819434D01*
G01X22159119Y-3825276D01*
G01X22176137Y-3825276D01*
G01X22187567Y-3819434D01*
G01X22198997Y-3808004D01*
G01X22204839Y-3790986D01*
G01X22204839Y-3779556D01*
G01X22198997Y-3762284D01*
G01X22187567Y-3750854D01*
G01X22176137Y-3745266D01*
G01X22159119Y-3745266D01*
G01X22252591Y-3745266D02*
G01X22252591Y-3825276D01*
G01X22252591Y-3768126D02*
G01X22269863Y-3750854D01*
G01X22281293Y-3745266D01*
G01X22298311Y-3745266D01*
G01X22309741Y-3750854D01*
G01X22315583Y-3768126D01*
G01X22315583Y-3825276D01*
G01X22315583Y-3768126D02*
G01X22332601Y-3750854D01*
G01X22344031Y-3745266D01*
G01X22361303Y-3745266D01*
G01X22372733Y-3750854D01*
G01X22378321Y-3768126D01*
G01X22378321Y-3825276D01*
G01X22554089Y-3705134D02*
G01X22554089Y-3825276D01*
G01X22554089Y-3825276D02*
G01X22622669Y-3825276D01*
G01X22739001Y-3745266D02*
G01X22739001Y-3825276D01*
G01X22739001Y-3762284D02*
G01X22727571Y-3750854D01*
G01X22716141Y-3745266D01*
G01X22699123Y-3745266D01*
G01X22687693Y-3750854D01*
G01X22676263Y-3762284D01*
G01X22670421Y-3779556D01*
G01X22670421Y-3790986D01*
G01X22676263Y-3808004D01*
G01X22687693Y-3819434D01*
G01X22699123Y-3825276D01*
G01X22716141Y-3825276D01*
G01X22727571Y-3819434D01*
G01X22739001Y-3808004D01*
G01X22792595Y-3745266D02*
G01X22826885Y-3825276D01*
G01X22861175Y-3745266D02*
G01X22826885Y-3825276D01*
G01X22815455Y-3848136D01*
G01X22804025Y-3859566D01*
G01X22792595Y-3865154D01*
G01X22786753Y-3865154D01*
G01X22908927Y-3779556D02*
G01X22977507Y-3779556D01*
G01X22977507Y-3768126D01*
G01X22971919Y-3756696D01*
G01X22966077Y-3750854D01*
G01X22954647Y-3745266D01*
G01X22937629Y-3745266D01*
G01X22926199Y-3750854D01*
G01X22914769Y-3762284D01*
G01X22908927Y-3779556D01*
G01X22908927Y-3790986D01*
G01X22914769Y-3808004D01*
G01X22926199Y-3819434D01*
G01X22937629Y-3825276D01*
G01X22954647Y-3825276D01*
G01X22966077Y-3819434D01*
G01X22977507Y-3808004D01*
G01X23025259Y-3745266D02*
G01X23025259Y-3825276D01*
G01X23025259Y-3779556D02*
G01X23031101Y-3762284D01*
G01X23042531Y-3750854D01*
G01X23053961Y-3745266D01*
G01X23070979Y-3745266D01*
G01X8757716Y-4314408D02*
G01X8757716Y-4308566D01*
G01X8763304Y-4297136D01*
G01X8769146Y-4291548D01*
G01X8780576Y-4285706D01*
G01X8803436Y-4285706D01*
G01X8814866Y-4291548D01*
G01X8820454Y-4297136D01*
G01X8826296Y-4308566D01*
G01X8826296Y-4319996D01*
G01X8820454Y-4331426D01*
G01X8809024Y-4348698D01*
G01X8751874Y-4405848D01*
G01X8831884Y-4405848D01*
G01X8891066Y-4285706D02*
G01X8954058Y-4285706D01*
G01X8919768Y-4331426D01*
G01X8936786Y-4331426D01*
G01X8948216Y-4337268D01*
G01X8954058Y-4342856D01*
G01X8959646Y-4360128D01*
G01X8959646Y-4371558D01*
G01X8954058Y-4388576D01*
G01X8942628Y-4400006D01*
G01X8925356Y-4405848D01*
G01X8908338Y-4405848D01*
G01X8891066Y-4400006D01*
G01X8885478Y-4394418D01*
G01X8879636Y-4382988D01*
G01X9013240Y-4314408D02*
G01X9013240Y-4308566D01*
G01X9018828Y-4297136D01*
G01X9024670Y-4291548D01*
G01X9036100Y-4285706D01*
G01X9058960Y-4285706D01*
G01X9070390Y-4291548D01*
G01X9075978Y-4297136D01*
G01X9081820Y-4308566D01*
G01X9081820Y-4319996D01*
G01X9075978Y-4331426D01*
G01X9064548Y-4348698D01*
G01X9007398Y-4405848D01*
G01X9087408Y-4405848D01*
G01X10166037Y-4308566D02*
G01X10177467Y-4302978D01*
G01X10194739Y-4285706D01*
G01X10194739Y-4405848D01*
G01X10248333Y-4314408D02*
G01X10248333Y-4308566D01*
G01X10253921Y-4297136D01*
G01X10259763Y-4291548D01*
G01X10271193Y-4285706D01*
G01X10294053Y-4285706D01*
G01X10305483Y-4291548D01*
G01X10311071Y-4297136D01*
G01X10316913Y-4308566D01*
G01X10316913Y-4319996D01*
G01X10311071Y-4331426D01*
G01X10299641Y-4348698D01*
G01X10242491Y-4405848D01*
G01X10322501Y-4405848D01*
G01X10376095Y-4377146D02*
G01X10370253Y-4382988D01*
G01X10376095Y-4388576D01*
G01X10381683Y-4382988D01*
G01X10376095Y-4377146D01*
G01X10463725Y-4285706D02*
G01X10446707Y-4291548D01*
G01X10435277Y-4308566D01*
G01X10429435Y-4337268D01*
G01X10429435Y-4354286D01*
G01X10435277Y-4382988D01*
G01X10446707Y-4400006D01*
G01X10463725Y-4405848D01*
G01X10475155Y-4405848D01*
G01X10492427Y-4400006D01*
G01X10503857Y-4382988D01*
G01X10509445Y-4354286D01*
G01X10509445Y-4337268D01*
G01X10503857Y-4308566D01*
G01X10492427Y-4291548D01*
G01X10475155Y-4285706D01*
G01X10463725Y-4285706D01*
G01X10557197Y-4325838D02*
G01X10557197Y-4405848D01*
G01X10557197Y-4348698D02*
G01X10574469Y-4331426D01*
G01X10585899Y-4325838D01*
G01X10602917Y-4325838D01*
G01X10614347Y-4331426D01*
G01X10620189Y-4348698D01*
G01X10620189Y-4405848D01*
G01X10620189Y-4348698D02*
G01X10637207Y-4331426D01*
G01X10648637Y-4325838D01*
G01X10665909Y-4325838D01*
G01X10677339Y-4331426D01*
G01X10682927Y-4348698D01*
G01X10682927Y-4405848D01*
G01X10730679Y-4285706D02*
G01X10736521Y-4291548D01*
G01X10742109Y-4285706D01*
G01X10736521Y-4280118D01*
G01X10730679Y-4285706D01*
G01X10736521Y-4325838D02*
G01X10736521Y-4405848D01*
G01X10789861Y-4285706D02*
G01X10789861Y-4405848D01*
G01X10877745Y-4262846D02*
G01X10866315Y-4274276D01*
G01X10854885Y-4291548D01*
G01X10843455Y-4314408D01*
G01X10837613Y-4342856D01*
G01X10837613Y-4365716D01*
G01X10843455Y-4394418D01*
G01X10854885Y-4417278D01*
G01X10866315Y-4434296D01*
G01X10877745Y-4445726D01*
G01X10959787Y-4285706D02*
G01X10942769Y-4291548D01*
G01X10931339Y-4308566D01*
G01X10925497Y-4337268D01*
G01X10925497Y-4354286D01*
G01X10931339Y-4382988D01*
G01X10942769Y-4400006D01*
G01X10959787Y-4405848D01*
G01X10971217Y-4405848D01*
G01X10988489Y-4400006D01*
G01X10999919Y-4382988D01*
G01X11005507Y-4354286D01*
G01X11005507Y-4337268D01*
G01X10999919Y-4308566D01*
G01X10988489Y-4291548D01*
G01X10971217Y-4285706D01*
G01X10959787Y-4285706D01*
G01X11059101Y-4377146D02*
G01X11053259Y-4382988D01*
G01X11059101Y-4388576D01*
G01X11064689Y-4382988D01*
G01X11059101Y-4377146D01*
G01X11123871Y-4285706D02*
G01X11186863Y-4285706D01*
G01X11152573Y-4331426D01*
G01X11169591Y-4331426D01*
G01X11181021Y-4337268D01*
G01X11186863Y-4342856D01*
G01X11192451Y-4360128D01*
G01X11192451Y-4371558D01*
G01X11186863Y-4388576D01*
G01X11175433Y-4400006D01*
G01X11158161Y-4405848D01*
G01X11141143Y-4405848D01*
G01X11123871Y-4400006D01*
G01X11118283Y-4394418D01*
G01X11112441Y-4382988D01*
G01X11274493Y-4285706D02*
G01X11257475Y-4291548D01*
G01X11246045Y-4308566D01*
G01X11240203Y-4337268D01*
G01X11240203Y-4354286D01*
G01X11246045Y-4382988D01*
G01X11257475Y-4400006D01*
G01X11274493Y-4405848D01*
G01X11285923Y-4405848D01*
G01X11303195Y-4400006D01*
G01X11314625Y-4382988D01*
G01X11320213Y-4354286D01*
G01X11320213Y-4337268D01*
G01X11314625Y-4308566D01*
G01X11303195Y-4291548D01*
G01X11285923Y-4285706D01*
G01X11274493Y-4285706D01*
G01X11436545Y-4285706D02*
G01X11379395Y-4285706D01*
G01X11373807Y-4337268D01*
G01X11379395Y-4331426D01*
G01X11396667Y-4325838D01*
G01X11413685Y-4325838D01*
G01X11430957Y-4331426D01*
G01X11442387Y-4342856D01*
G01X11447975Y-4360128D01*
G01X11447975Y-4371558D01*
G01X11442387Y-4388576D01*
G01X11430957Y-4400006D01*
G01X11413685Y-4405848D01*
G01X11396667Y-4405848D01*
G01X11379395Y-4400006D01*
G01X11373807Y-4394418D01*
G01X11367965Y-4382988D01*
G01X11495727Y-4325838D02*
G01X11495727Y-4405848D01*
G01X11495727Y-4348698D02*
G01X11512999Y-4331426D01*
G01X11524429Y-4325838D01*
G01X11541447Y-4325838D01*
G01X11552877Y-4331426D01*
G01X11558719Y-4348698D01*
G01X11558719Y-4405848D01*
G01X11558719Y-4348698D02*
G01X11575737Y-4331426D01*
G01X11587167Y-4325838D01*
G01X11604439Y-4325838D01*
G01X11615869Y-4331426D01*
G01X11621457Y-4348698D01*
G01X11621457Y-4405848D01*
G01X11669209Y-4325838D02*
G01X11669209Y-4405848D01*
G01X11669209Y-4348698D02*
G01X11686481Y-4331426D01*
G01X11697911Y-4325838D01*
G01X11714929Y-4325838D01*
G01X11726359Y-4331426D01*
G01X11732201Y-4348698D01*
G01X11732201Y-4405848D01*
G01X11732201Y-4348698D02*
G01X11749219Y-4331426D01*
G01X11760649Y-4325838D01*
G01X11777921Y-4325838D01*
G01X11789351Y-4331426D01*
G01X11794939Y-4348698D01*
G01X11794939Y-4405848D01*
G01X11842691Y-4262846D02*
G01X11854121Y-4274276D01*
G01X11865551Y-4291548D01*
G01X11876981Y-4314408D01*
G01X11882823Y-4342856D01*
G01X11882823Y-4365716D01*
G01X11876981Y-4394418D01*
G01X11865551Y-4417278D01*
G01X11854121Y-4434296D01*
G01X11842691Y-4445726D01*
G01X14002852Y-4285706D02*
G01X14002852Y-4405848D01*
G01X14002852Y-4285706D02*
G01X14054414Y-4285706D01*
G01X14071432Y-4291548D01*
G01X14077274Y-4297136D01*
G01X14082862Y-4308566D01*
G01X14082862Y-4325838D01*
G01X14077274Y-4337268D01*
G01X14071432Y-4342856D01*
G01X14054414Y-4348698D01*
G01X14002852Y-4348698D01*
G01X14170746Y-4285706D02*
G01X14170746Y-4405848D01*
G01X14130614Y-4285706D02*
G01X14210624Y-4285706D01*
G01X14258376Y-4285706D02*
G01X14258376Y-4405848D01*
G01X14338386Y-4285706D02*
G01X14338386Y-4405848D01*
G01X14258376Y-4342856D02*
G01X14338386Y-4342856D01*
G01X15464260Y-4285706D02*
G01X15464260Y-4405848D01*
G01X15464260Y-4285706D02*
G01X15515822Y-4285706D01*
G01X15532840Y-4291548D01*
G01X15538682Y-4297136D01*
G01X15544270Y-4308566D01*
G01X15544270Y-4319996D01*
G01X15538682Y-4331426D01*
G01X15532840Y-4337268D01*
G01X15515822Y-4342856D01*
G01X15464260Y-4342856D01*
G01X15504392Y-4342856D02*
G01X15544270Y-4405848D01*
G01X15620724Y-4325838D02*
G01X15609294Y-4331426D01*
G01X15597864Y-4342856D01*
G01X15592022Y-4360128D01*
G01X15592022Y-4371558D01*
G01X15597864Y-4388576D01*
G01X15609294Y-4400006D01*
G01X15620724Y-4405848D01*
G01X15637742Y-4405848D01*
G01X15649172Y-4400006D01*
G01X15660602Y-4388576D01*
G01X15666444Y-4371558D01*
G01X15666444Y-4360128D01*
G01X15660602Y-4342856D01*
G01X15649172Y-4331426D01*
G01X15637742Y-4325838D01*
G01X15620724Y-4325838D01*
G01X15714196Y-4325838D02*
G01X15714196Y-4382988D01*
G01X15720038Y-4400006D01*
G01X15731468Y-4405848D01*
G01X15748486Y-4405848D01*
G01X15759916Y-4400006D01*
G01X15777188Y-4382988D01*
G01X15777188Y-4325838D02*
G01X15777188Y-4405848D01*
G01X15824940Y-4325838D02*
G01X15824940Y-4405848D01*
G01X15824940Y-4348698D02*
G01X15842212Y-4331426D01*
G01X15853642Y-4325838D01*
G01X15870660Y-4325838D01*
G01X15882090Y-4331426D01*
G01X15887932Y-4348698D01*
G01X15887932Y-4405848D01*
G01X16004264Y-4285706D02*
G01X16004264Y-4405848D01*
G01X16004264Y-4342856D02*
G01X15992834Y-4331426D01*
G01X15981404Y-4325838D01*
G01X15964386Y-4325838D01*
G01X15952956Y-4331426D01*
G01X15941526Y-4342856D01*
G01X15935684Y-4360128D01*
G01X15935684Y-4371558D01*
G01X15941526Y-4388576D01*
G01X15952956Y-4400006D01*
G01X15964386Y-4405848D01*
G01X15981404Y-4405848D01*
G01X15992834Y-4400006D01*
G01X16004264Y-4388576D01*
G01X16895441Y-4285706D02*
G01X16941161Y-4405848D01*
G01X16986881Y-4285706D02*
G01X16941161Y-4405848D01*
G01X17034633Y-4285706D02*
G01X17040475Y-4291548D01*
G01X17046063Y-4285706D01*
G01X17040475Y-4280118D01*
G01X17034633Y-4285706D01*
G01X17040475Y-4325838D02*
G01X17040475Y-4405848D01*
G01X17162395Y-4325838D02*
G01X17162395Y-4405848D01*
G01X17162395Y-4342856D02*
G01X17150965Y-4331426D01*
G01X17139535Y-4325838D01*
G01X17122517Y-4325838D01*
G01X17111087Y-4331426D01*
G01X17099657Y-4342856D01*
G01X17093815Y-4360128D01*
G01X17093815Y-4371558D01*
G01X17099657Y-4388576D01*
G01X17111087Y-4400006D01*
G01X17122517Y-4405848D01*
G01X17139535Y-4405848D01*
G01X17150965Y-4400006D01*
G01X17162395Y-4388576D01*
G01X20524121Y-4285706D02*
G01X20524121Y-4405848D01*
G01X20483989Y-4285706D02*
G01X20563999Y-4285706D01*
G01X20640453Y-4325838D02*
G01X20629023Y-4331426D01*
G01X20617593Y-4342856D01*
G01X20611751Y-4360128D01*
G01X20611751Y-4371558D01*
G01X20617593Y-4388576D01*
G01X20629023Y-4400006D01*
G01X20640453Y-4405848D01*
G01X20657471Y-4405848D01*
G01X20668901Y-4400006D01*
G01X20680331Y-4388576D01*
G01X20686173Y-4371558D01*
G01X20686173Y-4360128D01*
G01X20680331Y-4342856D01*
G01X20668901Y-4331426D01*
G01X20657471Y-4325838D01*
G01X20640453Y-4325838D01*
G01X20733925Y-4325838D02*
G01X20733925Y-4445726D01*
G01X20733925Y-4342856D02*
G01X20745355Y-4331426D01*
G01X20756785Y-4325838D01*
G01X20774057Y-4325838D01*
G01X20785487Y-4331426D01*
G01X20796917Y-4342856D01*
G01X20802505Y-4360128D01*
G01X20802505Y-4371558D01*
G01X20796917Y-4388576D01*
G01X20785487Y-4400006D01*
G01X20774057Y-4405848D01*
G01X20756785Y-4405848D01*
G01X20745355Y-4400006D01*
G01X20733925Y-4388576D01*
G01X20978273Y-4285706D02*
G01X20978273Y-4405848D01*
G01X20978273Y-4405848D02*
G01X21046853Y-4405848D01*
G01X21163185Y-4325838D02*
G01X21163185Y-4405848D01*
G01X21163185Y-4342856D02*
G01X21151755Y-4331426D01*
G01X21140325Y-4325838D01*
G01X21123307Y-4325838D01*
G01X21111877Y-4331426D01*
G01X21100447Y-4342856D01*
G01X21094605Y-4360128D01*
G01X21094605Y-4371558D01*
G01X21100447Y-4388576D01*
G01X21111877Y-4400006D01*
G01X21123307Y-4405848D01*
G01X21140325Y-4405848D01*
G01X21151755Y-4400006D01*
G01X21163185Y-4388576D01*
G01X21216779Y-4325838D02*
G01X21251069Y-4405848D01*
G01X21285359Y-4325838D02*
G01X21251069Y-4405848D01*
G01X21239639Y-4428708D01*
G01X21228209Y-4440138D01*
G01X21216779Y-4445726D01*
G01X21210937Y-4445726D01*
G01X21333111Y-4360128D02*
G01X21401691Y-4360128D01*
G01X21401691Y-4348698D01*
G01X21396103Y-4337268D01*
G01X21390261Y-4331426D01*
G01X21378831Y-4325838D01*
G01X21361813Y-4325838D01*
G01X21350383Y-4331426D01*
G01X21338953Y-4342856D01*
G01X21333111Y-4360128D01*
G01X21333111Y-4371558D01*
G01X21338953Y-4388576D01*
G01X21350383Y-4400006D01*
G01X21361813Y-4405848D01*
G01X21378831Y-4405848D01*
G01X21390261Y-4400006D01*
G01X21401691Y-4388576D01*
G01X21449443Y-4325838D02*
G01X21449443Y-4405848D01*
G01X21449443Y-4360128D02*
G01X21455285Y-4342856D01*
G01X21466715Y-4331426D01*
G01X21478145Y-4325838D01*
G01X21495163Y-4325838D01*
G01X21542915Y-4354286D02*
G01X21645785Y-4354286D01*
G01X21693537Y-4285706D02*
G01X21693537Y-4405848D01*
G01X21693537Y-4285706D02*
G01X21745099Y-4285706D01*
G01X21762117Y-4291548D01*
G01X21767959Y-4297136D01*
G01X21773547Y-4308566D01*
G01X21773547Y-4319996D01*
G01X21767959Y-4331426D01*
G01X21762117Y-4337268D01*
G01X21745099Y-4342856D01*
G01X21693537Y-4342856D02*
G01X21745099Y-4342856D01*
G01X21762117Y-4348698D01*
G01X21767959Y-4354286D01*
G01X21773547Y-4365716D01*
G01X21773547Y-4382988D01*
G01X21767959Y-4394418D01*
G01X21762117Y-4400006D01*
G01X21745099Y-4405848D01*
G01X21693537Y-4405848D01*
G01X21850001Y-4325838D02*
G01X21838571Y-4331426D01*
G01X21827141Y-4342856D01*
G01X21821299Y-4360128D01*
G01X21821299Y-4371558D01*
G01X21827141Y-4388576D01*
G01X21838571Y-4400006D01*
G01X21850001Y-4405848D01*
G01X21867019Y-4405848D01*
G01X21878449Y-4400006D01*
G01X21889879Y-4388576D01*
G01X21895721Y-4371558D01*
G01X21895721Y-4360128D01*
G01X21889879Y-4342856D01*
G01X21878449Y-4331426D01*
G01X21867019Y-4325838D01*
G01X21850001Y-4325838D01*
G01X21960745Y-4285706D02*
G01X21960745Y-4382988D01*
G01X21966333Y-4400006D01*
G01X21977763Y-4405848D01*
G01X21989193Y-4405848D01*
G01X21943473Y-4325838D02*
G01X21983605Y-4325838D01*
G01X22054217Y-4285706D02*
G01X22054217Y-4382988D01*
G01X22059805Y-4400006D01*
G01X22071235Y-4405848D01*
G01X22082665Y-4405848D01*
G01X22036945Y-4325838D02*
G01X22077077Y-4325838D01*
G01X22159119Y-4325838D02*
G01X22147689Y-4331426D01*
G01X22136259Y-4342856D01*
G01X22130417Y-4360128D01*
G01X22130417Y-4371558D01*
G01X22136259Y-4388576D01*
G01X22147689Y-4400006D01*
G01X22159119Y-4405848D01*
G01X22176137Y-4405848D01*
G01X22187567Y-4400006D01*
G01X22198997Y-4388576D01*
G01X22204839Y-4371558D01*
G01X22204839Y-4360128D01*
G01X22198997Y-4342856D01*
G01X22187567Y-4331426D01*
G01X22176137Y-4325838D01*
G01X22159119Y-4325838D01*
G01X22252591Y-4325838D02*
G01X22252591Y-4405848D01*
G01X22252591Y-4348698D02*
G01X22269863Y-4331426D01*
G01X22281293Y-4325838D01*
G01X22298311Y-4325838D01*
G01X22309741Y-4331426D01*
G01X22315583Y-4348698D01*
G01X22315583Y-4405848D01*
G01X22315583Y-4348698D02*
G01X22332601Y-4331426D01*
G01X22344031Y-4325838D01*
G01X22361303Y-4325838D01*
G01X22372733Y-4331426D01*
G01X22378321Y-4348698D01*
G01X22378321Y-4405848D01*
G01X22554089Y-4285706D02*
G01X22554089Y-4405848D01*
G01X22554089Y-4405848D02*
G01X22622669Y-4405848D01*
G01X22739001Y-4325838D02*
G01X22739001Y-4405848D01*
G01X22739001Y-4342856D02*
G01X22727571Y-4331426D01*
G01X22716141Y-4325838D01*
G01X22699123Y-4325838D01*
G01X22687693Y-4331426D01*
G01X22676263Y-4342856D01*
G01X22670421Y-4360128D01*
G01X22670421Y-4371558D01*
G01X22676263Y-4388576D01*
G01X22687693Y-4400006D01*
G01X22699123Y-4405848D01*
G01X22716141Y-4405848D01*
G01X22727571Y-4400006D01*
G01X22739001Y-4388576D01*
G01X22792595Y-4325838D02*
G01X22826885Y-4405848D01*
G01X22861175Y-4325838D02*
G01X22826885Y-4405848D01*
G01X22815455Y-4428708D01*
G01X22804025Y-4440138D01*
G01X22792595Y-4445726D01*
G01X22786753Y-4445726D01*
G01X22908927Y-4360128D02*
G01X22977507Y-4360128D01*
G01X22977507Y-4348698D01*
G01X22971919Y-4337268D01*
G01X22966077Y-4331426D01*
G01X22954647Y-4325838D01*
G01X22937629Y-4325838D01*
G01X22926199Y-4331426D01*
G01X22914769Y-4342856D01*
G01X22908927Y-4360128D01*
G01X22908927Y-4371558D01*
G01X22914769Y-4388576D01*
G01X22926199Y-4400006D01*
G01X22937629Y-4405848D01*
G01X22954647Y-4405848D01*
G01X22966077Y-4400006D01*
G01X22977507Y-4388576D01*
G01X23025259Y-4325838D02*
G01X23025259Y-4405848D01*
G01X23025259Y-4360128D02*
G01X23031101Y-4342856D01*
G01X23042531Y-4331426D01*
G01X23053961Y-4325838D01*
G01X23070979Y-4325838D01*

G04 Image Start*
G36*
G01X7587262Y-2724604D02*
G01X7481649Y-2713123D01*
G01X7438774Y-2810329D01*
G01X7395899Y-2713123D01*
G01X7290286Y-2724604D01*
G01X7353049Y-2638879D01*
G01X7313327Y-2584624D01*
G01X7344819Y-2584624D01*
G01X7384520Y-2638879D01*
G01X7344819Y-2693133D01*
G01X7411647Y-2685869D01*
G01X7411647Y-2685869D01*
G01X7438774Y-2747362D01*
G01X7465901Y-2685869D01*
G01X7532729Y-2693133D01*
G01X7493028Y-2638879D01*
G01X7532703Y-2584650D01*
G01X7465876Y-2591914D01*
G01X7438774Y-2530395D01*
G01X7411647Y-2591889D01*
G01X7344819Y-2584624D01*
G01X7313327Y-2584624D01*
G01X7290286Y-2553154D01*
G01X7395924Y-2564634D01*
G01X7438774Y-2467429D01*
G01X7481649Y-2564634D01*
G01X7587262Y-2553154D01*
G01X7524499Y-2638879D01*
G01X7587262Y-2724604D01*
G37*
G36*
G01X7458269Y-1610299D02*
G01X7450529Y-1610887D01*
G01X7442686Y-1611086D01*
G01X7434842Y-1610887D01*
G01X7427102Y-1610299D01*
G01X7419475Y-1609330D01*
G01X7411970Y-1607990D01*
G01X7397364Y-1604235D01*
G01X7383362Y-1599110D01*
G01X7370039Y-1592693D01*
G01X7357474Y-1585060D01*
G01X7345742Y-1576287D01*
G01X7334920Y-1566452D01*
G01X7325084Y-1555629D01*
G01X7316311Y-1543897D01*
G01X7308678Y-1531332D01*
G01X7302261Y-1518010D01*
G01X7297137Y-1504008D01*
G01X7293382Y-1489402D01*
G01X7292041Y-1481896D01*
G01X7291072Y-1474269D01*
G01X7290484Y-1466529D01*
G01X7290286Y-1458686D01*
G01X7315686Y-1458686D01*
G01X7316343Y-1471652D01*
G01X7318270Y-1484248D01*
G01X7321405Y-1496410D01*
G01X7325682Y-1508072D01*
G01X7331036Y-1519172D01*
G01X7337405Y-1529643D01*
G01X7344723Y-1539423D01*
G01X7352925Y-1548446D01*
G01X7361948Y-1556649D01*
G01X7371728Y-1563966D01*
G01X7382200Y-1570335D01*
G01X7393299Y-1575690D01*
G01X7404961Y-1579966D01*
G01X7417123Y-1583101D01*
G01X7417123Y-1583101D01*
G01X7429719Y-1585029D01*
G01X7442686Y-1585686D01*
G01X7455652Y-1585029D01*
G01X7468248Y-1583101D01*
G01X7480410Y-1579966D01*
G01X7492072Y-1575690D01*
G01X7503172Y-1570335D01*
G01X7513643Y-1563966D01*
G01X7523423Y-1556649D01*
G01X7532446Y-1548446D01*
G01X7540649Y-1539423D01*
G01X7547966Y-1529643D01*
G01X7554335Y-1519172D01*
G01X7559690Y-1508072D01*
G01X7563966Y-1496410D01*
G01X7567101Y-1484248D01*
G01X7569029Y-1471652D01*
G01X7569686Y-1458686D01*
G01X7569029Y-1445719D01*
G01X7567101Y-1433123D01*
G01X7563966Y-1420962D01*
G01X7559690Y-1409299D01*
G01X7554335Y-1398200D01*
G01X7547966Y-1387728D01*
G01X7540649Y-1377949D01*
G01X7532446Y-1368925D01*
G01X7523423Y-1360723D01*
G01X7513643Y-1353405D01*
G01X7503172Y-1347037D01*
G01X7492072Y-1341682D01*
G01X7480410Y-1337405D01*
G01X7468248Y-1334271D01*
G01X7455652Y-1332343D01*
G01X7442686Y-1331686D01*
G01X7429719Y-1332343D01*
G01X7417123Y-1334271D01*
G01X7404961Y-1337405D01*
G01X7393299Y-1341682D01*
G01X7382200Y-1347037D01*
G01X7371728Y-1353405D01*
G01X7361948Y-1360723D01*
G01X7352925Y-1368925D01*
G01X7344723Y-1377949D01*
G01X7337405Y-1387728D01*
G01X7331036Y-1398200D01*
G01X7325682Y-1409299D01*
G01X7321405Y-1420962D01*
G01X7318270Y-1433123D01*
G01X7316343Y-1445719D01*
G01X7315686Y-1458686D01*
G01X7290286Y-1458686D01*
G01X7290484Y-1450843D01*
G01X7291072Y-1443102D01*
G01X7292041Y-1435475D01*
G01X7293382Y-1427970D01*
G01X7297137Y-1413364D01*
G01X7302261Y-1399362D01*
G01X7308678Y-1386040D01*
G01X7316311Y-1373474D01*
G01X7325084Y-1361742D01*
G01X7334920Y-1350920D01*
G01X7345742Y-1341084D01*
G01X7357474Y-1332311D01*
G01X7370039Y-1324678D01*
G01X7383362Y-1318261D01*
G01X7397364Y-1313137D01*
G01X7411970Y-1309382D01*
G01X7419475Y-1308042D01*
G01X7427102Y-1307072D01*
G01X7434842Y-1306484D01*
G01X7442686Y-1306286D01*
G01X7450529Y-1306484D01*
G01X7458269Y-1307072D01*
G01X7465896Y-1308042D01*
G01X7473402Y-1309382D01*
G01X7488007Y-1313137D01*
G01X7502010Y-1318261D01*
G01X7515332Y-1324678D01*
G01X7527897Y-1332311D01*
G01X7539629Y-1341084D01*
G01X7550451Y-1350920D01*
G01X7560287Y-1361742D01*
G01X7569060Y-1373474D01*
G01X7576693Y-1386040D01*
G01X7583110Y-1399362D01*
G01X7588235Y-1413364D01*
G01X7591990Y-1427970D01*
G01X7593330Y-1435475D01*
G01X7594299Y-1443102D01*
G01X7594887Y-1450843D01*
G01X7595086Y-1458686D01*
G01X7594887Y-1466529D01*
G01X7594299Y-1474269D01*
G01X7593330Y-1481896D01*
G01X7591990Y-1489402D01*
G01X7588235Y-1504008D01*
G01X7583110Y-1518010D01*
G01X7576693Y-1531332D01*
G01X7569060Y-1543897D01*
G01X7560287Y-1555629D01*
G01X7550451Y-1566452D01*
G01X7539629Y-1576287D01*
G01X7527897Y-1585060D01*
G01X7515332Y-1592693D01*
G01X7502010Y-1599110D01*
G01X7488007Y-1604235D01*
G01X7473402Y-1607990D01*
G01X7465896Y-1609330D01*
G01X7458269Y-1610299D01*
G37*
G36*
G01X7595086Y-3850237D02*
G01X7511977Y-3850237D01*
G01X7511977Y-3933371D01*
G01X7373420Y-3933371D01*
G01X7373420Y-3850263D01*
G01X7290286Y-3850263D01*
G01X7290286Y-3737106D01*
G01X7315686Y-3737106D01*
G01X7315686Y-3824837D01*
G01X7398820Y-3824837D01*
G01X7398820Y-3907971D01*
G01X7398820Y-3907971D01*
G01X7486551Y-3907971D01*
G01X7486551Y-3824863D01*
G01X7569686Y-3824863D01*
G01X7569686Y-3737106D01*
G01X7486551Y-3737106D01*
G01X7486551Y-3653971D01*
G01X7398820Y-3653971D01*
G01X7398820Y-3737106D01*
G01X7315686Y-3737106D01*
G01X7290286Y-3737106D01*
G01X7290286Y-3711706D01*
G01X7373420Y-3711706D01*
G01X7373420Y-3628571D01*
G01X7511951Y-3628571D01*
G01X7511951Y-3711706D01*
G01X7595086Y-3711706D01*
G01X7595086Y-3850237D01*
G37*
G36*
G01X7595086Y-3048000D02*
G01X7525058Y-3200400D01*
G01X7595086Y-3352800D01*
G01X7442686Y-3282772D01*
G01X7290286Y-3352800D01*
G01X7314048Y-3301086D01*
G01X7342000Y-3301086D01*
G01X7432068Y-3259684D01*
G01X7442686Y-3254807D01*
G01X7453303Y-3259684D01*
G01X7543371Y-3301086D01*
G01X7501969Y-3211017D01*
G01X7497092Y-3200400D01*
G01X7501969Y-3189783D01*
G01X7543371Y-3099714D01*
G01X7453303Y-3141116D01*
G01X7442686Y-3145993D01*
G01X7432068Y-3141116D01*
G01X7342000Y-3099714D01*
G01X7383402Y-3189783D01*
G01X7388279Y-3200400D01*
G01X7388279Y-3200400D01*
G01X7383402Y-3211017D01*
G01X7342000Y-3301086D01*
G01X7314048Y-3301086D01*
G01X7360313Y-3200400D01*
G01X7290286Y-3048000D01*
G01X7442686Y-3118028D01*
G01X7595086Y-3048000D01*
G37*
G36*
G01X7290286Y-1886857D02*
G01X7595086Y-1886857D01*
G01X7442686Y-2150814D01*
G01X7304951Y-1912257D01*
G01X7334278Y-1912257D01*
G01X7442686Y-2100014D01*
G01X7551093Y-1912257D01*
G01X7551093Y-1912257D01*
G01X7334278Y-1912257D01*
G01X7304951Y-1912257D01*
G01X7290286Y-1886857D01*
G37*
G36*
G01X7290286Y-725714D02*
G01X7569686Y-725714D01*
G01X7569686Y-1005114D01*
G01X7290286Y-1005114D01*
G01X7290286Y-751114D01*
G01X7315686Y-751114D01*
G01X7315686Y-979714D01*
G01X7544286Y-979714D01*
G01X7544286Y-751114D01*
G01X7544286Y-751114D01*
G01X7315686Y-751114D01*
G01X7290286Y-751114D01*
G01X7290286Y-725714D01*
G37*
G36*
G01X7569686Y-4488543D02*
G01X7468086Y-4488543D01*
G01X7429986Y-4412343D01*
G01X7391886Y-4488543D01*
G01X7290286Y-4488543D01*
G01X7290286Y-4463143D01*
G01X7315686Y-4463143D01*
G01X7376188Y-4463143D01*
G01X7407253Y-4400989D01*
G01X7429986Y-4355548D01*
G01X7452719Y-4400989D01*
G01X7483783Y-4463143D01*
G01X7544286Y-4463143D01*
G01X7544286Y-4402640D01*
G01X7482132Y-4371550D01*
G01X7436691Y-4348843D01*
G01X7482132Y-4326135D01*
G01X7544286Y-4295046D01*
G01X7544286Y-4234543D01*
G01X7483783Y-4234543D01*
G01X7452719Y-4296697D01*
G01X7429986Y-4342137D01*
G01X7407253Y-4296697D01*
G01X7376188Y-4234543D01*
G01X7315686Y-4234543D01*
G01X7315686Y-4295046D01*
G01X7377839Y-4326135D01*
G01X7423280Y-4348843D01*
G01X7377839Y-4371550D01*
G01X7315686Y-4402640D01*
G01X7315686Y-4463143D01*
G01X7315686Y-4463143D01*
G01X7290286Y-4463143D01*
G01X7290286Y-4386943D01*
G01X7366486Y-4348843D01*
G01X7290286Y-4310743D01*
G01X7290286Y-4209143D01*
G01X7391886Y-4209143D01*
G01X7429986Y-4285343D01*
G01X7468086Y-4209143D01*
G01X7569686Y-4209143D01*
G01X7569686Y-4310743D01*
G01X7493486Y-4348843D01*
G01X7569686Y-4386943D01*
G01X7569686Y-4488543D01*
G37*

G04 PolygonModel Start*
G54D18*
G01X7000000Y-4644571D02*
G01X23661710Y-4644571D01*
G01X7000000Y-4064000D02*
G01X23661710Y-4064000D01*
G01X7000000Y-3483429D02*
G01X23661710Y-3483429D01*
G01X7000000Y-2902857D02*
G01X23661710Y-2902857D01*
G01X7000000Y-2322286D02*
G01X23661710Y-2322286D01*
G01X7000000Y-1741714D02*
G01X23661710Y-1741714D01*
G01X7000000Y-1161143D02*
G01X23661710Y-1161143D01*
G01X7000000Y-580571D02*
G01X23661710Y-580571D01*
G01X7000000Y0D02*
G01X23661710Y0D01*
G01X7000000Y0D02*
G01X7000000Y-4619171D01*
G01X8451428Y0D02*
G01X8451428Y-4619171D01*
G01X9865592Y0D02*
G01X9865592Y-4619171D01*
G01X13702407Y0D02*
G01X13702407Y-4619171D01*
G01X15163814Y0D02*
G01X15163814Y-4619171D01*
G01X16594995Y0D02*
G01X16594995Y-4619171D01*
G01X18264174Y0D02*
G01X18264174Y-4619171D01*
G01X20183543Y0D02*
G01X20183543Y-4619171D01*
G01X23661710Y0D02*
G01X23661710Y-4619171D01*

M02*

