;TYPE=PLATED
;Layer: PTH_Through_Via
;EasyEDA Pro Client v3.2.121, 2026-05-25 04:57:41
;Gerber Generator version 0.3
M48
METRIC,LZ,0000.00000
;Hole size 1 = 0.30500 METRIC
T01C0.30500
;Hole size 2 = 0.40000 METRIC
T02C0.40000
;Hole size 3 = 2.20000 METRIC
T03C2.20000
%
G05
G90
T01
X23.368Y-18.36014
X23.368Y-19.86001
X17.653Y-5.08
X46.07814Y-9.32186
X46.07814Y-4.24186
X46.07814Y-19.48186
X32.47588Y-24.56186
X32.47588Y-14.40186
X32.385Y-1.778
X19.558Y-4.826
X18.923Y-4.826
X20.193Y-4.826
X20.193Y-5.461
X19.558Y-5.461
X18.923Y-5.461
X24.892Y-4.572
X24.892Y-5.207
X25.527Y-4.572
X25.527Y-5.207
X24.257Y-5.207
X24.257Y-4.572
X29.21Y-1.778
X29.21Y-2.413
X29.845Y-1.778
X29.845Y-2.413
X28.575Y-3.048
X29.21Y-3.048
X29.845Y-3.048
X28.575Y-2.413
X28.575Y-1.778
X31.115Y-1.778
X31.115Y-2.413
X31.75Y-1.778
X31.75Y-2.413
X30.48Y-3.048
X31.115Y-3.048
X31.75Y-3.048
X30.48Y-2.413
X30.48Y-1.778
X33.02Y-1.778
X33.02Y-2.413
X33.655Y-1.778
X33.655Y-2.413
X32.385Y-3.048
X33.02Y-3.048
X33.655Y-3.048
X32.385Y-2.413
X1.778Y-19.685
X1.778Y-20.32
X2.413Y-19.685
X2.413Y-20.32
X1.143Y-20.955
X1.778Y-20.955
X2.413Y-20.955
X1.143Y-20.32
X1.143Y-19.685
X1.778Y-21.59
X1.778Y-22.225
X2.413Y-21.59
X2.413Y-22.225
X1.143Y-22.86
X1.778Y-22.86
X2.413Y-22.86
X1.143Y-22.225
X1.143Y-21.59
X6.477Y-26.924
X6.477Y-27.559
X7.112Y-26.924
X7.112Y-27.559
X5.842Y-28.194
X6.477Y-28.194
X7.112Y-28.194
X5.842Y-27.559
X5.842Y-26.924
X4.572Y-26.924
X4.572Y-27.559
X5.207Y-26.924
X5.207Y-27.559
X3.937Y-28.194
X4.572Y-28.194
X5.207Y-28.194
X3.937Y-27.559
X3.937Y-26.924
X8.509Y-25.4
X9.144Y-25.4
X8.509Y-24.765
X9.144Y-24.765
X10.414Y-25.4
X9.779Y-24.765
X10.414Y-24.765
X9.779Y-25.4
X13.843Y-25.908
X14.478Y-25.908
X15.113Y-25.908
X40.132Y-14.859
X40.132Y-15.494
X40.767Y-14.859
X40.767Y-15.494
X39.497Y-16.129
X40.132Y-16.129
X40.767Y-16.129
X39.497Y-15.494
X39.497Y-14.859
X48.641Y-22.733
X48.641Y-23.368
X49.276Y-22.733
X49.276Y-23.368
X48.641Y-24.003
X49.276Y-24.003
X49.276Y-18.923
X49.276Y-19.558
X49.022Y-15.494
X44.958Y-13.589
X44.323Y-13.589
X44.958Y-12.319
X44.958Y-12.954
X44.323Y-12.954
X44.323Y-12.319
X16.891Y-11.176
X16.256Y-11.176
X15.621Y-11.176
X14.986Y-11.176
X14.986Y-10.541
X16.891Y-10.541
X16.256Y-10.541
X15.621Y-10.541
X14.986Y-9.906
X16.891Y-9.906
X16.256Y-9.906
X15.621Y-9.906
X14.986Y-9.271
X16.891Y-9.271
X16.256Y-9.271
X15.621Y-9.271
X14.986Y-8.636
X16.891Y-8.636
X16.256Y-8.636
X15.621Y-8.636
X14.986Y-8.001
X16.891Y-8.001
X16.256Y-8.001
X15.621Y-8.001
X14.986Y-7.366
X16.891Y-7.366
X16.256Y-7.366
X15.621Y-7.366
X10.033Y-7.493
X10.033Y-8.128
X10.033Y-6.858
X0.889Y-8.128
X1.524Y-8.128
X0.889Y-8.763
X1.524Y-8.763
X0.9525Y-10.7315
X1.5875Y-10.7315
X0.9525Y-11.3665
X1.5875Y-11.3665
X8.763Y-21.971
X17.38159Y-25.16274
X19.05Y-25.146
X19.69361Y-25.14144
X5.588Y-22.479
X5.461Y-21.336
X40.767Y-1.778
X40.767Y-3.048
X40.767Y-2.413
X41.402Y-1.778
X41.402Y-2.413
X41.402Y-3.048
X42.037Y-3.048
X42.037Y-2.413
X42.037Y-1.778
X42.672Y-1.778
X42.672Y-2.413
X42.672Y-3.048
X40.767Y-3.683
X40.767Y-4.953
X40.767Y-4.318
X41.402Y-3.683
X41.402Y-4.318
X41.402Y-4.953
X42.037Y-4.953
X42.037Y-4.318
X42.037Y-3.683
X42.672Y-3.683
X42.672Y-4.318
X42.672Y-4.953
X29.845Y-11.811
X29.845Y-13.081
X29.845Y-12.446
X30.48Y-11.811
X30.48Y-12.446
X30.48Y-13.081
X31.115Y-13.081
X31.115Y-12.446
X31.115Y-11.811
X31.75Y-11.811
X31.75Y-13.081
X31.75Y-12.446
X32.385Y-11.811
X32.385Y-12.446
X32.385Y-13.081
X33.02Y-13.081
X33.02Y-12.446
X33.02Y-11.811
X30.734Y-7.112
X30.734Y-8.382
X30.734Y-7.747
X31.369Y-7.112
X31.369Y-7.747
X31.369Y-8.382
X32.004Y-8.382
X32.004Y-7.747
X32.004Y-7.112
X32.639Y-7.112
X32.639Y-8.382
X32.639Y-7.747
X33.274Y-7.112
X33.274Y-7.747
X33.274Y-8.382
X33.909Y-8.382
X33.909Y-7.747
X33.909Y-7.112
X15.621Y-18.796
X14.986Y-18.796
X14.351Y-18.796
X15.621Y-19.431
X14.986Y-19.431
X14.351Y-19.431
X15.621Y-18.161
X14.986Y-18.161
X14.351Y-18.161
T02
X17.018Y-16.256
X42.418Y-20.955
X45.593Y-29.21
X38.735Y-13.716
X17.9007Y-28.98902
X11.81108Y-25.0395
X27.305Y-5.08
T03
X1.90904Y-1.89972
X1.89972Y-28.067
X48.10028Y-1.94964
X48.10028Y-28.10028
M30