G04 Layer: TopSilkscreenLayer*
G04 EasyEDA Pro v3.2.121, 2026-05-25 04:57:40*
G04 Gerber Generator version 0.3*
G04 Scale: 100 percent, Rotated: No, Reflected: No*
G04 Dimensions in millimeters*
G04 Leading zeros omitted, absolute positions, 4 integers and 5 decimals*
G04 Generated by one-click*
%FSLAX45Y45*%
%MOMM*%
%ADD10C,0.1016*%
%ADD11C,0.1524*%
%ADD12C,0.2032*%
%ADD13C,0.254*%
%ADD14C,0.15199*%
%ADD15C,0.15001*%
%ADD16C,0.20066*%
%ADD17C,0.2*%
%ADD18C,0.24892*%
%ADD19C,0.5189*%
%ADD20C,0.508*%
%ADD21C,0.3*%
%ADD22C,0.07501*%
%ADD23C,0.5*%
G75*


G04 Text Start*
G54D10*
G01X4542028Y-1240409D02*
G01X4573270Y-1240409D01*
G01X4556252Y-1263269D01*
G01X4564888Y-1263269D01*
G01X4570476Y-1266063D01*
G01X4573270Y-1269111D01*
G01X4576318Y-1277493D01*
G01X4576318Y-1283335D01*
G01X4573270Y-1291971D01*
G01X4567682Y-1297559D01*
G01X4559046Y-1300353D01*
G01X4550410Y-1300353D01*
G01X4542028Y-1297559D01*
G01X4538980Y-1294765D01*
G01X4536186Y-1288923D01*
G01X4600194Y-1240409D02*
G01X4623054Y-1300353D01*
G01X4645914Y-1240409D02*
G01X4623054Y-1300353D01*
G01X4527042Y-986409D02*
G01X4527042Y-1046353D01*
G01X4506976Y-986409D02*
G01X4547108Y-986409D01*
G01X4570984Y-986409D02*
G01X4611116Y-1046353D01*
G01X4611116Y-986409D02*
G01X4570984Y-1046353D01*
G01X4634992Y-986409D02*
G01X4634992Y-1046353D01*
G01X4634992Y-986409D02*
G01X4655058Y-986409D01*
G01X4663694Y-989203D01*
G01X4669282Y-995045D01*
G01X4672076Y-1000633D01*
G01X4675124Y-1009269D01*
G01X4675124Y-1023493D01*
G01X4672076Y-1032129D01*
G01X4669282Y-1037971D01*
G01X4663694Y-1043559D01*
G01X4655058Y-1046353D01*
G01X4634992Y-1046353D01*
G01X4506976Y-732409D02*
G01X4506976Y-792353D01*
G01X4506976Y-732409D02*
G01X4532630Y-732409D01*
G01X4541266Y-735203D01*
G01X4544060Y-738251D01*
G01X4547108Y-743839D01*
G01X4547108Y-749681D01*
G01X4544060Y-755269D01*
G01X4541266Y-758063D01*
G01X4532630Y-761111D01*
G01X4506976Y-761111D01*
G01X4527042Y-761111D02*
G01X4547108Y-792353D01*
G01X4570984Y-732409D02*
G01X4611116Y-792353D01*
G01X4611116Y-732409D02*
G01X4570984Y-792353D01*
G01X4634992Y-732409D02*
G01X4634992Y-792353D01*
G01X4634992Y-732409D02*
G01X4655058Y-732409D01*
G01X4663694Y-735203D01*
G01X4669282Y-741045D01*
G01X4672076Y-746633D01*
G01X4675124Y-755269D01*
G01X4675124Y-769493D01*
G01X4672076Y-778129D01*
G01X4669282Y-783971D01*
G01X4663694Y-789559D01*
G01X4655058Y-792353D01*
G01X4634992Y-792353D01*
G01X4612513Y-492633D02*
G01X4609719Y-487045D01*
G01X4603877Y-481203D01*
G01X4598289Y-478409D01*
G01X4586859Y-478409D01*
G01X4581017Y-481203D01*
G01X4575429Y-487045D01*
G01X4572381Y-492633D01*
G01X4569587Y-501269D01*
G01X4569587Y-515493D01*
G01X4572381Y-524129D01*
G01X4575429Y-529971D01*
G01X4581017Y-535559D01*
G01X4586859Y-538353D01*
G01X4598289Y-538353D01*
G01X4603877Y-535559D01*
G01X4609719Y-529971D01*
G01X4612513Y-524129D01*
G01X4612513Y-515493D01*
G01X4598289Y-515493D02*
G01X4612513Y-515493D01*
G01X457772Y-340360D02*
G01X489014Y-340360D01*
G01X471996Y-363220D01*
G01X480632Y-363220D01*
G01X486220Y-366014D01*
G01X489014Y-369062D01*
G01X492062Y-377444D01*
G01X492062Y-383286D01*
G01X489014Y-391922D01*
G01X483426Y-397510D01*
G01X474790Y-400304D01*
G01X466154Y-400304D01*
G01X457772Y-397510D01*
G01X454724Y-394716D01*
G01X451930Y-388874D01*
G01X515938Y-340360D02*
G01X538798Y-400304D01*
G01X561658Y-340360D02*
G01X538798Y-400304D01*
G01X591376Y-340360D02*
G01X622618Y-340360D01*
G01X605600Y-363220D01*
G01X614236Y-363220D01*
G01X619824Y-366014D01*
G01X622618Y-369062D01*
G01X625666Y-377444D01*
G01X625666Y-383286D01*
G01X622618Y-391922D01*
G01X617030Y-397510D01*
G01X608394Y-400304D01*
G01X599758Y-400304D01*
G01X591376Y-397510D01*
G01X588328Y-394716D01*
G01X585534Y-388874D01*
G01X746062Y-348996D02*
G01X740220Y-343154D01*
G01X731584Y-340360D01*
G01X720154Y-340360D01*
G01X711772Y-343154D01*
G01X705930Y-348996D01*
G01X705930Y-354584D01*
G01X708724Y-360426D01*
G01X711772Y-363220D01*
G01X717360Y-366014D01*
G01X734632Y-371856D01*
G01X740220Y-374650D01*
G01X743014Y-377444D01*
G01X746062Y-383286D01*
G01X746062Y-391922D01*
G01X740220Y-397510D01*
G01X731584Y-400304D01*
G01X720154Y-400304D01*
G01X711772Y-397510D01*
G01X705930Y-391922D01*
G01X769938Y-340360D02*
G01X769938Y-400304D01*
G01X769938Y-340360D02*
G01X790004Y-340360D01*
G01X798640Y-343154D01*
G01X804228Y-348996D01*
G01X807022Y-354584D01*
G01X810070Y-363220D01*
G01X810070Y-377444D01*
G01X807022Y-386080D01*
G01X804228Y-391922D01*
G01X798640Y-397510D01*
G01X790004Y-400304D01*
G01X769938Y-400304D01*
G01X856806Y-340360D02*
G01X833946Y-400304D01*
G01X856806Y-340360D02*
G01X879666Y-400304D01*
G01X842582Y-380492D02*
G01X871030Y-380492D01*
G01X1004380Y-348996D02*
G01X998538Y-343154D01*
G01X989902Y-340360D01*
G01X978472Y-340360D01*
G01X970090Y-343154D01*
G01X964248Y-348996D01*
G01X964248Y-354584D01*
G01X967042Y-360426D01*
G01X970090Y-363220D01*
G01X975678Y-366014D01*
G01X992950Y-371856D01*
G01X998538Y-374650D01*
G01X1001332Y-377444D01*
G01X1004380Y-383286D01*
G01X1004380Y-391922D01*
G01X998538Y-397510D01*
G01X989902Y-400304D01*
G01X978472Y-400304D01*
G01X970090Y-397510D01*
G01X964248Y-391922D01*
G01X1071182Y-354584D02*
G01X1068388Y-348996D01*
G01X1062546Y-343154D01*
G01X1056958Y-340360D01*
G01X1045528Y-340360D01*
G01X1039686Y-343154D01*
G01X1034098Y-348996D01*
G01X1031050Y-354584D01*
G01X1028256Y-363220D01*
G01X1028256Y-377444D01*
G01X1031050Y-386080D01*
G01X1034098Y-391922D01*
G01X1039686Y-397510D01*
G01X1045528Y-400304D01*
G01X1056958Y-400304D01*
G01X1062546Y-397510D01*
G01X1068388Y-391922D01*
G01X1071182Y-386080D01*
G01X1095058Y-340360D02*
G01X1095058Y-400304D01*
G01X1095058Y-400304D02*
G01X1129348Y-400304D01*
G01X1322261Y-354584D02*
G01X1319467Y-348996D01*
G01X1313625Y-343154D01*
G01X1308037Y-340360D01*
G01X1296607Y-340360D01*
G01X1290765Y-343154D01*
G01X1285177Y-348996D01*
G01X1282129Y-354584D01*
G01X1279335Y-363220D01*
G01X1279335Y-377444D01*
G01X1282129Y-386080D01*
G01X1285177Y-391922D01*
G01X1290765Y-397510D01*
G01X1296607Y-400304D01*
G01X1308037Y-400304D01*
G01X1313625Y-397510D01*
G01X1319467Y-391922D01*
G01X1322261Y-386080D01*
G01X1322261Y-377444D01*
G01X1308037Y-377444D02*
G01X1322261Y-377444D01*
G54D11*
G01X1774845Y-760095D02*
G01X1774845Y-825119D01*
G01X1774845Y-760095D02*
G01X1802785Y-760095D01*
G01X1811929Y-763143D01*
G01X1814977Y-766191D01*
G01X1818279Y-772541D01*
G01X1818279Y-781685D01*
G01X1814977Y-787781D01*
G01X1811929Y-791083D01*
G01X1802785Y-794131D01*
G01X1774845Y-794131D01*
G01X1848505Y-760095D02*
G01X1863745Y-825119D01*
G01X1879239Y-760095D02*
G01X1863745Y-825119D01*
G01X1879239Y-760095D02*
G01X1894733Y-825119D01*
G01X1910227Y-760095D02*
G01X1894733Y-825119D01*
G01X1940453Y-760095D02*
G01X1940453Y-825119D01*
G01X1940453Y-760095D02*
G01X1968139Y-760095D01*
G01X1977537Y-763143D01*
G01X1980585Y-766191D01*
G01X1983633Y-772541D01*
G01X1983633Y-778637D01*
G01X1980585Y-784733D01*
G01X1977537Y-787781D01*
G01X1968139Y-791083D01*
G01X1940453Y-791083D01*
G01X1962043Y-791083D02*
G01X1983633Y-825119D01*
G01X4312920Y-1556766D02*
G01X4312920Y-1621790D01*
G01X4361688Y-1556766D02*
G01X4355338Y-1559814D01*
G01X4349242Y-1565910D01*
G01X4346194Y-1572260D01*
G01X4343146Y-1581404D01*
G01X4343146Y-1596898D01*
G01X4346194Y-1606296D01*
G01X4349242Y-1612392D01*
G01X4355338Y-1618742D01*
G01X4361688Y-1621790D01*
G01X4373880Y-1621790D01*
G01X4380230Y-1618742D01*
G01X4386326Y-1612392D01*
G01X4389374Y-1606296D01*
G01X4392676Y-1596898D01*
G01X4392676Y-1581404D01*
G01X4389374Y-1572260D01*
G01X4386326Y-1565910D01*
G01X4380230Y-1559814D01*
G01X4373880Y-1556766D01*
G01X4361688Y-1556766D01*
G01X4463034Y-1578356D02*
G01X4459986Y-1587754D01*
G01X4453636Y-1593850D01*
G01X4444492Y-1596898D01*
G01X4441444Y-1596898D01*
G01X4432046Y-1593850D01*
G01X4425950Y-1587754D01*
G01X4422902Y-1578356D01*
G01X4422902Y-1575308D01*
G01X4425950Y-1565910D01*
G01X4432046Y-1559814D01*
G01X4441444Y-1556766D01*
G01X4444492Y-1556766D01*
G01X4453636Y-1559814D01*
G01X4459986Y-1565910D01*
G01X4463034Y-1578356D01*
G01X4463034Y-1593850D01*
G01X4459986Y-1609344D01*
G01X4453636Y-1618742D01*
G01X4444492Y-1621790D01*
G01X4438142Y-1621790D01*
G01X4428998Y-1618742D01*
G01X4425950Y-1612392D01*
G01X4338320Y-2318766D02*
G01X4338320Y-2383790D01*
G01X4338320Y-2318766D02*
G01X4366260Y-2318766D01*
G01X4375404Y-2321814D01*
G01X4378452Y-2324862D01*
G01X4381754Y-2331212D01*
G01X4381754Y-2337308D01*
G01X4378452Y-2343404D01*
G01X4375404Y-2346452D01*
G01X4366260Y-2349754D01*
G01X4338320Y-2349754D01*
G01X4359910Y-2349754D02*
G01X4381754Y-2383790D01*
G01X4455160Y-2327910D02*
G01X4449064Y-2321814D01*
G01X4439666Y-2318766D01*
G01X4427220Y-2318766D01*
G01X4418076Y-2321814D01*
G01X4411980Y-2327910D01*
G01X4411980Y-2334260D01*
G01X4415028Y-2340356D01*
G01X4418076Y-2343404D01*
G01X4424172Y-2346452D01*
G01X4442714Y-2352802D01*
G01X4449064Y-2355850D01*
G01X4452112Y-2358898D01*
G01X4455160Y-2365248D01*
G01X4455160Y-2374392D01*
G01X4449064Y-2380742D01*
G01X4439666Y-2383790D01*
G01X4427220Y-2383790D01*
G01X4418076Y-2380742D01*
G01X4411980Y-2374392D01*
G01X4506976Y-2318766D02*
G01X4506976Y-2383790D01*
G01X4485386Y-2318766D02*
G01X4528566Y-2318766D01*
G01X2375154Y-1489710D02*
G01X2368804Y-1483614D01*
G01X2359660Y-1480566D01*
G01X2347214Y-1480566D01*
G01X2337816Y-1483614D01*
G01X2331720Y-1489710D01*
G01X2331720Y-1496060D01*
G01X2334768Y-1502156D01*
G01X2337816Y-1505204D01*
G01X2344166Y-1508252D01*
G01X2362708Y-1514602D01*
G01X2368804Y-1517650D01*
G01X2371852Y-1520698D01*
G01X2375154Y-1527048D01*
G01X2375154Y-1536192D01*
G01X2368804Y-1542542D01*
G01X2359660Y-1545590D01*
G01X2347214Y-1545590D01*
G01X2337816Y-1542542D01*
G01X2331720Y-1536192D01*
G01X2405380Y-1480566D02*
G01X2405380Y-1545590D01*
G01X2435606Y-1520698D02*
G01X2472690Y-1520698D01*
G01X2472690Y-1514602D01*
G01X2469642Y-1508252D01*
G01X2466340Y-1505204D01*
G01X2460244Y-1502156D01*
G01X2450846Y-1502156D01*
G01X2444750Y-1505204D01*
G01X2438654Y-1511554D01*
G01X2435606Y-1520698D01*
G01X2435606Y-1527048D01*
G01X2438654Y-1536192D01*
G01X2444750Y-1542542D01*
G01X2450846Y-1545590D01*
G01X2460244Y-1545590D01*
G01X2466340Y-1542542D01*
G01X2472690Y-1536192D01*
G01X2502916Y-1520698D02*
G01X2540000Y-1520698D01*
G01X2540000Y-1514602D01*
G01X2536952Y-1508252D01*
G01X2533650Y-1505204D01*
G01X2527554Y-1502156D01*
G01X2518156Y-1502156D01*
G01X2512060Y-1505204D01*
G01X2505964Y-1511554D01*
G01X2502916Y-1520698D01*
G01X2502916Y-1527048D01*
G01X2505964Y-1536192D01*
G01X2512060Y-1542542D01*
G01X2518156Y-1545590D01*
G01X2527554Y-1545590D01*
G01X2533650Y-1542542D01*
G01X2540000Y-1536192D01*
G01X2570226Y-1502156D02*
G01X2570226Y-1567180D01*
G01X2570226Y-1511554D02*
G01X2576322Y-1505204D01*
G01X2582418Y-1502156D01*
G01X2591816Y-1502156D01*
G01X2597912Y-1505204D01*
G01X2604262Y-1511554D01*
G01X2607310Y-1520698D01*
G01X2607310Y-1527048D01*
G01X2604262Y-1536192D01*
G01X2597912Y-1542542D01*
G01X2591816Y-1545590D01*
G01X2582418Y-1545590D01*
G01X2576322Y-1542542D01*
G01X2570226Y-1536192D01*
G01X2706878Y-1480566D02*
G01X2706878Y-1545590D01*
G01X2706878Y-1480566D02*
G01X2731516Y-1545590D01*
G01X2756408Y-1480566D02*
G01X2731516Y-1545590D01*
G01X2756408Y-1480566D02*
G01X2756408Y-1545590D01*
G01X2801874Y-1502156D02*
G01X2795778Y-1505204D01*
G01X2789682Y-1511554D01*
G01X2786634Y-1520698D01*
G01X2786634Y-1527048D01*
G01X2789682Y-1536192D01*
G01X2795778Y-1542542D01*
G01X2801874Y-1545590D01*
G01X2811272Y-1545590D01*
G01X2817368Y-1542542D01*
G01X2823718Y-1536192D01*
G01X2826766Y-1527048D01*
G01X2826766Y-1520698D01*
G01X2823718Y-1511554D01*
G01X2817368Y-1505204D01*
G01X2811272Y-1502156D01*
G01X2801874Y-1502156D01*
G01X2856992Y-1502156D02*
G01X2856992Y-1545590D01*
G01X2856992Y-1514602D02*
G01X2866136Y-1505204D01*
G01X2872232Y-1502156D01*
G01X2881630Y-1502156D01*
G01X2887726Y-1505204D01*
G01X2891028Y-1514602D01*
G01X2891028Y-1545590D01*
G01X2921254Y-1480566D02*
G01X2924302Y-1483614D01*
G01X2927350Y-1480566D01*
G01X2924302Y-1477518D01*
G01X2921254Y-1480566D01*
G01X2924302Y-1502156D02*
G01X2924302Y-1545590D01*
G01X2966720Y-1480566D02*
G01X2966720Y-1533144D01*
G01X2969768Y-1542542D01*
G01X2976118Y-1545590D01*
G01X2982214Y-1545590D01*
G01X2957576Y-1502156D02*
G01X2979166Y-1502156D01*
G01X3027680Y-1502156D02*
G01X3021584Y-1505204D01*
G01X3015488Y-1511554D01*
G01X3012440Y-1520698D01*
G01X3012440Y-1527048D01*
G01X3015488Y-1536192D01*
G01X3021584Y-1542542D01*
G01X3027680Y-1545590D01*
G01X3037078Y-1545590D01*
G01X3043174Y-1542542D01*
G01X3049524Y-1536192D01*
G01X3052572Y-1527048D01*
G01X3052572Y-1520698D01*
G01X3049524Y-1511554D01*
G01X3043174Y-1505204D01*
G01X3037078Y-1502156D01*
G01X3027680Y-1502156D01*
G01X3082798Y-1502156D02*
G01X3082798Y-1545590D01*
G01X3082798Y-1520698D02*
G01X3085846Y-1511554D01*
G01X3091942Y-1505204D01*
G01X3098038Y-1502156D01*
G01X3107436Y-1502156D01*
G01X3250184Y-1489710D02*
G01X3244088Y-1483614D01*
G01X3234690Y-1480566D01*
G01X3222244Y-1480566D01*
G01X3213100Y-1483614D01*
G01X3207004Y-1489710D01*
G01X3207004Y-1496060D01*
G01X3210052Y-1502156D01*
G01X3213100Y-1505204D01*
G01X3219196Y-1508252D01*
G01X3237738Y-1514602D01*
G01X3244088Y-1517650D01*
G01X3247136Y-1520698D01*
G01X3250184Y-1527048D01*
G01X3250184Y-1536192D01*
G01X3244088Y-1542542D01*
G01X3234690Y-1545590D01*
G01X3222244Y-1545590D01*
G01X3213100Y-1542542D01*
G01X3207004Y-1536192D01*
G01X3283458Y-1502156D02*
G01X3302000Y-1545590D01*
G01X3320542Y-1502156D02*
G01X3302000Y-1545590D01*
G01X3295650Y-1557782D01*
G01X3289554Y-1564132D01*
G01X3283458Y-1567180D01*
G01X3280410Y-1567180D01*
G01X3384804Y-1511554D02*
G01X3381502Y-1505204D01*
G01X3372358Y-1502156D01*
G01X3362960Y-1502156D01*
G01X3353816Y-1505204D01*
G01X3350768Y-1511554D01*
G01X3353816Y-1517650D01*
G01X3359912Y-1520698D01*
G01X3375406Y-1523746D01*
G01X3381502Y-1527048D01*
G01X3384804Y-1533144D01*
G01X3384804Y-1536192D01*
G01X3381502Y-1542542D01*
G01X3372358Y-1545590D01*
G01X3362960Y-1545590D01*
G01X3353816Y-1542542D01*
G01X3350768Y-1536192D01*
G01X3424174Y-1480566D02*
G01X3424174Y-1533144D01*
G01X3427222Y-1542542D01*
G01X3433572Y-1545590D01*
G01X3439668Y-1545590D01*
G01X3415030Y-1502156D02*
G01X3436620Y-1502156D01*
G01X3469894Y-1520698D02*
G01X3506978Y-1520698D01*
G01X3506978Y-1514602D01*
G01X3503930Y-1508252D01*
G01X3500628Y-1505204D01*
G01X3494532Y-1502156D01*
G01X3485134Y-1502156D01*
G01X3479038Y-1505204D01*
G01X3472942Y-1511554D01*
G01X3469894Y-1520698D01*
G01X3469894Y-1527048D01*
G01X3472942Y-1536192D01*
G01X3479038Y-1542542D01*
G01X3485134Y-1545590D01*
G01X3494532Y-1545590D01*
G01X3500628Y-1542542D01*
G01X3506978Y-1536192D01*
G01X3537204Y-1502156D02*
G01X3537204Y-1545590D01*
G01X3537204Y-1514602D02*
G01X3546348Y-1505204D01*
G01X3552444Y-1502156D01*
G01X3561842Y-1502156D01*
G01X3567938Y-1505204D01*
G01X3571240Y-1514602D01*
G01X3571240Y-1545590D01*
G01X3571240Y-1514602D02*
G01X3580384Y-1505204D01*
G01X3586734Y-1502156D01*
G01X3595878Y-1502156D01*
G01X3601974Y-1505204D01*
G01X3605276Y-1514602D01*
G01X3605276Y-1545590D01*
G01X1105299Y-681683D02*
G01X1102251Y-675333D01*
G01X1095901Y-669237D01*
G01X1089805Y-666189D01*
G01X1077359Y-666189D01*
G01X1071263Y-669237D01*
G01X1064913Y-675333D01*
G01X1061865Y-681683D01*
G01X1058817Y-690827D01*
G01X1058817Y-706321D01*
G01X1061865Y-715719D01*
G01X1064913Y-721815D01*
G01X1071263Y-728165D01*
G01X1077359Y-731213D01*
G01X1089805Y-731213D01*
G01X1095901Y-728165D01*
G01X1102251Y-721815D01*
G01X1105299Y-715719D01*
G01X1135525Y-678635D02*
G01X1141621Y-675333D01*
G01X1150765Y-666189D01*
G01X1150765Y-731213D01*
G01X1286002Y-683260D02*
G01X1282954Y-676910D01*
G01X1276604Y-670814D01*
G01X1270508Y-667766D01*
G01X1258062Y-667766D01*
G01X1251966Y-670814D01*
G01X1245616Y-676910D01*
G01X1242568Y-683260D01*
G01X1239520Y-692404D01*
G01X1239520Y-707898D01*
G01X1242568Y-717296D01*
G01X1245616Y-723392D01*
G01X1251966Y-729742D01*
G01X1258062Y-732790D01*
G01X1270508Y-732790D01*
G01X1276604Y-729742D01*
G01X1282954Y-723392D01*
G01X1286002Y-717296D01*
G01X1319276Y-683260D02*
G01X1319276Y-680212D01*
G01X1322324Y-673862D01*
G01X1325372Y-670814D01*
G01X1331468Y-667766D01*
G01X1343914Y-667766D01*
G01X1350264Y-670814D01*
G01X1353312Y-673862D01*
G01X1356360Y-680212D01*
G01X1356360Y-686308D01*
G01X1353312Y-692404D01*
G01X1346962Y-701802D01*
G01X1316228Y-732790D01*
G01X1359408Y-732790D01*
G01X1679702Y-1496060D02*
G01X1676654Y-1489710D01*
G01X1670304Y-1483614D01*
G01X1664208Y-1480566D01*
G01X1651762Y-1480566D01*
G01X1645666Y-1483614D01*
G01X1639316Y-1489710D01*
G01X1636268Y-1496060D01*
G01X1633220Y-1505204D01*
G01X1633220Y-1520698D01*
G01X1636268Y-1530096D01*
G01X1639316Y-1536192D01*
G01X1645666Y-1542542D01*
G01X1651762Y-1545590D01*
G01X1664208Y-1545590D01*
G01X1670304Y-1542542D01*
G01X1676654Y-1536192D01*
G01X1679702Y-1530096D01*
G01X1716024Y-1480566D02*
G01X1750060Y-1480566D01*
G01X1731518Y-1505204D01*
G01X1740662Y-1505204D01*
G01X1747012Y-1508252D01*
G01X1750060Y-1511554D01*
G01X1753108Y-1520698D01*
G01X1753108Y-1527048D01*
G01X1750060Y-1536192D01*
G01X1743964Y-1542542D01*
G01X1734566Y-1545590D01*
G01X1725168Y-1545590D01*
G01X1716024Y-1542542D01*
G01X1712976Y-1539240D01*
G01X1709928Y-1533144D01*
G01X1501902Y-1496060D02*
G01X1498854Y-1489710D01*
G01X1492504Y-1483614D01*
G01X1486408Y-1480566D01*
G01X1473962Y-1480566D01*
G01X1467866Y-1483614D01*
G01X1461516Y-1489710D01*
G01X1458468Y-1496060D01*
G01X1455420Y-1505204D01*
G01X1455420Y-1520698D01*
G01X1458468Y-1530096D01*
G01X1461516Y-1536192D01*
G01X1467866Y-1542542D01*
G01X1473962Y-1545590D01*
G01X1486408Y-1545590D01*
G01X1492504Y-1542542D01*
G01X1498854Y-1536192D01*
G01X1501902Y-1530096D01*
G01X1562862Y-1480566D02*
G01X1532128Y-1523746D01*
G01X1578356Y-1523746D01*
G01X1562862Y-1480566D02*
G01X1562862Y-1545590D01*
G01X4537202Y-2842260D02*
G01X4534154Y-2835910D01*
G01X4527804Y-2829814D01*
G01X4521708Y-2826766D01*
G01X4509262Y-2826766D01*
G01X4503166Y-2829814D01*
G01X4496816Y-2835910D01*
G01X4493768Y-2842260D01*
G01X4490720Y-2851404D01*
G01X4490720Y-2866898D01*
G01X4493768Y-2876296D01*
G01X4496816Y-2882392D01*
G01X4503166Y-2888742D01*
G01X4509262Y-2891790D01*
G01X4521708Y-2891790D01*
G01X4527804Y-2888742D01*
G01X4534154Y-2882392D01*
G01X4537202Y-2876296D01*
G01X4604512Y-2826766D02*
G01X4573524Y-2826766D01*
G01X4570476Y-2854452D01*
G01X4573524Y-2851404D01*
G01X4582668Y-2848356D01*
G01X4592066Y-2848356D01*
G01X4601464Y-2851404D01*
G01X4607560Y-2857754D01*
G01X4610608Y-2866898D01*
G01X4610608Y-2873248D01*
G01X4607560Y-2882392D01*
G01X4601464Y-2888742D01*
G01X4592066Y-2891790D01*
G01X4582668Y-2891790D01*
G01X4573524Y-2888742D01*
G01X4570476Y-2885440D01*
G01X4567428Y-2879344D01*
G01X4359402Y-2842260D02*
G01X4356354Y-2835910D01*
G01X4350004Y-2829814D01*
G01X4343908Y-2826766D01*
G01X4331462Y-2826766D01*
G01X4325366Y-2829814D01*
G01X4319016Y-2835910D01*
G01X4315968Y-2842260D01*
G01X4312920Y-2851404D01*
G01X4312920Y-2866898D01*
G01X4315968Y-2876296D01*
G01X4319016Y-2882392D01*
G01X4325366Y-2888742D01*
G01X4331462Y-2891790D01*
G01X4343908Y-2891790D01*
G01X4350004Y-2888742D01*
G01X4356354Y-2882392D01*
G01X4359402Y-2876296D01*
G01X4426712Y-2835910D02*
G01X4423664Y-2829814D01*
G01X4414266Y-2826766D01*
G01X4408170Y-2826766D01*
G01X4398772Y-2829814D01*
G01X4392676Y-2839212D01*
G01X4389628Y-2854452D01*
G01X4389628Y-2869946D01*
G01X4392676Y-2882392D01*
G01X4398772Y-2888742D01*
G01X4408170Y-2891790D01*
G01X4411218Y-2891790D01*
G01X4420362Y-2888742D01*
G01X4426712Y-2882392D01*
G01X4429760Y-2873248D01*
G01X4429760Y-2869946D01*
G01X4426712Y-2860802D01*
G01X4420362Y-2854452D01*
G01X4411218Y-2851404D01*
G01X4408170Y-2851404D01*
G01X4398772Y-2854452D01*
G01X4392676Y-2860802D01*
G01X4389628Y-2869946D01*
G01X4181602Y-2283460D02*
G01X4178554Y-2277110D01*
G01X4172204Y-2271014D01*
G01X4166108Y-2267966D01*
G01X4153662Y-2267966D01*
G01X4147566Y-2271014D01*
G01X4141216Y-2277110D01*
G01X4138168Y-2283460D01*
G01X4135120Y-2292604D01*
G01X4135120Y-2308098D01*
G01X4138168Y-2317496D01*
G01X4141216Y-2323592D01*
G01X4147566Y-2329942D01*
G01X4153662Y-2332990D01*
G01X4166108Y-2332990D01*
G01X4172204Y-2329942D01*
G01X4178554Y-2323592D01*
G01X4181602Y-2317496D01*
G01X4255008Y-2267966D02*
G01X4224020Y-2332990D01*
G01X4211828Y-2267966D02*
G01X4255008Y-2267966D01*
G01X4753102Y-2499360D02*
G01X4750054Y-2493010D01*
G01X4743704Y-2486914D01*
G01X4737608Y-2483866D01*
G01X4725162Y-2483866D01*
G01X4719066Y-2486914D01*
G01X4712716Y-2493010D01*
G01X4709668Y-2499360D01*
G01X4706620Y-2508504D01*
G01X4706620Y-2523998D01*
G01X4709668Y-2533396D01*
G01X4712716Y-2539492D01*
G01X4719066Y-2545842D01*
G01X4725162Y-2548890D01*
G01X4737608Y-2548890D01*
G01X4743704Y-2545842D01*
G01X4750054Y-2539492D01*
G01X4753102Y-2533396D01*
G01X4798568Y-2483866D02*
G01X4789424Y-2486914D01*
G01X4786376Y-2493010D01*
G01X4786376Y-2499360D01*
G01X4789424Y-2505456D01*
G01X4795520Y-2508504D01*
G01X4807966Y-2511552D01*
G01X4817364Y-2514854D01*
G01X4823460Y-2520950D01*
G01X4826508Y-2527046D01*
G01X4826508Y-2536444D01*
G01X4823460Y-2542540D01*
G01X4820412Y-2545842D01*
G01X4811014Y-2548890D01*
G01X4798568Y-2548890D01*
G01X4789424Y-2545842D01*
G01X4786376Y-2542540D01*
G01X4783328Y-2536444D01*
G01X4783328Y-2527046D01*
G01X4786376Y-2520950D01*
G01X4792472Y-2514854D01*
G01X4801870Y-2511552D01*
G01X4814062Y-2508504D01*
G01X4820412Y-2505456D01*
G01X4823460Y-2499360D01*
G01X4823460Y-2493010D01*
G01X4820412Y-2486914D01*
G01X4811014Y-2483866D01*
G01X4798568Y-2483866D01*
G01X1590802Y-378460D02*
G01X1587754Y-372110D01*
G01X1581404Y-366014D01*
G01X1575308Y-362966D01*
G01X1562862Y-362966D01*
G01X1556766Y-366014D01*
G01X1550416Y-372110D01*
G01X1547368Y-378460D01*
G01X1544320Y-387604D01*
G01X1544320Y-403098D01*
G01X1547368Y-412496D01*
G01X1550416Y-418592D01*
G01X1556766Y-424942D01*
G01X1562862Y-427990D01*
G01X1575308Y-427990D01*
G01X1581404Y-424942D01*
G01X1587754Y-418592D01*
G01X1590802Y-412496D01*
G01X1661160Y-384556D02*
G01X1658112Y-393954D01*
G01X1651762Y-400050D01*
G01X1642618Y-403098D01*
G01X1639570Y-403098D01*
G01X1630172Y-400050D01*
G01X1624076Y-393954D01*
G01X1621028Y-384556D01*
G01X1621028Y-381508D01*
G01X1624076Y-372110D01*
G01X1630172Y-366014D01*
G01X1639570Y-362966D01*
G01X1642618Y-362966D01*
G01X1651762Y-366014D01*
G01X1658112Y-372110D01*
G01X1661160Y-384556D01*
G01X1661160Y-400050D01*
G01X1658112Y-415544D01*
G01X1651762Y-424942D01*
G01X1642618Y-427990D01*
G01X1636268Y-427990D01*
G01X1627124Y-424942D01*
G01X1624076Y-418592D01*
G01X2873502Y-378460D02*
G01X2870454Y-372110D01*
G01X2864104Y-366014D01*
G01X2858008Y-362966D01*
G01X2845562Y-362966D01*
G01X2839466Y-366014D01*
G01X2833116Y-372110D01*
G01X2830068Y-378460D01*
G01X2827020Y-387604D01*
G01X2827020Y-403098D01*
G01X2830068Y-412496D01*
G01X2833116Y-418592D01*
G01X2839466Y-424942D01*
G01X2845562Y-427990D01*
G01X2858008Y-427990D01*
G01X2864104Y-424942D01*
G01X2870454Y-418592D01*
G01X2873502Y-412496D01*
G01X2903728Y-375412D02*
G01X2909824Y-372110D01*
G01X2918968Y-362966D01*
G01X2918968Y-427990D01*
G01X2967736Y-362966D02*
G01X2958338Y-366014D01*
G01X2952242Y-375412D01*
G01X2949194Y-390652D01*
G01X2949194Y-400050D01*
G01X2952242Y-415544D01*
G01X2958338Y-424942D01*
G01X2967736Y-427990D01*
G01X2973832Y-427990D01*
G01X2983230Y-424942D01*
G01X2989326Y-415544D01*
G01X2992374Y-400050D01*
G01X2992374Y-390652D01*
G01X2989326Y-375412D01*
G01X2983230Y-366014D01*
G01X2973832Y-362966D01*
G01X2967736Y-362966D01*
G01X803402Y-2575560D02*
G01X800354Y-2569210D01*
G01X794004Y-2563114D01*
G01X787908Y-2560066D01*
G01X775462Y-2560066D01*
G01X769366Y-2563114D01*
G01X763016Y-2569210D01*
G01X759968Y-2575560D01*
G01X756920Y-2584704D01*
G01X756920Y-2600198D01*
G01X759968Y-2609596D01*
G01X763016Y-2615692D01*
G01X769366Y-2622042D01*
G01X775462Y-2625090D01*
G01X787908Y-2625090D01*
G01X794004Y-2622042D01*
G01X800354Y-2615692D01*
G01X803402Y-2609596D01*
G01X833628Y-2572512D02*
G01X839724Y-2569210D01*
G01X848868Y-2560066D01*
G01X848868Y-2625090D01*
G01X879094Y-2572512D02*
G01X885190Y-2569210D01*
G01X894334Y-2560066D01*
G01X894334Y-2625090D01*
G01X968502Y-2575560D02*
G01X965454Y-2569210D01*
G01X959104Y-2563114D01*
G01X953008Y-2560066D01*
G01X940562Y-2560066D01*
G01X934466Y-2563114D01*
G01X928116Y-2569210D01*
G01X925068Y-2575560D01*
G01X922020Y-2584704D01*
G01X922020Y-2600198D01*
G01X925068Y-2609596D01*
G01X928116Y-2615692D01*
G01X934466Y-2622042D01*
G01X940562Y-2625090D01*
G01X953008Y-2625090D01*
G01X959104Y-2622042D01*
G01X965454Y-2615692D01*
G01X968502Y-2609596D01*
G01X998728Y-2572512D02*
G01X1004824Y-2569210D01*
G01X1013968Y-2560066D01*
G01X1013968Y-2625090D01*
G01X1047242Y-2575560D02*
G01X1047242Y-2572512D01*
G01X1050290Y-2566162D01*
G01X1053338Y-2563114D01*
G01X1059434Y-2560066D01*
G01X1071880Y-2560066D01*
G01X1078230Y-2563114D01*
G01X1081278Y-2566162D01*
G01X1084326Y-2572512D01*
G01X1084326Y-2578608D01*
G01X1081278Y-2584704D01*
G01X1074928Y-2594102D01*
G01X1044194Y-2625090D01*
G01X1087374Y-2625090D01*
G01X1603502Y-2423160D02*
G01X1600454Y-2416810D01*
G01X1594104Y-2410714D01*
G01X1588008Y-2407666D01*
G01X1575562Y-2407666D01*
G01X1569466Y-2410714D01*
G01X1563116Y-2416810D01*
G01X1560068Y-2423160D01*
G01X1557020Y-2432304D01*
G01X1557020Y-2447798D01*
G01X1560068Y-2457196D01*
G01X1563116Y-2463292D01*
G01X1569466Y-2469642D01*
G01X1575562Y-2472690D01*
G01X1588008Y-2472690D01*
G01X1594104Y-2469642D01*
G01X1600454Y-2463292D01*
G01X1603502Y-2457196D01*
G01X1633728Y-2420112D02*
G01X1639824Y-2416810D01*
G01X1648968Y-2407666D01*
G01X1648968Y-2472690D01*
G01X1685290Y-2407666D02*
G01X1719326Y-2407666D01*
G01X1700784Y-2432304D01*
G01X1709928Y-2432304D01*
G01X1716278Y-2435352D01*
G01X1719326Y-2438654D01*
G01X1722374Y-2447798D01*
G01X1722374Y-2454148D01*
G01X1719326Y-2463292D01*
G01X1713230Y-2469642D01*
G01X1703832Y-2472690D01*
G01X1694434Y-2472690D01*
G01X1685290Y-2469642D01*
G01X1682242Y-2466340D01*
G01X1679194Y-2460244D01*
G01X4397502Y-1432560D02*
G01X4394454Y-1426210D01*
G01X4388104Y-1420114D01*
G01X4382008Y-1417066D01*
G01X4369562Y-1417066D01*
G01X4363466Y-1420114D01*
G01X4357116Y-1426210D01*
G01X4354068Y-1432560D01*
G01X4351020Y-1441704D01*
G01X4351020Y-1457198D01*
G01X4354068Y-1466596D01*
G01X4357116Y-1472692D01*
G01X4363466Y-1479042D01*
G01X4369562Y-1482090D01*
G01X4382008Y-1482090D01*
G01X4388104Y-1479042D01*
G01X4394454Y-1472692D01*
G01X4397502Y-1466596D01*
G01X4427728Y-1429512D02*
G01X4433824Y-1426210D01*
G01X4442968Y-1417066D01*
G01X4442968Y-1482090D01*
G01X4503928Y-1417066D02*
G01X4473194Y-1460246D01*
G01X4519422Y-1460246D01*
G01X4503928Y-1417066D02*
G01X4503928Y-1482090D01*
G01X1137920Y-1950466D02*
G01X1137920Y-2015490D01*
G01X1137920Y-1950466D02*
G01X1159510Y-1950466D01*
G01X1168908Y-1953514D01*
G01X1175004Y-1959610D01*
G01X1178052Y-1965960D01*
G01X1181354Y-1975104D01*
G01X1181354Y-1990598D01*
G01X1178052Y-1999996D01*
G01X1175004Y-2006092D01*
G01X1168908Y-2012442D01*
G01X1159510Y-2015490D01*
G01X1137920Y-2015490D01*
G01X1211580Y-1962912D02*
G01X1217676Y-1959610D01*
G01X1226820Y-1950466D01*
G01X1226820Y-2015490D01*
G01X883920Y-1709166D02*
G01X883920Y-1774190D01*
G01X883920Y-1709166D02*
G01X924052Y-1709166D01*
G01X883920Y-1740154D02*
G01X908812Y-1740154D01*
G01X954278Y-1721612D02*
G01X960374Y-1718310D01*
G01X969518Y-1709166D01*
G01X969518Y-1774190D01*
G01X4859020Y-1429766D02*
G01X4859020Y-1494790D01*
G01X4902454Y-1429766D02*
G01X4902454Y-1494790D01*
G01X4859020Y-1460754D02*
G01X4902454Y-1460754D01*
G01X4932680Y-1442212D02*
G01X4938776Y-1438910D01*
G01X4947920Y-1429766D01*
G01X4947920Y-1494790D01*
G01X261620Y-362966D02*
G01X261620Y-427990D01*
G01X305054Y-362966D02*
G01X305054Y-427990D01*
G01X261620Y-393954D02*
G01X305054Y-393954D01*
G01X338328Y-378460D02*
G01X338328Y-375412D01*
G01X341376Y-369062D01*
G01X344424Y-366014D01*
G01X350520Y-362966D01*
G01X362966Y-362966D01*
G01X369316Y-366014D01*
G01X372364Y-369062D01*
G01X375412Y-375412D01*
G01X375412Y-381508D01*
G01X372364Y-387604D01*
G01X366014Y-397002D01*
G01X335280Y-427990D01*
G01X378460Y-427990D01*
G01X2825262Y-1177612D02*
G01X2760238Y-1177612D01*
G01X2760238Y-1177612D02*
G01X2760238Y-1214696D01*
G01X2825262Y-1244922D02*
G01X2760238Y-1244922D01*
G01X2825262Y-1244922D02*
G01X2825262Y-1285054D01*
G01X2794274Y-1244922D02*
G01X2794274Y-1269560D01*
G01X2760238Y-1244922D02*
G01X2760238Y-1285054D01*
G01X2825262Y-1315280D02*
G01X2760238Y-1315280D01*
G01X2825262Y-1315280D02*
G01X2825262Y-1336870D01*
G01X2822214Y-1346014D01*
G01X2816118Y-1352364D01*
G01X2809768Y-1355412D01*
G01X2800624Y-1358460D01*
G01X2785130Y-1358460D01*
G01X2775732Y-1355412D01*
G01X2769636Y-1352364D01*
G01X2763286Y-1346014D01*
G01X2760238Y-1336870D01*
G01X2760238Y-1315280D01*
G01X2809768Y-1391734D02*
G01X2812816Y-1391734D01*
G01X2819166Y-1394782D01*
G01X2822214Y-1397830D01*
G01X2825262Y-1403926D01*
G01X2825262Y-1416372D01*
G01X2822214Y-1422722D01*
G01X2819166Y-1425770D01*
G01X2812816Y-1428818D01*
G01X2806720Y-1428818D01*
G01X2800624Y-1425770D01*
G01X2791226Y-1419420D01*
G01X2760238Y-1388686D01*
G01X2760238Y-1431866D01*
G01X2380762Y-1164912D02*
G01X2315738Y-1164912D01*
G01X2315738Y-1164912D02*
G01X2315738Y-1201996D01*
G01X2380762Y-1232222D02*
G01X2315738Y-1232222D01*
G01X2380762Y-1232222D02*
G01X2380762Y-1272354D01*
G01X2349774Y-1232222D02*
G01X2349774Y-1256860D01*
G01X2315738Y-1232222D02*
G01X2315738Y-1272354D01*
G01X2380762Y-1302580D02*
G01X2315738Y-1302580D01*
G01X2380762Y-1302580D02*
G01X2380762Y-1324170D01*
G01X2377714Y-1333314D01*
G01X2371618Y-1339664D01*
G01X2365268Y-1342712D01*
G01X2356124Y-1345760D01*
G01X2340630Y-1345760D01*
G01X2331232Y-1342712D01*
G01X2325136Y-1339664D01*
G01X2318786Y-1333314D01*
G01X2315738Y-1324170D01*
G01X2315738Y-1302580D01*
G01X2380762Y-1382082D02*
G01X2380762Y-1416118D01*
G01X2356124Y-1397576D01*
G01X2356124Y-1406720D01*
G01X2353076Y-1413070D01*
G01X2349774Y-1416118D01*
G01X2340630Y-1419166D01*
G01X2334280Y-1419166D01*
G01X2325136Y-1416118D01*
G01X2318786Y-1410022D01*
G01X2315738Y-1400624D01*
G01X2315738Y-1391226D01*
G01X2318786Y-1382082D01*
G01X2322088Y-1379034D01*
G01X2328184Y-1375986D01*
G01X1811020Y-1480566D02*
G01X1811020Y-1545590D01*
G01X1811020Y-1480566D02*
G01X1838960Y-1480566D01*
G01X1848104Y-1483614D01*
G01X1851152Y-1486662D01*
G01X1854454Y-1493012D01*
G01X1854454Y-1499108D01*
G01X1851152Y-1505204D01*
G01X1848104Y-1508252D01*
G01X1838960Y-1511554D01*
G01X1811020Y-1511554D01*
G01X1832610Y-1511554D02*
G01X1854454Y-1545590D01*
G01X1890776Y-1480566D02*
G01X1924812Y-1480566D01*
G01X1906270Y-1505204D01*
G01X1915414Y-1505204D01*
G01X1921764Y-1508252D01*
G01X1924812Y-1511554D01*
G01X1927860Y-1520698D01*
G01X1927860Y-1527048D01*
G01X1924812Y-1536192D01*
G01X1918716Y-1542542D01*
G01X1909318Y-1545590D01*
G01X1899920Y-1545590D01*
G01X1890776Y-1542542D01*
G01X1887728Y-1539240D01*
G01X1884680Y-1533144D01*
G01X1353820Y-2255266D02*
G01X1353820Y-2320290D01*
G01X1353820Y-2255266D02*
G01X1381760Y-2255266D01*
G01X1390904Y-2258314D01*
G01X1393952Y-2261362D01*
G01X1397254Y-2267712D01*
G01X1397254Y-2273808D01*
G01X1393952Y-2279904D01*
G01X1390904Y-2282952D01*
G01X1381760Y-2286254D01*
G01X1353820Y-2286254D01*
G01X1375410Y-2286254D02*
G01X1397254Y-2320290D01*
G01X1458214Y-2255266D02*
G01X1427480Y-2298446D01*
G01X1473708Y-2298446D01*
G01X1458214Y-2255266D02*
G01X1458214Y-2320290D01*
G01X1353820Y-2064766D02*
G01X1353820Y-2129790D01*
G01X1353820Y-2064766D02*
G01X1381760Y-2064766D01*
G01X1390904Y-2067814D01*
G01X1393952Y-2070862D01*
G01X1397254Y-2077212D01*
G01X1397254Y-2083308D01*
G01X1393952Y-2089404D01*
G01X1390904Y-2092452D01*
G01X1381760Y-2095754D01*
G01X1353820Y-2095754D01*
G01X1375410Y-2095754D02*
G01X1397254Y-2129790D01*
G01X1464564Y-2064766D02*
G01X1433576Y-2064766D01*
G01X1430528Y-2092452D01*
G01X1433576Y-2089404D01*
G01X1442720Y-2086356D01*
G01X1452118Y-2086356D01*
G01X1461516Y-2089404D01*
G01X1467612Y-2095754D01*
G01X1470660Y-2104898D01*
G01X1470660Y-2111248D01*
G01X1467612Y-2120392D01*
G01X1461516Y-2126742D01*
G01X1452118Y-2129790D01*
G01X1442720Y-2129790D01*
G01X1433576Y-2126742D01*
G01X1430528Y-2123440D01*
G01X1427480Y-2117344D01*
G01X3974702Y-2552234D02*
G01X3974702Y-2617258D01*
G01X3974702Y-2552234D02*
G01X4002642Y-2552234D01*
G01X4011786Y-2555282D01*
G01X4014834Y-2558330D01*
G01X4018136Y-2564680D01*
G01X4018136Y-2570776D01*
G01X4014834Y-2576872D01*
G01X4011786Y-2579920D01*
G01X4002642Y-2583222D01*
G01X3974702Y-2583222D01*
G01X3996292Y-2583222D02*
G01X4018136Y-2617258D01*
G01X4085446Y-2561378D02*
G01X4082398Y-2555282D01*
G01X4073000Y-2552234D01*
G01X4066904Y-2552234D01*
G01X4057506Y-2555282D01*
G01X4051410Y-2564680D01*
G01X4048362Y-2579920D01*
G01X4048362Y-2595414D01*
G01X4051410Y-2607860D01*
G01X4057506Y-2614210D01*
G01X4066904Y-2617258D01*
G01X4069952Y-2617258D01*
G01X4079096Y-2614210D01*
G01X4085446Y-2607860D01*
G01X4088494Y-2598716D01*
G01X4088494Y-2595414D01*
G01X4085446Y-2586270D01*
G01X4079096Y-2579920D01*
G01X4069952Y-2576872D01*
G01X4066904Y-2576872D01*
G01X4057506Y-2579920D01*
G01X4051410Y-2586270D01*
G01X4048362Y-2595414D01*
G01X1112520Y-2560066D02*
G01X1112520Y-2625090D01*
G01X1112520Y-2560066D02*
G01X1140460Y-2560066D01*
G01X1149604Y-2563114D01*
G01X1152652Y-2566162D01*
G01X1155954Y-2572512D01*
G01X1155954Y-2578608D01*
G01X1152652Y-2584704D01*
G01X1149604Y-2587752D01*
G01X1140460Y-2591054D01*
G01X1112520Y-2591054D01*
G01X1134110Y-2591054D02*
G01X1155954Y-2625090D01*
G01X1229360Y-2560066D02*
G01X1198372Y-2625090D01*
G01X1186180Y-2560066D02*
G01X1229360Y-2560066D01*
G01X1595120Y-2560066D02*
G01X1595120Y-2625090D01*
G01X1595120Y-2560066D02*
G01X1623060Y-2560066D01*
G01X1632204Y-2563114D01*
G01X1635252Y-2566162D01*
G01X1638554Y-2572512D01*
G01X1638554Y-2578608D01*
G01X1635252Y-2584704D01*
G01X1632204Y-2587752D01*
G01X1623060Y-2591054D01*
G01X1595120Y-2591054D01*
G01X1616710Y-2591054D02*
G01X1638554Y-2625090D01*
G01X1684020Y-2560066D02*
G01X1674876Y-2563114D01*
G01X1671828Y-2569210D01*
G01X1671828Y-2575560D01*
G01X1674876Y-2581656D01*
G01X1680972Y-2584704D01*
G01X1693418Y-2587752D01*
G01X1702816Y-2591054D01*
G01X1708912Y-2597150D01*
G01X1711960Y-2603246D01*
G01X1711960Y-2612644D01*
G01X1708912Y-2618740D01*
G01X1705864Y-2622042D01*
G01X1696466Y-2625090D01*
G01X1684020Y-2625090D01*
G01X1674876Y-2622042D01*
G01X1671828Y-2618740D01*
G01X1668780Y-2612644D01*
G01X1668780Y-2603246D01*
G01X1671828Y-2597150D01*
G01X1677924Y-2591054D01*
G01X1687322Y-2587752D01*
G01X1699514Y-2584704D01*
G01X1705864Y-2581656D01*
G01X1708912Y-2575560D01*
G01X1708912Y-2569210D01*
G01X1705864Y-2563114D01*
G01X1696466Y-2560066D01*
G01X1684020Y-2560066D01*
G01X3423920Y-883666D02*
G01X3423920Y-948690D01*
G01X3423920Y-883666D02*
G01X3451860Y-883666D01*
G01X3461004Y-886714D01*
G01X3464052Y-889762D01*
G01X3467354Y-896112D01*
G01X3467354Y-902208D01*
G01X3464052Y-908304D01*
G01X3461004Y-911352D01*
G01X3451860Y-914654D01*
G01X3423920Y-914654D01*
G01X3445510Y-914654D02*
G01X3467354Y-948690D01*
G01X3537712Y-905256D02*
G01X3534664Y-914654D01*
G01X3528314Y-920750D01*
G01X3519170Y-923798D01*
G01X3516122Y-923798D01*
G01X3506724Y-920750D01*
G01X3500628Y-914654D01*
G01X3497580Y-905256D01*
G01X3497580Y-902208D01*
G01X3500628Y-892810D01*
G01X3506724Y-886714D01*
G01X3516122Y-883666D01*
G01X3519170Y-883666D01*
G01X3528314Y-886714D01*
G01X3534664Y-892810D01*
G01X3537712Y-905256D01*
G01X3537712Y-920750D01*
G01X3534664Y-936244D01*
G01X3528314Y-945642D01*
G01X3519170Y-948690D01*
G01X3512820Y-948690D01*
G01X3503676Y-945642D01*
G01X3500628Y-939292D01*
G01X3779520Y-1074166D02*
G01X3779520Y-1139190D01*
G01X3779520Y-1074166D02*
G01X3807460Y-1074166D01*
G01X3816604Y-1077214D01*
G01X3819652Y-1080262D01*
G01X3822954Y-1086612D01*
G01X3822954Y-1092708D01*
G01X3819652Y-1098804D01*
G01X3816604Y-1101852D01*
G01X3807460Y-1105154D01*
G01X3779520Y-1105154D01*
G01X3801110Y-1105154D02*
G01X3822954Y-1139190D01*
G01X3853180Y-1086612D02*
G01X3859276Y-1083310D01*
G01X3868420Y-1074166D01*
G01X3868420Y-1139190D01*
G01X3917188Y-1074166D02*
G01X3907790Y-1077214D01*
G01X3901694Y-1086612D01*
G01X3898646Y-1101852D01*
G01X3898646Y-1111250D01*
G01X3901694Y-1126744D01*
G01X3907790Y-1136142D01*
G01X3917188Y-1139190D01*
G01X3923284Y-1139190D01*
G01X3932682Y-1136142D01*
G01X3938778Y-1126744D01*
G01X3941826Y-1111250D01*
G01X3941826Y-1101852D01*
G01X3938778Y-1086612D01*
G01X3932682Y-1077214D01*
G01X3923284Y-1074166D01*
G01X3917188Y-1074166D01*
G01X1772666Y-2837180D02*
G01X1837690Y-2837180D01*
G01X1772666Y-2837180D02*
G01X1772666Y-2809240D01*
G01X1775714Y-2800096D01*
G01X1778762Y-2797048D01*
G01X1785112Y-2793746D01*
G01X1791208Y-2793746D01*
G01X1797304Y-2797048D01*
G01X1800352Y-2800096D01*
G01X1803654Y-2809240D01*
G01X1803654Y-2837180D01*
G01X1803654Y-2815590D02*
G01X1837690Y-2793746D01*
G01X1785112Y-2763520D02*
G01X1781810Y-2757424D01*
G01X1772666Y-2748280D01*
G01X1837690Y-2748280D01*
G01X1785112Y-2718054D02*
G01X1781810Y-2711958D01*
G01X1772666Y-2702814D01*
G01X1837690Y-2702814D01*
G01X4033520Y-2064766D02*
G01X4033520Y-2129790D01*
G01X4033520Y-2064766D02*
G01X4061460Y-2064766D01*
G01X4070604Y-2067814D01*
G01X4073652Y-2070862D01*
G01X4076954Y-2077212D01*
G01X4076954Y-2083308D01*
G01X4073652Y-2089404D01*
G01X4070604Y-2092452D01*
G01X4061460Y-2095754D01*
G01X4033520Y-2095754D01*
G01X4055110Y-2095754D02*
G01X4076954Y-2129790D01*
G01X4107180Y-2077212D02*
G01X4113276Y-2073910D01*
G01X4122420Y-2064766D01*
G01X4122420Y-2129790D01*
G01X4155694Y-2080260D02*
G01X4155694Y-2077212D01*
G01X4158742Y-2070862D01*
G01X4161790Y-2067814D01*
G01X4167886Y-2064766D01*
G01X4180332Y-2064766D01*
G01X4186682Y-2067814D01*
G01X4189730Y-2070862D01*
G01X4192778Y-2077212D01*
G01X4192778Y-2083308D01*
G01X4189730Y-2089404D01*
G01X4183380Y-2098802D01*
G01X4152646Y-2129790D01*
G01X4195826Y-2129790D01*
G01X2407920Y-769366D02*
G01X2407920Y-834390D01*
G01X2407920Y-769366D02*
G01X2435860Y-769366D01*
G01X2445004Y-772414D01*
G01X2448052Y-775462D01*
G01X2451354Y-781812D01*
G01X2451354Y-787908D01*
G01X2448052Y-794004D01*
G01X2445004Y-797052D01*
G01X2435860Y-800354D01*
G01X2407920Y-800354D01*
G01X2429510Y-800354D02*
G01X2451354Y-834390D01*
G01X2481580Y-781812D02*
G01X2487676Y-778510D01*
G01X2496820Y-769366D01*
G01X2496820Y-834390D01*
G01X2533142Y-769366D02*
G01X2567178Y-769366D01*
G01X2548636Y-794004D01*
G01X2557780Y-794004D01*
G01X2564130Y-797052D01*
G01X2567178Y-800354D01*
G01X2570226Y-809498D01*
G01X2570226Y-815848D01*
G01X2567178Y-824992D01*
G01X2561082Y-831342D01*
G01X2551684Y-834390D01*
G01X2542286Y-834390D01*
G01X2533142Y-831342D01*
G01X2530094Y-828040D01*
G01X2527046Y-821944D01*
G01X2598420Y-769366D02*
G01X2598420Y-834390D01*
G01X2598420Y-769366D02*
G01X2626360Y-769366D01*
G01X2635504Y-772414D01*
G01X2638552Y-775462D01*
G01X2641854Y-781812D01*
G01X2641854Y-787908D01*
G01X2638552Y-794004D01*
G01X2635504Y-797052D01*
G01X2626360Y-800354D01*
G01X2598420Y-800354D01*
G01X2620010Y-800354D02*
G01X2641854Y-834390D01*
G01X2672080Y-781812D02*
G01X2678176Y-778510D01*
G01X2687320Y-769366D01*
G01X2687320Y-834390D01*
G01X2748280Y-769366D02*
G01X2717546Y-812546D01*
G01X2763774Y-812546D01*
G01X2748280Y-769366D02*
G01X2748280Y-834390D01*
G01X292354Y-1477010D02*
G01X286004Y-1470914D01*
G01X276860Y-1467866D01*
G01X264414Y-1467866D01*
G01X255016Y-1470914D01*
G01X248920Y-1477010D01*
G01X248920Y-1483360D01*
G01X251968Y-1489456D01*
G01X255016Y-1492504D01*
G01X261366Y-1495552D01*
G01X279908Y-1501902D01*
G01X286004Y-1504950D01*
G01X289052Y-1507998D01*
G01X292354Y-1514348D01*
G01X292354Y-1523492D01*
G01X286004Y-1529842D01*
G01X276860Y-1532890D01*
G01X264414Y-1532890D01*
G01X255016Y-1529842D01*
G01X248920Y-1523492D01*
G01X322580Y-1467866D02*
G01X337820Y-1532890D01*
G01X353314Y-1467866D02*
G01X337820Y-1532890D01*
G01X353314Y-1467866D02*
G01X368808Y-1532890D01*
G01X384302Y-1467866D02*
G01X368808Y-1532890D01*
G01X414528Y-1480312D02*
G01X420624Y-1477010D01*
G01X429768Y-1467866D01*
G01X429768Y-1532890D01*
G01X2369820Y-96266D02*
G01X2369820Y-142748D01*
G01X2372868Y-151892D01*
G01X2379218Y-158242D01*
G01X2388362Y-161290D01*
G01X2394712Y-161290D01*
G01X2403856Y-158242D01*
G01X2409952Y-151892D01*
G01X2413254Y-142748D01*
G01X2413254Y-96266D01*
G01X2443480Y-108712D02*
G01X2449576Y-105410D01*
G01X2458720Y-96266D01*
G01X2458720Y-161290D01*
G01X1861820Y-121666D02*
G01X1861820Y-168148D01*
G01X1864868Y-177292D01*
G01X1871218Y-183642D01*
G01X1880362Y-186690D01*
G01X1886712Y-186690D01*
G01X1895856Y-183642D01*
G01X1901952Y-177292D01*
G01X1905254Y-168148D01*
G01X1905254Y-121666D01*
G01X1938528Y-137160D02*
G01X1938528Y-134112D01*
G01X1941576Y-127762D01*
G01X1944624Y-124714D01*
G01X1950720Y-121666D01*
G01X1963166Y-121666D01*
G01X1969516Y-124714D01*
G01X1972564Y-127762D01*
G01X1975612Y-134112D01*
G01X1975612Y-140208D01*
G01X1972564Y-146304D01*
G01X1966214Y-155702D01*
G01X1935480Y-186690D01*
G01X1978660Y-186690D01*
G01X1341120Y-2560066D02*
G01X1341120Y-2606548D01*
G01X1344168Y-2615692D01*
G01X1350518Y-2622042D01*
G01X1359662Y-2625090D01*
G01X1366012Y-2625090D01*
G01X1375156Y-2622042D01*
G01X1381252Y-2615692D01*
G01X1384554Y-2606548D01*
G01X1384554Y-2560066D01*
G01X1420876Y-2560066D02*
G01X1454912Y-2560066D01*
G01X1436370Y-2584704D01*
G01X1445514Y-2584704D01*
G01X1451864Y-2587752D01*
G01X1454912Y-2591054D01*
G01X1457960Y-2600198D01*
G01X1457960Y-2606548D01*
G01X1454912Y-2615692D01*
G01X1448816Y-2622042D01*
G01X1439418Y-2625090D01*
G01X1430020Y-2625090D01*
G01X1420876Y-2622042D01*
G01X1417828Y-2618740D01*
G01X1414780Y-2612644D01*
G54D12*
G01X3578631Y-3366186D02*
G01X3624351Y-3246044D01*
G01X3578631Y-3366186D02*
G01X3532911Y-3246044D01*
G01X3607079Y-3286176D02*
G01X3549929Y-3286176D01*
G01X3485159Y-3366186D02*
G01X3485159Y-3246044D01*
G01X3485159Y-3366186D02*
G01X3405149Y-3246044D01*
G01X3405149Y-3366186D02*
G01X3405149Y-3246044D01*
G01X3317265Y-3366186D02*
G01X3317265Y-3246044D01*
G01X3357397Y-3366186D02*
G01X3277387Y-3366186D01*
G01X3229635Y-3366186D02*
G01X3229635Y-3246044D01*
G01X3229635Y-3366186D02*
G01X3155213Y-3366186D01*
G01X3229635Y-3309036D02*
G01X3183915Y-3309036D01*
G01X3229635Y-3246044D02*
G01X3155213Y-3246044D01*
G01X3107461Y-3366186D02*
G01X3107461Y-3246044D01*
G01X3107461Y-3366186D02*
G01X3027451Y-3246044D01*
G01X3027451Y-3366186D02*
G01X3027451Y-3246044D01*
G01X2979699Y-3366186D02*
G01X2979699Y-3246044D01*
G01X2979699Y-3366186D02*
G01X2899689Y-3246044D01*
G01X2899689Y-3366186D02*
G01X2899689Y-3246044D01*
G01X2806217Y-3366186D02*
G01X2851937Y-3246044D01*
G01X2806217Y-3366186D02*
G01X2760497Y-3246044D01*
G01X2834665Y-3286176D02*
G01X2777515Y-3286176D01*
G54D11*
G01X4004774Y-3713188D02*
G01X4004774Y-3666706D01*
G01X4001726Y-3657562D01*
G01X3995376Y-3651212D01*
G01X3986232Y-3648164D01*
G01X3979882Y-3648164D01*
G01X3970738Y-3651212D01*
G01X3964642Y-3657562D01*
G01X3961340Y-3666706D01*
G01X3961340Y-3713188D01*
G01X3900380Y-3713188D02*
G01X3931114Y-3670008D01*
G01X3884886Y-3670008D01*
G01X3900380Y-3713188D02*
G01X3900380Y-3648164D01*
G01X934720Y-1251966D02*
G01X934720Y-1298448D01*
G01X937768Y-1307592D01*
G01X944118Y-1313942D01*
G01X953262Y-1316990D01*
G01X959612Y-1316990D01*
G01X968756Y-1313942D01*
G01X974852Y-1307592D01*
G01X978154Y-1298448D01*
G01X978154Y-1251966D01*
G01X1045464Y-1251966D02*
G01X1014476Y-1251966D01*
G01X1011428Y-1279652D01*
G01X1014476Y-1276604D01*
G01X1023620Y-1273556D01*
G01X1033018Y-1273556D01*
G01X1042416Y-1276604D01*
G01X1048512Y-1282954D01*
G01X1051560Y-1292098D01*
G01X1051560Y-1298448D01*
G01X1048512Y-1307592D01*
G01X1042416Y-1313942D01*
G01X1033018Y-1316990D01*
G01X1023620Y-1316990D01*
G01X1014476Y-1313942D01*
G01X1011428Y-1310640D01*
G01X1008380Y-1304544D01*
G01X299720Y-1594866D02*
G01X299720Y-1641348D01*
G01X302768Y-1650492D01*
G01X309118Y-1656842D01*
G01X318262Y-1659890D01*
G01X324612Y-1659890D01*
G01X333756Y-1656842D01*
G01X339852Y-1650492D01*
G01X343154Y-1641348D01*
G01X343154Y-1594866D01*
G01X416560Y-1604010D02*
G01X410464Y-1597914D01*
G01X401066Y-1594866D01*
G01X388620Y-1594866D01*
G01X379476Y-1597914D01*
G01X373380Y-1604010D01*
G01X373380Y-1610360D01*
G01X376428Y-1616456D01*
G01X379476Y-1619504D01*
G01X385572Y-1622552D01*
G01X404114Y-1628902D01*
G01X410464Y-1631950D01*
G01X413512Y-1634998D01*
G01X416560Y-1641348D01*
G01X416560Y-1650492D01*
G01X410464Y-1656842D01*
G01X401066Y-1659890D01*
G01X388620Y-1659890D01*
G01X379476Y-1656842D01*
G01X373380Y-1650492D01*
G01X446786Y-1594866D02*
G01X446786Y-1659890D01*
G01X446786Y-1594866D02*
G01X474472Y-1594866D01*
G01X483870Y-1597914D01*
G01X486918Y-1600962D01*
G01X489966Y-1607312D01*
G01X489966Y-1613408D01*
G01X486918Y-1619504D01*
G01X483870Y-1622552D01*
G01X474472Y-1625854D01*
G01X446786Y-1625854D02*
G01X474472Y-1625854D01*
G01X483870Y-1628902D01*
G01X486918Y-1631950D01*
G01X489966Y-1638046D01*
G01X489966Y-1647444D01*
G01X486918Y-1653540D01*
G01X483870Y-1656842D01*
G01X474472Y-1659890D01*
G01X446786Y-1659890D01*
G01X520192Y-1607312D02*
G01X526288Y-1604010D01*
G01X535432Y-1594866D01*
G01X535432Y-1659890D01*
G04 Text End*

G04 PolygonModel Start*
G54D13*
G01X660400Y-304800D02*
G01X660400Y-431800D01*
G01X914400Y-431800D02*
G01X914400Y-304800D01*
G01X1168400Y-431800D02*
G01X1168400Y-304800D01*
G01X4470400Y-635000D02*
G01X4699000Y-635000D01*
G01X4470400Y-889000D02*
G01X4699000Y-889000D01*
G01X4699000Y-1140714D02*
G01X4470400Y-1140648D01*
G01X1059343Y-873681D02*
G01X1059343Y-793684D01*
G01X1059297Y-929726D02*
G01X1059297Y-1009724D01*
G01X1201311Y-873681D02*
G01X1201311Y-793684D01*
G01X1201263Y-929726D02*
G01X1201263Y-1009724D01*
G01X1090325Y-762709D02*
G01X1170330Y-762709D01*
G01X1170277Y-1040701D02*
G01X1090275Y-1040701D01*
G01X1201263Y-1009719D02*
G02X1170277Y-1040701I-30983J0D01*
G01X1090280Y-1040701D02*
G02X1059297Y-1009719I0J30983D01*
G01X1059343Y-793689D02*
G02X1090325Y-762709I30983J-3D01*
G01X1170323Y-762709D02*
G02X1201311Y-793689I5J-30983D01*
G01X1237143Y-873681D02*
G01X1237143Y-793684D01*
G01X1237097Y-929726D02*
G01X1237097Y-1009724D01*
G01X1379111Y-873681D02*
G01X1379111Y-793684D01*
G01X1379063Y-929726D02*
G01X1379063Y-1009724D01*
G01X1268125Y-762709D02*
G01X1348130Y-762709D01*
G01X1348077Y-1040701D02*
G01X1268075Y-1040701D01*
G01X1379063Y-1009719D02*
G02X1348077Y-1040701I-30983J0D01*
G01X1268080Y-1040701D02*
G02X1237097Y-1009719I0J30983D01*
G01X1237143Y-793689D02*
G02X1268125Y-762709I30983J-3D01*
G01X1348123Y-762709D02*
G02X1379111Y-793689I5J-30983D01*
G01X1630843Y-1292781D02*
G01X1630843Y-1212784D01*
G01X1630797Y-1348826D02*
G01X1630797Y-1428824D01*
G01X1772811Y-1292781D02*
G01X1772811Y-1212784D01*
G01X1772763Y-1348826D02*
G01X1772763Y-1428824D01*
G01X1661825Y-1181809D02*
G01X1741830Y-1181809D01*
G01X1741777Y-1459801D02*
G01X1661775Y-1459801D01*
G01X1772763Y-1428819D02*
G02X1741777Y-1459801I-30983J0D01*
G01X1661780Y-1459801D02*
G02X1630797Y-1428819I0J30983D01*
G01X1630843Y-1212789D02*
G02X1661825Y-1181809I30983J-3D01*
G01X1741823Y-1181809D02*
G02X1772811Y-1212789I5J-30983D01*
G01X1453043Y-1292781D02*
G01X1453043Y-1212784D01*
G01X1452997Y-1348826D02*
G01X1452997Y-1428824D01*
G01X1595011Y-1292781D02*
G01X1595011Y-1212784D01*
G01X1594963Y-1348826D02*
G01X1594963Y-1428824D01*
G01X1484025Y-1181809D02*
G01X1564030Y-1181809D01*
G01X1563977Y-1459801D02*
G01X1483975Y-1459801D01*
G01X1594963Y-1428819D02*
G02X1563977Y-1459801I-30983J0D01*
G01X1483980Y-1459801D02*
G02X1452997Y-1428819I0J30983D01*
G01X1453043Y-1212789D02*
G02X1484025Y-1181809I30983J-3D01*
G01X1564023Y-1181809D02*
G02X1595011Y-1212789I5J-30983D01*
G01X4630257Y-2682319D02*
G01X4630257Y-2762316D01*
G01X4630303Y-2626274D02*
G01X4630303Y-2546276D01*
G01X4488289Y-2682319D02*
G01X4488289Y-2762316D01*
G01X4488337Y-2626274D02*
G01X4488337Y-2546276D01*
G01X4599275Y-2793291D02*
G01X4519270Y-2793291D01*
G01X4519323Y-2515298D02*
G01X4599325Y-2515298D01*
G01X4488337Y-2546281D02*
G02X4519323Y-2515298I30983J0D01*
G01X4599320Y-2515298D02*
G02X4630303Y-2546281I0J-30983D01*
G01X4630257Y-2762311D02*
G02X4599275Y-2793291I-30983J3D01*
G01X4519277Y-2793291D02*
G02X4488289Y-2762311I-5J30983D01*
G01X4452457Y-2682319D02*
G01X4452457Y-2762316D01*
G01X4452503Y-2626274D02*
G01X4452503Y-2546276D01*
G01X4310489Y-2682319D02*
G01X4310489Y-2762316D01*
G01X4310537Y-2626274D02*
G01X4310537Y-2546276D01*
G01X4421475Y-2793291D02*
G01X4341470Y-2793291D01*
G01X4341523Y-2515298D02*
G01X4421525Y-2515298D01*
G01X4310537Y-2546281D02*
G02X4341523Y-2515298I30983J0D01*
G01X4421520Y-2515298D02*
G02X4452503Y-2546281I0J-30983D01*
G01X4452457Y-2762311D02*
G02X4421475Y-2793291I-30983J3D01*
G01X4341477Y-2793291D02*
G02X4310489Y-2762311I-5J30983D01*
G01X4132743Y-2461181D02*
G01X4132743Y-2381184D01*
G01X4132697Y-2517226D02*
G01X4132697Y-2597224D01*
G01X4274711Y-2461181D02*
G01X4274711Y-2381184D01*
G01X4274663Y-2517226D02*
G01X4274663Y-2597224D01*
G01X4163725Y-2350209D02*
G01X4243730Y-2350209D01*
G01X4243677Y-2628201D02*
G01X4163675Y-2628201D01*
G01X4274663Y-2597219D02*
G02X4243677Y-2628201I-30983J0D01*
G01X4163680Y-2628201D02*
G02X4132697Y-2597219I0J30983D01*
G01X4132743Y-2381189D02*
G02X4163725Y-2350209I30983J-3D01*
G01X4243723Y-2350209D02*
G02X4274711Y-2381189I5J-30983D01*
G01X4714324Y-2316643D02*
G01X4794321Y-2316643D01*
G01X4658279Y-2316597D02*
G01X4578281Y-2316597D01*
G01X4714324Y-2458611D02*
G01X4794321Y-2458611D01*
G01X4658279Y-2458563D02*
G01X4578281Y-2458563D01*
G01X4825296Y-2347625D02*
G01X4825296Y-2427630D01*
G01X4547304Y-2427577D02*
G01X4547304Y-2347575D01*
G01X4578287Y-2458563D02*
G02X4547304Y-2427577I0J30983D01*
G01X4547304Y-2347580D02*
G02X4578287Y-2316597I30983J0D01*
G01X4794316Y-2316643D02*
G02X4825296Y-2347625I-3J-30983D01*
G01X4825296Y-2427623D02*
G02X4794316Y-2458611I-30983J-5D01*
G01X1834643Y-320129D02*
G01X1834643Y-400126D01*
G01X1834689Y-264084D02*
G01X1834689Y-184086D01*
G01X1692675Y-320129D02*
G01X1692675Y-400126D01*
G01X1692723Y-264084D02*
G01X1692723Y-184086D01*
G01X1803660Y-431101D02*
G01X1723655Y-431101D01*
G01X1723709Y-153109D02*
G01X1803711Y-153109D01*
G01X1692723Y-184092D02*
G02X1723709Y-153109I30983J0D01*
G01X1803706Y-153109D02*
G02X1834689Y-184092I0J-30983D01*
G01X1834643Y-400121D02*
G02X1803660Y-431101I-30983J3D01*
G01X1723663Y-431101D02*
G02X1692675Y-400121I-5J30983D01*
G01X2800564Y-320129D02*
G01X2800564Y-400126D01*
G01X2800610Y-264084D02*
G01X2800610Y-184086D01*
G01X2658596Y-320129D02*
G01X2658596Y-400126D01*
G01X2658644Y-264084D02*
G01X2658644Y-184086D01*
G01X2769581Y-431101D02*
G01X2689576Y-431101D01*
G01X2689629Y-153109D02*
G01X2769632Y-153109D01*
G01X2658644Y-184092D02*
G02X2689629Y-153109I30983J0D01*
G01X2769627Y-153109D02*
G02X2800610Y-184092I0J-30983D01*
G01X2800564Y-400121D02*
G02X2769581Y-431101I-30983J3D01*
G01X2689584Y-431101D02*
G02X2658596Y-400121I-5J30983D01*
G01X906488Y-2822029D02*
G01X906488Y-2902026D01*
G01X906534Y-2765984D02*
G01X906534Y-2685986D01*
G01X764520Y-2822029D02*
G01X764520Y-2902026D01*
G01X764568Y-2765984D02*
G01X764568Y-2685986D01*
G01X875505Y-2933001D02*
G01X795500Y-2933001D01*
G01X795553Y-2655009D02*
G01X875556Y-2655009D01*
G01X764568Y-2685992D02*
G02X795553Y-2655009I30983J0D01*
G01X875551Y-2655009D02*
G02X906534Y-2685992I0J-30983D01*
G01X906488Y-2902021D02*
G02X875505Y-2933001I-30983J3D01*
G01X795508Y-2933001D02*
G02X764520Y-2902021I-5J30983D01*
G01X1084288Y-2822029D02*
G01X1084288Y-2902026D01*
G01X1084334Y-2765984D02*
G01X1084334Y-2685986D01*
G01X942320Y-2822029D02*
G01X942320Y-2902026D01*
G01X942368Y-2765984D02*
G01X942368Y-2685986D01*
G01X1053305Y-2933001D02*
G01X973300Y-2933001D01*
G01X973353Y-2655009D02*
G01X1053356Y-2655009D01*
G01X942368Y-2685992D02*
G02X973353Y-2655009I30983J0D01*
G01X1053351Y-2655009D02*
G02X1084334Y-2685992I0J-30983D01*
G01X1084288Y-2902021D02*
G02X1053305Y-2933001I-30983J3D01*
G01X973308Y-2933001D02*
G02X942320Y-2902021I-5J30983D01*
G01X1745143Y-2486581D02*
G01X1745143Y-2406584D01*
G01X1745097Y-2542626D02*
G01X1745097Y-2622624D01*
G01X1887111Y-2486581D02*
G01X1887111Y-2406584D01*
G01X1887063Y-2542626D02*
G01X1887063Y-2622624D01*
G01X1776125Y-2375609D02*
G01X1856130Y-2375609D01*
G01X1856077Y-2653601D02*
G01X1776075Y-2653601D01*
G01X1887063Y-2622619D02*
G02X1856077Y-2653601I-30983J0D01*
G01X1776080Y-2653601D02*
G02X1745097Y-2622619I0J30983D01*
G01X1745143Y-2406589D02*
G02X1776125Y-2375609I30983J-3D01*
G01X1856123Y-2375609D02*
G02X1887111Y-2406589I5J-30983D01*
G01X4714324Y-1414943D02*
G01X4794321Y-1414943D01*
G01X4658279Y-1414897D02*
G01X4578281Y-1414897D01*
G01X4714324Y-1556911D02*
G01X4794321Y-1556911D01*
G01X4658279Y-1556863D02*
G01X4578281Y-1556863D01*
G01X4825296Y-1445925D02*
G01X4825296Y-1525930D01*
G01X4547304Y-1525877D02*
G01X4547304Y-1445875D01*
G01X4578287Y-1556863D02*
G02X4547304Y-1525877I0J30983D01*
G01X4547304Y-1445880D02*
G02X4578287Y-1414897I30983J0D01*
G01X4794316Y-1414943D02*
G02X4825296Y-1445925I-3J-30983D01*
G01X4825296Y-1525923D02*
G02X4794316Y-1556911I-30983J-5D01*
G54D11*
G01X1028680Y-2351019D02*
G01X1206520Y-2351019D01*
G01X1028680Y-2043181D02*
G01X1206520Y-2043181D01*
G54D14*
G01X889000Y-1409700D02*
G01X965200Y-1409700D01*
G01X889000Y-1689100D02*
G01X965200Y-1689100D01*
G01X990600Y-1587500D02*
G01X990600Y-1663700D01*
G01X863600Y-1587500D02*
G01X863600Y-1663700D01*
G01X990600Y-1511300D02*
G01X990600Y-1435100D01*
G01X863600Y-1511300D02*
G01X863600Y-1435100D01*
G01X933450Y-1552575D02*
G02X889000Y-1536700I-20513J12732D01*
G01X933450Y-1552486D02*
G02X977900Y-1562100I21628J-7565D01*
G54D13*
G01X4699000Y-1140648D02*
G01X4699000Y-381000D01*
G01X4699000Y-381000D02*
G01X4953000Y-381000D01*
G01X4953000Y-381000D02*
G01X4953000Y-1397000D01*
G01X4953000Y-1397000D02*
G01X4699000Y-1397000D01*
G01X4699000Y-1397000D02*
G01X4699000Y-1140648D01*
G01X4699000Y-1140648D02*
G01X4953000Y-1140648D01*
G01X662752Y-50800D02*
G01X1422400Y-50800D01*
G01X1422400Y-50800D02*
G01X1422400Y-304800D01*
G01X1422400Y-304800D02*
G01X406400Y-304800D01*
G01X406400Y-304800D02*
G01X406400Y-50800D01*
G01X406400Y-50800D02*
G01X662752Y-50800D01*
G01X662752Y-50800D02*
G01X662752Y-304800D01*
G54D15*
G01X1955254Y-1027354D02*
G01X1955254Y-1142355D01*
G01X1805242Y-1027354D02*
G01X1805242Y-1142355D01*
G01X1955241Y-1142355D02*
G01X1807251Y-1142355D01*
G01X1805005Y-989353D02*
G01X1805005Y-884337D01*
G01X1845015Y-854342D02*
G01X1835013Y-854342D01*
G01X1835013Y-854342D02*
G01X1805005Y-884337D01*
G01X1915015Y-854342D02*
G01X1845015Y-854342D01*
G01X1915015Y-854342D02*
G01X1925023Y-854342D01*
G01X1925023Y-854342D02*
G01X1955018Y-884337D01*
G01X1955018Y-989353D02*
G01X1955018Y-884337D01*
G01X1842046Y-1011055D02*
G01X1918246Y-1011055D01*
G01X1880784Y-1011055D02*
G01X1880784Y-985655D01*
G01X2698606Y-1278276D02*
G01X2698606Y-1279272D01*
G01X2698606Y-1279272D02*
G01X2665602Y-1312277D01*
G01X2630603Y-1278276D02*
G01X2631601Y-1278276D01*
G01X2631601Y-1278276D02*
G01X2665602Y-1312277D01*
G01X2630603Y-1278276D02*
G01X2698606Y-1278276D01*
G01X2590596Y-1276272D02*
G01X2590596Y-1161271D01*
G01X2740608Y-1276272D02*
G01X2740608Y-1161271D01*
G01X2590606Y-1161271D02*
G01X2738599Y-1161271D01*
G01X2740839Y-1314273D02*
G01X2740839Y-1419284D01*
G01X2700832Y-1449279D02*
G01X2710834Y-1449279D01*
G01X2710834Y-1449279D02*
G01X2740839Y-1419284D01*
G01X2630837Y-1449279D02*
G01X2700832Y-1449279D01*
G01X2630837Y-1449279D02*
G01X2620822Y-1449279D01*
G01X2620822Y-1449279D02*
G01X2590827Y-1419284D01*
G01X2590827Y-1314273D02*
G01X2590827Y-1419284D01*
G01X2665602Y-1278276D02*
G01X2665602Y-1312277D01*
G01X2509608Y-1278276D02*
G01X2509608Y-1279272D01*
G01X2509608Y-1279272D02*
G01X2476603Y-1312277D01*
G01X2441604Y-1278276D02*
G01X2442602Y-1278276D01*
G01X2442602Y-1278276D02*
G01X2476603Y-1312277D01*
G01X2441604Y-1278276D02*
G01X2509608Y-1278276D01*
G01X2401597Y-1276272D02*
G01X2401597Y-1161271D01*
G01X2551609Y-1276272D02*
G01X2551609Y-1161271D01*
G01X2401607Y-1161271D02*
G01X2549600Y-1161271D01*
G01X2551840Y-1314273D02*
G01X2551840Y-1419284D01*
G01X2511833Y-1449279D02*
G01X2521835Y-1449279D01*
G01X2521835Y-1449279D02*
G01X2551840Y-1419284D01*
G01X2441838Y-1449279D02*
G01X2511833Y-1449279D01*
G01X2441838Y-1449279D02*
G01X2431823Y-1449279D01*
G01X2431823Y-1449279D02*
G01X2401828Y-1419284D01*
G01X2401828Y-1314273D02*
G01X2401828Y-1419284D01*
G01X2476603Y-1278276D02*
G01X2476603Y-1312277D01*
G54D11*
G01X1813540Y-1350721D02*
G01X1813540Y-1446609D01*
G01X1813540Y-1446609D02*
G01X1945660Y-1446609D01*
G01X1945660Y-1446609D02*
G01X1945660Y-1350721D01*
G01X1813540Y-1265479D02*
G01X1813540Y-1169591D01*
G01X1813540Y-1169591D02*
G01X1945660Y-1169591D01*
G01X1945660Y-1169591D02*
G01X1945660Y-1265479D01*
G01X1582979Y-2238736D02*
G01X1487091Y-2238736D01*
G01X1487091Y-2238736D02*
G01X1487091Y-2370856D01*
G01X1487091Y-2370856D02*
G01X1582979Y-2370856D01*
G01X1668221Y-2238736D02*
G01X1764109Y-2238736D01*
G01X1764109Y-2238736D02*
G01X1764109Y-2370856D01*
G01X1764109Y-2370856D02*
G01X1668221Y-2370856D01*
G01X1582979Y-2048744D02*
G01X1487091Y-2048744D01*
G01X1487091Y-2048744D02*
G01X1487091Y-2180864D01*
G01X1487091Y-2180864D02*
G01X1582979Y-2180864D01*
G01X1668221Y-2048744D02*
G01X1764109Y-2048744D01*
G01X1764109Y-2048744D02*
G01X1764109Y-2180864D01*
G01X1764109Y-2180864D02*
G01X1668221Y-2180864D01*
G01X4155832Y-2798908D02*
G01X4251720Y-2798908D01*
G01X4251720Y-2798908D02*
G01X4251720Y-2666788D01*
G01X4251720Y-2666788D02*
G01X4155832Y-2666788D01*
G01X4070590Y-2798908D02*
G01X3974702Y-2798908D01*
G01X3974702Y-2798908D02*
G01X3974702Y-2666788D01*
G01X3974702Y-2666788D02*
G01X4070590Y-2666788D01*
G01X1115047Y-2836626D02*
G01X1115047Y-2932514D01*
G01X1115047Y-2932514D02*
G01X1247168Y-2932514D01*
G01X1247168Y-2932514D02*
G01X1247168Y-2836626D01*
G01X1115047Y-2751384D02*
G01X1115047Y-2655496D01*
G01X1115047Y-2655496D02*
G01X1247168Y-2655496D01*
G01X1247168Y-2655496D02*
G01X1247168Y-2751384D01*
G01X1594970Y-2836626D02*
G01X1594970Y-2932514D01*
G01X1594970Y-2932514D02*
G01X1727091Y-2932514D01*
G01X1727091Y-2932514D02*
G01X1727091Y-2836626D01*
G01X1594970Y-2751384D02*
G01X1594970Y-2655496D01*
G01X1594970Y-2655496D02*
G01X1727091Y-2655496D01*
G01X1727091Y-2655496D02*
G01X1727091Y-2751384D01*
G01X3598621Y-1107460D02*
G01X3694509Y-1107460D01*
G01X3694509Y-1107460D02*
G01X3694509Y-975340D01*
G01X3694509Y-975340D02*
G01X3598621Y-975340D01*
G01X3513379Y-1107460D02*
G01X3417491Y-1107460D01*
G01X3417491Y-1107460D02*
G01X3417491Y-975340D01*
G01X3417491Y-975340D02*
G01X3513379Y-975340D01*
G01X3754679Y-1165840D02*
G01X3658791Y-1165840D01*
G01X3658791Y-1165840D02*
G01X3658791Y-1297960D01*
G01X3658791Y-1297960D02*
G01X3754679Y-1297960D01*
G01X3839921Y-1165840D02*
G01X3935809Y-1165840D01*
G01X3935809Y-1165840D02*
G01X3935809Y-1297960D01*
G01X3935809Y-1297960D02*
G01X3839921Y-1297960D01*
G01X1851640Y-2862021D02*
G01X1851640Y-2957909D01*
G01X1851640Y-2957909D02*
G01X1983760Y-2957909D01*
G01X1983760Y-2957909D02*
G01X1983760Y-2862021D01*
G01X1851640Y-2776779D02*
G01X1851640Y-2680891D01*
G01X1851640Y-2680891D02*
G01X1983760Y-2680891D01*
G01X1983760Y-2680891D02*
G01X1983760Y-2776779D01*
G01X4208221Y-2047260D02*
G01X4304109Y-2047260D01*
G01X4304109Y-2047260D02*
G01X4304109Y-1915140D01*
G01X4304109Y-1915140D02*
G01X4208221Y-1915140D01*
G01X4122979Y-2047260D02*
G01X4027091Y-2047260D01*
G01X4027091Y-2047260D02*
G01X4027091Y-1915140D01*
G01X4027091Y-1915140D02*
G01X4122979Y-1915140D01*
G01X2542242Y-947548D02*
G01X2542242Y-851660D01*
G01X2542242Y-851660D02*
G01X2410121Y-851660D01*
G01X2410121Y-851660D02*
G01X2410121Y-947548D01*
G01X2542242Y-1032790D02*
G01X2542242Y-1128678D01*
G01X2542242Y-1128678D02*
G01X2410121Y-1128678D01*
G01X2410121Y-1128678D02*
G01X2410121Y-1032790D01*
G01X2731240Y-947548D02*
G01X2731240Y-851660D01*
G01X2731240Y-851660D02*
G01X2599120Y-851660D01*
G01X2599120Y-851660D02*
G01X2599120Y-947548D01*
G01X2731240Y-1032790D02*
G01X2731240Y-1128678D01*
G01X2731240Y-1128678D02*
G01X2599120Y-1128678D01*
G01X2599120Y-1128678D02*
G01X2599120Y-1032790D01*
G54D13*
G01X251805Y-1432893D02*
G01X251805Y-522897D01*
G01X611802Y-1432893D02*
G01X611802Y-522897D01*
G01X251805Y-1432893D02*
G01X611802Y-1432893D01*
G01X251805Y-522897D02*
G01X611802Y-522897D01*
G01X341795Y-1227874D02*
G01X341795Y-727875D01*
G01X521805Y-727875D01*
G01X521805Y-1227874D01*
G01X341795Y-1227874D01*
G01X351803Y-907885D02*
G01X351803Y-767880D01*
G01X501815Y-767880D01*
G01X501815Y-907885D01*
G01X351803Y-907885D01*
G54D14*
G01X4888921Y-2285883D02*
G01X4888921Y-2242777D01*
G01X4888921Y-1977644D02*
G01X4888921Y-2020750D01*
G01X4483679Y-2020750D02*
G01X4483679Y-1977644D01*
G01X4483679Y-2285883D02*
G01X4483679Y-2242777D01*
G54D11*
G01X4483679Y-2285883D02*
G01X4888921Y-2285883D01*
G01X4483679Y-1977644D02*
G01X4888921Y-1977644D01*
G54D14*
G01X4888921Y-1902387D02*
G01X4888921Y-1859281D01*
G01X4888921Y-1594148D02*
G01X4888921Y-1637255D01*
G01X4483679Y-1637255D02*
G01X4483679Y-1594148D01*
G01X4483679Y-1902387D02*
G01X4483679Y-1859281D01*
G54D11*
G01X4483679Y-1902387D02*
G01X4888921Y-1902387D01*
G01X4483679Y-1594148D02*
G01X4888921Y-1594148D01*
G54D16*
G01X2593214Y-393032D02*
G01X2383308Y-393032D01*
G01X2593214Y-183025D02*
G01X2383308Y-183025D01*
G54D11*
G01X2034648Y-374725D02*
G01X1869408Y-374725D01*
G01X2034648Y-209485D02*
G01X1869408Y-209485D01*
G54D14*
G01X1555285Y-2944005D02*
G01X1345286Y-2944005D01*
G01X1345286Y-2644005D01*
G01X1555285Y-2644005D01*
G01X1555285Y-2944005D01*
G54D17*
G01X2084499Y-2951424D02*
G01X2084499Y-3596010D01*
G01X2084499Y-3596010D02*
G01X3884501Y-3596010D01*
G01X3884501Y-3596010D02*
G01X3884501Y-2951424D01*
G01X3884501Y-2996009D02*
G01X2084499Y-2996009D01*
G01X3884501Y-1620596D02*
G01X3884501Y-1596009D01*
G01X3884501Y-1770591D02*
G01X3884501Y-1751421D01*
G01X3884501Y-1920591D02*
G01X3884501Y-1901421D01*
G01X3884501Y-2070590D02*
G01X3884501Y-2051421D01*
G01X3884501Y-2220595D02*
G01X3884501Y-2201423D01*
G01X3884501Y-2370597D02*
G01X3884501Y-2351423D01*
G01X3884501Y-2520589D02*
G01X3884501Y-2501422D01*
G01X3884501Y-2670592D02*
G01X3884501Y-2651422D01*
G01X3884501Y-2820591D02*
G01X3884501Y-2801422D01*
G01X2084499Y-2801422D02*
G01X2084499Y-2820591D01*
G01X2084499Y-2651422D02*
G01X2084499Y-2670592D01*
G01X2084499Y-2501422D02*
G01X2084499Y-2520589D01*
G01X2084499Y-2351423D02*
G01X2084499Y-2370597D01*
G01X2084499Y-2201423D02*
G01X2084499Y-2220595D01*
G01X2084499Y-2051421D02*
G01X2084499Y-2070590D01*
G01X2084499Y-1901421D02*
G01X2084499Y-1920591D01*
G01X2084499Y-1751421D02*
G01X2084499Y-1770591D01*
G01X3884501Y-1596009D02*
G01X2084499Y-1596009D01*
G01X2084499Y-1596009D02*
G01X2084499Y-1620596D01*
G54D13*
G01X1078009Y-1219962D02*
G01X1357917Y-1219962D01*
G01X1357917Y-1219962D02*
G01X1357917Y-1320038D01*
G01X1357917Y-1320038D02*
G01X1078009Y-1320038D01*
G01X1078009Y-1320038D02*
G01X1078009Y-1219962D01*
G54D18*
G01X1397157Y-1117854D02*
G02X1397030Y-1142745I-127J-12445D01*
G02X1396903Y-1117854I0J12446D01*
G54D13*
G01X330205Y-2616208D02*
G01X529600Y-2616208D01*
G01X-12697Y-2616208D02*
G01X134600Y-2616208D01*
G01X330518Y-1709009D02*
G01X529290Y-1709009D01*
G01X-27597Y-1709009D02*
G01X134287Y-1709009D01*
G01X-27597Y-2609007D02*
G01X-27597Y-1709009D01*

G04 Rect Start*
G01X406400Y-431800D02*
G01X406400Y-304800D01*
G01X1422400Y-304800D01*
G01X1422400Y-431800D01*
G01X406400Y-431800D01*
G01X4470400Y-1397000D02*
G01X4470400Y-381000D01*
G01X4699000Y-381000D01*
G01X4699000Y-1397000D01*
G01X4470400Y-1397000D01*
G04 Rect End*

G04 Circle Start*
G54D20*
G01X3969839Y-2921000D02*
G03X4005761Y-2921000I17961J0D01*
G03X3969839Y-2921000I-17961J0D01*
G01X670921Y-1447800D02*
G03X700679Y-1447800I14879J0D01*
G03X670921Y-1447800I-14879J0D01*
G54D21*
G01X972439Y-2030273D02*
G03X1002462Y-2030273I15011J0D01*
G03X972439Y-2030273I-15011J0D01*
G54D13*
G01X4596308Y-2131764D02*
G03X4776292Y-2131764I89992J0D01*
G03X4596308Y-2131764I-89992J0D01*
G01X4596308Y-1748268D02*
G03X4776292Y-1748268I89992J0D01*
G03X4596308Y-1748268I-89992J0D01*
G01X2611502Y-392168D02*
G03X2624202Y-392168I6350J0D01*
G03X2611502Y-392168I-6350J0D01*
G54D22*
G01X2049616Y-368560D02*
G03X2057135Y-368560I3759J0D01*
G03X2049616Y-368560I-3759J0D01*
G54D13*
G01X1440726Y-2844005D02*
G03X1459847Y-2844005I9561J0D01*
G03X1440726Y-2844005I-9561J0D01*
G01X1295725Y-2894005D02*
G03X1314846Y-2894005I9561J0D01*
G03X1295725Y-2894005I-9561J0D01*
G54D23*
G01X3937406Y-3022600D02*
G03X3987394Y-3022600I24994J0D01*
G03X3937406Y-3022600I-24994J0D01*
G04 Circle End*

M02*

