G04 Layer: TopLayer*
G04 EasyEDA Pro v3.2.121, 2026-05-25 04:57:40*
G04 Gerber Generator version 0.3*
G04 Scale: 100 percent, Rotated: No, Reflected: No*
G04 Dimensions in millimeters*
G04 Leading zeros omitted, absolute positions, 4 integers and 5 decimals*
G04 Generated by one-click*
%FSLAX45Y45*%
%MOMM*%
%ADD10C,0.2032*%
%ADD11C,0.254*%
%ADD12R,0.9X0.8*%
%ADD13R,0.8X0.9*%
%ADD14R,1.07201X0.532*%
%ADD15R,0.8642X0.80648*%
%ADD16R,0.86401X0.80648*%
%ADD17R,1.7X1.7*%
%ADD18C,1.7*%
%ADD19R,1.0X0.8*%
%ADD20R,0.8X0.8*%
%ADD21R,0.80648X0.86401*%
%ADD22R,1.8X0.7*%
%ADD23R,1.23X1.85999*%
%ADD24R,1.0X1.6*%
%ADD25R,0.45001X0.4*%
%ADD26R,0.505X0.41999*%
%ADD27R,0.4X1.1*%
%ADD28R,0.6X0.54*%
%ADD29R,2.0X1.0*%
%ADD30R,0.7X0.7*%
%ADD31R,0.6223X1.1049*%
%ADD32R,1.1X0.55001*%
%ADD33R,1.1X0.3*%
%ADD34O,2.0X1.1*%
%ADD35O,1.8X1.2*%
%ADD36C,3.2*%
%ADD37C,0.61*%
%ADD38C,0.8*%
%ADD39C,0.5334*%
%ADD40C,0.4064*%
%ADD41C,0.70104*%
G75*


G04 Copper Start*
G36*
G01X328827Y-328969D02*
G01X347028Y-308160D01*
G01X362117Y-284994D01*
G01X373793Y-259935D01*
G01X381823Y-233480D01*
G01X386048Y-206159D01*
G01X386383Y-178515D01*
G01X382821Y-151099D01*
G01X375433Y-124458D01*
G01X364368Y-99123D01*
G01X360464Y-92800D01*
G01X412586Y-92800D01*
G01X412586Y-262800D01*
G01X414339Y-273867D01*
G01X419426Y-283851D01*
G01X427349Y-291774D01*
G01X437333Y-296861D01*
G01X448400Y-298614D01*
G01X618400Y-298614D01*
G01X618400Y-298614D01*
G01X629467Y-296861D01*
G01X639451Y-291774D01*
G01X647374Y-283851D01*
G01X652461Y-273867D01*
G01X654214Y-262800D01*
G01X654214Y-92800D01*
G01X652461Y-81733D01*
G01X647374Y-71749D01*
G01X639451Y-63826D01*
G01X629467Y-58739D01*
G01X618400Y-56986D01*
G01X448400Y-56986D01*
G01X437333Y-58739D01*
G01X427349Y-63826D01*
G01X419426Y-71749D01*
G01X414339Y-81733D01*
G01X412586Y-92800D01*
G01X360464Y-92800D01*
G01X349844Y-75599D01*
G01X332153Y-54355D01*
G01X311645Y-35814D01*
G01X4695947Y-35814D01*
G01X4675333Y-52836D01*
G01X4657229Y-72507D01*
G01X4641974Y-94460D01*
G01X4629851Y-118287D01*
G01X4621086Y-143543D01*
G01X4615843Y-169757D01*
G01X4614219Y-196442D01*
G01X4616246Y-223098D01*
G01X4621884Y-249231D01*
G01X4631029Y-274351D01*
G01X4643510Y-297992D01*
G01X4659095Y-319713D01*
G01X4677494Y-339109D01*
G01X4698362Y-355817D01*
G01X4721312Y-369528D01*
G01X4745916Y-379985D01*
G01X4771715Y-386993D01*
G01X4798227Y-390422D01*
G01X4778274Y-397013D01*
G01X4759765Y-406961D01*
G01X4743259Y-419966D01*
G01X4729257Y-435635D01*
G01X4718181Y-453493D01*
G01X4710367Y-473000D01*
G01X4706052Y-493565D01*
G01X4705365Y-514568D01*
G01X4708328Y-535371D01*
G01X4714850Y-555347D01*
G01X4724736Y-573890D01*
G01X4737685Y-590440D01*
G01X4753305Y-604496D01*
G01X4771125Y-615633D01*
G01X4790605Y-623513D01*
G01X4811156Y-627898D01*
G01X4832156Y-628657D01*
G01X4852970Y-625765D01*
G01X4872968Y-619310D01*
G01X4891545Y-609488D01*
G01X4908138Y-596596D01*
G01X4922247Y-581023D01*
G01X4933445Y-563241D01*
G01X4941391Y-543788D01*
G01X4945847Y-523253D01*
G01X4946677Y-502255D01*
G01X4943856Y-481432D01*
G01X4937470Y-461412D01*
G01X4927711Y-442802D01*
G01X4914876Y-426164D01*
G01X4899351Y-412002D01*
G01X4881608Y-400744D01*
G01X4862182Y-392731D01*
G01X4841661Y-388206D01*
G01X4865322Y-382808D01*
G01X4888134Y-374526D01*
G01X4909746Y-363485D01*
G01X4929826Y-349856D01*
G01X4948066Y-333847D01*
G01X4964186Y-315705D01*
G01X4964186Y-1619454D01*
G01X4843291Y-1619454D01*
G01X4832224Y-1621207D01*
G01X4822240Y-1626294D01*
G01X4814317Y-1634217D01*
G01X4809230Y-1644201D01*
G01X4807477Y-1655268D01*
G01X4807477Y-1841267D01*
G01X4809230Y-1852334D01*
G01X4814317Y-1862318D01*
G01X4822240Y-1870241D01*
G01X4832224Y-1875328D01*
G01X4843291Y-1877081D01*
G01X4964186Y-1877081D01*
G01X4964186Y-2002950D01*
G01X4843291Y-2002950D01*
G01X4832224Y-2004703D01*
G01X4822240Y-2009790D01*
G01X4814317Y-2017713D01*
G01X4809230Y-2027697D01*
G01X4807477Y-2038764D01*
G01X4807477Y-2224763D01*
G01X4809230Y-2235830D01*
G01X4814317Y-2245814D01*
G01X4822240Y-2253737D01*
G01X4832224Y-2258824D01*
G01X4843291Y-2260577D01*
G01X4964186Y-2260577D01*
G01X4964186Y-2689287D01*
G01X4945859Y-2668986D01*
G01X4924883Y-2651436D01*
G01X4901666Y-2636980D01*
G01X4876662Y-2625900D01*
G01X4850357Y-2618412D01*
G01X4823266Y-2614662D01*
G01X4795917Y-2614723D01*
G01X4768842Y-2618594D01*
G01X4742572Y-2626200D01*
G01X4717617Y-2637392D01*
G01X4694465Y-2651951D01*
G01X4673567Y-2669595D01*
G01X4655332Y-2689977D01*
G01X4640114Y-2712702D01*
G01X4640114Y-2684302D01*
G01X4638169Y-2672662D01*
G01X4632547Y-2662286D01*
G01X4623857Y-2654300D01*
G01X4632547Y-2646314D01*
G01X4638169Y-2635938D01*
G01X4640114Y-2624298D01*
G01X4640114Y-2544298D01*
G01X4638361Y-2533231D01*
G01X4633274Y-2523247D01*
G01X4625351Y-2515324D01*
G01X4615367Y-2510237D01*
G01X4604300Y-2508484D01*
G01X4514300Y-2508484D01*
G01X4503233Y-2510237D01*
G01X4493249Y-2515324D01*
G01X4485326Y-2523247D01*
G01X4480239Y-2533231D01*
G01X4478486Y-2544298D01*
G01X4478486Y-2624298D01*
G01X4480257Y-2635419D01*
G01X4485393Y-2645441D01*
G01X4493388Y-2653372D01*
G01X4470400Y-2658705D01*
G01X4447412Y-2653372D01*
G01X4455407Y-2645441D01*
G01X4460543Y-2635419D01*
G01X4462314Y-2624298D01*
G01X4462314Y-2544298D01*
G01X4460561Y-2533231D01*
G01X4455474Y-2523247D01*
G01X4447551Y-2515324D01*
G01X4437567Y-2510237D01*
G01X4426500Y-2508484D01*
G01X4336500Y-2508484D01*
G01X4325433Y-2510237D01*
G01X4315449Y-2515324D01*
G01X4307526Y-2523247D01*
G01X4302439Y-2533231D01*
G01X4300686Y-2544298D01*
G01X4300686Y-2624298D01*
G01X4302625Y-2635922D01*
G01X4308232Y-2646288D01*
G01X4316901Y-2654273D01*
G01X4299310Y-2662564D01*
G01X4280622Y-2667942D01*
G01X4267070Y-2665015D01*
G01X4253809Y-2660967D01*
G01X4252214Y-2651548D01*
G01X4252214Y-2637302D01*
G01X4252479Y-2634816D01*
G01X4262604Y-2632207D01*
G01X4271545Y-2626784D01*
G01X4278538Y-2619010D01*
G01X4282987Y-2609547D01*
G01X4284514Y-2599202D01*
G01X4284514Y-2519202D01*
G01X4282569Y-2507562D01*
G01X4276947Y-2497186D01*
G01X4268257Y-2489200D01*
G01X4276947Y-2481214D01*
G01X4282569Y-2470838D01*
G01X4284514Y-2459198D01*
G01X4284514Y-2379198D01*
G01X4283158Y-2369437D01*
G01X4279194Y-2360416D01*
G01X4272921Y-2352816D01*
G01X4264815Y-2347214D01*
G01X4310605Y-2347214D01*
G01X4385295Y-2421905D01*
G01X4395343Y-2429614D01*
G01X4407044Y-2434461D01*
G01X4419600Y-2436114D01*
G01X4538203Y-2436114D01*
G01X4540689Y-2436379D01*
G01X4543298Y-2446504D01*
G01X4548721Y-2455445D01*
G01X4556495Y-2462438D01*
G01X4565958Y-2466887D01*
G01X4576303Y-2468414D01*
G01X4656303Y-2468414D01*
G01X4667943Y-2466469D01*
G01X4678319Y-2460847D01*
G01X4686305Y-2452157D01*
G01X4694291Y-2460847D01*
G01X4704667Y-2466469D01*
G01X4716308Y-2468414D01*
G01X4796307Y-2468414D01*
G01X4807375Y-2466661D01*
G01X4817358Y-2461574D01*
G01X4825282Y-2453651D01*
G01X4830369Y-2443667D01*
G01X4832121Y-2432600D01*
G01X4832121Y-2342600D01*
G01X4830369Y-2331533D01*
G01X4825282Y-2321549D01*
G01X4817358Y-2313626D01*
G01X4807375Y-2308539D01*
G01X4796307Y-2306786D01*
G01X4716308Y-2306786D01*
G01X4704667Y-2308731D01*
G01X4694291Y-2314353D01*
G01X4686305Y-2323043D01*
G01X4680636Y-2316322D01*
G01X4673501Y-2311186D01*
G01X4665329Y-2307942D01*
G01X4664817Y-2304500D01*
G01X4664817Y-2190603D01*
G01X4663164Y-2178046D01*
G01X4658317Y-2166346D01*
G01X4650607Y-2156298D01*
G01X4591768Y-2097459D01*
G01X4583906Y-2091089D01*
G01X4574894Y-2086489D01*
G01X4565123Y-2083858D01*
G01X4565123Y-2038764D01*
G01X4563370Y-2027697D01*
G01X4558283Y-2017713D01*
G01X4550360Y-2009790D01*
G01X4540376Y-2004703D01*
G01X4529309Y-2002950D01*
G01X4406309Y-2002950D01*
G01X4395242Y-2004703D01*
G01X4385259Y-2009790D01*
G01X4377335Y-2017713D01*
G01X4372248Y-2027697D01*
G01X4370495Y-2038764D01*
G01X4370495Y-2224763D01*
G01X4372248Y-2235830D01*
G01X4377335Y-2245814D01*
G01X4385259Y-2253737D01*
G01X4395242Y-2258824D01*
G01X4406309Y-2260577D01*
G01X4529309Y-2260577D01*
G01X4540376Y-2258824D01*
G01X4550360Y-2253737D01*
G01X4558283Y-2245814D01*
G01X4563370Y-2235830D01*
G01X4565123Y-2224763D01*
G01X4565123Y-2208032D01*
G01X4567789Y-2210698D01*
G01X4567789Y-2304500D01*
G01X4567276Y-2307942D01*
G01X4557359Y-2312207D01*
G01X4549163Y-2319232D01*
G01X4543432Y-2328381D01*
G01X4540689Y-2338821D01*
G01X4538203Y-2339086D01*
G01X4439695Y-2339086D01*
G01X4365005Y-2264395D01*
G01X4354957Y-2256686D01*
G01X4343256Y-2251839D01*
G01X4330700Y-2250186D01*
G01X4076700Y-2250186D01*
G01X4064144Y-2251839D01*
G01X4052443Y-2256686D01*
G01X4042395Y-2264395D01*
G01X4003570Y-2303221D01*
G01X3995318Y-2314232D01*
G01X3995318Y-2236000D01*
G01X3994138Y-2226880D01*
G01X3990674Y-2218362D01*
G01X3985155Y-2211006D01*
G01X3990674Y-2203651D01*
G01X3994138Y-2195133D01*
G01X3995318Y-2186013D01*
G01X3995318Y-2086013D01*
G01X3994136Y-2076888D01*
G01X3990668Y-2068365D01*
G01X3985143Y-2061007D01*
G01X3990668Y-2053649D01*
G01X3994136Y-2045126D01*
G01X3995318Y-2036000D01*
G01X3995318Y-2029937D01*
G01X3997604Y-2029714D01*
G01X4011840Y-2029714D01*
G01X4014572Y-2030034D01*
G01X4017545Y-2039672D01*
G01X4023088Y-2048099D01*
G01X4030760Y-2054646D01*
G01X4039954Y-2058794D01*
G01X4049940Y-2060214D01*
G01X4130587Y-2060214D01*
G01X4140201Y-2058900D01*
G01X4149109Y-2055053D01*
G01X4156658Y-2048956D01*
G01X4162293Y-2041056D01*
G01X4165600Y-2031934D01*
G01X4167665Y-2038440D01*
G01X4174885Y-2059861D01*
G01X4168531Y-2076023D01*
G01X4166021Y-2093208D01*
G01X4167488Y-2110513D01*
G01X4172854Y-2127031D01*
G01X4181838Y-2141893D01*
G01X4193969Y-2154322D01*
G01X4208610Y-2163663D01*
G01X4224993Y-2169427D01*
G01X4242258Y-2171313D01*
G01X4259498Y-2169219D01*
G01X4275810Y-2163257D01*
G01X4290337Y-2153740D01*
G01X4302317Y-2141166D01*
G01X4311122Y-2126196D01*
G01X4316288Y-2109615D01*
G01X4317546Y-2092294D01*
G01X4314829Y-2075141D01*
G01X4308280Y-2059056D01*
G01X4314829Y-2036882D01*
G01X4316508Y-2030741D01*
G01X4317074Y-2024400D01*
G01X4317074Y-1938000D01*
G01X4315321Y-1926933D01*
G01X4310234Y-1916949D01*
G01X4302311Y-1909026D01*
G01X4292327Y-1903939D01*
G01X4281260Y-1902186D01*
G01X4200613Y-1902186D01*
G01X4190999Y-1903500D01*
G01X4182091Y-1907347D01*
G01X4174542Y-1913444D01*
G01X4168907Y-1921344D01*
G01X4165600Y-1930466D01*
G01X4162293Y-1921344D01*
G01X4156658Y-1913444D01*
G01X4149109Y-1907347D01*
G01X4140201Y-1903500D01*
G01X4130587Y-1902186D01*
G01X4049940Y-1902186D01*
G01X4039954Y-1903606D01*
G01X4030760Y-1907754D01*
G01X4023088Y-1914301D01*
G01X4017545Y-1922728D01*
G01X4014572Y-1932366D01*
G01X4011840Y-1932686D01*
G01X3997604Y-1932686D01*
G01X3995140Y-1932426D01*
G01X3991965Y-1920869D01*
G01X3985155Y-1911007D01*
G01X3991814Y-1901465D01*
G01X3995062Y-1890291D01*
G01X3997604Y-1890014D01*
G01X4330700Y-1890014D01*
G01X4343256Y-1888361D01*
G01X4354957Y-1883514D01*
G01X4365005Y-1875805D01*
G01X4377828Y-1862981D01*
G01X4385706Y-1870562D01*
G01X4395504Y-1875413D01*
G01X4406309Y-1877081D01*
G01X4529309Y-1877081D01*
G01X4540376Y-1875328D01*
G01X4550360Y-1870241D01*
G01X4558283Y-1862318D01*
G01X4563370Y-1852334D01*
G01X4565123Y-1841267D01*
G01X4565123Y-1797005D01*
G01X4567409Y-1796782D01*
G01X4576332Y-1796782D01*
G01X4588889Y-1795129D01*
G01X4600589Y-1790282D01*
G01X4610637Y-1782572D01*
G01X4650607Y-1742602D01*
G01X4658317Y-1732554D01*
G01X4663164Y-1720854D01*
G01X4664817Y-1708297D01*
G01X4664817Y-1569000D01*
G01X4665329Y-1565558D01*
G01X4673501Y-1562314D01*
G01X4680636Y-1557178D01*
G01X4686305Y-1550457D01*
G01X4694291Y-1559147D01*
G01X4704667Y-1564769D01*
G01X4716308Y-1566714D01*
G01X4796307Y-1566714D01*
G01X4807375Y-1564961D01*
G01X4817358Y-1559874D01*
G01X4825282Y-1551951D01*
G01X4830369Y-1541967D01*
G01X4832121Y-1530900D01*
G01X4832121Y-1440900D01*
G01X4830369Y-1429833D01*
G01X4825282Y-1419849D01*
G01X4817358Y-1411926D01*
G01X4807375Y-1406839D01*
G01X4796307Y-1405086D01*
G01X4716308Y-1405086D01*
G01X4704667Y-1407031D01*
G01X4694291Y-1412653D01*
G01X4686305Y-1421343D01*
G01X4678319Y-1412653D01*
G01X4667943Y-1407031D01*
G01X4656303Y-1405086D01*
G01X4576303Y-1405086D01*
G01X4565958Y-1406613D01*
G01X4556495Y-1411062D01*
G01X4548721Y-1418055D01*
G01X4543298Y-1426996D01*
G01X4540689Y-1437121D01*
G01X4538203Y-1437386D01*
G01X4406900Y-1437386D01*
G01X4394344Y-1439039D01*
G01X4382643Y-1443886D01*
G01X4372595Y-1451595D01*
G01X4334495Y-1489695D01*
G01X4326786Y-1499743D01*
G01X4321939Y-1511444D01*
G01X4320286Y-1524000D01*
G01X4320286Y-1783305D01*
G01X4310605Y-1792986D01*
G01X3997604Y-1792986D01*
G01X3995318Y-1792763D01*
G01X3995318Y-1786014D01*
G01X3994136Y-1776888D01*
G01X3990668Y-1768365D01*
G01X3985143Y-1761007D01*
G01X3990668Y-1753649D01*
G01X3994136Y-1745126D01*
G01X3995318Y-1736001D01*
G01X3995318Y-1636001D01*
G01X3993566Y-1624934D01*
G01X3988479Y-1614950D01*
G01X3980555Y-1607027D01*
G01X3970572Y-1601940D01*
G01X3959504Y-1600187D01*
G01X3764658Y-1600187D01*
G01X3764658Y-1313200D01*
G01X3764901Y-1310819D01*
G01X3776052Y-1308164D01*
G01X3785793Y-1302121D01*
G01X3793126Y-1293310D01*
G01X3797300Y-1282634D01*
G01X3798782Y-1287683D01*
G01X3805398Y-1309015D01*
G01X3809492Y-1330971D01*
G01X3802328Y-1345480D01*
G01X3798406Y-1361180D01*
G01X3797905Y-1377354D01*
G01X3800848Y-1393265D01*
G01X3807100Y-1408190D01*
G01X3816378Y-1421448D01*
G01X3828258Y-1432435D01*
G01X3842199Y-1440651D01*
G01X3857566Y-1445721D01*
G01X3873659Y-1447414D01*
G01X3889745Y-1445653D01*
G01X3905090Y-1440519D01*
G01X3918997Y-1432245D01*
G01X3930831Y-1421208D01*
G01X3940053Y-1407911D01*
G01X3946243Y-1392960D01*
G01X3949119Y-1377036D01*
G01X3948550Y-1360864D01*
G01X3944562Y-1345182D01*
G01X3937337Y-1330703D01*
G01X3941016Y-1308235D01*
G01X3946989Y-1286265D01*
G01X3948774Y-1275100D01*
G01X3948774Y-1188700D01*
G01X3948188Y-1185000D01*
G01X4705186Y-1185000D01*
G01X4705186Y-1355000D01*
G01X4706939Y-1366067D01*
G01X4712026Y-1376051D01*
G01X4719949Y-1383974D01*
G01X4729933Y-1389061D01*
G01X4741000Y-1390814D01*
G01X4911000Y-1390814D01*
G01X4922067Y-1389061D01*
G01X4932051Y-1383974D01*
G01X4939974Y-1376051D01*
G01X4945061Y-1366067D01*
G01X4946814Y-1355000D01*
G01X4946814Y-1185000D01*
G01X4946814Y-1185000D01*
G01X4945061Y-1173933D01*
G01X4939974Y-1163949D01*
G01X4932051Y-1156026D01*
G01X4922067Y-1150939D01*
G01X4911000Y-1149186D01*
G01X4741000Y-1149186D01*
G01X4729933Y-1150939D01*
G01X4719949Y-1156026D01*
G01X4712026Y-1163949D01*
G01X4706939Y-1173933D01*
G01X4705186Y-1185000D01*
G01X3948188Y-1185000D01*
G01X3947021Y-1177633D01*
G01X3941934Y-1167649D01*
G01X3934011Y-1159726D01*
G01X3924027Y-1154639D01*
G01X3912960Y-1152886D01*
G01X3832313Y-1152886D01*
G01X3822699Y-1154200D01*
G01X3813791Y-1158047D01*
G01X3806242Y-1164144D01*
G01X3800607Y-1172044D01*
G01X3797300Y-1181166D01*
G01X3793126Y-1170490D01*
G01X3785793Y-1161679D01*
G01X3776052Y-1155636D01*
G01X3764901Y-1152981D01*
G01X3764658Y-1150600D01*
G01X3764658Y-1016000D01*
G01X4705186Y-1016000D01*
G01X4707022Y-1036979D01*
G01X4712472Y-1057321D01*
G01X4721372Y-1076407D01*
G01X4733451Y-1093658D01*
G01X4748342Y-1108549D01*
G01X4765593Y-1120628D01*
G01X4784679Y-1129528D01*
G01X4805021Y-1134978D01*
G01X4826000Y-1136814D01*
G01X4826000Y-1136814D01*
G01X4846979Y-1134978D01*
G01X4867321Y-1129528D01*
G01X4886407Y-1120628D01*
G01X4903658Y-1108549D01*
G01X4918549Y-1093658D01*
G01X4930628Y-1076407D01*
G01X4939528Y-1057321D01*
G01X4944978Y-1036979D01*
G01X4946814Y-1016000D01*
G01X4944978Y-995021D01*
G01X4939528Y-974679D01*
G01X4930628Y-955593D01*
G01X4918549Y-938342D01*
G01X4903658Y-923451D01*
G01X4886407Y-911372D01*
G01X4867321Y-902472D01*
G01X4846979Y-897022D01*
G01X4826000Y-895186D01*
G01X4805021Y-897022D01*
G01X4784679Y-902472D01*
G01X4765593Y-911372D01*
G01X4748342Y-923451D01*
G01X4733451Y-938342D01*
G01X4721372Y-955593D01*
G01X4712472Y-974679D01*
G01X4707022Y-995021D01*
G01X4705186Y-1016000D01*
G01X3764658Y-1016000D01*
G01X3764658Y-762000D01*
G01X4705186Y-762000D01*
G01X4707022Y-782979D01*
G01X4712472Y-803321D01*
G01X4721372Y-822407D01*
G01X4733451Y-839658D01*
G01X4748342Y-854549D01*
G01X4765593Y-866628D01*
G01X4784679Y-875528D01*
G01X4805021Y-880978D01*
G01X4826000Y-882814D01*
G01X4826000Y-882814D01*
G01X4846979Y-880978D01*
G01X4867321Y-875528D01*
G01X4886407Y-866628D01*
G01X4903658Y-854549D01*
G01X4918549Y-839658D01*
G01X4930628Y-822407D01*
G01X4939528Y-803321D01*
G01X4944978Y-782979D01*
G01X4946814Y-762000D01*
G01X4944978Y-741021D01*
G01X4939528Y-720679D01*
G01X4930628Y-701593D01*
G01X4918549Y-684342D01*
G01X4903658Y-669451D01*
G01X4886407Y-657372D01*
G01X4867321Y-648472D01*
G01X4846979Y-643022D01*
G01X4826000Y-641186D01*
G01X4805021Y-643022D01*
G01X4784679Y-648472D01*
G01X4765593Y-657372D01*
G01X4748342Y-669451D01*
G01X4733451Y-684342D01*
G01X4721372Y-701593D01*
G01X4712472Y-720679D01*
G01X4707022Y-741021D01*
G01X4705186Y-762000D01*
G01X3764658Y-762000D01*
G01X3764658Y-172844D01*
G01X3763005Y-160288D01*
G01X3758159Y-148587D01*
G01X3750449Y-138540D01*
G01X3679205Y-67295D01*
G01X3669157Y-59586D01*
G01X3657456Y-54739D01*
G01X3644900Y-53086D01*
G01X1600200Y-53086D01*
G01X1587644Y-54739D01*
G01X1575943Y-59586D01*
G01X1565895Y-67295D01*
G01X1515095Y-118095D01*
G01X1507386Y-128143D01*
G01X1502539Y-139844D01*
G01X1500886Y-152400D01*
G01X1500886Y-449805D01*
G01X1478505Y-472186D01*
G01X1137695Y-472186D01*
G01X1089914Y-424405D01*
G01X1089914Y-306271D01*
G01X1097212Y-297669D01*
G01X1132100Y-257609D01*
G01X1144694Y-240460D01*
G01X1154084Y-221368D01*
G01X1159980Y-200925D01*
G01X1162198Y-179764D01*
G01X1162056Y-177800D01*
G01X1174586Y-177800D01*
G01X1176422Y-198779D01*
G01X1181872Y-219121D01*
G01X1190772Y-238207D01*
G01X1202851Y-255458D01*
G01X1217742Y-270349D01*
G01X1234993Y-282428D01*
G01X1254079Y-291328D01*
G01X1274421Y-296778D01*
G01X1295400Y-298614D01*
G01X1316379Y-296778D01*
G01X1336721Y-291328D01*
G01X1355807Y-282428D01*
G01X1373058Y-270349D01*
G01X1387949Y-255458D01*
G01X1400028Y-238207D01*
G01X1408928Y-219121D01*
G01X1414378Y-198779D01*
G01X1416214Y-177800D01*
G01X1414378Y-156821D01*
G01X1408928Y-136479D01*
G01X1400028Y-117393D01*
G01X1387949Y-100142D01*
G01X1373058Y-85251D01*
G01X1355807Y-73172D01*
G01X1336721Y-64272D01*
G01X1316379Y-58822D01*
G01X1295400Y-56986D01*
G01X1274421Y-58822D01*
G01X1254079Y-64272D01*
G01X1234993Y-73172D01*
G01X1217742Y-85251D01*
G01X1202851Y-100142D01*
G01X1190772Y-117393D01*
G01X1181872Y-136479D01*
G01X1176422Y-156821D01*
G01X1174586Y-177800D01*
G01X1174586Y-177800D01*
G01X1162056Y-177800D01*
G01X1160669Y-158542D01*
G01X1155441Y-137918D01*
G01X1146676Y-118531D01*
G01X1134646Y-100981D01*
G01X1119724Y-85815D01*
G01X1102373Y-73501D01*
G01X1083131Y-64422D01*
G01X1062594Y-58860D01*
G01X1041400Y-56986D01*
G01X1020206Y-58860D01*
G01X999669Y-64422D01*
G01X980427Y-73501D01*
G01X963076Y-85815D01*
G01X948154Y-100981D01*
G01X936124Y-118531D01*
G01X927359Y-137918D01*
G01X922131Y-158542D01*
G01X920602Y-179764D01*
G01X922820Y-200925D01*
G01X928716Y-221368D01*
G01X938106Y-240460D01*
G01X950700Y-257609D01*
G01X985588Y-297669D01*
G01X992886Y-306271D01*
G01X992886Y-444500D01*
G01X994539Y-457056D01*
G01X999386Y-468757D01*
G01X1007095Y-478805D01*
G01X1083295Y-555005D01*
G01X1090719Y-561086D01*
G01X883695Y-561086D01*
G01X835914Y-513305D01*
G01X835914Y-306271D01*
G01X843212Y-297669D01*
G01X878100Y-257609D01*
G01X890694Y-240460D01*
G01X900084Y-221368D01*
G01X905980Y-200925D01*
G01X908198Y-179764D01*
G01X906669Y-158542D01*
G01X901441Y-137918D01*
G01X892676Y-118531D01*
G01X880646Y-100981D01*
G01X865724Y-85815D01*
G01X848373Y-73501D01*
G01X829131Y-64422D01*
G01X808594Y-58860D01*
G01X787400Y-56986D01*
G01X766206Y-58860D01*
G01X745669Y-64422D01*
G01X726427Y-73501D01*
G01X709076Y-85815D01*
G01X694154Y-100981D01*
G01X682124Y-118531D01*
G01X673359Y-137918D01*
G01X668131Y-158542D01*
G01X666602Y-179764D01*
G01X668820Y-200925D01*
G01X674716Y-221368D01*
G01X684106Y-240460D01*
G01X696700Y-257609D01*
G01X731588Y-297669D01*
G01X738886Y-306271D01*
G01X738886Y-533400D01*
G01X740539Y-545956D01*
G01X745386Y-557657D01*
G01X753095Y-567705D01*
G01X829295Y-643905D01*
G01X839343Y-651614D01*
G01X851044Y-656461D01*
G01X863600Y-658114D01*
G01X3472405Y-658114D01*
G01X3583686Y-769395D01*
G01X3583686Y-960100D01*
G01X3583262Y-963234D01*
G01X3573739Y-966827D01*
G01X3565610Y-972954D01*
G01X3559534Y-981120D01*
G01X3556000Y-990666D01*
G01X3552693Y-981544D01*
G01X3547058Y-973644D01*
G01X3539509Y-967547D01*
G01X3530601Y-963700D01*
G01X3520987Y-962386D01*
G01X3440340Y-962386D01*
G01X3433094Y-963126D01*
G01X3426147Y-965318D01*
G01X3404893Y-972826D01*
G01X3382819Y-977386D01*
G01X3360330Y-978916D01*
G01X3124682Y-978916D01*
G01X3016416Y-870650D01*
G01X3006947Y-862879D01*
G01X2996144Y-857105D01*
G01X2984423Y-853549D01*
G01X2972233Y-852349D01*
G01X2788390Y-852349D01*
G01X2765290Y-851046D01*
G01X2742483Y-847154D01*
G01X2720258Y-840722D01*
G01X2714405Y-839205D01*
G01X2708380Y-838695D01*
G01X2621980Y-838695D01*
G01X2615955Y-839205D01*
G01X2610102Y-840722D01*
G01X2590629Y-846503D01*
G01X2570681Y-850333D01*
G01X2550732Y-846503D01*
G01X2531259Y-840722D01*
G01X2525406Y-839205D01*
G01X2519382Y-838695D01*
G01X2432981Y-838695D01*
G01X2421460Y-840599D01*
G01X2399088Y-846861D01*
G01X2376168Y-850648D01*
G01X2352971Y-851916D01*
G01X2209800Y-851916D01*
G01X2197610Y-853117D01*
G01X2185888Y-856672D01*
G01X2175086Y-862446D01*
G01X2165617Y-870217D01*
G01X2089417Y-946417D01*
G01X2081646Y-955886D01*
G01X2075872Y-966688D01*
G01X2072317Y-978410D01*
G01X2071116Y-990600D01*
G01X2071116Y-1294918D01*
G01X2045082Y-1320952D01*
G01X2002810Y-1320952D01*
G01X1979710Y-1319650D01*
G01X1956903Y-1315757D01*
G01X1934678Y-1309326D01*
G01X1930334Y-1308100D01*
G01X1939456Y-1304793D01*
G01X1947356Y-1299158D01*
G01X1953453Y-1291609D01*
G01X1957300Y-1282701D01*
G01X1958614Y-1273087D01*
G01X1958614Y-1192440D01*
G01X1956942Y-1181625D01*
G01X1952083Y-1171820D01*
G01X1944489Y-1163940D01*
G01X1934870Y-1158721D01*
G01X1944698Y-1155883D01*
G01X1953322Y-1150383D01*
G01X1960040Y-1142669D01*
G01X1964304Y-1133371D01*
G01X1965764Y-1123246D01*
G01X1965764Y-1043247D01*
G01X1964012Y-1032179D01*
G01X1958925Y-1022196D01*
G01X1951001Y-1014272D01*
G01X1941018Y-1009185D01*
G01X1929950Y-1007433D01*
G01X1829951Y-1007433D01*
G01X1818883Y-1009185D01*
G01X1808900Y-1014272D01*
G01X1800976Y-1022196D01*
G01X1795889Y-1032179D01*
G01X1794137Y-1043247D01*
G01X1794137Y-1123246D01*
G01X1795569Y-1133274D01*
G01X1799752Y-1142500D01*
G01X1806351Y-1150186D01*
G01X1814838Y-1155716D01*
G01X1824534Y-1158648D01*
G01X1814841Y-1163842D01*
G01X1807180Y-1171731D01*
G01X1802274Y-1181573D01*
G01X1800586Y-1192440D01*
G01X1800586Y-1273087D01*
G01X1801900Y-1282701D01*
G01X1805747Y-1291609D01*
G01X1811844Y-1299158D01*
G01X1819744Y-1304793D01*
G01X1828866Y-1308100D01*
G01X1818797Y-1311923D01*
G01X1803376Y-1319305D01*
G01X1787102Y-1324548D01*
G01X1767712Y-1319872D01*
G01X1775707Y-1311941D01*
G01X1780843Y-1301919D01*
G01X1782614Y-1290798D01*
G01X1782614Y-1210798D01*
G01X1780861Y-1199731D01*
G01X1775774Y-1189747D01*
G01X1767851Y-1181824D01*
G01X1757867Y-1176737D01*
G01X1746800Y-1174984D01*
G01X1656800Y-1174984D01*
G01X1645733Y-1176737D01*
G01X1635749Y-1181824D01*
G01X1627826Y-1189747D01*
G01X1622739Y-1199731D01*
G01X1620986Y-1210798D01*
G01X1620986Y-1290798D01*
G01X1622757Y-1301919D01*
G01X1627893Y-1311941D01*
G01X1635888Y-1319872D01*
G01X1612900Y-1325205D01*
G01X1589912Y-1319872D01*
G01X1597907Y-1311941D01*
G01X1603043Y-1301919D01*
G01X1604814Y-1290798D01*
G01X1604814Y-1210798D01*
G01X1603061Y-1199731D01*
G01X1597974Y-1189747D01*
G01X1590051Y-1181824D01*
G01X1580067Y-1176737D01*
G01X1569000Y-1174984D01*
G01X1479000Y-1174984D01*
G01X1467933Y-1176737D01*
G01X1457949Y-1181824D01*
G01X1450026Y-1189747D01*
G01X1444939Y-1199731D01*
G01X1443186Y-1210798D01*
G01X1443186Y-1290798D01*
G01X1445131Y-1302438D01*
G01X1450753Y-1312814D01*
G01X1459443Y-1320800D01*
G01X1450753Y-1328786D01*
G01X1445131Y-1339162D01*
G01X1443186Y-1350802D01*
G01X1443186Y-1430802D01*
G01X1444348Y-1439851D01*
G01X1447759Y-1448313D01*
G01X1453196Y-1455638D01*
G01X1447318Y-1461516D01*
G01X1380548Y-1461516D01*
G01X1381102Y-1455242D01*
G01X1381102Y-1344752D01*
G01X1379349Y-1333685D01*
G01X1374262Y-1323701D01*
G01X1366339Y-1315778D01*
G01X1356355Y-1310691D01*
G01X1345288Y-1308938D01*
G01X1283058Y-1308938D01*
G01X1271991Y-1310691D01*
G01X1262007Y-1315778D01*
G01X1254084Y-1323701D01*
G01X1248997Y-1333685D01*
G01X1247244Y-1344752D01*
G01X1247244Y-1455242D01*
G01X1248278Y-1463785D01*
G01X1250833Y-1477776D01*
G01X1251689Y-1491973D01*
G01X1252891Y-1504167D01*
G01X1256448Y-1515892D01*
G01X1262226Y-1526697D01*
G01X1270001Y-1536167D01*
G01X1302017Y-1568183D01*
G01X1311486Y-1575954D01*
G01X1322288Y-1581728D01*
G01X1334010Y-1585283D01*
G01X1346200Y-1586484D01*
G01X1473200Y-1586484D01*
G01X1485390Y-1585283D01*
G01X1497112Y-1581728D01*
G01X1507914Y-1575954D01*
G01X1517383Y-1568183D01*
G01X1568183Y-1517383D01*
G01X1575954Y-1507914D01*
G01X1581728Y-1497112D01*
G01X1585283Y-1485390D01*
G01X1586484Y-1473200D01*
G01X1587274Y-1467306D01*
G01X1589588Y-1461828D01*
G01X1612900Y-1456400D01*
G01X1630395Y-1460210D01*
G01X1635329Y-1476693D01*
G01X1638316Y-1493636D01*
G01X1639316Y-1510812D01*
G01X1639316Y-1570587D01*
G01X1639078Y-1578242D01*
G01X1638598Y-1583728D01*
G01X1631104Y-1598218D01*
G01X1626882Y-1613976D01*
G01X1626130Y-1630271D01*
G01X1628881Y-1646351D01*
G01X1635008Y-1661470D01*
G01X1644228Y-1674928D01*
G01X1656113Y-1686102D01*
G01X1670114Y-1694475D01*
G01X1685581Y-1699659D01*
G01X1701800Y-1701414D01*
G01X1718019Y-1699659D01*
G01X1733486Y-1694475D01*
G01X1747487Y-1686102D01*
G01X1759372Y-1674928D01*
G01X1768592Y-1661470D01*
G01X1774719Y-1646351D01*
G01X1777470Y-1630271D01*
G01X1776718Y-1613976D01*
G01X1772496Y-1598218D01*
G01X1765002Y-1583728D01*
G01X1764522Y-1578242D01*
G01X1764284Y-1570587D01*
G01X1764284Y-1510812D01*
G01X1765284Y-1493636D01*
G01X1768271Y-1476693D01*
G01X1773205Y-1460210D01*
G01X1798693Y-1455168D01*
G01X1830805Y-1459135D01*
G01X1836400Y-1459574D01*
G01X1922800Y-1459574D01*
G01X1928825Y-1459064D01*
G01X1934678Y-1457547D01*
G01X1956903Y-1451115D01*
G01X1979710Y-1447223D01*
G01X2002810Y-1445920D01*
G01X2070964Y-1445920D01*
G01X2083154Y-1444720D01*
G01X2094875Y-1441164D01*
G01X2105678Y-1435390D01*
G01X2115146Y-1427619D01*
G01X2177783Y-1364983D01*
G01X2185554Y-1355514D01*
G01X2191328Y-1344712D01*
G01X2194883Y-1332990D01*
G01X2196084Y-1320800D01*
G01X2196084Y-1016482D01*
G01X2235682Y-976884D01*
G01X2352971Y-976884D01*
G01X2375976Y-978222D01*
G01X2398671Y-982218D01*
G01X2420749Y-988817D01*
G01X2425447Y-990169D01*
G01X2416325Y-993477D01*
G01X2408425Y-999111D01*
G01X2402328Y-1006660D01*
G01X2398481Y-1015568D01*
G01X2397167Y-1025182D01*
G01X2397167Y-1105829D01*
G01X2398666Y-1116083D01*
G01X2403038Y-1125478D01*
G01X2409917Y-1133228D01*
G01X2418726Y-1138684D01*
G01X2428729Y-1141390D01*
G01X2428729Y-1150632D01*
G01X2417835Y-1155320D01*
G01X2409069Y-1163309D01*
G01X2403393Y-1173723D01*
G01X2401429Y-1185419D01*
G01X2401429Y-1265419D01*
G01X2403434Y-1277233D01*
G01X2409224Y-1287725D01*
G01X2418150Y-1295719D01*
G01X2429215Y-1300321D01*
G01X2418159Y-1304928D01*
G01X2409241Y-1312922D01*
G01X2403457Y-1323410D01*
G01X2401454Y-1335218D01*
G01X2401454Y-1415218D01*
G01X2403354Y-1426727D01*
G01X2408851Y-1437015D01*
G01X2417363Y-1444991D01*
G01X2427986Y-1449808D01*
G01X2427986Y-2659605D01*
G01X2400093Y-2687498D01*
G01X2245309Y-2687498D01*
G01X2245309Y-2686012D01*
G01X2244127Y-2676887D01*
G01X2240659Y-2668364D01*
G01X2235134Y-2661006D01*
G01X2240659Y-2653648D01*
G01X2244127Y-2645125D01*
G01X2245309Y-2635999D01*
G01X2245309Y-2535999D01*
G01X2244129Y-2526880D01*
G01X2240665Y-2518361D01*
G01X2235146Y-2511006D01*
G01X2240665Y-2503650D01*
G01X2244129Y-2495132D01*
G01X2245309Y-2486012D01*
G01X2245309Y-2386012D01*
G01X2244127Y-2376887D01*
G01X2240659Y-2368364D01*
G01X2235134Y-2361006D01*
G01X2240659Y-2353648D01*
G01X2244127Y-2345125D01*
G01X2245309Y-2336000D01*
G01X2245309Y-2236000D01*
G01X2244129Y-2226880D01*
G01X2240665Y-2218362D01*
G01X2235146Y-2211006D01*
G01X2240665Y-2203651D01*
G01X2244129Y-2195133D01*
G01X2245309Y-2186013D01*
G01X2245309Y-2086013D01*
G01X2244127Y-2076888D01*
G01X2240659Y-2068365D01*
G01X2235134Y-2061007D01*
G01X2240659Y-2053649D01*
G01X2244127Y-2045126D01*
G01X2245309Y-2036000D01*
G01X2245309Y-2034738D01*
G01X2247595Y-2034515D01*
G01X2290644Y-2034515D01*
G01X2292217Y-2035380D01*
G01X2294373Y-2036966D01*
G01X2306902Y-2045192D01*
G01X2320958Y-2050395D01*
G01X2335824Y-2052307D01*
G01X2350739Y-2050833D01*
G01X2364943Y-2046047D01*
G01X2377709Y-2038193D01*
G01X2388385Y-2027673D01*
G01X2396425Y-2015024D01*
G01X2401420Y-2000893D01*
G01X2403114Y-1986001D01*
G01X2401420Y-1971108D01*
G01X2396425Y-1956977D01*
G01X2388385Y-1944328D01*
G01X2377709Y-1933808D01*
G01X2364943Y-1925954D01*
G01X2350739Y-1921168D01*
G01X2335824Y-1919694D01*
G01X2320958Y-1921607D01*
G01X2306902Y-1926809D01*
G01X2294373Y-1935035D01*
G01X2292217Y-1936621D01*
G01X2290644Y-1937487D01*
G01X2247595Y-1937487D01*
G01X2245309Y-1937263D01*
G01X2245309Y-1936001D01*
G01X2244129Y-1926881D01*
G01X2240665Y-1918363D01*
G01X2235146Y-1911007D01*
G01X2240665Y-1903652D01*
G01X2244129Y-1895133D01*
G01X2245309Y-1886013D01*
G01X2245309Y-1884751D01*
G01X2247595Y-1884528D01*
G01X2290644Y-1884528D01*
G01X2292217Y-1885393D01*
G01X2294373Y-1886979D01*
G01X2306902Y-1895205D01*
G01X2320958Y-1900408D01*
G01X2335824Y-1902320D01*
G01X2350739Y-1900846D01*
G01X2364943Y-1896060D01*
G01X2377709Y-1888206D01*
G01X2388385Y-1877686D01*
G01X2396425Y-1865037D01*
G01X2401420Y-1850906D01*
G01X2403114Y-1836014D01*
G01X2401420Y-1821121D01*
G01X2396425Y-1806990D01*
G01X2388385Y-1794341D01*
G01X2377709Y-1783821D01*
G01X2364943Y-1775967D01*
G01X2350739Y-1771181D01*
G01X2335824Y-1769707D01*
G01X2320958Y-1771620D01*
G01X2306902Y-1776822D01*
G01X2294373Y-1785048D01*
G01X2292217Y-1786634D01*
G01X2290644Y-1787500D01*
G01X2247595Y-1787500D01*
G01X2245309Y-1787276D01*
G01X2245309Y-1786014D01*
G01X2244127Y-1776888D01*
G01X2240659Y-1768365D01*
G01X2235134Y-1761007D01*
G01X2240659Y-1753649D01*
G01X2244127Y-1745126D01*
G01X2245309Y-1736001D01*
G01X2245309Y-1636001D01*
G01X2243556Y-1624934D01*
G01X2238469Y-1614950D01*
G01X2230546Y-1607027D01*
G01X2220562Y-1601940D01*
G01X2209495Y-1600187D01*
G01X2009496Y-1600187D01*
G01X1998428Y-1601940D01*
G01X1988445Y-1607027D01*
G01X1980521Y-1614950D01*
G01X1975434Y-1624934D01*
G01X1973682Y-1636001D01*
G01X1973682Y-1736001D01*
G01X1974864Y-1745126D01*
G01X1978332Y-1753649D01*
G01X1983857Y-1761007D01*
G01X1978332Y-1768365D01*
G01X1974864Y-1776888D01*
G01X1973682Y-1786014D01*
G01X1973682Y-1886013D01*
G01X1974862Y-1895133D01*
G01X1978326Y-1903652D01*
G01X1983845Y-1911007D01*
G01X1978326Y-1918363D01*
G01X1974862Y-1926881D01*
G01X1973682Y-1936001D01*
G01X1973682Y-2036000D01*
G01X1974864Y-2045126D01*
G01X1978332Y-2053649D01*
G01X1983857Y-2061007D01*
G01X1978332Y-2068365D01*
G01X1974864Y-2076888D01*
G01X1973682Y-2086013D01*
G01X1973682Y-2088630D01*
G01X1960800Y-2093458D01*
G01X1949791Y-2101708D01*
G01X1909999Y-2141501D01*
G01X1902816Y-2140966D01*
G01X1841275Y-2140966D01*
G01X1780809Y-2080499D01*
G01X1777074Y-2077133D01*
G01X1777074Y-2071604D01*
G01X1775321Y-2060537D01*
G01X1770234Y-2050553D01*
G01X1762311Y-2042630D01*
G01X1752327Y-2037543D01*
G01X1741260Y-2035790D01*
G01X1660613Y-2035790D01*
G01X1650999Y-2037104D01*
G01X1642091Y-2040951D01*
G01X1634542Y-2047048D01*
G01X1628907Y-2054948D01*
G01X1625600Y-2064070D01*
G01X1622293Y-2054948D01*
G01X1616658Y-2047048D01*
G01X1609109Y-2040951D01*
G01X1600201Y-2037104D01*
G01X1590587Y-2035790D01*
G01X1509940Y-2035790D01*
G01X1498873Y-2037543D01*
G01X1488889Y-2042630D01*
G01X1480966Y-2050553D01*
G01X1475879Y-2060537D01*
G01X1474126Y-2071604D01*
G01X1474126Y-2077133D01*
G01X1470391Y-2080499D01*
G01X1422625Y-2128266D01*
G01X1396775Y-2128266D01*
G01X1336309Y-2067799D01*
G01X1326861Y-2060442D01*
G01X1315899Y-2055622D01*
G01X1307922Y-2047098D01*
G01X1297628Y-2041593D01*
G01X1286110Y-2039690D01*
G01X1180084Y-2039690D01*
G01X1180084Y-1981200D01*
G01X1178883Y-1969010D01*
G01X1175328Y-1957288D01*
G01X1169554Y-1946486D01*
G01X1161783Y-1937017D01*
G01X1099591Y-1874825D01*
G01X1090122Y-1867055D01*
G01X1079320Y-1861280D01*
G01X1067598Y-1857725D01*
G01X1055408Y-1856524D01*
G01X1025839Y-1856524D01*
G01X1013623Y-1834899D01*
G01X1003801Y-1812087D01*
G01X996487Y-1788352D01*
G01X991764Y-1763968D01*
G01X989687Y-1739218D01*
G01X991687Y-1718722D01*
G01X996209Y-1698630D01*
G01X1003182Y-1679253D01*
G01X1005374Y-1672306D01*
G01X1006114Y-1665060D01*
G01X1006114Y-1584413D01*
G01X1004800Y-1574799D01*
G01X1000953Y-1565891D01*
G01X994856Y-1558342D01*
G01X986956Y-1552707D01*
G01X977834Y-1549400D01*
G01X986956Y-1546093D01*
G01X994856Y-1540458D01*
G01X1000953Y-1532909D01*
G01X1004800Y-1524001D01*
G01X1006114Y-1514387D01*
G01X1006114Y-1455242D01*
G01X1057303Y-1455242D01*
G01X1059056Y-1466309D01*
G01X1064143Y-1476293D01*
G01X1072066Y-1484216D01*
G01X1082050Y-1489303D01*
G01X1093117Y-1491056D01*
G01X1155347Y-1491056D01*
G01X1166414Y-1489303D01*
G01X1176398Y-1484216D01*
G01X1184321Y-1476293D01*
G01X1189408Y-1466309D01*
G01X1191161Y-1455242D01*
G01X1191161Y-1344752D01*
G01X1191161Y-1344752D01*
G01X1189408Y-1333685D01*
G01X1184321Y-1323701D01*
G01X1176398Y-1315778D01*
G01X1166414Y-1310691D01*
G01X1155347Y-1308938D01*
G01X1093117Y-1308938D01*
G01X1082050Y-1310691D01*
G01X1072066Y-1315778D01*
G01X1064143Y-1323701D01*
G01X1059056Y-1333685D01*
G01X1057303Y-1344752D01*
G01X1057303Y-1455242D01*
G01X1006114Y-1455242D01*
G01X1006114Y-1433740D01*
G01X1005374Y-1426494D01*
G01X1003182Y-1419547D01*
G01X995674Y-1398293D01*
G01X991114Y-1376219D01*
G01X989584Y-1353730D01*
G01X989584Y-1308100D01*
G01X988383Y-1295910D01*
G01X984828Y-1284188D01*
G01X979054Y-1273386D01*
G01X971283Y-1263917D01*
G01X891082Y-1183717D01*
G01X878990Y-1174286D01*
G01X864965Y-1168084D01*
G01X849851Y-1165485D01*
G01X842898Y-1160905D01*
G01X835075Y-1158053D01*
G01X826806Y-1157086D01*
G01X646806Y-1157086D01*
G01X635739Y-1158838D01*
G01X625755Y-1163925D01*
G01X617832Y-1171849D01*
G01X612745Y-1181832D01*
G01X610992Y-1192900D01*
G01X610992Y-1262899D01*
G01X612745Y-1273967D01*
G01X617832Y-1283950D01*
G01X625755Y-1291874D01*
G01X635739Y-1296961D01*
G01X646806Y-1298713D01*
G01X826806Y-1298713D01*
G01X829263Y-1298629D01*
G01X864616Y-1333982D01*
G01X864616Y-1353730D01*
G01X863086Y-1376219D01*
G01X858526Y-1398293D01*
G01X851018Y-1419547D01*
G01X848826Y-1426494D01*
G01X848086Y-1433740D01*
G01X848086Y-1514387D01*
G01X849400Y-1524001D01*
G01X853247Y-1532909D01*
G01X859344Y-1540458D01*
G01X867244Y-1546093D01*
G01X876366Y-1549400D01*
G01X867244Y-1552707D01*
G01X859344Y-1558342D01*
G01X853247Y-1565891D01*
G01X849400Y-1574799D01*
G01X848086Y-1584413D01*
G01X848086Y-1665060D01*
G01X848826Y-1672306D01*
G01X851018Y-1679253D01*
G01X857991Y-1698630D01*
G01X862513Y-1718722D01*
G01X864513Y-1739218D01*
G01X862437Y-1763962D01*
G01X857716Y-1788340D01*
G01X850405Y-1812070D01*
G01X840587Y-1834877D01*
G01X828377Y-1856498D01*
G01X798217Y-1856268D01*
G01X798217Y-1811498D01*
G01X796405Y-1800251D01*
G01X791153Y-1790142D01*
G01X782993Y-1782194D01*
G01X772749Y-1777211D01*
G01X781205Y-1761513D01*
G01X786431Y-1744465D01*
G01X788225Y-1726725D01*
G01X786519Y-1708977D01*
G01X781377Y-1691904D01*
G01X772998Y-1676164D01*
G01X761706Y-1662366D01*
G01X747935Y-1651039D01*
G01X732216Y-1642622D01*
G01X715156Y-1637438D01*
G01X697412Y-1635688D01*
G01X607412Y-1635688D01*
G01X588841Y-1637607D01*
G01X571055Y-1643283D01*
G01X554806Y-1652476D01*
G01X540780Y-1664798D01*
G01X529570Y-1679727D01*
G01X521650Y-1696634D01*
G01X517355Y-1714802D01*
G01X516865Y-1733466D01*
G01X520203Y-1751834D01*
G01X527226Y-1769133D01*
G01X537638Y-1784629D01*
G01X550999Y-1797669D01*
G01X566745Y-1807701D01*
G01X554260Y-1816284D01*
G01X543887Y-1827327D01*
G01X536101Y-1840324D01*
G01X531257Y-1854679D01*
G01X529578Y-1869736D01*
G01X531140Y-1884806D01*
G01X535872Y-1899199D01*
G01X490687Y-1899199D01*
G01X478131Y-1900852D01*
G01X466430Y-1905698D01*
G01X456383Y-1913408D01*
G01X435595Y-1934195D01*
G01X427886Y-1944243D01*
G01X423039Y-1955944D01*
G01X421386Y-1968500D01*
G01X421386Y-2108200D01*
G01X423039Y-2120756D01*
G01X427886Y-2132457D01*
G01X435595Y-2142505D01*
G01X460995Y-2167905D01*
G01X471043Y-2175614D01*
G01X482744Y-2180461D01*
G01X495300Y-2182114D01*
G01X499944Y-2182114D01*
G01X501517Y-2182980D01*
G01X503673Y-2184566D01*
G01X511297Y-2190048D01*
G01X519620Y-2194398D01*
G01X508411Y-2204789D01*
G01X499879Y-2217471D01*
G01X494478Y-2231769D01*
G01X492493Y-2246924D01*
G01X494031Y-2262131D01*
G01X499010Y-2276582D01*
G01X507165Y-2289510D01*
G01X518063Y-2300226D01*
G01X531125Y-2308163D01*
G01X545658Y-2312899D01*
G01X560889Y-2314181D01*
G01X576008Y-2311942D01*
G01X577888Y-2324005D01*
G01X582720Y-2335217D01*
G01X590198Y-2344867D01*
G01X606542Y-2361211D01*
G01X616679Y-2368972D01*
G01X616589Y-2371517D01*
G01X616589Y-2379076D01*
G01X602182Y-2377221D01*
G01X587699Y-2378346D01*
G01X573751Y-2382401D01*
G01X560923Y-2389218D01*
G01X549757Y-2398508D01*
G01X540721Y-2409882D01*
G01X534195Y-2422859D01*
G01X530456Y-2436896D01*
G01X529658Y-2451400D01*
G01X531837Y-2465762D01*
G01X536901Y-2479377D01*
G01X544636Y-2491672D01*
G01X554717Y-2502130D01*
G01X566720Y-2510311D01*
G01X550980Y-2520347D01*
G01X537624Y-2533389D01*
G01X527216Y-2548886D01*
G01X520198Y-2566184D01*
G01X516864Y-2584551D01*
G01X517357Y-2603212D01*
G01X521654Y-2621378D01*
G01X529575Y-2638282D01*
G01X540786Y-2653208D01*
G01X554811Y-2665528D01*
G01X571059Y-2674719D01*
G01X588843Y-2680394D01*
G01X607412Y-2682312D01*
G01X697412Y-2682312D01*
G01X715156Y-2680562D01*
G01X732216Y-2675378D01*
G01X747935Y-2666961D01*
G01X761706Y-2655634D01*
G01X772998Y-2641836D01*
G01X781377Y-2626096D01*
G01X786519Y-2609023D01*
G01X788225Y-2591275D01*
G01X786431Y-2573535D01*
G01X781205Y-2556487D01*
G01X772749Y-2540789D01*
G01X782993Y-2535806D01*
G01X791153Y-2527858D01*
G01X796405Y-2517749D01*
G01X798217Y-2506502D01*
G01X798217Y-2462782D01*
G01X842008Y-2462782D01*
G01X1066800Y-2462784D01*
G01X1078990Y-2461583D01*
G01X1090712Y-2458028D01*
G01X1101514Y-2452254D01*
G01X1110983Y-2444483D01*
G01X1161783Y-2393683D01*
G01X1170858Y-2382179D01*
G01X1177004Y-2368877D01*
G01X1179883Y-2354510D01*
G01X1286110Y-2354510D01*
G01X1297628Y-2352607D01*
G01X1307922Y-2347102D01*
G01X1315899Y-2338578D01*
G01X1326861Y-2333758D01*
G01X1336309Y-2326401D01*
G01X1366295Y-2296414D01*
G01X1387065Y-2296414D01*
G01X1429751Y-2339101D01*
G01X1439799Y-2346810D01*
G01X1451500Y-2351657D01*
G01X1464056Y-2353310D01*
G01X1471840Y-2353310D01*
G01X1474572Y-2353630D01*
G01X1477545Y-2363268D01*
G01X1483088Y-2371695D01*
G01X1490760Y-2378242D01*
G01X1499954Y-2382390D01*
G01X1509940Y-2383810D01*
G01X1590587Y-2383810D01*
G01X1600201Y-2382496D01*
G01X1609109Y-2378649D01*
G01X1616658Y-2372552D01*
G01X1622293Y-2364652D01*
G01X1625600Y-2355530D01*
G01X1628907Y-2364652D01*
G01X1634542Y-2372552D01*
G01X1642091Y-2378649D01*
G01X1650999Y-2382496D01*
G01X1660613Y-2383810D01*
G01X1689182Y-2383810D01*
G01X1678954Y-2386330D01*
G01X1669511Y-2390997D01*
G01X1661298Y-2397593D01*
G01X1626726Y-2432165D01*
G01X1619016Y-2442213D01*
G01X1614170Y-2453913D01*
G01X1612516Y-2466470D01*
G01X1612516Y-2640245D01*
G01X1612196Y-2642977D01*
G01X1602558Y-2645950D01*
G01X1594132Y-2651493D01*
G01X1587585Y-2659166D01*
G01X1583436Y-2668359D01*
G01X1582016Y-2678345D01*
G01X1582016Y-2758992D01*
G01X1583331Y-2768606D01*
G01X1587178Y-2777514D01*
G01X1593275Y-2785063D01*
G01X1601174Y-2790698D01*
G01X1610296Y-2794005D01*
G01X1601174Y-2797313D01*
G01X1593275Y-2802947D01*
G01X1587178Y-2810496D01*
G01X1583331Y-2819404D01*
G01X1582016Y-2829018D01*
G01X1582016Y-2841767D01*
G01X1579730Y-2841991D01*
G01X1570883Y-2841991D01*
G01X1563121Y-2840582D01*
G01X1556348Y-2836535D01*
G01X1549282Y-2831717D01*
G01X1541275Y-2828712D01*
G01X1532783Y-2827691D01*
G01X1472783Y-2827691D01*
G01X1464745Y-2828604D01*
G01X1457117Y-2831299D01*
G01X1450288Y-2835637D01*
G01X1443459Y-2831299D01*
G01X1435831Y-2828604D01*
G01X1427792Y-2827691D01*
G01X1367793Y-2827691D01*
G01X1359301Y-2828712D01*
G01X1351294Y-2831717D01*
G01X1344228Y-2836535D01*
G01X1338935Y-2839965D01*
G01X1332888Y-2841758D01*
G01X1326166Y-2835037D01*
G01X1316119Y-2827327D01*
G01X1304418Y-2822481D01*
G01X1291862Y-2820827D01*
G01X1262408Y-2820827D01*
G01X1259055Y-2820342D01*
G01X1255330Y-2811122D01*
G01X1249214Y-2803282D01*
G01X1241178Y-2797426D01*
G01X1231842Y-2794005D01*
G01X1240964Y-2790698D01*
G01X1248863Y-2785063D01*
G01X1254961Y-2777514D01*
G01X1258807Y-2768606D01*
G01X1260122Y-2758992D01*
G01X1260122Y-2678345D01*
G01X1259381Y-2671099D01*
G01X1259195Y-2670508D01*
G01X1331979Y-2670508D01*
G01X1331979Y-2724508D01*
G01X1333731Y-2735575D01*
G01X1338818Y-2745559D01*
G01X1346742Y-2753482D01*
G01X1356725Y-2758569D01*
G01X1367793Y-2760322D01*
G01X1427792Y-2760322D01*
G01X1435831Y-2759408D01*
G01X1443459Y-2756714D01*
G01X1450288Y-2752376D01*
G01X1457117Y-2756714D01*
G01X1464745Y-2759408D01*
G01X1472783Y-2760322D01*
G01X1472783Y-2760322D01*
G01X1532783Y-2760322D01*
G01X1543850Y-2758569D01*
G01X1553834Y-2753482D01*
G01X1561757Y-2745559D01*
G01X1566844Y-2735575D01*
G01X1568597Y-2724508D01*
G01X1568597Y-2670508D01*
G01X1566844Y-2659441D01*
G01X1561757Y-2649457D01*
G01X1553834Y-2641534D01*
G01X1543850Y-2636447D01*
G01X1532783Y-2634694D01*
G01X1472783Y-2634694D01*
G01X1464745Y-2635608D01*
G01X1457117Y-2638302D01*
G01X1450288Y-2642640D01*
G01X1443459Y-2638302D01*
G01X1435831Y-2635608D01*
G01X1427792Y-2634694D01*
G01X1367793Y-2634694D01*
G01X1356725Y-2636447D01*
G01X1346742Y-2641534D01*
G01X1338818Y-2649457D01*
G01X1333731Y-2659441D01*
G01X1331979Y-2670508D01*
G01X1259195Y-2670508D01*
G01X1257190Y-2664152D01*
G01X1249682Y-2642898D01*
G01X1245121Y-2620824D01*
G01X1243592Y-2598335D01*
G01X1243592Y-2558963D01*
G01X1243829Y-2551307D01*
G01X1244310Y-2545822D01*
G01X1251804Y-2531332D01*
G01X1256025Y-2515574D01*
G01X1256778Y-2499278D01*
G01X1254027Y-2483199D01*
G01X1247899Y-2468080D01*
G01X1238680Y-2454622D01*
G01X1226794Y-2443448D01*
G01X1212794Y-2435075D01*
G01X1197326Y-2429891D01*
G01X1181108Y-2428135D01*
G01X1164889Y-2429891D01*
G01X1149421Y-2435075D01*
G01X1135421Y-2443448D01*
G01X1123536Y-2454622D01*
G01X1114316Y-2468080D01*
G01X1108189Y-2483199D01*
G01X1105438Y-2499278D01*
G01X1106190Y-2515574D01*
G01X1110411Y-2531332D01*
G01X1117906Y-2545822D01*
G01X1118386Y-2551307D01*
G01X1118624Y-2558963D01*
G01X1118624Y-2598335D01*
G01X1117094Y-2620824D01*
G01X1112533Y-2642898D01*
G01X1105026Y-2664152D01*
G01X1102834Y-2671099D01*
G01X1102093Y-2678345D01*
G01X1102093Y-2758992D01*
G01X1103408Y-2768606D01*
G01X1107255Y-2777514D01*
G01X1113352Y-2785063D01*
G01X1121251Y-2790698D01*
G01X1130373Y-2794005D01*
G01X1121037Y-2797426D01*
G01X1113001Y-2803282D01*
G01X1106885Y-2811122D01*
G01X1103160Y-2820342D01*
G01X1099807Y-2820827D01*
G01X1096430Y-2820827D01*
G01X1093979Y-2820570D01*
G01X1091384Y-2810224D01*
G01X1085857Y-2801101D01*
G01X1077888Y-2794010D01*
G01X1086578Y-2786025D01*
G01X1092200Y-2775648D01*
G01X1094144Y-2764008D01*
G01X1094144Y-2684008D01*
G01X1092392Y-2672941D01*
G01X1087305Y-2662957D01*
G01X1079381Y-2655034D01*
G01X1069398Y-2649947D01*
G01X1058330Y-2648194D01*
G01X968331Y-2648194D01*
G01X957263Y-2649947D01*
G01X947280Y-2655034D01*
G01X939356Y-2662957D01*
G01X934269Y-2672941D01*
G01X932517Y-2684008D01*
G01X932517Y-2764008D01*
G01X934461Y-2775648D01*
G01X940083Y-2786025D01*
G01X948773Y-2794010D01*
G01X942053Y-2799679D01*
G01X936916Y-2806814D01*
G01X933673Y-2814986D01*
G01X930231Y-2815499D01*
G01X918630Y-2815499D01*
G01X915188Y-2814986D01*
G01X911945Y-2806814D01*
G01X906808Y-2799679D01*
G01X900088Y-2794010D01*
G01X908778Y-2786025D01*
G01X914400Y-2775648D01*
G01X916344Y-2764008D01*
G01X916344Y-2684008D01*
G01X914592Y-2672941D01*
G01X909505Y-2662957D01*
G01X901581Y-2655034D01*
G01X891598Y-2649947D01*
G01X880530Y-2648194D01*
G01X790531Y-2648194D01*
G01X779463Y-2649947D01*
G01X769480Y-2655034D01*
G01X761556Y-2662957D01*
G01X756469Y-2672941D01*
G01X754717Y-2684008D01*
G01X754717Y-2764008D01*
G01X756661Y-2775648D01*
G01X762283Y-2786025D01*
G01X770973Y-2794010D01*
G01X762283Y-2801996D01*
G01X756661Y-2812372D01*
G01X754717Y-2824013D01*
G01X754717Y-2904012D01*
G01X756469Y-2915080D01*
G01X761556Y-2925063D01*
G01X769480Y-2932987D01*
G01X779463Y-2938074D01*
G01X790531Y-2939826D01*
G01X880530Y-2939826D01*
G01X892102Y-2937906D01*
G01X902432Y-2932349D01*
G01X910413Y-2923753D01*
G01X915188Y-2913039D01*
G01X918630Y-2912527D01*
G01X930231Y-2912527D01*
G01X933673Y-2913039D01*
G01X938448Y-2923753D01*
G01X946429Y-2932349D01*
G01X956759Y-2937906D01*
G01X968331Y-2939826D01*
G01X1058330Y-2939826D01*
G01X1068301Y-2938410D01*
G01X1077484Y-2934274D01*
G01X1085152Y-2927745D01*
G01X1090699Y-2919339D01*
G01X1096430Y-2917855D01*
G01X1099807Y-2917855D01*
G01X1103160Y-2918341D01*
G01X1107876Y-2929179D01*
G01X1115863Y-2937891D01*
G01X1126250Y-2943529D01*
G01X1137907Y-2945479D01*
G01X1224308Y-2945479D01*
G01X1235965Y-2943529D01*
G01X1246352Y-2937891D01*
G01X1254339Y-2929179D01*
G01X1259055Y-2918341D01*
G01X1262408Y-2917855D01*
G01X1271767Y-2917855D01*
G01X1278720Y-2924809D01*
G01X1288768Y-2932519D01*
G01X1300469Y-2937366D01*
G01X1313025Y-2939019D01*
G01X1329693Y-2939019D01*
G01X1337455Y-2940428D01*
G01X1344228Y-2944474D01*
G01X1351294Y-2949292D01*
G01X1359301Y-2952298D01*
G01X1367793Y-2953319D01*
G01X1427792Y-2953319D01*
G01X1435831Y-2952405D01*
G01X1443459Y-2949711D01*
G01X1450288Y-2945372D01*
G01X1457117Y-2949711D01*
G01X1464745Y-2952405D01*
G01X1472783Y-2953319D01*
G01X1532783Y-2953319D01*
G01X1541275Y-2952298D01*
G01X1549282Y-2949292D01*
G01X1556348Y-2944474D01*
G01X1563121Y-2940428D01*
G01X1570883Y-2939019D01*
G01X1579730Y-2939019D01*
G01X1593065Y-2940141D01*
G01X1606024Y-2943477D01*
G01X1617830Y-2945479D01*
G01X1704231Y-2945479D01*
G01X1715388Y-2943697D01*
G01X1725435Y-2938527D01*
G01X1732697Y-2948462D01*
G01X1741470Y-2957090D01*
G01X1751524Y-2964186D01*
G01X100000Y-2964186D01*
G01X85717Y-2962577D01*
G01X72151Y-2957830D01*
G01X59981Y-2950183D01*
G01X49817Y-2940019D01*
G01X42170Y-2927849D01*
G01X37423Y-2914283D01*
G01X35814Y-2900000D01*
G01X35814Y-2591498D01*
G01X106583Y-2591498D01*
G01X108425Y-2610191D01*
G01X113877Y-2628165D01*
G01X122731Y-2644730D01*
G01X134647Y-2659249D01*
G01X149166Y-2671165D01*
G01X165731Y-2680019D01*
G01X183705Y-2685471D01*
G01X202397Y-2687312D01*
G01X262397Y-2687312D01*
G01X281090Y-2685471D01*
G01X299064Y-2680019D01*
G01X315629Y-2671165D01*
G01X330148Y-2659249D01*
G01X342064Y-2644730D01*
G01X350918Y-2628165D01*
G01X356370Y-2610191D01*
G01X358211Y-2591498D01*
G01X356370Y-2572806D01*
G01X350918Y-2554832D01*
G01X342064Y-2538267D01*
G01X330148Y-2523748D01*
G01X315629Y-2511832D01*
G01X299064Y-2502978D01*
G01X281090Y-2497526D01*
G01X262397Y-2495685D01*
G01X262397Y-2495685D01*
G01X202397Y-2495685D01*
G01X183705Y-2497526D01*
G01X165731Y-2502978D01*
G01X149166Y-2511832D01*
G01X134647Y-2523748D01*
G01X122731Y-2538267D01*
G01X113877Y-2554832D01*
G01X108425Y-2572806D01*
G01X106583Y-2591498D01*
G01X35814Y-2591498D01*
G01X35814Y-1726501D01*
G01X106583Y-1726501D01*
G01X108425Y-1745194D01*
G01X113877Y-1763168D01*
G01X122731Y-1779733D01*
G01X134647Y-1794252D01*
G01X149166Y-1806168D01*
G01X165731Y-1815022D01*
G01X183705Y-1820474D01*
G01X202397Y-1822315D01*
G01X262397Y-1822315D01*
G01X281090Y-1820474D01*
G01X299064Y-1815022D01*
G01X315629Y-1806168D01*
G01X330148Y-1794252D01*
G01X342064Y-1779733D01*
G01X350918Y-1763168D01*
G01X356370Y-1745194D01*
G01X358211Y-1726501D01*
G01X356370Y-1707809D01*
G01X350918Y-1689835D01*
G01X342064Y-1673270D01*
G01X330148Y-1658751D01*
G01X315629Y-1646835D01*
G01X299064Y-1637981D01*
G01X281090Y-1632529D01*
G01X262397Y-1630688D01*
G01X262397Y-1630688D01*
G01X202397Y-1630688D01*
G01X183705Y-1632529D01*
G01X165731Y-1637981D01*
G01X149166Y-1646835D01*
G01X134647Y-1658751D01*
G01X122731Y-1673270D01*
G01X113877Y-1689835D01*
G01X108425Y-1707809D01*
G01X106583Y-1726501D01*
G01X35814Y-1726501D01*
G01X35814Y-1298700D01*
G01X36794Y-1298713D01*
G01X216794Y-1298713D01*
G01X227861Y-1296961D01*
G01X237845Y-1291874D01*
G01X245768Y-1283950D01*
G01X250855Y-1273967D01*
G01X252608Y-1262899D01*
G01X252608Y-1192900D01*
G01X250855Y-1181832D01*
G01X245768Y-1171849D01*
G01X237845Y-1163925D01*
G01X227861Y-1158838D01*
G01X216794Y-1157086D01*
G01X36794Y-1157086D01*
G01X35814Y-1157099D01*
G01X35814Y-1048688D01*
G01X36794Y-1048701D01*
G01X216794Y-1048701D01*
G01X227861Y-1046948D01*
G01X237845Y-1041861D01*
G01X245768Y-1033938D01*
G01X250855Y-1023954D01*
G01X252608Y-1012887D01*
G01X252608Y-942887D01*
G01X250855Y-931820D01*
G01X245768Y-921836D01*
G01X237845Y-913913D01*
G01X227861Y-908826D01*
G01X216794Y-907073D01*
G01X36794Y-907073D01*
G01X35814Y-907087D01*
G01X35814Y-798701D01*
G01X36794Y-798714D01*
G01X216794Y-798714D01*
G01X227861Y-796962D01*
G01X237845Y-791875D01*
G01X245768Y-783951D01*
G01X250855Y-773968D01*
G01X252608Y-762900D01*
G01X610992Y-762900D01*
G01X612745Y-773968D01*
G01X617832Y-783951D01*
G01X625755Y-791875D01*
G01X635739Y-796962D01*
G01X646806Y-798714D01*
G01X826806Y-798714D01*
G01X836117Y-797483D01*
G01X850948Y-812314D01*
G01X847308Y-837097D01*
G01X841003Y-861340D01*
G01X832110Y-884757D01*
G01X820732Y-907073D01*
G01X646806Y-907073D01*
G01X635739Y-908826D01*
G01X625755Y-913913D01*
G01X617832Y-921836D01*
G01X612745Y-931820D01*
G01X610992Y-942887D01*
G01X610992Y-1012887D01*
G01X612745Y-1023954D01*
G01X617832Y-1033938D01*
G01X625755Y-1041861D01*
G01X635739Y-1046948D01*
G01X646806Y-1048701D01*
G01X826806Y-1048701D01*
G01X834183Y-1047933D01*
G01X870303Y-1042267D01*
G01X906816Y-1040371D01*
G01X1005290Y-1040371D01*
G01X1042269Y-1042019D01*
G01X1078954Y-1046950D01*
G01X1085300Y-1047516D01*
G01X1175300Y-1047516D01*
G01X1186911Y-1045582D01*
G01X1202892Y-1040802D01*
G01X1219200Y-1037300D01*
G01X1236695Y-1041110D01*
G01X1239301Y-1048944D01*
G01X1188138Y-1048944D01*
G01X1179703Y-1049951D01*
G01X1171743Y-1052917D01*
G01X1163782Y-1049951D01*
G01X1155347Y-1048944D01*
G01X1093117Y-1048944D01*
G01X1082050Y-1050697D01*
G01X1072066Y-1055784D01*
G01X1064143Y-1063707D01*
G01X1059056Y-1073691D01*
G01X1057303Y-1084758D01*
G01X1057303Y-1195248D01*
G01X1058562Y-1204660D01*
G01X1062250Y-1213410D01*
G01X1068107Y-1220883D01*
G01X1075723Y-1226554D01*
G01X1077498Y-1238853D01*
G01X1082339Y-1250297D01*
G01X1089927Y-1260137D01*
G01X1108695Y-1278905D01*
G01X1118743Y-1286614D01*
G01X1130444Y-1291461D01*
G01X1143000Y-1293114D01*
G01X1295400Y-1293114D01*
G01X1307956Y-1291461D01*
G01X1319657Y-1286614D01*
G01X1329705Y-1278905D01*
G01X1348478Y-1260131D01*
G01X1356066Y-1250294D01*
G01X1360906Y-1238851D01*
G01X1362682Y-1226554D01*
G01X1370298Y-1220883D01*
G01X1376155Y-1213410D01*
G01X1379843Y-1204660D01*
G01X1381102Y-1195248D01*
G01X1381102Y-1084758D01*
G01X1379885Y-1075502D01*
G01X1375225Y-1054943D01*
G01X1379594Y-1040866D01*
G01X1385342Y-1027294D01*
G01X1388010Y-1019700D01*
G01X1388914Y-1011702D01*
G01X1388914Y-963353D01*
G01X1793425Y-963353D01*
G01X1795178Y-974421D01*
G01X1800265Y-984404D01*
G01X1808188Y-992328D01*
G01X1818172Y-997415D01*
G01X1829239Y-999167D01*
G01X1929239Y-999167D01*
G01X1940306Y-997415D01*
G01X1950290Y-992328D01*
G01X1958213Y-984404D01*
G01X1963300Y-974421D01*
G01X1965053Y-963353D01*
G01X1965053Y-883354D01*
G01X1963300Y-872286D01*
G01X1958213Y-862303D01*
G01X1950290Y-854379D01*
G01X1940306Y-849292D01*
G01X1929239Y-847540D01*
G01X1829239Y-847540D01*
G01X1818172Y-849292D01*
G01X1808188Y-854379D01*
G01X1800265Y-862303D01*
G01X1795178Y-872286D01*
G01X1793425Y-883354D01*
G01X1793425Y-963353D01*
G01X1793425Y-963353D01*
G01X1388914Y-963353D01*
G01X1388914Y-931702D01*
G01X1386969Y-920062D01*
G01X1381347Y-909686D01*
G01X1372657Y-901700D01*
G01X1381347Y-893714D01*
G01X1386969Y-883338D01*
G01X1388914Y-871698D01*
G01X1388914Y-791698D01*
G01X1387161Y-780631D01*
G01X1382074Y-770647D01*
G01X1374151Y-762724D01*
G01X1364167Y-757637D01*
G01X1353100Y-755884D01*
G01X1263100Y-755884D01*
G01X1252033Y-757637D01*
G01X1242049Y-762724D01*
G01X1234126Y-770647D01*
G01X1229039Y-780631D01*
G01X1227286Y-791698D01*
G01X1227286Y-871698D01*
G01X1229057Y-882819D01*
G01X1234193Y-892841D01*
G01X1242188Y-900772D01*
G01X1219200Y-906105D01*
G01X1196212Y-900772D01*
G01X1204207Y-892841D01*
G01X1209343Y-882819D01*
G01X1211114Y-871698D01*
G01X1211114Y-791698D01*
G01X1209361Y-780631D01*
G01X1204274Y-770647D01*
G01X1196351Y-762724D01*
G01X1186367Y-757637D01*
G01X1175300Y-755884D01*
G01X1085300Y-755884D01*
G01X1074233Y-757637D01*
G01X1064249Y-762724D01*
G01X1056326Y-770647D01*
G01X1051239Y-780631D01*
G01X1049486Y-791698D01*
G01X1049486Y-871698D01*
G01X1051403Y-883257D01*
G01X1056948Y-893578D01*
G01X1065527Y-901558D01*
G01X1048671Y-908406D01*
G01X1031060Y-912975D01*
G01X1013002Y-915188D01*
G01X1000224Y-892356D01*
G01X990112Y-868225D01*
G01X982795Y-843105D01*
G01X978366Y-817319D01*
G01X976884Y-791197D01*
G01X976884Y-787400D01*
G01X975683Y-775210D01*
G01X972128Y-763488D01*
G01X966354Y-752686D01*
G01X958583Y-743217D01*
G01X899083Y-683718D01*
G01X889615Y-675947D01*
G01X878812Y-670173D01*
G01X867091Y-666617D01*
G01X854900Y-665416D01*
G01X850429Y-664768D01*
G01X846327Y-662874D01*
G01X846327Y-662874D01*
G01X836986Y-658564D01*
G01X826806Y-657087D01*
G01X646806Y-657087D01*
G01X635739Y-658839D01*
G01X625755Y-663926D01*
G01X617832Y-671850D01*
G01X612745Y-681833D01*
G01X610992Y-692901D01*
G01X610992Y-762900D01*
G01X252608Y-762900D01*
G01X252608Y-692901D01*
G01X250855Y-681833D01*
G01X245768Y-671850D01*
G01X237845Y-663926D01*
G01X227861Y-658839D01*
G01X216794Y-657087D01*
G01X36794Y-657087D01*
G01X35814Y-657100D01*
G01X35814Y-309513D01*
G01X54195Y-330164D01*
G01X75302Y-348020D01*
G01X98712Y-362725D01*
G01X123961Y-373987D01*
G01X150543Y-381581D01*
G01X177931Y-385356D01*
G01X205577Y-385235D01*
G01X232930Y-381223D01*
G01X259446Y-373398D01*
G01X284595Y-361917D01*
G01X307877Y-347008D01*
G01X328827Y-328969D01*
G37*
G36*
G01X838817Y-2210563D02*
G01X838817Y-2157450D01*
G01X838333Y-2150618D01*
G01X910990Y-2150618D01*
G01X918508Y-2151861D01*
G01X914609Y-2160820D01*
G01X913276Y-2170500D01*
G01X913276Y-2223700D01*
G01X914609Y-2233380D01*
G01X918508Y-2242339D01*
G01X910990Y-2243582D01*
G01X845044Y-2243582D01*
G01X833704Y-2232241D01*
G01X837521Y-2221700D01*
G01X838817Y-2210563D01*
G37*
G36*
G01X1669034Y-279182D02*
G01X1684079Y-283519D01*
G01X1697745Y-291161D01*
G01X1699128Y-292110D01*
G01X1690439Y-300096D01*
G01X1684816Y-310472D01*
G01X1682872Y-322113D01*
G01X1682872Y-402112D01*
G01X1684625Y-413180D01*
G01X1689712Y-423163D01*
G01X1697635Y-431087D01*
G01X1707619Y-436174D01*
G01X1718686Y-437926D01*
G01X1808686Y-437926D01*
G01X1819753Y-436174D01*
G01X1829737Y-431087D01*
G01X1837660Y-423163D01*
G01X1842747Y-413180D01*
G01X1844500Y-402112D01*
G01X1844500Y-385841D01*
G01X1851607Y-388145D01*
G01X1859037Y-388925D01*
G01X1909538Y-388925D01*
G01X1919983Y-387368D01*
G01X1929520Y-382832D01*
G01X1932029Y-382920D01*
G01X1972029Y-382920D01*
G01X1974539Y-382832D01*
G01X1984076Y-387368D01*
G01X1994521Y-388925D01*
G01X2045021Y-388925D01*
G01X2052644Y-388104D01*
G01X2059917Y-385680D01*
G01X2068557Y-382560D01*
G01X2077591Y-380900D01*
G01X2085086Y-388395D01*
G01X2085086Y-520700D01*
G01X2084022Y-534592D01*
G01X2080853Y-548159D01*
G01X2075655Y-561086D01*
G01X1805042Y-561086D01*
G01X1815579Y-551238D01*
G01X1823738Y-539345D01*
G01X1829133Y-525970D01*
G01X1831508Y-511744D01*
G01X1830752Y-497342D01*
G01X1826900Y-483443D01*
G01X1820134Y-470706D01*
G01X1810774Y-459733D01*
G01X1799264Y-451044D01*
G01X1786146Y-445048D01*
G01X1772043Y-442030D01*
G01X1757621Y-442132D01*
G01X1743562Y-445350D01*
G01X1730532Y-451531D01*
G01X1728667Y-451696D01*
G01X1723217Y-451866D01*
G01X1699651Y-451866D01*
G01X1669034Y-421249D01*
G01X1669034Y-279182D01*
G37*
G36*
G01X1709544Y-2486565D02*
G01X1715698Y-2480412D01*
G01X1733000Y-2480412D01*
G01X1735286Y-2480635D01*
G01X1735286Y-2484598D01*
G01X1737231Y-2496238D01*
G01X1742853Y-2506614D01*
G01X1751543Y-2514600D01*
G01X1742853Y-2522586D01*
G01X1737231Y-2532962D01*
G01X1735286Y-2544602D01*
G01X1735286Y-2624602D01*
G01X1737039Y-2635669D01*
G01X1742126Y-2645653D01*
G01X1750049Y-2653576D01*
G01X1760033Y-2658663D01*
G01X1771100Y-2660416D01*
G01X1861100Y-2660416D01*
G01X1869186Y-2659492D01*
G01X1869186Y-2665640D01*
G01X1868866Y-2668372D01*
G01X1859228Y-2671345D01*
G01X1850801Y-2676888D01*
G01X1844254Y-2684560D01*
G01X1840106Y-2693754D01*
G01X1838686Y-2703740D01*
G01X1838686Y-2784387D01*
G01X1840000Y-2794001D01*
G01X1843847Y-2802909D01*
G01X1849944Y-2810458D01*
G01X1857844Y-2816093D01*
G01X1866966Y-2819400D01*
G01X1859301Y-2821984D01*
G01X1843598Y-2828307D01*
G01X1827291Y-2832854D01*
G01X1813021Y-2826645D01*
G01X1797783Y-2823481D01*
G01X1782221Y-2823495D01*
G01X1766990Y-2826686D01*
G01X1752731Y-2832920D01*
G01X1740045Y-2841935D01*
G01X1740045Y-2829018D01*
G01X1738730Y-2819404D01*
G01X1734883Y-2810496D01*
G01X1728786Y-2802947D01*
G01X1720887Y-2797313D01*
G01X1711765Y-2794005D01*
G01X1720887Y-2790698D01*
G01X1728786Y-2785063D01*
G01X1734883Y-2777514D01*
G01X1738730Y-2768606D01*
G01X1740045Y-2758992D01*
G01X1740045Y-2678345D01*
G01X1738625Y-2668359D01*
G01X1734476Y-2659166D01*
G01X1727929Y-2651493D01*
G01X1719503Y-2645950D01*
G01X1709865Y-2642977D01*
G01X1709544Y-2640245D01*
G01X1709544Y-2486565D01*
G37*
G36*
G01X2075655Y-150114D02*
G01X2080853Y-163041D01*
G01X2084022Y-176608D01*
G01X2085086Y-190500D01*
G01X2085086Y-195805D01*
G01X2077579Y-203311D01*
G01X2068551Y-201651D01*
G01X2059917Y-198533D01*
G01X2052644Y-196109D01*
G01X2045021Y-195288D01*
G01X1994521Y-195288D01*
G01X1984076Y-196845D01*
G01X1974539Y-201381D01*
G01X1972029Y-201292D01*
G01X1932029Y-201292D01*
G01X1929520Y-201381D01*
G01X1924223Y-198437D01*
G01X1918505Y-196429D01*
G01X1905308Y-191063D01*
G01X1893987Y-182415D01*
G01X1882354Y-173508D01*
G01X1868818Y-167902D01*
G01X1854294Y-165974D01*
G01X1847085Y-164989D01*
G01X1840404Y-162106D01*
G01X1834742Y-157537D01*
G01X1830085Y-153390D01*
G01X1824780Y-150114D01*
G01X2075655Y-150114D01*
G37*
G36*
G01X1899200Y-2480412D02*
G01X1971396Y-2480412D01*
G01X1973682Y-2480635D01*
G01X1973682Y-2486012D01*
G01X1974862Y-2495132D01*
G01X1978326Y-2503650D01*
G01X1983845Y-2511006D01*
G01X1978326Y-2518361D01*
G01X1974862Y-2526880D01*
G01X1973682Y-2535999D01*
G01X1973682Y-2537262D01*
G01X1971396Y-2537485D01*
G01X1960601Y-2537485D01*
G01X1948044Y-2539138D01*
G01X1936344Y-2543985D01*
G01X1926296Y-2551695D01*
G01X1896914Y-2581077D01*
G01X1896914Y-2544602D01*
G01X1894969Y-2532962D01*
G01X1889347Y-2522586D01*
G01X1880657Y-2514600D01*
G01X1889347Y-2506614D01*
G01X1894969Y-2496238D01*
G01X1896914Y-2484598D01*
G01X1896914Y-2480635D01*
G01X1899200Y-2480412D01*
G37*
G36*
G01X3737412Y-2964186D02*
G01X2231588Y-2964186D01*
G01X2238972Y-2956339D01*
G01X2243688Y-2946651D01*
G01X2245309Y-2935999D01*
G01X2245309Y-2934736D01*
G01X2247595Y-2934513D01*
G01X2448001Y-2934513D01*
G01X2460558Y-2932860D01*
G01X2472258Y-2928013D01*
G01X2482306Y-2920303D01*
G01X2599705Y-2802905D01*
G01X2607414Y-2792857D01*
G01X2612261Y-2781156D01*
G01X2613914Y-2768600D01*
G01X2613914Y-2231010D01*
G01X2707692Y-2231010D01*
G01X2707692Y-2301010D01*
G01X2709253Y-2311468D01*
G01X2713799Y-2321014D01*
G01X2709253Y-2330560D01*
G01X2707692Y-2341018D01*
G01X2707692Y-2411018D01*
G01X2709445Y-2422085D01*
G01X2714532Y-2432068D01*
G01X2722455Y-2439992D01*
G01X2732439Y-2445079D01*
G01X2743506Y-2446832D01*
G01X2813506Y-2446832D01*
G01X2823964Y-2445271D01*
G01X2833510Y-2440724D01*
G01X2843056Y-2445271D01*
G01X2853513Y-2446832D01*
G01X2923513Y-2446832D01*
G01X2933964Y-2445273D01*
G01X2943504Y-2440733D01*
G01X2953045Y-2445273D01*
G01X2963495Y-2446832D01*
G01X3033495Y-2446832D01*
G01X3044562Y-2445079D01*
G01X3054546Y-2439992D01*
G01X3062469Y-2432068D01*
G01X3067556Y-2422085D01*
G01X3069309Y-2411018D01*
G01X3069309Y-2341018D01*
G01X3067749Y-2330560D01*
G01X3063202Y-2321014D01*
G01X3067749Y-2311468D01*
G01X3069309Y-2301010D01*
G01X3069309Y-2231010D01*
G01X3067749Y-2220553D01*
G01X3063202Y-2211006D01*
G01X3067749Y-2201460D01*
G01X3069309Y-2191003D01*
G01X3069309Y-2121003D01*
G01X3067556Y-2109936D01*
G01X3062469Y-2099952D01*
G01X3054546Y-2092029D01*
G01X3044562Y-2086942D01*
G01X3033495Y-2085189D01*
G01X2963495Y-2085189D01*
G01X2953045Y-2086747D01*
G01X2943504Y-2091288D01*
G01X2933964Y-2086747D01*
G01X2923513Y-2085189D01*
G01X2853513Y-2085189D01*
G01X2843056Y-2086750D01*
G01X2833510Y-2091296D01*
G01X2823964Y-2086750D01*
G01X2813506Y-2085189D01*
G01X2743506Y-2085189D01*
G01X2732439Y-2086942D01*
G01X2722455Y-2092029D01*
G01X2714532Y-2099952D01*
G01X2709445Y-2109936D01*
G01X2707692Y-2121003D01*
G01X2707692Y-2191003D01*
G01X2709253Y-2201460D01*
G01X2713799Y-2211006D01*
G01X2709253Y-2220553D01*
G01X2707692Y-2231010D01*
G01X2707692Y-2231010D01*
G01X2613914Y-2231010D01*
G01X2613914Y-1645695D01*
G01X2700572Y-1559037D01*
G01X2708282Y-1548990D01*
G01X2713128Y-1537289D01*
G01X2714781Y-1524733D01*
G01X2714781Y-1453318D01*
G01X2715294Y-1449876D01*
G01X2726008Y-1445100D01*
G01X2734604Y-1437119D01*
G01X2740160Y-1426789D01*
G01X2742081Y-1415218D01*
G01X2742081Y-1335218D01*
G01X2740076Y-1323404D01*
G01X2734287Y-1312912D01*
G01X2725360Y-1304918D01*
G01X2714296Y-1300316D01*
G01X2725351Y-1295709D01*
G01X2734269Y-1287715D01*
G01X2740053Y-1277227D01*
G01X2742056Y-1265419D01*
G01X2742056Y-1185419D01*
G01X2740092Y-1173723D01*
G01X2734416Y-1163309D01*
G01X2725650Y-1155320D01*
G01X2714756Y-1150632D01*
G01X2714756Y-1141071D01*
G01X2724194Y-1137963D01*
G01X2732415Y-1132381D01*
G01X2738786Y-1124754D01*
G01X2742816Y-1115671D01*
G01X2744194Y-1105829D01*
G01X2744194Y-1025182D01*
G01X2742880Y-1015568D01*
G01X2739033Y-1006660D01*
G01X2732936Y-999111D01*
G01X2725036Y-993477D01*
G01X2715914Y-990169D01*
G01X2720258Y-988944D01*
G01X2742483Y-982512D01*
G01X2765290Y-978620D01*
G01X2788390Y-977317D01*
G01X2946351Y-977317D01*
G01X3054617Y-1085583D01*
G01X3064086Y-1093354D01*
G01X3074888Y-1099128D01*
G01X3086610Y-1102683D01*
G01X3098800Y-1103884D01*
G01X3360330Y-1103884D01*
G01X3382819Y-1105414D01*
G01X3404893Y-1109974D01*
G01X3426147Y-1117482D01*
G01X3433094Y-1119674D01*
G01X3440340Y-1120414D01*
G01X3520987Y-1120414D01*
G01X3530601Y-1119100D01*
G01X3539509Y-1115253D01*
G01X3547058Y-1109156D01*
G01X3552693Y-1101256D01*
G01X3556000Y-1092134D01*
G01X3559534Y-1101680D01*
G01X3565610Y-1109846D01*
G01X3573739Y-1115973D01*
G01X3583262Y-1119566D01*
G01X3583686Y-1122700D01*
G01X3583686Y-2546221D01*
G01X3585339Y-2558778D01*
G01X3590186Y-2570478D01*
G01X3597895Y-2580526D01*
G01X3637674Y-2620304D01*
G01X3647721Y-2628014D01*
G01X3659422Y-2632860D01*
G01X3671978Y-2634513D01*
G01X3721405Y-2634513D01*
G01X3723691Y-2634737D01*
G01X3723691Y-2635999D01*
G01X3724873Y-2645125D01*
G01X3728341Y-2653648D01*
G01X3733866Y-2661006D01*
G01X3728341Y-2668364D01*
G01X3724873Y-2676887D01*
G01X3723691Y-2686012D01*
G01X3723691Y-2786012D01*
G01X3724871Y-2795131D01*
G01X3728335Y-2803650D01*
G01X3733854Y-2811005D01*
G01X3728335Y-2818361D01*
G01X3724871Y-2826879D01*
G01X3723691Y-2835999D01*
G01X3723691Y-2935999D01*
G01X3725312Y-2946651D01*
G01X3730028Y-2956339D01*
G01X3737412Y-2964186D01*
G37*
G36*
G01X2321814Y-520700D02*
G01X2321814Y-413795D01*
G01X2333960Y-401649D01*
G01X2344700Y-403125D01*
G01X2355062Y-406307D01*
G01X2361561Y-408204D01*
G01X2368300Y-408843D01*
G01X2413301Y-408843D01*
G01X2423224Y-407442D01*
G01X2432369Y-403346D01*
G01X2438312Y-403842D01*
G01X2538311Y-403842D01*
G01X2544254Y-403346D01*
G01X2553399Y-407442D01*
G01X2563322Y-408843D01*
G01X2579836Y-408843D01*
G01X2585822Y-409164D01*
G01X2623647Y-409164D01*
G01X2635013Y-410687D01*
G01X2645577Y-415149D01*
G01X2654593Y-422235D01*
G01X2662679Y-443793D01*
G01X2667130Y-466382D01*
G01X2659413Y-481650D01*
G01X2655314Y-498260D01*
G01X2655045Y-515365D01*
G01X2658617Y-532095D01*
G01X2665850Y-547599D01*
G01X2676374Y-561086D01*
G01X2331245Y-561086D01*
G01X2326047Y-548159D01*
G01X2322878Y-534592D01*
G01X2321814Y-520700D01*
G37*
G36*
G01X2668512Y-150114D02*
G01X2660398Y-155715D01*
G01X2654118Y-163316D01*
G01X2650150Y-172342D01*
G01X2648793Y-182108D01*
G01X2648793Y-262108D01*
G01X2650571Y-273255D01*
G01X2655732Y-283294D01*
G01X2663760Y-291229D01*
G01X2644137Y-295439D01*
G01X2644137Y-268028D01*
G01X2643569Y-261677D01*
G01X2641884Y-255528D01*
G01X2643569Y-249378D01*
G01X2644137Y-243027D01*
G01X2644137Y-203027D01*
G01X2642384Y-191960D01*
G01X2637297Y-181976D01*
G01X2629374Y-174053D01*
G01X2619390Y-168966D01*
G01X2608323Y-167213D01*
G01X2563322Y-167213D01*
G01X2553399Y-168615D01*
G01X2544254Y-172711D01*
G01X2538311Y-172215D01*
G01X2438312Y-172215D01*
G01X2432369Y-172711D01*
G01X2423224Y-168615D01*
G01X2413301Y-167213D01*
G01X2368300Y-167213D01*
G01X2361561Y-167853D01*
G01X2355062Y-169750D01*
G01X2346746Y-172446D01*
G01X2338151Y-174042D01*
G01X2336359Y-172250D01*
G01X2339439Y-160938D01*
G01X2343945Y-150114D01*
G01X2668512Y-150114D01*
G37*
G36*
G01X3526805Y-575295D02*
G01X3516757Y-567586D01*
G01X3505056Y-562739D01*
G01X3492500Y-561086D01*
G01X2784626Y-561086D01*
G01X2795163Y-547578D01*
G01X2802398Y-532049D01*
G01X2805962Y-515293D01*
G01X2805673Y-498164D01*
G01X2801545Y-481537D01*
G01X2793790Y-466261D01*
G01X2796446Y-449390D01*
G01X2800925Y-432909D01*
G01X2807173Y-417014D01*
G01X2809599Y-409738D01*
G01X2810420Y-402112D01*
G01X2810420Y-322113D01*
G01X2808476Y-310472D01*
G01X2802853Y-300096D01*
G01X2794164Y-292110D01*
G01X2802853Y-284125D01*
G01X2808476Y-273748D01*
G01X2810420Y-262108D01*
G01X2810420Y-182108D01*
G01X2809063Y-172342D01*
G01X2805094Y-163316D01*
G01X2798815Y-155715D01*
G01X2790701Y-150114D01*
G01X3624805Y-150114D01*
G01X3667630Y-192939D01*
G01X3667630Y-716159D01*
G01X3666505Y-714995D01*
G01X3526805Y-575295D01*
G37*
G36*
G01X4086389Y-2357620D02*
G01X4096795Y-2347214D01*
G01X4142585Y-2347214D01*
G01X4134479Y-2352816D01*
G01X4128206Y-2360416D01*
G01X4124242Y-2369437D01*
G01X4122886Y-2379198D01*
G01X4122886Y-2459198D01*
G01X4124831Y-2470838D01*
G01X4130453Y-2481214D01*
G01X4139143Y-2489200D01*
G01X4130453Y-2497186D01*
G01X4124831Y-2507562D01*
G01X4122886Y-2519202D01*
G01X4122886Y-2599202D01*
G01X4124413Y-2609547D01*
G01X4128862Y-2619010D01*
G01X4135855Y-2626784D01*
G01X4144796Y-2632207D01*
G01X4154921Y-2634816D01*
G01X4155186Y-2637302D01*
G01X4155186Y-2651548D01*
G01X4154963Y-2653834D01*
G01X4148224Y-2653834D01*
G01X4138610Y-2655148D01*
G01X4129702Y-2658995D01*
G01X4122153Y-2665092D01*
G01X4116519Y-2672992D01*
G01X4113211Y-2682114D01*
G01X4109790Y-2672777D01*
G01X4103934Y-2664741D01*
G01X4096094Y-2658625D01*
G01X4086875Y-2654900D01*
G01X4086389Y-2651548D01*
G01X4086389Y-2357620D01*
G37*
G54D10*
G01X328827Y-328969D02*
G03X311645Y-35814I-137923J138997D01*
G01X4695947Y-35814D01*
G03X4798227Y-390422I114081J-159150D01*
G03X4832156Y-628657I27773J-117578D01*
G03X4841661Y-388206I-6156J120657D01*
G03X4964186Y-315705I-31633J193242D01*
G01X4964186Y-1619454D01*
G01X4843291Y-1619454D01*
G03X4807477Y-1655268I0J-35814D01*
G01X4807477Y-1841267D01*
G03X4843291Y-1877081I35814J0D01*
G01X4964186Y-1877081D01*
G01X4964186Y-2002950D01*
G01X4843291Y-2002950D01*
G03X4807477Y-2038764I0J-35814D01*
G01X4807477Y-2224763D01*
G03X4843291Y-2260577I35814J0D01*
G01X4964186Y-2260577D01*
G01X4964186Y-2689287D01*
G03X4640114Y-2712702I-154158J-120741D01*
G01X4640114Y-2684302D01*
G03X4623857Y-2654300I-35814J0D01*
G03X4640114Y-2624298I-19557J30002D01*
G01X4640114Y-2544298D01*
G03X4604300Y-2508484I-35814J0D01*
G01X4514300Y-2508484D01*
G03X4478486Y-2544298I0J-35814D01*
G01X4478486Y-2624298D01*
G03X4493388Y-2653372I35814J0D01*
G02X4470400Y-2658705I-59098J202526D01*
G02X4447412Y-2653372I36110J207859D01*
G03X4462314Y-2624298I-20912J29075D01*
G01X4462314Y-2544298D01*
G03X4426500Y-2508484I-35814J0D01*
G01X4336500Y-2508484D01*
G03X4300686Y-2544298I0J-35814D01*
G01X4300686Y-2624298D01*
G03X4316901Y-2654273I35814J0D01*
G02X4280622Y-2667942I-60411J105351D01*
G02X4253809Y-2660967I28259J163661D01*
G02X4252214Y-2651548I27025J9419D01*
G01X4252214Y-2637302D01*
G01X4252479Y-2634816D01*
G03X4284514Y-2599202I-3779J35614D01*
G01X4284514Y-2519202D01*
G03X4268257Y-2489200I-35814J0D01*
G03X4284514Y-2459198I-19557J30002D01*
G01X4284514Y-2379198D01*
G03X4264815Y-2347214I-35814J0D01*
G01X4310605Y-2347214D01*
G01X4385295Y-2421905D01*
G03X4419600Y-2436114I34305J34305D01*
G01X4538203Y-2436114D01*
G01X4540689Y-2436379D01*
G03X4576303Y-2468414I35614J3779D01*
G01X4656303Y-2468414D01*
G03X4686305Y-2452157I0J35814D01*
G03X4716308Y-2468414I30002J19557D01*
G01X4796307Y-2468414D01*
G03X4832121Y-2432600I0J35814D01*
G01X4832121Y-2342600D01*
G03X4796307Y-2306786I-35814J0D01*
G01X4716308Y-2306786D01*
G03X4686305Y-2323043I0J-35814D01*
G03X4665329Y-2307942I-30002J-19557D01*
G02X4664817Y-2304500I11298J3442D01*
G01X4664817Y-2190603D01*
G03X4650607Y-2156298I-48514J0D01*
G01X4591768Y-2097459D01*
G03X4565123Y-2083858I-34305J-34305D01*
G01X4565123Y-2038764D01*
G03X4529309Y-2002950I-35814J0D01*
G01X4406309Y-2002950D01*
G03X4370495Y-2038764I0J-35814D01*
G01X4370495Y-2224763D01*
G03X4406309Y-2260577I35814J0D01*
G01X4529309Y-2260577D01*
G03X4565123Y-2224763I0J35814D01*
G01X4565123Y-2208032D01*
G01X4567789Y-2210698D01*
G01X4567789Y-2304500D01*
G02X4567276Y-2307942I-11811J0D01*
G03X4540689Y-2338821I9027J-34658D01*
G01X4538203Y-2339086D01*
G01X4439695Y-2339086D01*
G01X4365005Y-2264395D01*
G03X4330700Y-2250186I-34305J-34305D01*
G01X4076700Y-2250186D01*
G03X4042395Y-2264395I0J-48514D01*
G01X4003570Y-2303221D01*
G03X3995318Y-2314232I34305J-34305D01*
G01X3995318Y-2236000D01*
G03X3985155Y-2211006I-35814J0D01*
G03X3995318Y-2186013I-25651J24994D01*
G01X3995318Y-2086013D01*
G03X3985143Y-2061007I-35814J0D01*
G03X3995318Y-2036000I-25638J25006D01*
G01X3995318Y-2029937D01*
G01X3997604Y-2029714D01*
G01X4011840Y-2029714D01*
G02X4014572Y-2030034I0J-11811D01*
G03X4049940Y-2060214I35368J5634D01*
G01X4130587Y-2060214D01*
G03X4165600Y-2031934I0J35814D01*
G03X4167665Y-2038440I35013J7534D01*
G02X4174885Y-2059861I-133902J-57060D01*
G03X4242258Y-2171313I66915J-35639D01*
G03X4308280Y-2059056I-458J75813D01*
G02X4314829Y-2036882I164205J-36444D01*
G03X4317074Y-2024400I-33569J12481D01*
G01X4317074Y-1938000D01*
G03X4281260Y-1902186I-35814J0D01*
G01X4200613Y-1902186D01*
G03X4165600Y-1930466I0J-35814D01*
G03X4130587Y-1902186I-35013J-7534D01*
G01X4049940Y-1902186D01*
G03X4014572Y-1932366I0J-35814D01*
G02X4011840Y-1932686I-2732J11491D01*
G01X3997604Y-1932686D01*
G01X3995140Y-1932426D01*
G03X3985155Y-1911007I-35635J-3575D01*
G03X3995062Y-1890291I-25651J24994D01*
G02X3997604Y-1890014I2542J-11534D01*
G01X4330700Y-1890014D01*
G03X4365005Y-1875805I0J48514D01*
G01X4377828Y-1862981D01*
G03X4406309Y-1877081I28481J21713D01*
G01X4529309Y-1877081D01*
G03X4565123Y-1841267I0J35814D01*
G01X4565123Y-1797005D01*
G01X4567409Y-1796782D01*
G01X4576332Y-1796782D01*
G03X4610637Y-1782572I0J48514D01*
G01X4650607Y-1742602D01*
G03X4664817Y-1708297I-34305J34305D01*
G01X4664817Y-1569000D01*
G02X4665329Y-1565558I11811J0D01*
G03X4686305Y-1550457I-9027J34658D01*
G03X4716308Y-1566714I30002J19557D01*
G01X4796307Y-1566714D01*
G03X4832121Y-1530900I0J35814D01*
G01X4832121Y-1440900D01*
G03X4796307Y-1405086I-35814J0D01*
G01X4716308Y-1405086D01*
G03X4686305Y-1421343I0J-35814D01*
G03X4656303Y-1405086I-30002J-19557D01*
G01X4576303Y-1405086D01*
G03X4540689Y-1437121I0J-35814D01*
G01X4538203Y-1437386D01*
G01X4406900Y-1437386D01*
G03X4372595Y-1451595I0J-48514D01*
G01X4334495Y-1489695D01*
G03X4320286Y-1524000I34305J-34305D01*
G01X4320286Y-1783305D01*
G01X4310605Y-1792986D01*
G01X3997604Y-1792986D01*
G01X3995318Y-1792763D01*
G01X3995318Y-1786014D01*
G03X3985143Y-1761007I-35814J0D01*
G03X3995318Y-1736001I-25638J25006D01*
G01X3995318Y-1636001D01*
G03X3959504Y-1600187I-35814J0D01*
G01X3764658Y-1600187D01*
G01X3764658Y-1313200D01*
G01X3764901Y-1310819D01*
G03X3797300Y-1282634I-2613J35719D01*
G03X3798782Y-1287683I35013J7534D01*
G02X3809492Y-1330971I-179691J-67428D01*
G03X3873659Y-1447414I64008J-40629D01*
G03X3937337Y-1330703I-159J75814D01*
G02X3946989Y-1286265I219483J-24408D01*
G03X3948774Y-1275100I-34029J11165D01*
G01X3948774Y-1188700D01*
G03X3912960Y-1152886I-35814J0D01*
G01X3832313Y-1152886D01*
G03X3797300Y-1181166I0J-35814D01*
G03X3764901Y-1152981I-35013J-7534D01*
G01X3764658Y-1150600D01*
G01X3764658Y-172844D01*
G03X3750449Y-138540I-48514J0D01*
G01X3679205Y-67295D01*
G03X3644900Y-53086I-34305J-34305D01*
G01X1600200Y-53086D01*
G03X1565895Y-67295I0J-48514D01*
G01X1515095Y-118095D01*
G03X1500886Y-152400I34305J-34305D01*
G01X1500886Y-449805D01*
G01X1478505Y-472186D01*
G01X1137695Y-472186D01*
G01X1089914Y-424405D01*
G01X1089914Y-306271D01*
G01X1097212Y-297669D01*
G01X1132100Y-257609D01*
G03X1041400Y-56986I-90700J79809D01*
G03X950700Y-257609I0J-120814D01*
G01X985588Y-297669D01*
G01X992886Y-306271D01*
G01X992886Y-444500D01*
G03X1007095Y-478805I48514J0D01*
G01X1083295Y-555005D01*
G03X1090719Y-561086I34305J34305D01*
G01X883695Y-561086D01*
G01X835914Y-513305D01*
G01X835914Y-306271D01*
G01X843212Y-297669D01*
G01X878100Y-257609D01*
G03X787400Y-56986I-90700J79809D01*
G03X696700Y-257609I0J-120814D01*
G01X731588Y-297669D01*
G01X738886Y-306271D01*
G01X738886Y-533400D01*
G03X753095Y-567705I48514J0D01*
G01X829295Y-643905D01*
G03X863600Y-658114I34305J34305D01*
G01X3472405Y-658114D01*
G01X3583686Y-769395D01*
G01X3583686Y-960100D01*
G02X3583262Y-963234I-11811J0D01*
G03X3556000Y-990666I7750J-34965D01*
G03X3520987Y-962386I-35013J-7534D01*
G01X3440340Y-962386D01*
G03X3426147Y-965318I0J-35814D01*
G02X3360330Y-978916I-65817J152485D01*
G01X3124682Y-978916D01*
G01X3016416Y-870650D01*
G03X2972233Y-852349I-44183J-44183D01*
G01X2788390Y-852349D01*
G02X2720258Y-840722I0J205439D01*
G03X2708380Y-838695I-11877J-33787D01*
G01X2621980Y-838695D01*
G03X2610102Y-840722I0J-35814D01*
G02X2570681Y-850333I-68132J193812D01*
G02X2531259Y-840722I28711J203422D01*
G03X2519382Y-838695I-11877J-33787D01*
G01X2432981Y-838695D01*
G03X2421460Y-840599I0J-35814D01*
G02X2352971Y-851916I-68489J201580D01*
G01X2209800Y-851916D01*
G03X2165617Y-870217I0J-62484D01*
G01X2089417Y-946417D01*
G03X2071116Y-990600I44183J-44183D01*
G01X2071116Y-1294918D01*
G01X2045082Y-1320952D01*
G01X2002810Y-1320952D01*
G02X1934678Y-1309326I0J205439D01*
G03X1930334Y-1308100I-11877J-33787D01*
G03X1958614Y-1273087I-7534J35013D01*
G01X1958614Y-1192440D01*
G03X1934870Y-1158721I-35814J0D01*
G03X1965764Y-1123246I-4920J35474D01*
G01X1965764Y-1043247D01*
G03X1929950Y-1007433I-35814J0D01*
G01X1829951Y-1007433D01*
G03X1794137Y-1043247I0J-35814D01*
G01X1794137Y-1123246D01*
G03X1824534Y-1158648I35814J0D01*
G03X1800586Y-1192440I11865J-33791D01*
G01X1800586Y-1273087D01*
G03X1828866Y-1308100I35814J0D01*
G03X1818797Y-1311923I7534J-35013D01*
G02X1787102Y-1324548I-62407J110576D01*
G02X1767712Y-1319872I39708J207202D01*
G03X1782614Y-1290798I-20912J29075D01*
G01X1782614Y-1210798D01*
G03X1746800Y-1174984I-35814J0D01*
G01X1656800Y-1174984D01*
G03X1620986Y-1210798I0J-35814D01*
G01X1620986Y-1290798D01*
G03X1635888Y-1319872I35814J0D01*
G02X1612900Y-1325205I-59098J202526D01*
G02X1589912Y-1319872I36110J207859D01*
G03X1604814Y-1290798I-20912J29075D01*
G01X1604814Y-1210798D01*
G03X1569000Y-1174984I-35814J0D01*
G01X1479000Y-1174984D01*
G03X1443186Y-1210798I0J-35814D01*
G01X1443186Y-1290798D01*
G03X1459443Y-1320800I35814J0D01*
G03X1443186Y-1350802I19557J-30002D01*
G01X1443186Y-1430802D01*
G03X1453196Y-1455638I35814J0D01*
G01X1447318Y-1461516D01*
G01X1380548Y-1461516D01*
G03X1381102Y-1455242I-35260J6274D01*
G01X1381102Y-1344752D01*
G03X1345288Y-1308938I-35814J0D01*
G01X1283058Y-1308938D01*
G03X1247244Y-1344752I0J-35814D01*
G01X1247244Y-1455242D01*
G03X1248278Y-1463785I35814J0D01*
G02X1251689Y-1491973I-114759J-28188D01*
G03X1270001Y-1536167I62484J0D01*
G01X1302017Y-1568183D01*
G03X1346200Y-1586484I44183J44183D01*
G01X1473200Y-1586484D01*
G03X1517383Y-1568183I0J62484D01*
G01X1568183Y-1517383D01*
G03X1586484Y-1473200I-44183J44183D01*
G02X1589588Y-1461828I22385J0D01*
G02X1612900Y-1456400I59422J-202431D01*
G02X1630395Y-1460210I-36110J-207859D01*
G02X1639316Y-1510812I-139052J-50602D01*
G01X1639316Y-1570587D01*
G01X1639078Y-1578242D01*
G01X1638598Y-1583728D01*
G03X1701800Y-1701414I63202J-41872D01*
G03X1765002Y-1583728I0J75814D01*
G01X1764522Y-1578242D01*
G01X1764284Y-1570587D01*
G01X1764284Y-1510812D01*
G02X1773205Y-1460210I147973J0D01*
G02X1798693Y-1455168I53605J-204048D01*
G02X1830805Y-1459135I-42303J-474498D01*
G03X1836400Y-1459574I5595J35374D01*
G01X1922800Y-1459574D01*
G03X1934678Y-1457547I0J35814D01*
G02X2002810Y-1445920I68132J-193812D01*
G01X2070964Y-1445920D01*
G03X2115146Y-1427619I0J62484D01*
G01X2177783Y-1364983D01*
G03X2196084Y-1320800I-44183J44183D01*
G01X2196084Y-1016482D01*
G01X2235682Y-976884D01*
G01X2352971Y-976884D01*
G02X2420749Y-988817I0J-198452D01*
G03X2425447Y-990169I12232J33660D01*
G03X2397167Y-1025182I7534J-35013D01*
G01X2397167Y-1105829D01*
G03X2428729Y-1141390I35814J0D01*
G01X2428729Y-1150632D01*
G03X2401429Y-1185419I8514J-34787D01*
G01X2401429Y-1265419D01*
G03X2429215Y-1300321I35814J0D01*
G03X2401454Y-1335218I8054J-34897D01*
G01X2401454Y-1415218D01*
G03X2427986Y-1449808I35814J0D01*
G01X2427986Y-2659605D01*
G01X2400093Y-2687498D01*
G01X2245309Y-2687498D01*
G01X2245309Y-2686012D01*
G03X2235134Y-2661006I-35814J0D01*
G03X2245309Y-2635999I-25638J25006D01*
G01X2245309Y-2535999D01*
G03X2235146Y-2511006I-35814J0D01*
G03X2245309Y-2486012I-25651J24994D01*
G01X2245309Y-2386012D01*
G03X2235134Y-2361006I-35814J0D01*
G03X2245309Y-2336000I-25638J25006D01*
G01X2245309Y-2236000D01*
G03X2235146Y-2211006I-35814J0D01*
G03X2245309Y-2186013I-25651J24994D01*
G01X2245309Y-2086013D01*
G03X2235134Y-2061007I-35814J0D01*
G03X2245309Y-2036000I-25638J25006D01*
G01X2245309Y-2034738D01*
G01X2247595Y-2034515D01*
G01X2290644Y-2034515D01*
G01X2292217Y-2035380D01*
G01X2294373Y-2036966D01*
G03X2403114Y-1986001I42427J50966D01*
G03X2294373Y-1935035I-66314J0D01*
G01X2292217Y-1936621D01*
G01X2290644Y-1937487D01*
G01X2247595Y-1937487D01*
G01X2245309Y-1937263D01*
G01X2245309Y-1936001D01*
G03X2235146Y-1911007I-35814J0D01*
G03X2245309Y-1886013I-25651J24994D01*
G01X2245309Y-1884751D01*
G01X2247595Y-1884528D01*
G01X2290644Y-1884528D01*
G01X2292217Y-1885393D01*
G01X2294373Y-1886979D01*
G03X2403114Y-1836014I42427J50966D01*
G03X2294373Y-1785048I-66314J0D01*
G01X2292217Y-1786634D01*
G01X2290644Y-1787500D01*
G01X2247595Y-1787500D01*
G01X2245309Y-1787276D01*
G01X2245309Y-1786014D01*
G03X2235134Y-1761007I-35814J0D01*
G03X2245309Y-1736001I-25638J25006D01*
G01X2245309Y-1636001D01*
G03X2209495Y-1600187I-35814J0D01*
G01X2009496Y-1600187D01*
G03X1973682Y-1636001I0J-35814D01*
G01X1973682Y-1736001D01*
G03X1983857Y-1761007I35814J0D01*
G03X1973682Y-1786014I25638J-25006D01*
G01X1973682Y-1886013D01*
G03X1983845Y-1911007I35814J0D01*
G03X1973682Y-1936001I25651J-24994D01*
G01X1973682Y-2036000D01*
G03X1983857Y-2061007I35814J0D01*
G03X1973682Y-2086013I25638J-25006D01*
G01X1973682Y-2088630D01*
G03X1949791Y-2101708I10414J-47383D01*
G01X1909999Y-2141501D01*
G03X1902816Y-2140966I-7183J-47979D01*
G01X1841275Y-2140966D01*
G01X1780809Y-2080499D01*
G03X1777074Y-2077133I-34305J-34305D01*
G01X1777074Y-2071604D01*
G03X1741260Y-2035790I-35814J0D01*
G01X1660613Y-2035790D01*
G03X1625600Y-2064070I0J-35814D01*
G03X1590587Y-2035790I-35013J-7534D01*
G01X1509940Y-2035790D01*
G03X1474126Y-2071604I0J-35814D01*
G01X1474126Y-2077133D01*
G03X1470391Y-2080499I30570J-37671D01*
G01X1422625Y-2128266D01*
G01X1396775Y-2128266D01*
G01X1336309Y-2067799D01*
G03X1315899Y-2055622I-34305J-34305D01*
G03X1286110Y-2039690I-29789J-19882D01*
G01X1180084Y-2039690D01*
G01X1180084Y-1981200D01*
G03X1161783Y-1937017I-62484J0D01*
G01X1099591Y-1874825D01*
G03X1055408Y-1856524I-44183J-44183D01*
G01X1025839Y-1856524D01*
G02X989687Y-1739218I194631J124206D01*
G02X1003182Y-1679253I165980J-5852D01*
G03X1006114Y-1665060I-32882J14193D01*
G01X1006114Y-1584413D01*
G03X977834Y-1549400I-35814J0D01*
G03X1006114Y-1514387I-7534J35013D01*
G01X1006114Y-1433740D01*
G03X1003182Y-1419547I-35814J0D01*
G02X989584Y-1353730I152485J65817D01*
G01X989584Y-1308100D01*
G03X971283Y-1263917I-62484J0D01*
G01X891082Y-1183717D01*
G03X849851Y-1165485I-44183J-44183D01*
G03X826806Y-1157086I-23046J-27414D01*
G01X646806Y-1157086D01*
G03X610992Y-1192900I0J-35814D01*
G01X610992Y-1262899D01*
G03X646806Y-1298713I35814J0D01*
G01X826806Y-1298713D01*
G01X829263Y-1298629D01*
G01X864616Y-1333982D01*
G01X864616Y-1353730D01*
G02X851018Y-1419547I-166083J0D01*
G03X848086Y-1433740I32882J-14193D01*
G01X848086Y-1514387D01*
G03X876366Y-1549400I35814J0D01*
G03X848086Y-1584413I7534J-35013D01*
G01X848086Y-1665060D01*
G03X851018Y-1679253I35814J0D01*
G02X864513Y-1739218I-152485J-65817D01*
G02X828377Y-1856498I-230783J6900D01*
G01X798217Y-1856268D01*
G01X798217Y-1811498D01*
G03X772749Y-1777211I-35814J0D01*
G03X697412Y-1635688I-75338J50709D01*
G01X607412Y-1635688D01*
G03X566745Y-1807701I0J-90814D01*
G03X535872Y-1899199I33648J-62311D01*
G01X490687Y-1899199D01*
G03X456383Y-1913408I0J-48514D01*
G01X435595Y-1934195D01*
G03X421386Y-1968500I34305J-34305D01*
G01X421386Y-2108200D01*
G03X435595Y-2142505I48514J0D01*
G01X460995Y-2167905D01*
G03X495300Y-2182114I34305J34305D01*
G01X499944Y-2182114D01*
G01X501517Y-2182980D01*
G01X503673Y-2184566D01*
G03X519620Y-2194398I42427J50966D01*
G03X499010Y-2276582I39180J-53502D01*
G03X576008Y-2311942I59790J28682D01*
G03X590198Y-2344867I48494J1380D01*
G01X606542Y-2361211D01*
G03X616679Y-2368972I34305J34305D01*
G03X616589Y-2371517I35724J-2544D01*
G01X616589Y-2379076D01*
G03X534195Y-2422859I-16196J-68938D01*
G03X566720Y-2510311I66197J-25154D01*
G03X607412Y-2682312I40692J-81187D01*
G01X697412Y-2682312D01*
G03X772749Y-2540789I0J90814D01*
G03X798217Y-2506502I-10347J34287D01*
G01X798217Y-2462782D01*
G01X842008Y-2462782D01*
G01X1066800Y-2462784D01*
G03X1110983Y-2444483I0J62484D01*
G01X1161783Y-2393683D01*
G03X1179883Y-2354510I-44183J44183D01*
G01X1286110Y-2354510D01*
G03X1315899Y-2338578I0J35814D01*
G03X1336309Y-2326401I-13895J46482D01*
G01X1366295Y-2296414D01*
G01X1387065Y-2296414D01*
G01X1429751Y-2339101D01*
G03X1464056Y-2353310I34305J34305D01*
G01X1471840Y-2353310D01*
G02X1474572Y-2353630I0J-11811D01*
G03X1509940Y-2383810I35368J5634D01*
G01X1590587Y-2383810D01*
G03X1625600Y-2355530I0J35814D01*
G03X1660613Y-2383810I35013J7534D01*
G01X1689182Y-2383810D01*
G03X1661298Y-2397593I6420J-48087D01*
G01X1626726Y-2432165D01*
G03X1612516Y-2466470I34305J-34305D01*
G01X1612516Y-2640245D01*
G02X1612196Y-2642977I-11811J0D01*
G03X1582016Y-2678345I5634J-35368D01*
G01X1582016Y-2758992D01*
G03X1610296Y-2794005I35814J0D01*
G03X1582016Y-2829018I7534J-35013D01*
G01X1582016Y-2841767D01*
G01X1579730Y-2841991D01*
G01X1570883Y-2841991D01*
G02X1556348Y-2836535I0J22091D01*
G03X1532783Y-2827691I-23565J-26969D01*
G01X1472783Y-2827691D01*
G03X1450288Y-2835637I0J-35814D01*
G03X1427792Y-2827691I-22496J-27867D01*
G01X1367793Y-2827691D01*
G03X1344228Y-2836535I0J-35814D01*
G02X1332888Y-2841758I-14535J16635D01*
G01X1326166Y-2835037D01*
G03X1291862Y-2820827I-34305J-34305D01*
G01X1262408Y-2820827D01*
G02X1259055Y-2820342I0J11811D01*
G03X1231842Y-2794005I-34747J-8676D01*
G03X1260122Y-2758992I-7534J35013D01*
G01X1260122Y-2678345D01*
G03X1257190Y-2664152I-35814J0D01*
G02X1243592Y-2598335I152485J65817D01*
G01X1243592Y-2558963D01*
G01X1243829Y-2551307D01*
G01X1244310Y-2545822D01*
G03X1181108Y-2428135I-63202J41872D01*
G03X1117906Y-2545822I0J-75814D01*
G01X1118386Y-2551307D01*
G01X1118624Y-2558963D01*
G01X1118624Y-2598335D01*
G02X1105026Y-2664152I-166083J0D01*
G03X1102093Y-2678345I32882J-14193D01*
G01X1102093Y-2758992D01*
G03X1130373Y-2794005I35814J0D01*
G03X1103160Y-2820342I7534J-35013D01*
G02X1099807Y-2820827I-3353J11325D01*
G01X1096430Y-2820827D01*
G01X1093979Y-2820570D01*
G03X1077888Y-2794010I-35648J-3442D01*
G03X1094144Y-2764008I-19557J30002D01*
G01X1094144Y-2684008D01*
G03X1058330Y-2648194I-35814J0D01*
G01X968331Y-2648194D01*
G03X932517Y-2684008I0J-35814D01*
G01X932517Y-2764008D01*
G03X948773Y-2794010I35814J0D01*
G03X933673Y-2814986I19557J-30002D01*
G02X930231Y-2815499I-3442J11298D01*
G01X918630Y-2815499D01*
G02X915188Y-2814986I0J11811D01*
G03X900088Y-2794010I-34658J-9027D01*
G03X916344Y-2764008I-19557J30002D01*
G01X916344Y-2684008D01*
G03X880530Y-2648194I-35814J0D01*
G01X790531Y-2648194D01*
G03X754717Y-2684008I0J-35814D01*
G01X754717Y-2764008D01*
G03X770973Y-2794010I35814J0D01*
G03X754717Y-2824013I19557J-30002D01*
G01X754717Y-2904012D01*
G03X790531Y-2939826I35814J0D01*
G01X880530Y-2939826D01*
G03X915188Y-2913039I0J35814D01*
G02X918630Y-2912527I3442J-11298D01*
G01X930231Y-2912527D01*
G02X933673Y-2913039I0J-11811D01*
G03X968331Y-2939826I34658J9027D01*
G01X1058330Y-2939826D01*
G03X1090699Y-2919339I0J35814D01*
G02X1096430Y-2917855I5731J-10327D01*
G01X1099807Y-2917855D01*
G02X1103160Y-2918341I0J-11811D01*
G03X1137907Y-2945479I34747J8676D01*
G01X1224308Y-2945479D01*
G03X1259055Y-2918341I0J35814D01*
G02X1262408Y-2917855I3353J-11325D01*
G01X1271767Y-2917855D01*
G01X1278720Y-2924809D01*
G03X1313025Y-2939019I34305J34305D01*
G01X1329693Y-2939019D01*
G02X1344228Y-2944474I0J-22091D01*
G03X1367793Y-2953319I23565J26969D01*
G01X1427792Y-2953319D01*
G03X1450288Y-2945372I0J35814D01*
G03X1472783Y-2953319I22496J27867D01*
G01X1532783Y-2953319D01*
G03X1556348Y-2944474I0J35814D01*
G02X1570883Y-2939019I14535J-16635D01*
G01X1579730Y-2939019D01*
G02X1606024Y-2943477I0J-79762D01*
G03X1617830Y-2945479I11806J33812D01*
G01X1704231Y-2945479D01*
G03X1725435Y-2938527I0J35814D01*
G03X1751524Y-2964186I64634J39625D01*
G01X100000Y-2964186D01*
G02X35814Y-2900000I0J64186D01*
G01X35814Y-1298700D01*
G01X36794Y-1298713D01*
G01X216794Y-1298713D01*
G03X252608Y-1262899I0J35814D01*
G01X252608Y-1192900D01*
G03X216794Y-1157086I-35814J0D01*
G01X36794Y-1157086D01*
G01X35814Y-1157099D01*
G01X35814Y-1048688D01*
G01X36794Y-1048701D01*
G01X216794Y-1048701D01*
G03X252608Y-1012887I0J35814D01*
G01X252608Y-942887D01*
G03X216794Y-907073I-35814J0D01*
G01X36794Y-907073D01*
G01X35814Y-907087D01*
G01X35814Y-798701D01*
G01X36794Y-798714D01*
G01X216794Y-798714D01*
G03X252608Y-762900I0J35814D01*
G01X252608Y-692901D01*
G03X216794Y-657087I-35814J0D01*
G01X36794Y-657087D01*
G01X35814Y-657100D01*
G01X35814Y-309513D01*
G03X328827Y-328969I155090J119541D01*
G01X262397Y-1630688D02*
G01X202397Y-1630688D01*
G03X202397Y-1822315I0J-95814D01*
G01X262397Y-1822315D01*
G03X262397Y-1630688I0J95814D01*
G01X262397Y-2495685D02*
G01X202397Y-2495685D01*
G03X202397Y-2687312I0J-95814D01*
G01X262397Y-2687312D01*
G03X262397Y-2495685I0J95814D01*
G01X618400Y-298614D02*
G03X654214Y-262800I0J35814D01*
G01X654214Y-92800D01*
G03X618400Y-56986I-35814J0D01*
G01X448400Y-56986D01*
G03X412586Y-92800I0J-35814D01*
G01X412586Y-262800D01*
G03X448400Y-298614I35814J0D01*
G01X618400Y-298614D01*
G01X846327Y-662874D02*
G03X826806Y-657087I-19521J-30026D01*
G01X646806Y-657087D01*
G03X610992Y-692901I0J-35814D01*
G01X610992Y-762900D01*
G03X646806Y-798714I35814J0D01*
G01X826806Y-798714D01*
G03X836117Y-797483I0J35814D01*
G01X850948Y-812314D01*
G02X820732Y-907073I-229918J21117D01*
G01X646806Y-907073D01*
G03X610992Y-942887I0J-35814D01*
G01X610992Y-1012887D01*
G03X646806Y-1048701I35814J0D01*
G01X826806Y-1048701D01*
G03X834183Y-1047933I0J35814D01*
G02X906816Y-1040371I72633J-345043D01*
G01X1005290Y-1040371D01*
G02X1078954Y-1046950I0J-415736D01*
G03X1085300Y-1047516I6346J35247D01*
G01X1175300Y-1047516D01*
G03X1186911Y-1045582I0J35814D01*
G02X1219200Y-1037300I68399J-199577D01*
G02X1236695Y-1041110I-36110J-207859D01*
G02X1239301Y-1048944I-139052J-50602D01*
G01X1188138Y-1048944D01*
G03X1171743Y-1052917I0J-35814D01*
G03X1155347Y-1048944I-16396J-31841D01*
G01X1093117Y-1048944D01*
G03X1057303Y-1084758I0J-35814D01*
G01X1057303Y-1195248D01*
G03X1075723Y-1226554I35814J0D01*
G03X1089927Y-1260137I48509J722D01*
G01X1108695Y-1278905D01*
G03X1143000Y-1293114I34305J34305D01*
G01X1295400Y-1293114D01*
G03X1329705Y-1278905I0J48514D01*
G01X1348478Y-1260131D01*
G03X1362682Y-1226554I-34305J34305D01*
G03X1381102Y-1195248I-17394J31307D01*
G01X1381102Y-1084758D01*
G03X1379885Y-1075502I-35814J0D01*
G02X1375225Y-1054943I264455J70754D01*
G02X1385342Y-1027294I143332J-36769D01*
G03X1388914Y-1011702I-32242J15591D01*
G01X1388914Y-931702D01*
G03X1372657Y-901700I-35814J0D01*
G03X1388914Y-871698I-19557J30002D01*
G01X1388914Y-791698D01*
G03X1353100Y-755884I-35814J0D01*
G01X1263100Y-755884D01*
G03X1227286Y-791698I0J-35814D01*
G01X1227286Y-871698D01*
G03X1242188Y-900772I35814J0D01*
G02X1219200Y-906105I-59098J202526D01*
G02X1196212Y-900772I36110J207859D01*
G03X1211114Y-871698I-20912J29075D01*
G01X1211114Y-791698D01*
G03X1175300Y-755884I-35814J0D01*
G01X1085300Y-755884D01*
G03X1049486Y-791698I0J-35814D01*
G01X1049486Y-871698D01*
G03X1065527Y-901558I35814J0D01*
G02X1013002Y-915188I-60237J124117D01*
G02X976884Y-791197I194768J123990D01*
G01X976884Y-787400D01*
G03X958583Y-743217I-62484J0D01*
G01X899083Y-683718D01*
G03X854900Y-665416I-44183J-44183D01*
G02X846327Y-662874I0J15730D01*
G01X1191161Y-1344752D02*
G03X1155347Y-1308938I-35814J0D01*
G01X1093117Y-1308938D01*
G03X1057303Y-1344752I0J-35814D01*
G01X1057303Y-1455242D01*
G03X1093117Y-1491056I35814J0D01*
G01X1155347Y-1491056D01*
G03X1191161Y-1455242I0J35814D01*
G01X1191161Y-1344752D01*
G01X1174586Y-177800D02*
G03X1416214Y-177800I120814J0D01*
G03X1174586Y-177800I-120814J0D01*
G01X1472783Y-2760322D02*
G01X1532783Y-2760322D01*
G03X1568597Y-2724508I0J35814D01*
G01X1568597Y-2670508D01*
G03X1532783Y-2634694I-35814J0D01*
G01X1472783Y-2634694D01*
G03X1450288Y-2642640I0J-35814D01*
G03X1427792Y-2634694I-22496J-27867D01*
G01X1367793Y-2634694D01*
G03X1331979Y-2670508I0J-35814D01*
G01X1331979Y-2724508D01*
G03X1367793Y-2760322I35814J0D01*
G01X1427792Y-2760322D01*
G03X1450288Y-2752376I0J35814D01*
G03X1472783Y-2760322I22496J27867D01*
G01X1793425Y-963353D02*
G03X1829239Y-999167I35814J0D01*
G01X1929239Y-999167D01*
G03X1965053Y-963353I0J35814D01*
G01X1965053Y-883354D01*
G03X1929239Y-847540I-35814J0D01*
G01X1829239Y-847540D01*
G03X1793425Y-883354I0J-35814D01*
G01X1793425Y-963353D01*
G01X4826000Y-1136814D02*
G03X4826000Y-895186I0J120814D01*
G03X4826000Y-1136814I0J-120814D01*
G01X4946814Y-1185000D02*
G03X4911000Y-1149186I-35814J0D01*
G01X4741000Y-1149186D01*
G03X4705186Y-1185000I0J-35814D01*
G01X4705186Y-1355000D01*
G03X4741000Y-1390814I35814J0D01*
G01X4911000Y-1390814D01*
G03X4946814Y-1355000I0J35814D01*
G01X4946814Y-1185000D01*
G01X4826000Y-882814D02*
G03X4826000Y-641186I0J120814D01*
G03X4826000Y-882814I0J-120814D01*
G01X838817Y-2210563D02*
G01X838817Y-2157450D01*
G03X838333Y-2150618I-48514J0D01*
G01X910990Y-2150618D01*
G02X918508Y-2151861I0J-23352D01*
G03X913276Y-2170500I30582J-18638D01*
G01X913276Y-2223700D01*
G03X918508Y-2242339I35814J0D01*
G02X910990Y-2243582I-7518J22108D01*
G01X845044Y-2243582D01*
G01X833704Y-2232241D01*
G03X838817Y-2210563I-43401J21679D01*
G01X1669034Y-279182D02*
G02X1697745Y-291161I-11308J-67499D01*
G01X1699128Y-292110D01*
G03X1682872Y-322113I19557J-30002D01*
G01X1682872Y-402112D01*
G03X1718686Y-437926I35814J0D01*
G01X1808686Y-437926D01*
G03X1844500Y-402112I0J35814D01*
G01X1844500Y-385841D01*
G03X1859037Y-388925I14538J32731D01*
G01X1909538Y-388925D01*
G03X1929520Y-382832I0J35814D01*
G01X1932029Y-382920D01*
G01X1972029Y-382920D01*
G01X1974539Y-382832D01*
G03X1994521Y-388925I19982J29721D01*
G01X2045021Y-388925D01*
G03X2059917Y-385680I0J35814D01*
G02X2077591Y-380900I23204J-50733D01*
G01X2085086Y-388395D01*
G01X2085086Y-520700D01*
G02X2075655Y-561086I-91186J0D01*
G01X1805042Y-561086D01*
G03X1820134Y-470706I-39742J53086D01*
G03X1730532Y-451531I-54834J-37294D01*
G01X1728667Y-451696D01*
G01X1723217Y-451866D01*
G01X1699651Y-451866D01*
G01X1669034Y-421249D01*
G01X1669034Y-279182D01*
G01X1709544Y-2486565D02*
G01X1715698Y-2480412D01*
G01X1733000Y-2480412D01*
G01X1735286Y-2480635D01*
G01X1735286Y-2484598D01*
G03X1751543Y-2514600I35814J0D01*
G03X1735286Y-2544602I19557J-30002D01*
G01X1735286Y-2624602D01*
G03X1771100Y-2660416I35814J0D01*
G01X1861100Y-2660416D01*
G03X1869186Y-2659492I0J35814D01*
G01X1869186Y-2665640D01*
G02X1868866Y-2668372I-11811J0D01*
G03X1838686Y-2703740I5634J-35368D01*
G01X1838686Y-2784387D01*
G03X1866966Y-2819400I35814J0D01*
G03X1859301Y-2821984I7534J-35013D01*
G02X1827291Y-2832854I-64811J138286D01*
G03X1740045Y-2841935I-37221J-66048D01*
G01X1740045Y-2829018D01*
G03X1711765Y-2794005I-35814J0D01*
G03X1740045Y-2758992I-7534J35013D01*
G01X1740045Y-2678345D01*
G03X1709865Y-2642977I-35814J0D01*
G02X1709544Y-2640245I11491J2732D01*
G01X1709544Y-2486565D01*
G01X2075655Y-150114D02*
G02X2085086Y-190500I-81755J-40386D01*
G01X2085086Y-195805D01*
G01X2077579Y-203311D01*
G02X2059917Y-198533I5542J55512D01*
G03X2045021Y-195288I-14896J-32569D01*
G01X1994521Y-195288D01*
G03X1974539Y-201381I0J-35814D01*
G01X1972029Y-201292D01*
G01X1932029Y-201292D01*
G01X1929520Y-201381D01*
G03X1918505Y-196429I-19982J-29721D01*
G02X1893987Y-182415I13442J51975D01*
G03X1854294Y-165974I-39783J-39912D01*
G02X1834742Y-157537I0J26875D01*
G03X1824780Y-150114I-26056J-24571D01*
G01X2075655Y-150114D01*
G01X1899200Y-2480412D02*
G01X1971396Y-2480412D01*
G01X1973682Y-2480635D01*
G01X1973682Y-2486012D01*
G03X1983845Y-2511006I35814J0D01*
G03X1973682Y-2535999I25651J-24994D01*
G01X1973682Y-2537262D01*
G01X1971396Y-2537485D01*
G01X1960601Y-2537485D01*
G03X1926296Y-2551695I0J-48514D01*
G01X1896914Y-2581077D01*
G01X1896914Y-2544602D01*
G03X1880657Y-2514600I-35814J0D01*
G03X1896914Y-2484598I-19557J30002D01*
G01X1896914Y-2480635D01*
G01X1899200Y-2480412D01*
G01X3737412Y-2964186D02*
G01X2231588Y-2964186D01*
G03X2245309Y-2935999I-22093J28187D01*
G01X2245309Y-2934736D01*
G01X2247595Y-2934513D01*
G01X2448001Y-2934513D01*
G03X2482306Y-2920303I0J48514D01*
G01X2599705Y-2802905D01*
G03X2613914Y-2768600I-34305J34305D01*
G01X2613914Y-1645695D01*
G01X2700572Y-1559037D01*
G03X2714781Y-1524733I-34305J34305D01*
G01X2714781Y-1453318D01*
G02X2715294Y-1449876I11811J0D01*
G03X2742081Y-1415218I-9027J34658D01*
G01X2742081Y-1335218D01*
G03X2714296Y-1300316I-35814J0D01*
G03X2742056Y-1265419I-8054J34897D01*
G01X2742056Y-1185419D01*
G03X2714756Y-1150632I-35814J0D01*
G01X2714756Y-1141071D01*
G03X2744194Y-1105829I-6375J35242D01*
G01X2744194Y-1025182D01*
G03X2715914Y-990169I-35814J0D01*
G03X2720258Y-988944I-7534J35013D01*
G02X2788390Y-977317I68132J-193812D01*
G01X2946351Y-977317D01*
G01X3054617Y-1085583D01*
G03X3098800Y-1103884I44183J44183D01*
G01X3360330Y-1103884D01*
G02X3426147Y-1117482I0J-166083D01*
G03X3440340Y-1120414I14193J32882D01*
G01X3520987Y-1120414D01*
G03X3556000Y-1092134I0J35814D01*
G03X3583262Y-1119566I35013J7534D01*
G02X3583686Y-1122700I-11387J-3135D01*
G01X3583686Y-2546221D01*
G03X3597895Y-2580526I48514J0D01*
G01X3637674Y-2620304D01*
G03X3671978Y-2634513I34305J34305D01*
G01X3721405Y-2634513D01*
G01X3723691Y-2634737D01*
G01X3723691Y-2635999D01*
G03X3733866Y-2661006I35814J0D01*
G03X3723691Y-2686012I25638J-25006D01*
G01X3723691Y-2786012D01*
G03X3733854Y-2811005I35814J0D01*
G03X3723691Y-2835999I25651J-24994D01*
G01X3723691Y-2935999D01*
G03X3737412Y-2964186I35814J0D01*
G01X2707692Y-2231010D02*
G01X2707692Y-2301010D01*
G03X2713799Y-2321014I35814J0D01*
G03X2707692Y-2341018I29707J-20004D01*
G01X2707692Y-2411018D01*
G03X2743506Y-2446832I35814J0D01*
G01X2813506Y-2446832D01*
G03X2833510Y-2440724I0J35814D01*
G03X2853513Y-2446832I20004J29707D01*
G01X2923513Y-2446832D01*
G03X2943504Y-2440733I0J35814D01*
G03X2963495Y-2446832I19991J29715D01*
G01X3033495Y-2446832D01*
G03X3069309Y-2411018I0J35814D01*
G01X3069309Y-2341018D01*
G03X3063202Y-2321014I-35814J0D01*
G03X3069309Y-2301010I-29707J20004D01*
G01X3069309Y-2231010D01*
G03X3063202Y-2211006I-35814J0D01*
G03X3069309Y-2191003I-29707J20004D01*
G01X3069309Y-2121003D01*
G03X3033495Y-2085189I-35814J0D01*
G01X2963495Y-2085189D01*
G03X2943504Y-2091288I0J-35814D01*
G03X2923513Y-2085189I-19991J-29715D01*
G01X2853513Y-2085189D01*
G03X2833510Y-2091296I0J-35814D01*
G03X2813506Y-2085189I-20004J-29707D01*
G01X2743506Y-2085189D01*
G03X2707692Y-2121003I0J-35814D01*
G01X2707692Y-2191003D01*
G03X2713799Y-2211006I35814J0D01*
G03X2707692Y-2231010I29707J-20004D01*
G01X2321814Y-520700D02*
G01X2321814Y-413795D01*
G01X2333960Y-401649D01*
G02X2355062Y-406307I-3760J-67157D01*
G03X2368300Y-408843I13238J33278D01*
G01X2413301Y-408843D01*
G03X2432369Y-403346I0J35814D01*
G03X2438312Y-403842I5943J35318D01*
G01X2538311Y-403842D01*
G03X2544254Y-403346I0J35814D01*
G03X2563322Y-408843I19067J30316D01*
G01X2579836Y-408843D01*
G03X2585822Y-409164I5986J55814D01*
G01X2623647Y-409164D01*
G02X2654593Y-422235I0J-43167D01*
G02X2667130Y-466382I-126879J-59887D01*
G03X2676374Y-561086I63370J-41618D01*
G01X2331245Y-561086D01*
G02X2321814Y-520700I81755J40386D01*
G01X2668512Y-150114D02*
G03X2648793Y-182108I16095J-31994D01*
G01X2648793Y-262108D01*
G03X2663760Y-291229I35814J0D01*
G02X2644137Y-295439I-40114J139159D01*
G01X2644137Y-268028D01*
G03X2641884Y-255528I-35814J0D01*
G03X2644137Y-243027I-33562J12501D01*
G01X2644137Y-203027D01*
G03X2608323Y-167213I-35814J0D01*
G01X2563322Y-167213D01*
G03X2544254Y-172711I0J-35814D01*
G03X2538311Y-172215I-5943J-35318D01*
G01X2438312Y-172215D01*
G03X2432369Y-172711I0J-35814D01*
G03X2413301Y-167213I-19067J-30316D01*
G01X2368300Y-167213D01*
G03X2355062Y-169750I0J-35814D01*
G02X2338151Y-174042I-24862J62498D01*
G01X2336359Y-172250D01*
G02X2343945Y-150114I89341J-18250D01*
G01X2668512Y-150114D01*
G01X3526805Y-575295D02*
G03X3492500Y-561086I-34305J-34305D01*
G01X2784626Y-561086D01*
G03X2793790Y-466261I-54126J53086D01*
G02X2807173Y-417014I155669J-15861D01*
G03X2810420Y-402112I-32566J14902D01*
G01X2810420Y-322113D01*
G03X2794164Y-292110I-35814J0D01*
G03X2810420Y-262108I-19557J30002D01*
G01X2810420Y-182108D01*
G03X2790701Y-150114I-35814J0D01*
G01X3624805Y-150114D01*
G01X3667630Y-192939D01*
G01X3667630Y-716159D01*
G01X3666505Y-714995D01*
G01X3526805Y-575295D01*
G01X4086389Y-2357620D02*
G01X4096795Y-2347214D01*
G01X4142585Y-2347214D01*
G03X4122886Y-2379198I16115J-31984D01*
G01X4122886Y-2459198D01*
G03X4139143Y-2489200I35814J0D01*
G03X4122886Y-2519202I19557J-30002D01*
G01X4122886Y-2599202D01*
G03X4154921Y-2634816I35814J0D01*
G01X4155186Y-2637302D01*
G01X4155186Y-2651548D01*
G01X4154963Y-2653834D01*
G01X4148224Y-2653834D01*
G03X4113211Y-2682114I0J-35814D01*
G03X4086875Y-2654900I-35013J-7534D01*
G02X4086389Y-2651548I11325J3353D01*
G01X4086389Y-2357620D01*
G54D11*
G01X126794Y-1227899D02*
G01X126794Y-1288553D01*
G01X126794Y-1227899D02*
G01X126794Y-1167246D01*
G01X126794Y-1227899D02*
G01X242448Y-1227899D01*
G01X126794Y-727900D02*
G01X126794Y-788554D01*
G01X126794Y-727900D02*
G01X126794Y-667247D01*
G01X126794Y-727900D02*
G01X242448Y-727900D01*
G01X126794Y-977887D02*
G01X126794Y-1038541D01*
G01X126794Y-977887D02*
G01X126794Y-917233D01*
G01X126794Y-977887D02*
G01X242448Y-977887D01*
G01X707403Y-2479002D02*
G01X788057Y-2479002D01*
G01X707403Y-1838998D02*
G01X788057Y-1838998D01*
G01X835530Y-2724008D02*
G01X835530Y-2658354D01*
G01X835530Y-2724008D02*
G01X764877Y-2724008D01*
G01X835530Y-2724008D02*
G01X906184Y-2724008D01*
G01X1002690Y-2197100D02*
G01X923436Y-2197100D01*
G01X1013330Y-2724008D02*
G01X1013330Y-2658354D01*
G01X1013330Y-2724008D02*
G01X942677Y-2724008D01*
G01X1013330Y-2724008D02*
G01X1083984Y-2724008D01*
G01X1130300Y-831698D02*
G01X1130300Y-766044D01*
G01X1130300Y-831698D02*
G01X1200954Y-831698D01*
G01X1130300Y-831698D02*
G01X1059646Y-831698D01*
G01X1219253Y-1140003D02*
G01X1219253Y-1059104D01*
G01X1308100Y-831698D02*
G01X1308100Y-766044D01*
G01X1308100Y-831698D02*
G01X1378754Y-831698D01*
G01X1308100Y-831698D02*
G01X1237446Y-831698D01*
G01X1397792Y-2697508D02*
G01X1342139Y-2697508D01*
G01X1397792Y-2697508D02*
G01X1397792Y-2750162D01*
G01X1397792Y-2697508D02*
G01X1397792Y-2644854D01*
G01X1502783Y-2697508D02*
G01X1558437Y-2697508D01*
G01X1502783Y-2697508D02*
G01X1502783Y-2750162D01*
G01X1502783Y-2697508D02*
G01X1502783Y-2644854D01*
G01X1524000Y-1250798D02*
G01X1524000Y-1185144D01*
G01X1524000Y-1250798D02*
G01X1594654Y-1250798D01*
G01X1524000Y-1250798D02*
G01X1453346Y-1250798D01*
G01X1701800Y-1250798D02*
G01X1701800Y-1185144D01*
G01X1701800Y-1250798D02*
G01X1772454Y-1250798D01*
G01X1701800Y-1250798D02*
G01X1631146Y-1250798D01*
G01X1763686Y-362113D02*
G01X1763686Y-427766D01*
G01X1763686Y-362113D02*
G01X1693032Y-362113D01*
G01X1816100Y-2584602D02*
G01X1816100Y-2650256D01*
G01X1816100Y-2584602D02*
G01X1745446Y-2584602D01*
G01X1879239Y-923353D02*
G01X1803585Y-923353D01*
G01X1879239Y-923353D02*
G01X1954893Y-923353D01*
G01X1879239Y-923353D02*
G01X1879239Y-857700D01*
G01X1879239Y-923353D02*
G01X1879239Y-989007D01*
G01X1884288Y-332111D02*
G01X1884288Y-378765D01*
G01X1952029Y-292106D02*
G01X1952029Y-372760D01*
G01X1952029Y-292106D02*
G01X1952029Y-211452D01*
G01X2488312Y-288028D02*
G01X2488312Y-393682D01*
G01X2488312Y-288028D02*
G01X2488312Y-182375D01*
G01X2585822Y-223027D02*
G01X2585822Y-177373D01*
G01X2585822Y-223027D02*
G01X2633977Y-223027D01*
G01X2729606Y-222108D02*
G01X2658953Y-222108D01*
G01X2729606Y-222108D02*
G01X2800260Y-222108D01*
G01X2778506Y-2156003D02*
G01X2717852Y-2156003D01*
G01X2778506Y-2156003D02*
G01X2778506Y-2095349D01*
G01X2778506Y-2266010D02*
G01X2717852Y-2266010D01*
G01X2778506Y-2376018D02*
G01X2717852Y-2376018D01*
G01X2778506Y-2376018D02*
G01X2778506Y-2436672D01*
G01X2888513Y-2156003D02*
G01X2888513Y-2095349D01*
G01X2888513Y-2376018D02*
G01X2888513Y-2436672D01*
G01X2998495Y-2156003D02*
G01X3059149Y-2156003D01*
G01X2998495Y-2156003D02*
G01X2998495Y-2095349D01*
G01X2998495Y-2376018D02*
G01X3059149Y-2376018D01*
G01X2998495Y-2376018D02*
G01X2998495Y-2436672D01*
G01X2998495Y-2266010D02*
G01X3059149Y-2266010D01*
G01X3859505Y-1686001D02*
G01X3985158Y-1686001D01*
G01X3859505Y-1686001D02*
G01X3859505Y-1610347D01*
G01X4203700Y-2419198D02*
G01X4274354Y-2419198D01*
G01X4203700Y-2419198D02*
G01X4133046Y-2419198D01*
G01X4756307Y-2387600D02*
G01X4821961Y-2387600D01*
G01X4756307Y-2387600D02*
G01X4756307Y-2458254D01*
G01X4756307Y-2387600D02*
G01X4756307Y-2316946D01*
G01X4756307Y-1485900D02*
G01X4821961Y-1485900D01*
G01X4756307Y-1485900D02*
G01X4756307Y-1556554D01*
G01X4756307Y-1485900D02*
G01X4756307Y-1415246D01*
G01X4904791Y-1748268D02*
G01X4817637Y-1748268D01*
G01X4904791Y-1748268D02*
G01X4904791Y-1866921D01*
G01X4904791Y-1748268D02*
G01X4904791Y-1629614D01*
G01X4904791Y-2131764D02*
G01X4817637Y-2131764D01*
G01X4904791Y-2131764D02*
G01X4904791Y-2250417D01*
G01X4904791Y-2131764D02*
G01X4904791Y-2013110D01*
G01X4381500Y-2584298D02*
G01X4381500Y-2518644D01*
G01X4381500Y-2584298D02*
G01X4310846Y-2584298D01*
G01X4381500Y-2584298D02*
G01X4452154Y-2584298D01*
G01X4559300Y-2584298D02*
G01X4559300Y-2518644D01*
G01X4559300Y-2584298D02*
G01X4488646Y-2584298D01*
G01X4559300Y-2584298D02*
G01X4629954Y-2584298D01*
G01X232397Y-2591498D02*
G01X232397Y-2505845D01*
G01X232397Y-2591498D02*
G01X232397Y-2677152D01*
G01X232397Y-2591498D02*
G01X348051Y-2591498D01*
G01X232397Y-2591498D02*
G01X116743Y-2591498D01*
G01X232397Y-1726501D02*
G01X232397Y-1640848D01*
G01X232397Y-1726501D02*
G01X232397Y-1812155D01*
G01X232397Y-1726501D02*
G01X348051Y-1726501D01*
G01X232397Y-1726501D02*
G01X116743Y-1726501D01*
G01X652412Y-2591498D02*
G01X652412Y-2672152D01*
G01X652412Y-2591498D02*
G01X778066Y-2591498D01*
G01X652412Y-2591498D02*
G01X526758Y-2591498D01*
G01X652412Y-1726501D02*
G01X652412Y-1645848D01*
G01X652412Y-1726501D02*
G01X778066Y-1726501D01*
G01X652412Y-1726501D02*
G01X526758Y-1726501D01*
G01X1295400Y-177800D02*
G01X1184746Y-177800D01*
G01X1295400Y-177800D02*
G01X1406054Y-177800D01*
G01X1295400Y-177800D02*
G01X1295400Y-67146D01*
G01X1295400Y-177800D02*
G01X1295400Y-288454D01*
G01X4826000Y-508000D02*
G01X4826000Y-618654D01*
G01X4826000Y-508000D02*
G01X4715346Y-508000D01*
G01X4826000Y-508000D02*
G01X4936654Y-508000D01*
G04 Copper End*

G04 TearDrop Start*
G36*
G01X640846Y-2189594D02*
G01X640846Y-2164194D01*
G03X652403Y-2169006I11557J11469D01*
G01X652403Y-2199006D01*
G03X640846Y-2189594I-11557J-2388D01*
G37*
G36*
G01X640846Y-2103794D02*
G01X640846Y-2078394D01*
G03X652403Y-2069007I0J11807D01*
G01X652403Y-2099006D01*
G03X640846Y-2103794I0J-16343D01*
G37*
G36*
G01X773959Y-2128406D02*
G01X773959Y-2153806D01*
G03X762403Y-2148994I-11557J-11469D01*
G01X762403Y-2118994D01*
G03X773959Y-2128406I11557J2388D01*
G37*
G36*
G01X773959Y-2214206D02*
G01X773959Y-2239606D01*
G03X762403Y-2248993I0J-11807D01*
G01X762403Y-2218994D01*
G03X773959Y-2214206I0J16343D01*
G37*
G36*
G01X773959Y-2228406D02*
G01X773959Y-2253806D01*
G03X762403Y-2248993I-11557J-11469D01*
G01X762403Y-2218994D01*
G03X773959Y-2228406I11557J2388D01*
G37*
G36*
G01X910990Y-2114804D02*
G01X910990Y-2089404D01*
G03X949090Y-2075504I0J59166D01*
G01X949090Y-2128704D01*
G03X910990Y-2114804I-38100J-45266D01*
G37*
G36*
G01X1984096Y-2148713D02*
G01X1984096Y-2123313D01*
G03X2009496Y-2104263I0J26458D01*
G01X2009496Y-2167763D01*
G03X1984096Y-2148713I-25400J-7408D01*
G37*
G36*
G01X1984096Y-2298700D02*
G01X1984096Y-2273300D01*
G03X2009496Y-2254250I0J26458D01*
G01X2009496Y-2317750D01*
G03X1984096Y-2298700I-25400J-7408D01*
G37*
G36*
G01X1302004Y-2089404D02*
G01X1302004Y-2114804D01*
G03X1286110Y-2128704I0J-16037D01*
G01X1286110Y-2075504D01*
G03X1302004Y-2089404I15894J2137D01*
G37*
G36*
G01X1302004Y-2279396D02*
G01X1302004Y-2304796D01*
G03X1286110Y-2318696I0J-16037D01*
G01X1286110Y-2265496D01*
G03X1302004Y-2279396I15894J2137D01*
G37*
G36*
G01X1471840Y-2317496D02*
G01X1471840Y-2292096D01*
G03X1509940Y-2273046I0J47625D01*
G01X1509940Y-2336546D01*
G03X1471840Y-2317496I-38100J-28575D01*
G37*
G36*
G01X1504696Y-2127504D02*
G01X1504696Y-2102104D01*
G03X1509940Y-2083054I-31981J19050D01*
G01X1509940Y-2146554D01*
G03X1504696Y-2127504I-37225J0D01*
G37*
G36*
G01X1746504Y-2102104D02*
G01X1746504Y-2127504D01*
G03X1741260Y-2146554I31981J-19050D01*
G01X1741260Y-2083054D01*
G03X1746504Y-2102104I37225J0D01*
G37*
G36*
G01X1746504Y-2292096D02*
G01X1746504Y-2317496D01*
G03X1741260Y-2336546I31981J-19050D01*
G01X1741260Y-2273046D01*
G03X1746504Y-2292096I37225J0D01*
G37*
G36*
G01X910990Y-2304796D02*
G01X910990Y-2279396D01*
G03X949090Y-2265496I0J59166D01*
G01X949090Y-2318696D01*
G03X910990Y-2304796I-38100J-45266D01*
G37*
G36*
G01X1579730Y-2903205D02*
G01X1579730Y-2877805D01*
G03X1617830Y-2858755I0J47625D01*
G01X1617830Y-2909665D01*
G03X1579730Y-2903205I-38100J-109115D01*
G37*
G36*
G01X1570883Y-2877805D02*
G01X1570883Y-2903205D01*
G03X1532783Y-2917505I0J-57905D01*
G01X1532783Y-2863505D01*
G03X1570883Y-2877805I38100J43605D01*
G37*
G36*
G01X1329693Y-2903205D02*
G01X1329693Y-2877805D01*
G03X1367793Y-2863505I0J57905D01*
G01X1367793Y-2917505D01*
G03X1329693Y-2903205I-38100J-43605D01*
G37*
G36*
G01X1262408Y-2856641D02*
G01X1262408Y-2882041D01*
G03X1224308Y-2901091I0J-47625D01*
G01X1224308Y-2837591D01*
G03X1262408Y-2856641I38100J28575D01*
G37*
G36*
G01X1099807Y-2882041D02*
G01X1099807Y-2856641D01*
G03X1137907Y-2837591I0J47625D01*
G01X1137907Y-2901091D01*
G03X1099807Y-2882041I-38100J-28575D01*
G37*
G36*
G01X1096430Y-2856641D02*
G01X1096430Y-2882041D01*
G03X1058330Y-2901091I0J-47625D01*
G01X1058330Y-2837591D01*
G03X1096430Y-2856641I38100J28575D01*
G37*
G36*
G01X930231Y-2876713D02*
G01X930231Y-2851313D01*
G03X968331Y-2832263I0J47625D01*
G01X968331Y-2895763D01*
G03X930231Y-2876713I-38100J-28575D01*
G37*
G36*
G01X918630Y-2851313D02*
G01X918630Y-2876713D01*
G03X880530Y-2895763I0J-47625D01*
G01X880530Y-2832263D01*
G03X918630Y-2851313I38100J28575D01*
G37*
G36*
G01X1648330Y-2640245D02*
G01X1673730Y-2640245D01*
G03X1692780Y-2678345I47625J0D01*
G01X1629280Y-2678345D01*
G03X1648330Y-2640245I-28575J38100D01*
G37*
G36*
G01X3997604Y-2723312D02*
G01X3997604Y-2748712D01*
G03X3959504Y-2767762I0J-47625D01*
G01X3959504Y-2704262D01*
G03X3997604Y-2723312I38100J28575D01*
G37*
G36*
G01X3959451Y-2748712D02*
G01X3959451Y-2723312D01*
G03X3997551Y-2704262I0J47625D01*
G01X3997551Y-2767762D01*
G03X3959451Y-2748712I-38100J-28575D01*
G37*
G36*
G01X4191000Y-2651548D02*
G01X4216400Y-2651548D01*
G03X4228871Y-2689648I64433J0D01*
G01X4171950Y-2689648D01*
G03X4191000Y-2651548I-28575J38100D01*
G37*
G36*
G01X4216400Y-2637302D02*
G01X4191000Y-2637302D01*
G03X4171950Y-2599202I-47625J0D01*
G01X4235450Y-2599202D01*
G03X4216400Y-2637302I28575J-38100D01*
G37*
G36*
G01X4557464Y-2119064D02*
G01X4557464Y-2144464D01*
G03X4529309Y-2163514I0J-30330D01*
G01X4529309Y-2100014D01*
G03X4557464Y-2119064I28155J11280D01*
G37*
G36*
G01X4603603Y-2304500D02*
G01X4629003Y-2304500D01*
G03X4648053Y-2342600I47625J0D01*
G01X4584553Y-2342600D01*
G03X4603603Y-2304500I-28575J38100D01*
G37*
G36*
G01X4538203Y-1498600D02*
G01X4538203Y-1473200D01*
G03X4576303Y-1454150I0J47625D01*
G01X4576303Y-1517650D01*
G03X4538203Y-1498600I-38100J-28575D01*
G37*
G36*
G01X3997604Y-1828800D02*
G01X3997604Y-1854200D01*
G03X3959504Y-1873250I0J-47625D01*
G01X3959504Y-1809750D01*
G03X3997604Y-1828800I38100J28575D01*
G37*
G36*
G01X4629003Y-1569000D02*
G01X4603603Y-1569000D01*
G03X4584553Y-1530900I-47625J0D01*
G01X4648053Y-1530900D01*
G03X4629003Y-1569000I28575J-38100D01*
G37*
G36*
G01X4567409Y-1735568D02*
G01X4567409Y-1760968D01*
G03X4529309Y-1780018I0J-47625D01*
G01X4529309Y-1716518D01*
G03X4567409Y-1735568I38100J28575D01*
G37*
G36*
G01X3734105Y-2448712D02*
G01X3734105Y-2423312D01*
G03X3759505Y-2404262I0J26458D01*
G01X3759505Y-2467762D01*
G03X3734105Y-2448712I-25400J-7408D01*
G37*
G36*
G01X3721405Y-2598699D02*
G01X3721405Y-2573299D01*
G03X3759505Y-2554249I0J47625D01*
G01X3759505Y-2617749D01*
G03X3721405Y-2598699I-38100J-28575D01*
G37*
G36*
G01X800100Y-293522D02*
G01X774700Y-293522D01*
G01X770313Y-287954D01*
G01X758747Y-274323D01*
G01X723650Y-234022D01*
G01X851150Y-234022D01*
G01X816053Y-274323D01*
G01X804487Y-287954D01*
G01X800100Y-293522D01*
G37*
G36*
G01X1054100Y-293522D02*
G01X1028700Y-293522D01*
G01X1024313Y-287954D01*
G01X1012747Y-274323D01*
G01X977650Y-234022D01*
G01X1105150Y-234022D01*
G01X1070053Y-274323D01*
G01X1058487Y-287954D01*
G01X1054100Y-293522D01*
G37*
G36*
G01X2083121Y-319411D02*
G01X2083121Y-344811D01*
G03X2045021Y-353111I0J-91602D01*
G01X2045021Y-311112D01*
G03X2083121Y-319411I38100J83302D01*
G37*
G36*
G01X2083121Y-239401D02*
G01X2083121Y-264801D01*
G03X2045021Y-273101I0J-91602D01*
G01X2045021Y-231102D01*
G03X2083121Y-239401I38100J83302D01*
G37*
G36*
G01X2330200Y-235727D02*
G01X2330200Y-210327D01*
G03X2368300Y-203027I0J103076D01*
G01X2368300Y-243027D01*
G03X2330200Y-235727I-38100J-95776D01*
G37*
G36*
G01X2330200Y-365730D02*
G01X2330200Y-340330D01*
G03X2368300Y-333030I0J103076D01*
G01X2368300Y-373029D01*
G03X2330200Y-365730I-38100J-95776D01*
G37*
G36*
G01X2260600Y-520700D02*
G01X2286000Y-520700D01*
G03X2311400Y-596900I127000J0D01*
G01X2269623Y-609600D01*
G01X2235200Y-596900D01*
G03X2260600Y-520700I-101600J76200D01*
G37*
G36*
G01X2120900Y-520700D02*
G01X2146300Y-520700D01*
G03X2171700Y-596900I127000J0D01*
G01X2134269Y-609600D01*
G01X2095500Y-596900D01*
G03X2120900Y-520700I-101600J76200D01*
G37*
G36*
G01X3728844Y-1313200D02*
G01X3703444Y-1313200D01*
G03X3684394Y-1275100I-47625J0D01*
G01X3747894Y-1275100D01*
G03X3728844Y-1313200I28575J-38100D01*
G37*
G36*
G01X3703444Y-1150600D02*
G01X3728844Y-1150600D01*
G03X3747894Y-1188700I47625J0D01*
G01X3684394Y-1188700D01*
G03X3703444Y-1150600I-28575J38100D01*
G37*
G36*
G01X3619500Y-960100D02*
G01X3644900Y-960100D01*
G03X3663950Y-998200I47625J0D01*
G01X3600450Y-998200D01*
G03X3619500Y-960100I-28575J38100D01*
G37*
G36*
G01X3644900Y-1122700D02*
G01X3619500Y-1122700D01*
G03X3600450Y-1084600I-47625J0D01*
G01X3663950Y-1084600D01*
G03X3644900Y-1122700I28575J-38100D01*
G37*
G36*
G01X4011840Y-1993900D02*
G01X4011840Y-1968500D01*
G03X4049940Y-1949450I0J47625D01*
G01X4049940Y-2012950D01*
G03X4011840Y-1993900I-38100J-28575D01*
G37*
G36*
G01X3997604Y-1968500D02*
G01X3997604Y-1993900D01*
G03X3959504Y-2012950I0J-47625D01*
G01X3959504Y-1949450D01*
G03X3997604Y-1968500I38100J28575D01*
G37*
G36*
G01X1905000Y-2665640D02*
G01X1930400Y-2665640D01*
G03X1949450Y-2703740I47625J0D01*
G01X1885950Y-2703740D01*
G03X1905000Y-2665640I-28575J38100D01*
G37*
G36*
G01X1971396Y-2598699D02*
G01X1971396Y-2573299D01*
G03X2009496Y-2554249I0J47625D01*
G01X2009496Y-2617749D01*
G03X1971396Y-2598699I-38100J-28575D01*
G37*
G36*
G01X2295276Y-1848714D02*
G01X2295276Y-1823314D01*
G01X2299871Y-1822439D01*
G01X2305628Y-1820134D01*
G01X2311547Y-1816875D01*
G01X2316626Y-1813139D01*
G01X2316626Y-1858889D01*
G01X2311547Y-1855152D01*
G01X2305628Y-1851893D01*
G01X2299871Y-1849588D01*
G01X2295276Y-1848714D01*
G37*
G36*
G01X2295276Y-1998701D02*
G01X2295276Y-1973301D01*
G01X2299871Y-1972426D01*
G01X2305628Y-1970121D01*
G01X2311547Y-1966862D01*
G01X2316626Y-1963126D01*
G01X2316626Y-2008876D01*
G01X2311547Y-2005139D01*
G01X2305628Y-2001880D01*
G01X2299871Y-1999575D01*
G01X2295276Y-1998701D01*
G37*
G36*
G01X2247595Y-1973301D02*
G01X2247595Y-1998701D01*
G03X2209495Y-2017751I0J-47625D01*
G01X2209495Y-1954251D01*
G03X2247595Y-1973301I38100J28575D01*
G37*
G36*
G01X2247595Y-1823314D02*
G01X2247595Y-1848714D01*
G03X2209495Y-1867764I0J-47625D01*
G01X2209495Y-1804264D01*
G03X2247595Y-1823314I38100J28575D01*
G37*
G36*
G01X2489968Y-1440618D02*
G01X2464568Y-1440618D01*
G03X2445518Y-1415218I-26458J0D01*
G01X2509018Y-1415218D01*
G03X2489968Y-1440618I7408J-25400D01*
G37*
G36*
G01X842413Y-2373630D02*
G01X842413Y-2426970D01*
G03X762403Y-2426518I-80012J-7079599D01*
G01X762403Y-2371517D01*
G03X842413Y-2373630I80010J1513540D01*
G37*
G36*
G01X1140809Y-2209800D02*
G01X1140809Y-2184400D01*
G03X1178909Y-2170500I0J59166D01*
G01X1178909Y-2223700D01*
G03X1140809Y-2209800I-38100J-45266D01*
G37*
G36*
G01X1232510Y-2184400D02*
G01X1232510Y-2209800D01*
G03X1144270Y-2277110I0J-91494D01*
G01X1117600Y-2197525D01*
G01X1144270Y-2117090D01*
G03X1232510Y-2184400I88240J24184D01*
G37*
G36*
G01X846900Y-1201229D02*
G01X846900Y-1254569D01*
G03X826806Y-1262899I0J-28401D01*
G01X826806Y-1192900D01*
G03X846900Y-1201229I20094J20071D01*
G37*
G36*
G01X854901Y-701230D02*
G01X854901Y-754570D01*
G03X826806Y-762900I0J-51544D01*
G01X826806Y-692901D01*
G03X854901Y-701230I28095J43214D01*
G37*
G36*
G01X887730Y-791197D02*
G01X941070Y-791197D01*
G03X994410Y-951217I266700J0D01*
G01X912737Y-977887D01*
G01X834390Y-951217D01*
G03X887730Y-791197I-213360J160020D01*
G37*
G36*
G01X906816Y-951217D02*
G01X906816Y-1004557D01*
G03X826806Y-1012887I0J-388419D01*
G01X826806Y-942887D01*
G03X906816Y-951217I80010J380089D01*
G37*
G36*
G01X1005290Y-1004557D02*
G01X1005290Y-951217D01*
G03X1085300Y-931702I0J173776D01*
G01X1085300Y-1011702D01*
G03X1005290Y-1004557I-80010J-444405D01*
G37*
G36*
G01X1255310Y-945032D02*
G01X1255310Y-998372D01*
G03X1175300Y-1011702I0J-246786D01*
G01X1175300Y-931702D01*
G03X1255310Y-945032I80010J233456D01*
G37*
G36*
G01X1183090Y-998372D02*
G01X1183090Y-945032D01*
G03X1263100Y-931702I0J246786D01*
G01X1263100Y-1011702D01*
G03X1183090Y-998372I-80010J-233456D01*
G37*
G36*
G01X1334770Y-1091712D02*
G01X1281430Y-1091712D01*
G03X1263100Y-1011702I-183787J0D01*
G01X1353100Y-1011702D01*
G03X1334770Y-1091712I165457J-80010D01*
G37*
G36*
G01X1281430Y-1004748D02*
G01X1334770Y-1004748D01*
G03X1345288Y-1084758I309570J0D01*
G01X1283058Y-1084758D01*
G03X1281430Y-1004748I-1966760J-0D01*
G37*
G36*
G01X1136932Y-1225832D02*
G01X1111532Y-1225832D01*
G03X1093117Y-1195248I-34605J0D01*
G01X1155347Y-1195248D01*
G03X1136932Y-1225832I16190J-30584D01*
G37*
G36*
G01X1326873Y-1225827D02*
G01X1301473Y-1225827D01*
G03X1283058Y-1195248I-34597J0D01*
G01X1345288Y-1195248D01*
G03X1326873Y-1225827I16182J-30579D01*
G37*
G36*
G01X1340843Y-1491973D02*
G01X1287503Y-1491973D01*
G03X1283058Y-1455242I-153984J0D01*
G01X1345288Y-1455242D01*
G03X1340843Y-1491973I149539J-36731D01*
G37*
G36*
G01X1550670Y-1473200D02*
G01X1497330Y-1473200D01*
G03X1479000Y-1430802I-58199J0D01*
G01X1569000Y-1430802D01*
G03X1550670Y-1473200I39869J-42398D01*
G37*
G36*
G01X1649010Y-1364132D02*
G01X1649010Y-1417472D01*
G03X1569000Y-1430802I0J-246786D01*
G01X1569000Y-1350802D01*
G03X1649010Y-1364132I80010J233456D01*
G37*
G36*
G01X1576790Y-1417472D02*
G01X1576790Y-1364132D01*
G03X1656800Y-1350802I0J246786D01*
G01X1656800Y-1430802D01*
G03X1576790Y-1417472I-80010J-233456D01*
G37*
G36*
G01X1826810Y-1364132D02*
G01X1826810Y-1417472D01*
G03X1746800Y-1430802I0J-246786D01*
G01X1746800Y-1350802D01*
G03X1826810Y-1364132I80010J233456D01*
G37*
G36*
G01X1756390Y-1417472D02*
G01X1756390Y-1364132D01*
G03X1836400Y-1343113I0J162785D01*
G01X1836400Y-1423760D01*
G03X1756390Y-1417472I-80010J-505906D01*
G37*
G36*
G01X2002810Y-1356766D02*
G01X2002810Y-1410106D01*
G03X1922800Y-1423760I0J-241253D01*
G01X1922800Y-1343113D01*
G03X2002810Y-1356766I80010J227599D01*
G37*
G36*
G01X2352971Y-941070D02*
G01X2352971Y-887730D01*
G03X2432981Y-874509I0J248711D01*
G01X2432981Y-955157D01*
G03X2352971Y-941070I-80010J-220180D01*
G37*
G36*
G01X2599392Y-888163D02*
G01X2599392Y-941503D01*
G03X2519382Y-955157I0J-241253D01*
G01X2519382Y-874509D01*
G03X2599392Y-888163I80010J227599D01*
G37*
G36*
G01X2541970Y-941503D02*
G01X2541970Y-888163D01*
G03X2621980Y-874509I0J241253D01*
G01X2621980Y-955157D01*
G03X2541970Y-941503I-80010J-227599D01*
G37*
G36*
G01X2788390Y-888163D02*
G01X2788390Y-941503D01*
G03X2708380Y-955157I0J-241253D01*
G01X2708380Y-874509D01*
G03X2788390Y-888163I80010J227599D01*
G37*
G36*
G01X3360330Y-1068070D02*
G01X3360330Y-1014730D01*
G03X3440340Y-998200I0J201897D01*
G01X3440340Y-1084600D01*
G03X3360330Y-1068070I-80010J-185367D01*
G37*
G36*
G01X4039514Y-2859329D02*
G01X4039514Y-2912669D01*
G03X3959504Y-2935999I0J-148862D01*
G01X3959504Y-2835999D01*
G03X4039514Y-2859329I80010J125533D01*
G37*
G36*
G01X4217670Y-2844800D02*
G01X4164330Y-2844800D01*
G03X4148224Y-2776048I-154792J0D01*
G01X4228871Y-2776048D01*
G03X4217670Y-2844800I205390J-68752D01*
G37*
G36*
G01X1728470Y-1510812D02*
G01X1675130Y-1510812D01*
G03X1656800Y-1430802I-183787J0D01*
G01X1746800Y-1430802D01*
G03X1728470Y-1510812I165457J-80010D01*
G37*
G36*
G01X1675130Y-1571142D02*
G01X1728470Y-1571142D01*
G01X1728756Y-1580362D01*
G01X1729511Y-1588977D01*
G01X1730577Y-1595674D01*
G01X1731800Y-1599143D01*
G01X1671800Y-1599143D01*
G01X1673023Y-1595674D01*
G01X1674089Y-1588977D01*
G01X1674844Y-1580362D01*
G01X1675130Y-1571142D01*
G37*
G36*
G01X4268470Y-2095500D02*
G01X4215130Y-2095500D01*
G03X4200613Y-2024400I-181366J0D01*
G01X4281260Y-2024400D01*
G03X4268470Y-2095500I191224J-71100D01*
G37*
G36*
G01X4215130Y-2041043D02*
G01X4268470Y-2041043D01*
G01X4268756Y-2050262D01*
G01X4269511Y-2058877D01*
G01X4270577Y-2065574D01*
G01X4271800Y-2069043D01*
G01X4211800Y-2069043D01*
G01X4213023Y-2065574D01*
G01X4214089Y-2058877D01*
G01X4214844Y-2050262D01*
G01X4215130Y-2041043D01*
G37*
G36*
G01X4025175Y-2651548D02*
G01X4050575Y-2651548D01*
G03X4069625Y-2689648I47625J0D01*
G01X4006125Y-2689648D01*
G03X4025175Y-2651548I-28575J38100D01*
G37*
G36*
G01X4538203Y-2400300D02*
G01X4538203Y-2374900D01*
G03X4576303Y-2355850I0J47625D01*
G01X4576303Y-2419350D01*
G03X4538203Y-2400300I-38100J-28575D01*
G37*
G36*
G01X3900170Y-1355110D02*
G01X3846830Y-1355110D01*
G03X3832313Y-1275100I-227740J0D01*
G01X3912960Y-1275100D01*
G03X3900170Y-1355110I243859J-80010D01*
G37*
G36*
G01X3846830Y-1317143D02*
G01X3900170Y-1317143D01*
G01X3900456Y-1326362D01*
G01X3901211Y-1334977D01*
G01X3902277Y-1341674D01*
G01X3903500Y-1345143D01*
G01X3843500Y-1345143D01*
G01X3844723Y-1341674D01*
G01X3845789Y-1334977D01*
G01X3846544Y-1326362D01*
G01X3846830Y-1317143D01*
G37*
G36*
G01X1207778Y-2558407D02*
G01X1154438Y-2558407D01*
G01X1154151Y-2549188D01*
G01X1153397Y-2540573D01*
G01X1152330Y-2533875D01*
G01X1151108Y-2530407D01*
G01X1211108Y-2530407D01*
G01X1209885Y-2533875D01*
G01X1208818Y-2540573D01*
G01X1208064Y-2549188D01*
G01X1207778Y-2558407D01*
G37*
G36*
G01X1154438Y-2598335D02*
G01X1207778Y-2598335D01*
G03X1224308Y-2678345I201897J0D01*
G01X1137907Y-2678345D01*
G03X1154438Y-2598335I-185367J80010D01*
G37*
G36*
G01X2757170Y-482122D02*
G01X2703830Y-482122D01*
G03X2684607Y-402112I-176117J0D01*
G01X2774606Y-402112D01*
G03X2757170Y-482122I174852J-80010D01*
G37*
G36*
G01X2703830Y-453543D02*
G01X2757170Y-453543D01*
G01X2757456Y-462762D01*
G01X2758211Y-471377D01*
G01X2759277Y-478074D01*
G01X2760500Y-481543D01*
G01X2700500Y-481543D01*
G01X2701723Y-478074D01*
G01X2702789Y-471377D01*
G01X2703544Y-462762D01*
G01X2703830Y-453543D01*
G37*
G36*
G01X1839925Y-236476D02*
G01X1868663Y-207739D01*
G03X1909538Y-231102I63285J63285D01*
G01X1859037Y-273101D01*
G03X1839925Y-236476I-67837J-12101D01*
G37*
G36*
G01X1854294Y-201788D02*
G01X1854294Y-242428D01*
G03X1808686Y-262108I0J-62689D01*
G01X1808686Y-182108D01*
G03X1854294Y-201788I45608J43009D01*
G37*
G36*
G01X1657726Y-242428D02*
G01X1657726Y-201788D01*
G03X1718686Y-182108I0J104254D01*
G01X1718686Y-262108D01*
G03X1657726Y-242428I-60960J-84574D01*
G37*
G36*
G01X1723776Y-528320D02*
G01X1723776Y-487680D01*
G01X1730801Y-487461D01*
G01X1737368Y-486881D01*
G01X1742477Y-486063D01*
G01X1745126Y-485125D01*
G01X1745126Y-530875D01*
G01X1742477Y-529937D01*
G01X1737368Y-529119D01*
G01X1730801Y-528539D01*
G01X1723776Y-528320D01*
G37*
G36*
G01X2623647Y-373350D02*
G01X2623647Y-332710D01*
G03X2684607Y-322113I0J180639D01*
G01X2684607Y-402112D01*
G03X2623647Y-373350I-60960J-50218D01*
G37*
G36*
G01X2573122Y-297524D02*
G01X2598522Y-292070D01*
G03X2600046Y-332710I542625J0D01*
G01X2571968Y-338164D01*
G03X2573122Y-297524I-715076J40640D01*
G37*
G36*
G01X2598522Y-346128D02*
G01X2573122Y-346128D01*
G03X2563322Y-308028I-78957J0D01*
G01X2608323Y-308028D01*
G03X2598522Y-346128I69157J-38100D01*
G37*
G36*
G01X1844527Y-2872232D02*
G01X1844527Y-2925572D01*
G01X1835308Y-2925858D01*
G01X1826693Y-2926613D01*
G01X1819995Y-2927679D01*
G01X1816527Y-2928902D01*
G01X1816527Y-2868902D01*
G01X1819995Y-2870125D01*
G01X1826693Y-2871191D01*
G01X1835308Y-2871946D01*
G01X1844527Y-2872232D01*
G37*
G36*
G01X1794490Y-2925572D02*
G01X1794490Y-2872232D01*
G03X1874500Y-2854413I0J188535D01*
G01X1874500Y-2935060D01*
G03X1794490Y-2925572I-80010J-332603D01*
G37*
G36*
G01X2247595Y-2873299D02*
G01X2247595Y-2898699D01*
G03X2209495Y-2917749I0J-47625D01*
G01X2209495Y-2854249D01*
G03X2247595Y-2873299I38100J28575D01*
G37*
G36*
G01X2678967Y-1453318D02*
G01X2653567Y-1453318D01*
G03X2634517Y-1415218I-47625J0D01*
G01X2698017Y-1415218D01*
G03X2678967Y-1453318I28575J-38100D01*
G37*
G36*
G01X900430Y-1353730D02*
G01X953770Y-1353730D01*
G03X970300Y-1433740I201897J0D01*
G01X883900Y-1433740D01*
G03X900430Y-1353730I-185367J80010D01*
G37*
G36*
G01X953770Y-1745070D02*
G01X900430Y-1745070D01*
G03X883900Y-1665060I-201897J0D01*
G01X970300Y-1665060D01*
G03X953770Y-1745070I185367J-80010D01*
G37*
G36*
G01X953770Y-1732318D02*
G03X1007110Y-1892338I266700J0D01*
G01X924097Y-1919008D01*
G01X847090Y-1892338D01*
G03X900430Y-1732318I-213360J160020D01*
G01X953770Y-1732318D01*
G37*
G36*
G01X842413Y-1892338D02*
G01X842413Y-1945678D01*
G03X762403Y-1946509I1J-3854195D01*
G01X762403Y-1891508D01*
G03X842413Y-1892338I80011J3853364D01*
G37*
G36*
G01X1733000Y-2444598D02*
G01X1733000Y-2419198D01*
G03X1771100Y-2404598I0J57013D01*
G01X1771100Y-2463648D01*
G03X1733000Y-2444598I-38100J-28575D01*
G37*
G36*
G01X1899200Y-2419198D02*
G01X1899200Y-2444598D01*
G03X1861100Y-2463648I0J-47625D01*
G01X1861100Y-2404598D01*
G03X1899200Y-2419198I38100J42413D01*
G37*
G36*
G01X1971396Y-2444598D02*
G01X1971396Y-2419198D01*
G03X2009496Y-2400148I0J47625D01*
G01X2009496Y-2463648D01*
G03X1971396Y-2444598I-38100J-28575D01*
G37*
G36*
G01X640846Y-2339606D02*
G01X640846Y-2314206D01*
G03X652403Y-2319019I11557J11469D01*
G01X652403Y-2349019D01*
G03X640846Y-2339606I-11557J-2388D01*
G37*
G36*
G01X600324Y-2235200D02*
G01X600324Y-2260600D01*
G01X595729Y-2261475D01*
G01X589972Y-2263780D01*
G01X584053Y-2267039D01*
G01X578974Y-2270775D01*
G01X578974Y-2225025D01*
G01X584053Y-2228761D01*
G01X589972Y-2232020D01*
G01X595729Y-2234325D01*
G01X600324Y-2235200D01*
G37*
G36*
G01X640846Y-2039607D02*
G01X640846Y-2014207D01*
G03X652403Y-2019019I11557J11469D01*
G01X652403Y-2049019D01*
G03X640846Y-2039607I-11557J-2388D01*
G37*
G36*
G01X504576Y-2146300D02*
G01X504576Y-2120900D01*
G01X509171Y-2120025D01*
G01X514928Y-2117720D01*
G01X520847Y-2114461D01*
G01X525926Y-2110725D01*
G01X525926Y-2156475D01*
G01X520847Y-2152739D01*
G01X514928Y-2149480D01*
G01X509171Y-2147175D01*
G01X504576Y-2146300D01*
G37*
G36*
G01X4532630Y-2866543D02*
G01X4585970Y-2866543D01*
G01X4586256Y-2875762D01*
G01X4587011Y-2884377D01*
G01X4588077Y-2891074D01*
G01X4589300Y-2894543D01*
G01X4529300Y-2894543D01*
G01X4530523Y-2891074D01*
G01X4531589Y-2884377D01*
G01X4532344Y-2875762D01*
G01X4532630Y-2866543D01*
G37*
G36*
G01X4585970Y-2844312D02*
G01X4532630Y-2844312D01*
G03X4514300Y-2764302I-183787J0D01*
G01X4604300Y-2764302D01*
G03X4585970Y-2844312I165457J-80010D01*
G37*
G36*
G01X4308881Y-2706178D02*
G01X4308881Y-2759518D01*
G03X4228871Y-2776048I0J-201897D01*
G01X4228871Y-2689648D01*
G03X4308881Y-2706178I80010J185367D01*
G37*
G36*
G01X4256490Y-2759518D02*
G01X4256490Y-2706178D01*
G03X4336500Y-2684302I0J157257D01*
G01X4336500Y-2764302D01*
G03X4256490Y-2759518I-80010J-666620D01*
G37*
G36*
G01X4434290Y-2750972D02*
G01X4434290Y-2697632D01*
G03X4514300Y-2684302I0J246786D01*
G01X4514300Y-2764302D01*
G03X4434290Y-2750972I-80010J-233456D01*
G37*
G36*
G01X4506510Y-2697632D02*
G01X4506510Y-2750972D01*
G03X4426500Y-2764302I0J-246786D01*
G01X4426500Y-2684302D01*
G03X4506510Y-2697632I80010J233456D01*
G37*
G36*
G01X2120900Y-190500D02*
G03X2095500Y-114300I-127000J0D01*
G01X2133600Y-101600D01*
G01X2171700Y-114300D01*
G03X2146300Y-190500I101600J-76200D01*
G01X2120900Y-190500D01*
G37*
G36*
G01X2298700Y-190500D02*
G02X2324100Y-114300I127000J0D01*
G01X2286000Y-101600D01*
G01X2247900Y-114300D01*
G02X2273300Y-190500I-101600J-76200D01*
G01X2298700Y-190500D01*
G37*
G04 TearDrop End*

G04 Pad Start*
G54D12*
G01X1130300Y-971702D03*
G01X1130300Y-831698D03*
G01X1308100Y-971702D03*
G01X1308100Y-831698D03*
G01X1701800Y-1390802D03*
G01X1701800Y-1250798D03*
G01X1524000Y-1390802D03*
G01X1524000Y-1250798D03*
G01X4559300Y-2584298D03*
G01X4559300Y-2724302D03*
G01X4381500Y-2584298D03*
G01X4381500Y-2724302D03*
G01X4203700Y-2559202D03*
G01X4203700Y-2419198D03*
G54D13*
G01X4616303Y-2387600D03*
G01X4756307Y-2387600D03*
G54D12*
G01X1763686Y-222108D03*
G01X1763686Y-362113D03*
G01X2729606Y-222108D03*
G01X2729606Y-362113D03*
G01X835530Y-2724008D03*
G01X835530Y-2864013D03*
G01X1013330Y-2724008D03*
G01X1013330Y-2864013D03*
G01X1816100Y-2584602D03*
G01X1816100Y-2444598D03*
G54D13*
G01X4616303Y-1485900D03*
G01X4756307Y-1485900D03*
G54D14*
G01X1002690Y-2102104D03*
G01X1002690Y-2197100D03*
G01X1002690Y-2292096D03*
G01X1232510Y-2292096D03*
G01X1232510Y-2197100D03*
G01X1232510Y-2102104D03*
G54D16*
G01X927100Y-1474064D03*
G01X927100Y-1624736D03*
G54D17*
G01X4826000Y-1270000D03*
G54D18*
G01X4826000Y-1016000D03*
G01X4826000Y-762000D03*
G01X4826000Y-508000D03*
G54D17*
G01X533400Y-177800D03*
G54D18*
G01X787400Y-177800D03*
G01X1041400Y-177800D03*
G01X1295400Y-177800D03*
G54D19*
G01X1879951Y-1083246D03*
G01X1879239Y-923353D03*
G54D20*
G01X2666242Y-1225419D03*
G01X2666267Y-1375218D03*
G01X2477243Y-1225419D03*
G01X2477268Y-1375218D03*
G54D16*
G01X1879600Y-1383436D03*
G01X1879600Y-1232764D03*
G54D21*
G01X1550264Y-2304796D03*
G01X1700936Y-2304796D03*
G01X1550264Y-2114804D03*
G01X1700936Y-2114804D03*
G01X4188548Y-2732848D03*
G01X4037875Y-2732848D03*
G54D16*
G01X1181108Y-2869341D03*
G01X1181108Y-2718669D03*
G01X1661030Y-2869341D03*
G01X1661030Y-2718669D03*
G54D21*
G01X3631336Y-1041400D03*
G01X3480664Y-1041400D03*
G01X3721964Y-1231900D03*
G01X3872636Y-1231900D03*
G54D16*
G01X1917700Y-2894736D03*
G01X1917700Y-2744064D03*
G54D21*
G01X4240936Y-1981200D03*
G01X4090264Y-1981200D03*
G54D16*
G01X2476181Y-914833D03*
G01X2476181Y-1065506D03*
G01X2665180Y-914833D03*
G01X2665180Y-1065506D03*
G54D22*
G01X126794Y-1227899D03*
G01X126794Y-977887D03*
G01X126794Y-727900D03*
G01X736806Y-1227899D03*
G01X736806Y-977887D03*
G01X736806Y-727900D03*
G54D23*
G01X4904791Y-2131764D03*
G01X4467809Y-2131764D03*
G01X4904791Y-1748268D03*
G01X4467809Y-1748268D03*
G54D24*
G01X2488312Y-288028D03*
G54D25*
G01X2390801Y-353030D03*
G01X2390801Y-288028D03*
G01X2390801Y-223027D03*
G01X2585822Y-223027D03*
G01X2585822Y-288028D03*
G01X2585822Y-353030D03*
G54D26*
G01X2019771Y-332111D03*
G01X2019771Y-252101D03*
G01X1884288Y-252101D03*
G01X1884288Y-332111D03*
G54D27*
G01X1952029Y-292106D03*
G54D28*
G01X1397792Y-2890505D03*
G01X1397792Y-2697508D03*
G01X1502783Y-2697508D03*
G01X1502783Y-2890505D03*
G54D29*
G01X3859505Y-2885999D03*
G01X3859505Y-2736012D03*
G01X3859505Y-2585999D03*
G01X3859505Y-2436012D03*
G01X3859505Y-2286000D03*
G01X3859505Y-2136013D03*
G01X3859505Y-1986001D03*
G01X3859505Y-1836014D03*
G01X3859505Y-1686001D03*
G01X2109495Y-1686001D03*
G01X2109495Y-1836014D03*
G01X2109495Y-1986001D03*
G01X2109495Y-2136013D03*
G01X2109495Y-2286000D03*
G01X2109495Y-2436012D03*
G01X2109495Y-2585999D03*
G01X2109495Y-2736012D03*
G01X2109495Y-2885999D03*
G54D30*
G01X2998495Y-2376018D03*
G01X2998495Y-2266010D03*
G01X2998495Y-2156003D03*
G01X2888513Y-2376018D03*
G01X2888513Y-2266010D03*
G01X2888513Y-2156003D03*
G01X2778506Y-2156003D03*
G01X2778506Y-2266010D03*
G01X2778506Y-2376018D03*
G54D31*
G01X1124232Y-1399997D03*
G01X1314173Y-1399997D03*
G01X1314173Y-1140003D03*
G01X1219253Y-1140003D03*
G01X1124232Y-1140003D03*
G54D32*
G01X707403Y-1838998D03*
G01X707403Y-1919008D03*
G54D33*
G01X707403Y-1984007D03*
G01X707403Y-2034019D03*
G01X707403Y-2084006D03*
G01X707403Y-2133994D03*
G01X707403Y-2184006D03*
G01X707403Y-2233993D03*
G01X707403Y-2284006D03*
G01X707403Y-2334019D03*
G54D32*
G01X707403Y-2399017D03*
G01X707403Y-2479002D03*
G54D34*
G01X652412Y-1726501D03*
G01X652412Y-2591498D03*
G54D35*
G01X232397Y-1726501D03*
G01X232397Y-2591498D03*
G04 Pad End*

G04 Via Start*
G54D36*
G01X190904Y-189972D03*
G01X189972Y-2806700D03*
G01X4810028Y-194964D03*
G01X4810028Y-2810028D03*
G54D37*
G01X2336800Y-1836014D03*
G01X2336800Y-1986001D03*
G54D38*
G01X1701800Y-1625600D03*
G01X4241800Y-2095500D03*
G01X4559300Y-2921000D03*
G01X3873500Y-1371600D03*
G01X1790070Y-2898902D03*
G01X1181108Y-2503950D03*
G01X2730500Y-508000D03*
G54D37*
G01X1765300Y-508000D03*
G01X4607814Y-932186D03*
G01X4607814Y-424186D03*
G01X4607814Y-1948186D03*
G01X3247588Y-2456186D03*
G01X3247588Y-1440186D03*
G01X3238500Y-177800D03*
G01X1955800Y-482600D03*
G01X1892300Y-482600D03*
G01X2019300Y-482600D03*
G01X2019300Y-546100D03*
G01X1955800Y-546100D03*
G01X1892300Y-546100D03*
G01X2489200Y-457200D03*
G01X2489200Y-520700D03*
G01X2552700Y-457200D03*
G01X2552700Y-520700D03*
G01X2425700Y-520700D03*
G01X2425700Y-457200D03*
G01X2921000Y-177800D03*
G01X2921000Y-241300D03*
G01X2984500Y-177800D03*
G01X2984500Y-241300D03*
G01X2857500Y-304800D03*
G01X2921000Y-304800D03*
G01X2984500Y-304800D03*
G01X2857500Y-241300D03*
G01X2857500Y-177800D03*
G01X3111500Y-177800D03*
G01X3111500Y-241300D03*
G01X3175000Y-177800D03*
G01X3175000Y-241300D03*
G01X3048000Y-304800D03*
G01X3111500Y-304800D03*
G01X3175000Y-304800D03*
G01X3048000Y-241300D03*
G01X3048000Y-177800D03*
G01X3302000Y-177800D03*
G01X3302000Y-241300D03*
G01X3365500Y-177800D03*
G01X3365500Y-241300D03*
G01X3238500Y-304800D03*
G01X3302000Y-304800D03*
G01X3365500Y-304800D03*
G01X3238500Y-241300D03*
G01X177800Y-1968500D03*
G01X177800Y-2032000D03*
G01X241300Y-1968500D03*
G01X241300Y-2032000D03*
G01X114300Y-2095500D03*
G01X177800Y-2095500D03*
G01X241300Y-2095500D03*
G01X114300Y-2032000D03*
G01X114300Y-1968500D03*
G01X177800Y-2159000D03*
G01X177800Y-2222500D03*
G01X241300Y-2159000D03*
G01X241300Y-2222500D03*
G01X114300Y-2286000D03*
G01X177800Y-2286000D03*
G01X241300Y-2286000D03*
G01X114300Y-2222500D03*
G01X114300Y-2159000D03*
G01X647700Y-2692400D03*
G01X647700Y-2755900D03*
G01X711200Y-2692400D03*
G01X711200Y-2755900D03*
G01X584200Y-2819400D03*
G01X647700Y-2819400D03*
G01X711200Y-2819400D03*
G01X584200Y-2755900D03*
G01X584200Y-2692400D03*
G01X457200Y-2692400D03*
G01X457200Y-2755900D03*
G01X520700Y-2692400D03*
G01X520700Y-2755900D03*
G01X393700Y-2819400D03*
G01X457200Y-2819400D03*
G01X520700Y-2819400D03*
G01X393700Y-2755900D03*
G01X393700Y-2692400D03*
G01X850900Y-2540000D03*
G01X914400Y-2540000D03*
G01X850900Y-2476500D03*
G01X914400Y-2476500D03*
G01X1041400Y-2540000D03*
G01X977900Y-2476500D03*
G01X1041400Y-2476500D03*
G01X977900Y-2540000D03*
G01X1384300Y-2590800D03*
G01X1447800Y-2590800D03*
G01X1511300Y-2590800D03*
G01X4013200Y-1485900D03*
G01X4013200Y-1549400D03*
G01X4076700Y-1485900D03*
G01X4076700Y-1549400D03*
G01X3949700Y-1612900D03*
G01X4013200Y-1612900D03*
G01X4076700Y-1612900D03*
G01X3949700Y-1549400D03*
G01X3949700Y-1485900D03*
G01X4864100Y-2273300D03*
G01X4864100Y-2336800D03*
G01X4927600Y-2273300D03*
G01X4927600Y-2336800D03*
G01X4864100Y-2400300D03*
G01X4927600Y-2400300D03*
G01X4927600Y-1892300D03*
G01X4927600Y-1955800D03*
G01X4902200Y-1549400D03*
G01X4495800Y-1358900D03*
G01X4432300Y-1358900D03*
G01X4495800Y-1231900D03*
G01X4495800Y-1295400D03*
G01X4432300Y-1295400D03*
G01X4432300Y-1231900D03*
G01X1689100Y-1117600D03*
G01X1625600Y-1117600D03*
G01X1562100Y-1117600D03*
G01X1498600Y-1117600D03*
G01X1498600Y-1054100D03*
G01X1689100Y-1054100D03*
G01X1625600Y-1054100D03*
G01X1562100Y-1054100D03*
G01X1498600Y-990600D03*
G01X1689100Y-990600D03*
G01X1625600Y-990600D03*
G01X1562100Y-990600D03*
G01X1498600Y-927100D03*
G01X1689100Y-927100D03*
G01X1625600Y-927100D03*
G01X1562100Y-927100D03*
G01X1498600Y-863600D03*
G01X1689100Y-863600D03*
G01X1625600Y-863600D03*
G01X1562100Y-863600D03*
G01X1498600Y-800100D03*
G01X1689100Y-800100D03*
G01X1625600Y-800100D03*
G01X1562100Y-800100D03*
G01X1498600Y-736600D03*
G01X1689100Y-736600D03*
G01X1625600Y-736600D03*
G01X1562100Y-736600D03*
G01X1003300Y-749300D03*
G01X1003300Y-812800D03*
G01X1003300Y-685800D03*
G01X88900Y-812800D03*
G01X152400Y-812800D03*
G01X88900Y-876300D03*
G01X152400Y-876300D03*
G01X95250Y-1073150D03*
G01X158750Y-1073150D03*
G01X95250Y-1136650D03*
G01X158750Y-1136650D03*
G01X876300Y-2197100D03*
G01X1738159Y-2516274D03*
G01X1905000Y-2514600D03*
G01X1969361Y-2514144D03*
G01X558800Y-2247900D03*
G01X546100Y-2133600D03*
G01X4076700Y-177800D03*
G01X4076700Y-304800D03*
G01X4076700Y-241300D03*
G01X4140200Y-177800D03*
G01X4140200Y-241300D03*
G01X4140200Y-304800D03*
G01X4203700Y-304800D03*
G01X4203700Y-241300D03*
G01X4203700Y-177800D03*
G01X4267200Y-177800D03*
G01X4267200Y-241300D03*
G01X4267200Y-304800D03*
G01X4076700Y-368300D03*
G01X4076700Y-495300D03*
G01X4076700Y-431800D03*
G01X4140200Y-368300D03*
G01X4140200Y-431800D03*
G01X4140200Y-495300D03*
G01X4203700Y-495300D03*
G01X4203700Y-431800D03*
G01X4203700Y-368300D03*
G01X4267200Y-368300D03*
G01X4267200Y-431800D03*
G01X4267200Y-495300D03*
G01X2984500Y-1181100D03*
G01X2984500Y-1308100D03*
G01X2984500Y-1244600D03*
G01X3048000Y-1181100D03*
G01X3048000Y-1244600D03*
G01X3048000Y-1308100D03*
G01X3111500Y-1308100D03*
G01X3111500Y-1244600D03*
G01X3111500Y-1181100D03*
G01X3175000Y-1181100D03*
G01X3175000Y-1308100D03*
G01X3175000Y-1244600D03*
G01X3238500Y-1181100D03*
G01X3238500Y-1244600D03*
G01X3238500Y-1308100D03*
G01X3302000Y-1308100D03*
G01X3302000Y-1244600D03*
G01X3302000Y-1181100D03*
G01X3073400Y-711200D03*
G01X3073400Y-838200D03*
G01X3073400Y-774700D03*
G01X3136900Y-711200D03*
G01X3136900Y-774700D03*
G01X3136900Y-838200D03*
G01X3200400Y-838200D03*
G01X3200400Y-774700D03*
G01X3200400Y-711200D03*
G01X3263900Y-711200D03*
G01X3263900Y-838200D03*
G01X3263900Y-774700D03*
G01X3327400Y-711200D03*
G01X3327400Y-774700D03*
G01X3327400Y-838200D03*
G01X3390900Y-838200D03*
G01X3390900Y-774700D03*
G01X3390900Y-711200D03*
G01X1562100Y-1879600D03*
G01X1498600Y-1879600D03*
G01X1435100Y-1879600D03*
G01X1562100Y-1943100D03*
G01X1498600Y-1943100D03*
G01X1435100Y-1943100D03*
G01X1562100Y-1816100D03*
G01X1498600Y-1816100D03*
G01X1435100Y-1816100D03*
G04 Via End*

G04 Track Start*
G54D11*
G01X707403Y-2184006D02*
G01X700290Y-2176894D01*
G01X640846Y-2176894D01*
G01X624503Y-2160550D01*
G01X624503Y-2107437D01*
G01X640846Y-2091094D01*
G01X700316Y-2091094D01*
G01X707403Y-2084006D01*
G01X707403Y-2133994D02*
G01X709663Y-2136254D01*
G01X717124Y-2136254D01*
G01X721976Y-2141106D01*
G01X773959Y-2141106D01*
G01X790303Y-2157450D01*
G01X790303Y-2210563D01*
G01X773959Y-2226906D01*
G01X714490Y-2226906D01*
G01X707403Y-2233993D01*
G01X714515Y-2241106D01*
G01X773959Y-2241106D01*
G01X707403Y-2084006D02*
G01X714490Y-2091094D01*
G01X792431Y-2102104D02*
G01X1002690Y-2102104D01*
G01X714490Y-2091094D02*
G01X781420Y-2091094D01*
G01X792431Y-2102104D01*
G01X1902816Y-2189480D02*
G01X1904022Y-2190686D01*
G01X1984096Y-2136013D02*
G01X2109495Y-2136013D01*
G01X1984096Y-2286000D02*
G01X2109495Y-2286000D01*
G01X1904022Y-2190686D02*
G01X1929422Y-2190686D01*
G01X1984096Y-2136013D01*
G01X1929422Y-2231326D02*
G01X1984096Y-2286000D01*
G01X1885982Y-2230120D02*
G01X1887189Y-2231326D01*
G01X1929422Y-2231326D01*
G01X1232510Y-2102104D02*
G01X1302004Y-2102104D01*
G01X1376680Y-2176780D01*
G01X1232510Y-2292096D02*
G01X1302004Y-2292096D01*
G01X1464056Y-2304796D02*
G01X1550264Y-2304796D01*
G01X1376680Y-2176780D02*
G01X1442720Y-2176780D01*
G01X1504696Y-2114804D01*
G01X1550264Y-2114804D01*
G01X1700936Y-2114804D02*
G01X1746504Y-2114804D01*
G01X1821180Y-2189480D01*
G01X1902816Y-2189480D01*
G01X1700936Y-2304796D02*
G01X1746504Y-2304796D01*
G01X1821180Y-2230120D01*
G01X1885982Y-2230120D01*
G01X773959Y-2241106D02*
G01X824949Y-2292096D01*
G01X1002690Y-2292096D01*
G01X1302004Y-2292096D02*
G01X1346200Y-2247900D01*
G01X1407160Y-2247900D01*
G01X1464056Y-2304796D01*
G01X1661030Y-2869341D02*
G01X1639867Y-2890505D01*
G01X1502783Y-2890505D01*
G01X1397792Y-2890505D02*
G01X1313025Y-2890505D01*
G01X1291862Y-2869341D02*
G01X1181108Y-2869341D01*
G01X1313025Y-2890505D02*
G01X1291862Y-2869341D01*
G01X1181108Y-2869341D02*
G01X1018659Y-2869341D01*
G01X1013330Y-2864013D01*
G01X835530Y-2864013D01*
G01X1661030Y-2718669D02*
G01X1661030Y-2466470D01*
G01X2105381Y-2431898D02*
G01X2109495Y-2436012D01*
G01X3859505Y-2736012D02*
G01X4034711Y-2736012D01*
G01X4037875Y-2732848D01*
G01X4188548Y-2732848D02*
G01X4203700Y-2717696D01*
G01X4203700Y-2559202D01*
G01X4467809Y-2131764D02*
G01X4557464Y-2131764D01*
G01X4616303Y-2190603D01*
G01X4616303Y-2387600D01*
G01X3864991Y-1841500D02*
G01X3859505Y-1836014D01*
G01X4616303Y-1485900D02*
G01X4406900Y-1485900D01*
G01X4330700Y-1841500D02*
G01X3864991Y-1841500D01*
G01X4406900Y-1485900D02*
G01X4368800Y-1524000D01*
G01X4368800Y-1803400D01*
G01X4330700Y-1841500D01*
G01X4616303Y-1485900D02*
G01X4616303Y-1708297D01*
G01X4576332Y-1748268D01*
G01X4467809Y-1748268D01*
G01X3859505Y-2436012D02*
G01X3734105Y-2436012D01*
G01X3716144Y-2418052D01*
G01X3859505Y-2585999D02*
G01X3671978Y-2585999D01*
G01X3632200Y-2546221D01*
G01X3632200Y-749300D01*
G01X3492500Y-609600D02*
G01X3632200Y-749300D01*
G01X787400Y-533400D02*
G01X863600Y-609600D01*
G01X787400Y-533400D02*
G01X787400Y-177800D01*
G01X3716144Y-172844D02*
G01X3644900Y-101600D01*
G01X1600200Y-101600D02*
G01X1549400Y-152400D01*
G01X1549400Y-469900D01*
G01X1498600Y-520700D01*
G01X1117600Y-520700D01*
G01X1041400Y-444500D01*
G01X1041400Y-177800D01*
G01X3716144Y-2418052D02*
G01X3716144Y-172844D01*
G01X2019771Y-332111D02*
G01X2097411Y-332111D01*
G01X2133600Y-368300D01*
G01X2133600Y-608931D01*
G01X2134269Y-609600D01*
G01X863600Y-609600D02*
G01X2134269Y-609600D01*
G01X2019771Y-252101D02*
G01X2097399Y-252101D01*
G01X2133600Y-215900D01*
G01X2390801Y-223027D02*
G01X2318527Y-223027D01*
G01X2286000Y-190500D01*
G01X2390801Y-353030D02*
G01X2313970Y-353030D01*
G01X2273300Y-393700D01*
G01X2273300Y-605923D01*
G01X2269623Y-609600D01*
G01X2134269Y-609600D02*
G01X2269623Y-609600D01*
G01X3492500Y-609600D01*
G01X4090264Y-1981200D02*
G01X3864305Y-1981200D01*
G01X3859505Y-1986001D01*
G01X1917700Y-2744064D02*
G01X1917700Y-2628900D01*
G01X1960601Y-2585999D02*
G01X2109495Y-2585999D01*
G01X1917700Y-2628900D02*
G01X1960601Y-2585999D01*
G01X2109495Y-1986001D02*
G01X2336800Y-1986001D01*
G01X2109495Y-1836014D02*
G01X2336800Y-1836014D01*
G01X2476500Y-1441386D02*
G01X2477268Y-1440618D01*
G01X2477268Y-1375218D01*
G01X2109495Y-2736012D02*
G01X2420188Y-2736012D01*
G01X2476500Y-2679700D01*
G01X2476500Y-1441386D01*
G01X2477243Y-1225419D02*
G01X2477243Y-1066567D01*
G01X2476181Y-1065506D01*
G01X2666242Y-1225419D02*
G01X2666242Y-1066567D01*
G01X2665180Y-1065506D01*
G01X1879600Y-1232764D02*
G01X1879600Y-1083597D01*
G01X1879951Y-1083246D01*
G54D39*
G01X1055408Y-1919008D02*
G01X1117600Y-1981200D01*
G01X1117600Y-2349500D02*
G01X1066800Y-2400300D01*
G01X708685Y-2400300D01*
G01X707403Y-2399017D01*
G54D11*
G01X1232510Y-2197100D02*
G01X1118025Y-2197100D01*
G01X1117600Y-2197525D01*
G54D39*
G01X1117600Y-1981200D02*
G01X1117600Y-2197525D01*
G01X1117600Y-2349500D01*
G01X846900Y-1227899D02*
G01X736806Y-1227899D01*
G01X1124115Y-977887D02*
G01X1130300Y-971702D01*
G01X736806Y-727900D02*
G01X854901Y-727900D01*
G01X914400Y-787400D01*
G01X914400Y-976225D01*
G01X912737Y-977887D01*
G01X736806Y-977887D02*
G01X912737Y-977887D01*
G01X1124115Y-977887D01*
G01X1130300Y-971702D02*
G01X1308100Y-971702D01*
G01X1308100Y-1133930D01*
G01X1314173Y-1140003D01*
G54D11*
G01X1124232Y-1140003D02*
G01X1124232Y-1225832D01*
G01X1143000Y-1244600D01*
G01X1295400Y-1244600D01*
G01X1314173Y-1225827D01*
G01X1314173Y-1140003D01*
G54D39*
G01X1314173Y-1491973D02*
G01X1346200Y-1524000D01*
G01X1314173Y-1399997D02*
G01X1314173Y-1491973D01*
G01X1346200Y-1524000D02*
G01X1473200Y-1524000D01*
G01X1524000Y-1473200D01*
G01X1524000Y-1390802D01*
G01X1701800Y-1390802D01*
G01X1872234Y-1390802D01*
G01X1879600Y-1383436D01*
G01X2070964Y-1383436D01*
G01X2133600Y-1320800D01*
G01X2133600Y-990600D01*
G01X2209800Y-914400D01*
G01X2475748Y-914400D01*
G01X2476181Y-914833D01*
G01X2665180Y-914833D01*
G01X2972233Y-914833D01*
G01X3098800Y-1041400D01*
G01X3480664Y-1041400D01*
G01X3859505Y-2885999D02*
G01X4149801Y-2885999D01*
G01X4191000Y-2844800D01*
G01X4191000Y-2735300D01*
G01X4188548Y-2732848D01*
G01X1701800Y-1625600D02*
G01X1701800Y-1390802D01*
G01X4241800Y-2095500D02*
G01X4241800Y-1982064D01*
G01X4240936Y-1981200D01*
G54D11*
G01X4076700Y-2298700D02*
G01X4037875Y-2337525D01*
G01X4037875Y-2732848D01*
G01X4616303Y-2387600D02*
G01X4419600Y-2387600D01*
G01X4330700Y-2298700D01*
G01X4076700Y-2298700D01*
G54D39*
G01X3873500Y-1371600D02*
G01X3873500Y-1232764D01*
G01X3872636Y-1231900D01*
G01X1181108Y-2503950D02*
G01X1181108Y-2718669D01*
G01X2730500Y-508000D02*
G01X2730500Y-363006D01*
G01X2729606Y-362113D01*
G54D40*
G01X1884288Y-252101D02*
G01X1854294Y-222108D01*
G01X1763686Y-222108D01*
G01X1644792Y-222108D01*
G01X1612900Y-254000D01*
G01X1612900Y-444500D01*
G01X1676400Y-508000D01*
G01X1765300Y-508000D01*
G01X2585822Y-353030D02*
G01X2720523Y-353030D01*
G01X2729606Y-362113D01*
G54D11*
G01X2585822Y-353030D02*
G01X2585822Y-288028D01*
G54D39*
G01X1790070Y-2898902D02*
G01X1913534Y-2898902D01*
G01X1917700Y-2894736D01*
G54D11*
G01X2109495Y-2885999D02*
G01X2448001Y-2885999D01*
G01X2565400Y-2768600D01*
G01X2565400Y-1625600D01*
G01X2666267Y-1524733D01*
G01X2666267Y-1375218D01*
G54D39*
G01X927100Y-1308100D02*
G01X846900Y-1227899D01*
G01X927100Y-1474064D02*
G01X927100Y-1308100D01*
G01X927100Y-1624736D02*
G01X927100Y-1916005D01*
G01X924097Y-1919008D01*
G01X1055408Y-1919008D02*
G01X924097Y-1919008D01*
G01X707403Y-1919008D01*
G54D41*
G01X2888513Y-2376018D02*
G01X2888513Y-2266010D01*
G01X2998495Y-2266010D01*
G01X2998495Y-2376018D01*
G01X2888513Y-2376018D02*
G01X2778506Y-2376018D01*
G01X2778506Y-2266010D01*
G01X2778506Y-2156003D01*
G01X2888513Y-2156003D01*
G01X2998495Y-2156003D01*
G54D11*
G01X1661030Y-2466470D02*
G01X1695602Y-2431898D01*
G01X2105381Y-2431898D01*
G01X707403Y-2334019D02*
G01X700290Y-2326906D01*
G01X640846Y-2326906D01*
G01X624503Y-2310563D01*
G01X624503Y-2262803D02*
G01X609600Y-2247900D01*
G01X624503Y-2310563D02*
G01X624503Y-2262803D01*
G01X609600Y-2247900D02*
G01X558800Y-2247900D01*
G01X707403Y-2034019D02*
G01X700290Y-2026907D01*
G01X640846Y-2026907D01*
G01X622300Y-2008360D01*
G01X622300Y-1968500D01*
G01X601513Y-1947713D01*
G01X490687Y-1947713D02*
G01X469900Y-1968500D01*
G01X469900Y-2108200D01*
G01X601513Y-1947713D02*
G01X490687Y-1947713D01*
G01X469900Y-2108200D02*
G01X495300Y-2133600D01*
G01X546100Y-2133600D01*
G54D39*
G01X4559300Y-2921000D02*
G01X4559300Y-2724302D01*
G01X4398354Y-2724302D01*
G01X4188548Y-2732848D02*
G01X4398354Y-2732848D01*
G54D11*
G01X2286000Y-190500D02*
G01X2286000Y-101600D01*
G01X3644900Y-101600D02*
G01X2286000Y-101600D01*
G01X2133600Y-215900D02*
G01X2133600Y-101600D01*
G01X1600200Y-101600D01*
G01X2286000Y-101600D02*
G01X2133600Y-101600D01*
G04 Track End*

M02*

